<?xml version="1.0" encoding="UTF-8"?>
<svg id="thwaites" xmlns="http://www.w3.org/2000/svg" viewBox="0 0 200 200">
  <defs>
    <style>
      .cls-1 {
        stroke: #f38c15;
        stroke-width: 2px;
      }

      .cls-1, .cls-2, .cls-3, .cls-4 {
        stroke-miterlimit: 3.65;
      }

      .cls-1, .cls-3, .cls-4 {
        fill: none;
      }

      .cls-5 {
        fill: #f38c15;
      }

      .cls-6 {
        fill: #333;
      }

      .cls-7 {
        fill: #ccc;
      }

      .cls-2 {
        fill: #666;
        stroke: #333;
      }

      .cls-3 {
        stroke: #ccc;
      }

      .cls-4 {
        stroke: #666;
        stroke-width: .46px;
      }
    </style>
  </defs>
  <path class="cls-6" d="m94.82,198.86c-1.73-.09-3.45-.23-5.17-.41-1.72-.18-3.43-.41-5.14-.68-1.71-.27-3.41-.59-5.1-.94-1.69-.36-3.37-.76-5.04-1.21-1.67-.45-3.33-.94-4.97-1.47-1.64-.53-3.27-1.11-4.89-1.73s-3.21-1.28-4.79-1.98c-1.58-.7-3.14-1.45-4.68-2.23-1.54-.78-3.06-1.61-4.55-2.47-1.5-.86-2.97-1.77-4.42-2.71-1.45-.94-2.87-1.92-4.27-2.94-1.4-1.02-2.77-2.07-4.11-3.16s-2.66-2.21-3.94-3.37c-1.28-1.16-2.54-2.35-3.76-3.57s-2.41-2.48-3.57-3.76c-1.16-1.28-2.28-2.6-3.37-3.94s-2.14-2.71-3.16-4.11c-1.02-1.4-1.99-2.82-2.94-4.27s-1.84-2.92-2.71-4.42c-.86-1.5-1.69-3.02-2.47-4.55-.78-1.54-1.53-3.1-2.23-4.68-.7-1.58-1.36-3.18-1.98-4.79s-1.2-3.24-1.73-4.89c-.53-1.64-1.02-3.3-1.47-4.97-.45-1.67-.85-3.35-1.21-5.04-.36-1.69-.67-3.39-.94-5.1-.27-1.71-.5-3.42-.68-5.14-.18-1.72-.32-3.44-.41-5.17-.09-1.73-.14-3.45-.14-5.18s.05-3.46.14-5.18.23-3.45.41-5.17c.18-1.72.41-3.43.68-5.14.27-1.71.59-3.41.94-5.1.36-1.69.76-3.37,1.21-5.04.45-1.67.94-3.33,1.47-4.97.53-1.64,1.11-3.27,1.73-4.89.62-1.61,1.28-3.21,1.98-4.79s1.45-3.14,2.23-4.68,1.61-3.06,2.47-4.55c.86-1.5,1.77-2.97,2.71-4.42.94-1.45,1.92-2.87,2.94-4.27,1.02-1.4,2.07-2.77,3.16-4.11s2.21-2.66,3.37-3.94,2.35-2.54,3.57-3.76c1.22-1.22,2.48-2.41,3.76-3.57,1.28-1.16,2.6-2.28,3.94-3.37s2.71-2.14,4.11-3.16c1.4-1.02,2.82-1.99,4.27-2.94s2.92-1.84,4.42-2.71c1.5-.86,3.02-1.69,4.55-2.47,1.54-.78,3.1-1.53,4.68-2.23,1.58-.7,3.18-1.36,4.79-1.98,1.61-.62,3.24-1.2,4.89-1.73,1.64-.53,3.3-1.02,4.97-1.47,1.67-.45,3.35-.85,5.04-1.21,1.69-.36,3.39-.67,5.1-.94,1.71-.27,3.42-.5,5.14-.68s3.44-.32,5.17-.41,3.45-.14,5.18-.14,3.46.05,5.18.14,3.45.23,5.17.41c1.72.18,3.43.41,5.14.68,1.71.27,3.41.59,5.1.94,1.69.36,3.37.76,5.04,1.21,1.67.45,3.33.94,4.97,1.47,1.64.53,3.27,1.11,4.89,1.73s3.21,1.28,4.79,1.98c1.58.7,3.14,1.45,4.68,2.23,1.54.78,3.06,1.61,4.55,2.47,1.5.86,2.97,1.77,4.42,2.71,1.45.94,2.87,1.92,4.27,2.94,1.4,1.02,2.77,2.07,4.11,3.16s2.66,2.21,3.94,3.37c1.28,1.16,2.54,2.35,3.76,3.57,1.22,1.22,2.41,2.48,3.57,3.76,1.16,1.28,2.28,2.6,3.37,3.94,1.09,1.34,2.14,2.71,3.16,4.11,1.02,1.4,1.99,2.82,2.94,4.27s1.84,2.92,2.71,4.42c.86,1.5,1.69,3.02,2.47,4.55.78,1.54,1.53,3.1,2.23,4.68.7,1.58,1.36,3.18,1.98,4.79s1.2,3.24,1.73,4.89c.53,1.64,1.02,3.3,1.47,4.97.45,1.67.85,3.35,1.21,5.04.36,1.69.67,3.39.94,5.1.27,1.71.5,3.42.68,5.14.18,1.72.32,3.44.41,5.17.09,1.73.14,3.45.14,5.18s-.05,3.46-.14,5.18c-.09,1.73-.23,3.45-.41,5.17-.18,1.72-.41,3.43-.68,5.14-.27,1.71-.59,3.41-.94,5.1-.36,1.69-.76,3.37-1.21,5.04-.45,1.67-.94,3.33-1.47,4.97-.53,1.64-1.11,3.27-1.73,4.89s-1.28,3.21-1.98,4.79c-.7,1.58-1.45,3.14-2.23,4.68-.78,1.54-1.61,3.06-2.47,4.55-.86,1.5-1.77,2.97-2.71,4.42-.94,1.45-1.92,2.87-2.94,4.27-1.02,1.4-2.07,2.77-3.16,4.11s-2.21,2.66-3.37,3.94c-1.16,1.28-2.35,2.54-3.57,3.76s-2.48,2.41-3.76,3.57c-1.28,1.16-2.6,2.28-3.94,3.37s-2.71,2.14-4.11,3.16c-1.4,1.02-2.82,1.99-4.27,2.94-1.45.94-2.92,1.84-4.42,2.71-1.5.86-3.02,1.69-4.55,2.47-1.54.78-3.1,1.53-4.68,2.23-1.58.7-3.18,1.36-4.79,1.98s-3.24,1.2-4.89,1.73c-1.64.53-3.3,1.02-4.97,1.47-1.67.45-3.35.85-5.04,1.21-1.69.36-3.39.67-5.1.94s-3.42.5-5.14.68c-1.72.18-3.44.32-5.17.41-1.73.09-3.45.14-4.32.16s-.86.02-1.73,0-2.59-.07-4.32-.16"/>
  <path class="cls-4" d="m95.2,193.46c-1.58.12-3.16.19-4.73.23s-3.15.03-4.71-.02c-1.56-.05-3.12-.13-4.67-.26-1.55-.13-3.09-.3-4.62-.5-1.53-.21-3.05-.46-4.56-.75-1.51-.29-3.01-.62-4.49-.99s-2.95-.78-4.4-1.22c-1.45-.45-2.89-.93-4.31-1.46-1.42-.52-2.82-1.09-4.2-1.69-1.38-.6-2.74-1.24-4.08-1.91s-2.66-1.39-3.95-2.14c-1.3-.75-2.57-1.53-3.81-2.35s-2.47-1.67-3.67-2.56c-1.2-.89-2.37-1.81-3.51-2.76m62.81,16.25c-.55-.59-1.11-1.23-1.66-1.89-.55-.67-1.1-1.37-1.65-2.11s-1.09-1.51-1.64-2.32c-.54-.81-1.08-1.65-1.62-2.52-.54-.87-1.07-1.78-1.6-2.72-.53-.94-1.06-1.91-1.58-2.91-.52-1-1.04-2.04-1.55-3.1-.51-1.06-1.02-2.16-1.52-3.28-.5-1.12-1-2.27-1.72-4.07-.72-1.8-1.67-4.26-2.59-6.81-.92-2.55-1.81-5.2-2.67-7.93-.86-2.73-1.68-5.55-2.46-8.43-.78-2.88-1.53-5.84-2.23-8.85-.7-3.01-1.36-6.07-1.98-9.18-.62-3.11-1.18-6.25-1.71-9.42-.52-3.17-1-6.37-1.42-9.57-.42-3.21-.8-6.42-1.12-9.63-.32-3.21-.59-6.42-.81-9.6-.22-3.18-.38-6.35-.49-9.47-.11-3.13-.16-6.22-.17-8.91-.01-2.69.02-4.99.08-7.25.06-2.26.16-4.48.29-6.66.13-2.18.28-4.32.47-6.41.19-2.09.41-4.13.66-6.12s.53-3.92.84-5.79c.31-1.87.65-3.69,1.02-5.43.37-1.75.77-3.43,1.19-5.04.43-1.61.88-3.16,1.36-4.63s.98-2.86,1.51-4.18,1.08-2.56,1.66-3.72c.58-1.16,1.18-2.23,1.64-3.01.46-.78.78-1.25,1.1-1.71s.65-.89.98-1.3.67-.8,1.01-1.17.69-.71,1.04-1.03c.35-.32.71-.62,1.07-.9s.72-.53,1.09-.77c.37-.23.74-.44,1.12-.63.38-.19.75-.35,1.14-.49.38-.14.77-.26,1.16-.35m17.98,190.34c1.52-.26,3.04-.56,4.56-.9,1.52-.34,3.03-.71,4.53-1.12,1.51-.41,3.01-.86,4.5-1.34,1.49-.48,2.98-1,4.46-1.55,1.48-.55,2.94-1.14,4.4-1.77,1.46-.62,2.9-1.28,4.34-1.97,1.43-.69,2.85-1.42,4.26-2.17s2.8-1.55,4.18-2.37c1.38-.82,2.74-1.68,4.08-2.56s2.67-1.8,3.97-2.74c1.31-.94,2.59-1.92,3.86-2.92s2.51-2.03,3.73-3.09c1.22-1.06,2.42-2.14,3.6-3.26,1.18-1.11,2.33-2.25,3.46-3.41,1.13-1.16,2.23-2.35,3.31-3.56s2.13-2.44,3.15-3.7c1.02-1.25,2.02-2.53,2.98-3.83.97-1.3,1.9-2.61,2.81-3.95s1.78-2.69,2.63-4.06c.85-1.37,1.66-2.76,2.44-4.16.78-1.4,1.53-2.82,2.25-4.25s1.4-2.88,2.05-4.33c.65-1.46,1.27-2.93,1.85-4.4.58-1.48,1.13-2.97,1.64-4.46s.99-3,1.43-4.51.85-3.03,1.22-4.55c.37-1.52.7-3.05,1-4.58.3-1.53.56-3.06.78-4.59.22-1.53.41-3.07.56-4.6.15-1.53.26-3.07.34-4.59.07-1.53.11-3.06.11-4.55s-.03-2.95-.1-4.4c-.07-1.45-.17-2.9-.31-4.33s-.31-2.87-.52-4.29c-.21-1.42-.45-2.83-.72-4.24-.27-1.4-.58-2.79-.92-4.17s-.72-2.75-1.12-4.1-.85-2.69-1.32-4.02-.98-2.63-1.52-3.92c-.54-1.29-1.11-2.57-1.71-3.82s-1.24-2.5-1.9-3.72-1.36-2.42-2.08-3.6c-.72-1.18-1.48-2.34-2.26-3.47-.78-1.14-1.6-2.25-2.44-3.34-.84-1.09-1.71-2.16-2.61-3.2-.9-1.04-1.82-2.06-2.77-3.05m-69.18,163.6c.52.42,1.04.81,1.56,1.17s1.04.68,1.55.96c.52.29,1.03.54,1.54.76s1.02.4,1.53.55c.51.15,1.01.26,1.51.34.5.08,1,.12,1.49.13M1,98.52c.06-.49.16-.98.28-1.47.13-.49.28-.98.47-1.47.19-.49.41-.97.66-1.46.25-.48.53-.97.84-1.45.31-.48.65-.96,1.03-1.43.37-.48.78-.95,1.21-1.42s.9-.94,1.39-1.4c.49-.46,1.01-.92,1.57-1.38.55-.45,1.13-.91,1.74-1.35s1.25-.89,1.91-1.32,1.36-.87,2.08-1.29,1.47-.85,2.24-1.26c.77-.42,1.57-.82,2.4-1.23.83-.4,1.68-.8,2.56-1.19.88-.39,1.78-.77,2.7-1.15.93-.38,1.88-.75,2.85-1.11.97-.36,1.97-.72,2.99-1.07s2.06-.69,3.12-1.02c1.06-.33,2.15-.66,3.25-.97,1.1-.32,2.23-.62,3.37-.92,1.14-.3,2.3-.59,3.48-.87s2.38-.56,3.59-.82c1.21-.26,2.45-.52,3.69-.77,1.25-.25,2.51-.48,3.79-.71,1.28-.23,2.57-.45,3.88-.65,1.31-.21,2.62-.41,3.96-.59,1.33-.19,2.67-.37,4.03-.54,1.35-.17,2.72-.33,4.09-.47,1.37-.15,2.76-.29,4.15-.41,1.39-.13,2.79-.24,4.2-.35,1.41-.11,2.82-.2,4.24-.29,1.42-.09,2.84-.16,4.27-.22s2.86-.12,4.3-.16c1.43-.04,2.87-.08,4.31-.1,1.44-.02,2.88-.03,4.32-.03s2.88.01,4.32.03c1.44.02,2.88.05,4.31.1,1.43.04,2.87.1,4.3.16s2.85.14,4.27.22c1.42.09,2.83.18,4.24.29,1.41.11,2.81.22,4.2.35,1.39.13,2.77.27,4.15.41,1.37.15,2.74.31,4.09.47,1.35.17,2.7.35,4.03.54,1.33.19,2.65.39,3.96.59,1.31.21,2.6.43,3.88.65,1.28.23,2.54.46,3.79.71,1.25.25,2.48.5,3.69.77,1.21.26,2.41.54,3.59.82s2.34.57,3.48.87c1.14.3,2.27.61,3.37.92,1.1.32,2.19.64,3.25.97,1.06.33,2.1.67,3.12,1.02,1.02.35,2.01.7,2.99,1.07.97.36,1.92.73,2.85,1.11.93.38,1.83.76,2.7,1.15.88.39,1.73.79,2.56,1.19.83.4,1.63.81,2.4,1.23.77.42,1.52.84,2.24,1.26s1.41.86,2.08,1.29,1.3.88,1.91,1.32,1.19.9,1.74,1.35c.55.45,1.07.91,1.57,1.38s.96.93,1.39,1.4.84.94,1.21,1.42c.37.48.72.95,1.03,1.43.31.48.59.96.84,1.45.25.48.47.97.66,1.46.19.49.34.98.47,1.47.13.49.22.98.28,1.47.06.49.09.98.11,1.23m-121.66,92.06c-1.88-.31-3.75-.68-5.6-1.1-1.85-.42-3.68-.9-5.5-1.42s-3.61-1.11-5.38-1.74c-1.77-.63-3.52-1.31-5.24-2.05-1.72-.73-3.42-1.52-5.08-2.35-1.67-.83-3.3-1.71-4.91-2.64s-3.18-1.91-4.72-2.93c-1.54-1.02-3.04-2.09-4.51-3.2s-2.89-2.27-4.28-3.47-2.74-2.44-4.04-3.72c-1.31-1.28-2.57-2.6-3.79-3.95s-2.39-2.75-3.52-4.18c-1.13-1.43-2.21-2.89-3.24-4.39-1.03-1.49-2.02-3.02-2.95-4.58m63.92,40.71c-1.41-.29-2.81-.61-4.2-.96s-2.77-.73-4.15-1.14-2.74-.84-4.09-1.3c-1.35-.46-2.7-.95-4.03-1.47-1.33-.52-2.65-1.06-3.96-1.63-1.31-.57-2.6-1.17-3.88-1.79-1.28-.62-2.54-1.28-3.79-1.95-1.25-.68-2.48-1.38-3.69-2.11-1.21-.73-2.41-1.48-3.59-2.25-1.18-.78-2.34-1.58-3.48-2.4s-2.27-1.67-3.37-2.54c-1.1-.87-2.19-1.76-3.25-2.68-1.06-.91-2.1-1.85-3.12-2.81-1.02-.96-2.01-1.93-2.99-2.93-.97-1-1.92-2.01-2.85-3.05-.93-1.04-1.83-2.09-2.7-3.16s-1.73-2.16-2.56-3.27c-.83-1.11-1.63-2.23-2.4-3.37-.77-1.14-1.52-2.3-2.24-3.47s-1.41-2.36-2.08-3.56c-.67-1.2-1.3-2.41-1.91-3.64-.61-1.23-1.19-2.46-1.74-3.71-.55-1.25-1.07-2.51-1.57-3.78s-.96-2.55-1.39-3.84-.84-2.59-1.21-3.9c-.37-1.31-.72-2.62-1.03-3.94-.31-1.32-.59-2.65-.84-3.98s-.47-2.67-.66-4.01c-.19-1.34-.34-2.69-.47-4.03-.13-1.35-.22-2.7-.28-4.05m77.32,85.33c-1.56-.43-3.1-.9-4.64-1.4-1.54-.5-3.06-1.04-4.58-1.61s-3.02-1.18-4.5-1.82-2.96-1.32-4.42-2.02c-1.46-.71-2.9-1.45-4.32-2.22-1.42-.77-2.83-1.58-4.22-2.42-1.39-.84-2.75-1.71-4.1-2.6-1.35-.9-2.67-1.83-3.97-2.79-1.3-.96-2.58-1.95-3.84-2.96-1.26-1.02-2.49-2.06-3.69-3.13s-2.39-2.17-3.54-3.29c-1.15-1.12-2.28-2.27-3.38-3.44-1.1-1.17-2.17-2.37-3.2-3.58-1.04-1.22-2.05-2.46-3.03-3.72-.98-1.26-1.93-2.54-2.84-3.85s-1.8-2.62-2.65-3.96c-.85-1.34-1.67-2.7-2.45-4.07-.78-1.37-1.53-2.76-2.24-4.17-.71-1.4-1.39-2.82-2.03-4.25s-1.25-2.88-1.82-4.33c-.57-1.46-1.1-2.92-1.6-4.4-.5-1.48-.96-2.96-1.38-4.45-.42-1.49-.81-2.99-1.15-4.5-.35-1.51-.65-3.02-.92-4.54-.27-1.52-.5-3.04-.69-4.56-.19-1.52-.34-3.05-.46-4.57-.11-1.52-.19-3.05-.22-4.57-.03-1.52-.03-3.05.01-4.56.04-1.52.13-3.03.25-4.54.12-1.51.28-3.01.48-4.51.2-1.5.44-2.99.66-4.24.22-1.25.43-2.27.66-3.28.23-1.01.47-2.02.74-3.02.26-1,.55-2,.85-2.99.3-.99.62-1.98.95-2.96.34-.98.69-1.95,1.06-2.92.37-.97.76-1.92,1.16-2.87.41-.95.83-1.89,1.27-2.83m68.77,130.7c-1.48-.52-2.96-1.08-4.43-1.67-1.47-.59-2.92-1.22-4.37-1.88-1.44-.66-2.88-1.36-4.3-2.08s-2.82-1.49-4.22-2.28c-1.39-.79-2.77-1.62-4.12-2.48-1.36-.86-2.7-1.74-4.02-2.66-1.32-.92-2.63-1.87-3.91-2.84s-2.55-1.98-3.79-3.02-2.46-2.1-3.66-3.18c-1.2-1.09-2.37-2.2-3.52-3.34-1.15-1.14-2.28-2.31-3.38-3.49-1.1-1.19-2.17-2.4-3.22-3.64-1.05-1.24-2.07-2.49-3.06-3.77-.99-1.28-1.95-2.58-2.89-3.9-.93-1.32-1.84-2.66-2.71-4.01-.87-1.36-1.72-2.73-2.53-4.12-.81-1.39-1.59-2.79-2.34-4.21-.75-1.42-1.46-2.85-2.14-4.3s-1.33-2.9-1.94-4.37c-.61-1.47-1.19-2.95-1.74-4.44-.54-1.49-1.05-2.99-1.53-4.49-.47-1.51-.91-3.02-1.31-4.54-.4-1.52-.77-3.04-1.1-4.57s-.62-3.06-.88-4.59c-.26-1.53-.48-3.07-.66-4.6-.18-1.53-.33-3.07-.44-4.6-.11-1.53-.18-3.06-.21-4.59s-.03-3.05.01-4.56.12-3.03.24-4.53c.12-1.5.27-3,.46-4.48.19-1.49.42-2.96.64-4.24.22-1.28.44-2.35.67-3.42s.49-2.13.77-3.19c.27-1.06.57-2.1.88-3.14.31-1.04.65-2.07,1-3.09.35-1.02.73-2.04,1.12-3.04.39-1,.8-2,1.23-2.98.43-.98.88-1.96,1.34-2.92.47-.96.95-1.92,1.46-2.86.5-.94,1.03-1.87,1.56-2.79s1.1-1.83,1.67-2.72,1.17-1.78,1.78-2.64,1.24-1.72,1.88-2.56,1.3-1.67,1.98-2.48c.68-.81,1.37-1.61,2.08-2.4.71-.78,1.43-1.55,2.17-2.31m51.07,156.86c-1.37-.61-2.73-1.25-4.08-1.93-1.35-.68-2.69-1.39-4.02-2.13-1.33-.74-2.65-1.52-3.96-2.33-1.31-.81-2.6-1.65-3.88-2.53-1.28-.87-2.55-1.78-3.8-2.71s-2.49-1.9-3.71-2.89c-1.22-.99-2.42-2.02-3.6-3.07-1.18-1.05-2.35-2.13-3.49-3.24-1.15-1.11-2.27-2.24-3.37-3.4-1.1-1.16-2.19-2.34-3.25-3.55-1.06-1.21-2.1-2.44-3.11-3.69-1.01-1.25-2-2.53-2.97-3.82s-1.9-2.61-2.82-3.95c-.91-1.34-1.8-2.69-2.66-4.06-.86-1.37-1.69-2.76-2.5-4.17-.8-1.41-1.58-2.83-2.33-4.26-.75-1.44-1.47-2.88-2.15-4.35s-1.35-2.94-1.97-4.42c-.63-1.48-1.22-2.98-1.79-4.48-.57-1.5-1.1-3.02-1.6-4.54-.5-1.52-.97-3.05-1.41-4.58-.44-1.53-.84-3.07-1.21-4.61-.37-1.54-.71-3.09-1.01-4.63-.3-1.55-.57-3.09-.81-4.64-.24-1.55-.44-3.09-.61-4.64s-.3-3.09-.4-4.62c-.1-1.54-.16-3.07-.2-4.6-.03-1.53-.03-3.05.01-4.56.04-1.51.11-3.02.22-4.52.11-1.5.25-2.98.42-4.46.18-1.48.39-2.94.63-4.37.24-1.43.51-2.84.81-4.23s.64-2.77,1-4.13.76-2.7,1.19-4.03c.43-1.33.89-2.64,1.38-3.93.49-1.29,1.01-2.56,1.56-3.81s1.13-2.48,1.74-3.69c.61-1.21,1.25-2.4,1.92-3.56.67-1.16,1.37-2.31,2.09-3.42s1.48-2.21,2.26-3.28,1.59-2.11,2.42-3.12c.83-1.02,1.69-2,2.58-2.96.88-.96,1.79-1.89,2.73-2.8.93-.9,1.89-1.78,2.87-2.62.98-.84,1.98-1.66,3.01-2.44,1.03-.78,2.07-1.54,3.14-2.26m36.92,168.95c-1.21-.68-2.41-1.4-3.61-2.16s-2.38-1.54-3.56-2.36c-1.18-.82-2.35-1.67-3.5-2.55-1.16-.88-2.3-1.8-3.44-2.74-1.13-.95-2.25-1.92-3.36-2.93-1.11-1.01-2.2-2.04-3.28-3.1-1.08-1.06-2.14-2.15-3.19-3.27-1.05-1.12-2.08-2.26-3.09-3.43-1.01-1.17-2.01-2.37-2.98-3.59s-1.93-2.46-2.87-3.73c-.94-1.27-1.86-2.55-2.75-3.86s-1.77-2.64-2.63-3.99c-.85-1.35-1.68-2.72-2.49-4.11s-1.59-2.79-2.35-4.21-1.5-2.86-2.21-4.31c-.71-1.45-1.4-2.92-2.06-4.39-.66-1.48-1.3-2.97-1.91-4.47-.61-1.5-1.19-3.01-1.75-4.53-.56-1.52-1.08-3.05-1.58-4.59-.5-1.54-.97-3.08-1.42-4.63-.44-1.55-.86-3.1-1.24-4.66-.39-1.56-.74-3.12-1.07-4.68s-.63-3.12-.89-4.69c-.27-1.56-.51-3.13-.72-4.69-.21-1.56-.39-3.12-.54-4.67-.15-1.55-.27-3.1-.35-4.65-.09-1.54-.15-3.08-.17-4.61-.03-1.53-.02-3.05.01-4.56s.1-3.01.19-4.5c.09-1.49.22-2.97.38-4.43.16-1.47.34-2.92.57-4.44.23-1.52.51-3.11.83-4.69.32-1.57.67-3.12,1.06-4.65s.82-3.03,1.28-4.5c.46-1.48.96-2.93,1.5-4.35s1.11-2.82,1.71-4.18,1.25-2.7,1.92-4c.67-1.3,1.38-2.57,2.12-3.8.74-1.23,1.51-2.43,2.31-3.6s1.64-2.29,2.5-3.38c.86-1.09,1.76-2.14,2.68-3.15.92-1.01,1.88-1.99,2.86-2.92.98-.93,1.99-1.82,3.02-2.67s2.09-1.66,3.17-2.42c1.08-.76,2.19-1.48,3.32-2.16,1.13-.68,2.28-1.31,3.45-1.89m26.84,174.96c-1.02-.75-2.03-1.54-3.03-2.35s-2-1.67-2.99-2.55c-.99-.88-1.97-1.8-2.94-2.75-.97-.95-1.93-1.93-2.88-2.93s-1.89-2.05-2.82-3.11c-.93-1.07-1.85-2.16-2.75-3.28-.9-1.12-1.8-2.27-2.68-3.45-.88-1.18-1.74-2.38-2.59-3.6-.85-1.23-1.69-2.48-2.5-3.75-.82-1.27-1.62-2.57-2.41-3.89-.79-1.32-1.56-2.66-2.31-4.02-.75-1.36-1.49-2.74-2.2-4.13-.72-1.4-1.41-2.81-2.09-4.24-.68-1.43-1.34-2.88-1.98-4.34s-1.26-2.94-1.85-4.43-1.17-2.99-1.73-4.51c-.55-1.51-1.09-3.04-1.6-4.57-.51-1.53-1-3.08-1.47-4.63-.47-1.55-.91-3.11-1.33-4.67-.42-1.56-.82-3.13-1.19-4.71-.37-1.57-.72-3.15-1.04-4.73-.32-1.58-.62-3.16-.9-4.74-.28-1.58-.53-3.16-.75-4.74-.23-1.58-.43-3.15-.6-4.72-.18-1.57-.33-3.14-.45-4.7-.12-1.56-.22-3.12-.3-4.67s-.12-3.09-.14-4.62c-.02-1.53-.02-3.05,0-4.56.03-1.51.08-3.01.16-4.49.08-1.48.18-2.96.31-4.41.13-1.46.29-2.9.49-4.47.21-1.57.46-3.28.76-4.95.29-1.68.62-3.32.99-4.94s.77-3.2,1.2-4.76.91-3.07,1.42-4.56c.51-1.48,1.05-2.93,1.62-4.34s1.18-2.78,1.82-4.11c.64-1.33,1.31-2.62,2.02-3.86.7-1.25,1.44-2.45,2.21-3.6.77-1.16,1.56-2.27,2.38-3.33s1.68-2.08,2.56-3.05,1.79-1.88,2.72-2.75c.93-.87,1.89-1.68,2.87-2.45.98-.76,1.99-1.47,3.01-2.13,1.03-.66,2.07-1.26,3.14-1.81s2.16-1.04,3.26-1.48m19.7,178.15c-.79-.81-1.58-1.64-2.36-2.52-.78-.87-1.56-1.78-2.32-2.71-.77-.94-1.53-1.9-2.29-2.9-.76-1-1.5-2.03-2.24-3.09-.74-1.06-1.47-2.15-2.19-3.26s-1.44-2.26-2.14-3.43c-.7-1.17-1.4-2.37-2.08-3.59-.68-1.22-1.36-2.47-2.02-3.74s-1.31-2.57-1.95-3.88c-.64-1.32-1.26-2.66-1.87-4.02-.61-1.36-1.21-2.74-1.8-4.14s-1.16-2.82-1.71-4.25-1.1-2.89-1.63-4.35-1.04-2.95-1.54-4.45c-.5-1.5-.98-3.01-1.44-4.53-.46-1.52-.91-3.06-1.34-4.6-.43-1.54-.85-3.1-1.24-4.66-.4-1.56-.78-3.13-1.14-4.71-.36-1.58-.71-3.16-1.03-4.74-.33-1.59-.63-3.18-.92-4.77-.29-1.59-.56-3.19-.81-4.78-.25-1.6-.49-3.19-.7-4.79s-.41-3.19-.58-4.78-.33-3.18-.47-4.76c-.14-1.58-.25-3.16-.35-4.72-.1-1.57-.17-3.13-.23-4.68s-.09-3.09-.11-4.63c-.02-1.53-.02-3.05,0-4.56.02-1.51.06-3,.13-4.48.06-1.48.14-2.95.24-4.4.1-1.45.22-2.88.39-4.48.17-1.6.38-3.37.62-5.11.24-1.74.51-3.44.82-5.11.3-1.67.64-3.3,1-4.89s.76-3.15,1.18-4.66c.42-1.51.88-2.98,1.36-4.41.48-1.42.99-2.8,1.53-4.14.54-1.33,1.1-2.62,1.69-3.85.59-1.23,1.21-2.42,1.85-3.55.64-1.13,1.31-2.21,2-3.23s1.41-1.99,2.14-2.91,1.5-1.77,2.28-2.57c.78-.8,1.58-1.54,2.4-2.22.82-.68,1.66-1.3,2.52-1.86.86-.56,1.73-1.06,2.63-1.5.89-.44,1.8-.81,2.72-1.13m17.36,176.81c-.54-1.87-1.08-3.87-1.6-5.98s-1.04-4.35-1.54-6.7c-.5-2.35-.99-4.8-1.46-7.35-.47-2.55-.93-5.2-1.38-7.94-.44-2.73-.87-5.55-1.27-8.44s-.79-5.85-1.16-8.87c-.37-3.02-.71-6.09-1.03-9.2-.32-3.12-.62-6.27-.9-9.46-.28-3.18-.53-6.39-.75-9.61-.23-3.22-.43-6.45-.6-9.68s-.32-6.45-.45-9.66c-.12-3.2-.22-6.39-.28-9.54-.07-3.15-.11-6.26-.12-9.32s0-6.08.05-9.02c.04-2.95.11-5.83.24-9.06.12-3.23.3-6.81.52-10.22.22-3.41.49-6.65.71-9.01s.39-3.84.57-5.26c.18-1.42.37-2.8.57-4.11.2-1.32.41-2.58.63-3.78s.45-2.35.69-3.44c.24-1.09.49-2.11.75-3.07s.52-1.86.8-2.7.56-1.61.85-2.31.59-1.35.89-1.92c.3-.57.62-1.08.94-1.52s.64-.81.97-1.11c.33-.3.67-.53.92-.68.25-.15.43-.21.6-.26m6.49,157.48V5.44m4.63,175.04c.54-1.87,1.08-3.87,1.6-5.98s1.04-4.35,1.54-6.7c.5-2.35.99-4.8,1.46-7.35.47-2.55.93-5.2,1.38-7.94.44-2.73.87-5.55,1.27-8.44s.79-5.85,1.16-8.87c.37-3.02.71-6.09,1.03-9.2.32-3.12.62-6.27.9-9.46.28-3.18.53-6.39.75-9.61.23-3.22.43-6.45.6-9.68s.32-6.45.45-9.66c.12-3.2.22-6.39.28-9.54.07-3.15.11-6.26.12-9.32s0-6.08-.05-9.02c-.04-2.95-.11-5.83-.24-9.06-.12-3.23-.3-6.81-.52-10.22-.22-3.41-.49-6.65-.71-9.01s-.39-3.84-.57-5.26c-.18-1.42-.37-2.8-.57-4.11-.2-1.32-.41-2.58-.63-3.78s-.45-2.35-.69-3.44c-.24-1.09-.49-2.11-.75-3.07s-.52-1.86-.8-2.7-.56-1.61-.85-2.31-.59-1.35-.89-1.92c-.3-.57-.62-1.08-.94-1.52s-.64-.81-.97-1.11c-.33-.3-.67-.53-.92-.68-.25-.15-.43-.21-.6-.26m1.03,182.36c.54-.84,1.08-1.72,1.61-2.63.53-.91,1.06-1.85,1.59-2.83.53-.98,1.05-1.98,1.56-3.02.52-1.04,1.03-2.1,1.53-3.2.51-1.1,1.01-2.22,1.74-3.99.73-1.77,1.69-4.18,2.63-6.69s1.84-5.12,2.71-7.81c.87-2.69,1.71-5.48,2.51-8.33.8-2.85,1.56-5.78,2.28-8.76.72-2.98,1.4-6.03,2.04-9.11.63-3.09,1.23-6.22,1.77-9.38s1.04-6.35,1.48-9.55c.45-3.2.84-6.42,1.19-9.63.34-3.21.64-6.42.88-9.62s.43-6.37.56-9.51c.13-3.14.21-6.25.24-9.31.02-3.06,0-6.08-.09-9.03-.08-2.95-.22-5.84-.37-8.19s-.29-4.16-.46-5.93c-.17-1.77-.37-3.51-.58-5.2-.22-1.7-.45-3.35-.71-4.96-.26-1.61-.54-3.18-.84-4.7-.3-1.52-.63-3-.97-4.42-.34-1.43-.71-2.8-1.09-4.13-.38-1.32-.79-2.6-1.21-3.81s-.86-2.38-1.32-3.48c-.46-1.1-.94-2.15-1.43-3.14-.49-.99-1.01-1.92-1.53-2.78-.53-.87-1.07-1.67-1.63-2.41-.56-.74-1.13-1.42-1.72-2.04s-1.19-1.16-1.8-1.65-1.24-.9-1.87-1.26c-.64-.35-1.28-.64-1.77-.83-.49-.19-.82-.28-1.15-.36m-2.26,182.25c.79-.81,1.58-1.64,2.36-2.52.78-.87,1.56-1.78,2.32-2.71.77-.94,1.53-1.9,2.29-2.9.76-1,1.5-2.03,2.24-3.09.74-1.06,1.47-2.15,2.19-3.26s1.44-2.26,2.14-3.43c.7-1.17,1.4-2.37,2.08-3.59.68-1.22,1.36-2.47,2.02-3.74s1.31-2.57,1.95-3.88c.64-1.32,1.26-2.66,1.87-4.02.61-1.36,1.21-2.74,1.8-4.14s1.16-2.82,1.71-4.25,1.1-2.89,1.63-4.35,1.04-2.95,1.54-4.45c.5-1.5.98-3.01,1.44-4.53.46-1.52.91-3.06,1.34-4.6.43-1.54.85-3.1,1.24-4.66.4-1.56.78-3.13,1.14-4.71.36-1.58.71-3.16,1.03-4.74.33-1.59.63-3.18.92-4.77.29-1.59.56-3.19.81-4.78.25-1.6.49-3.19.7-4.79s.41-3.19.58-4.78.33-3.18.47-4.76c.14-1.58.25-3.16.35-4.72.1-1.57.17-3.13.23-4.68s.09-3.09.11-4.63c.02-1.53.02-3.05,0-4.56-.02-1.51-.06-3-.13-4.48-.06-1.48-.14-2.95-.24-4.4-.1-1.45-.22-2.88-.39-4.48-.17-1.6-.38-3.37-.62-5.11-.24-1.74-.51-3.44-.82-5.11-.3-1.67-.64-3.3-1-4.89s-.76-3.15-1.18-4.66c-.42-1.51-.88-2.98-1.36-4.41-.48-1.42-.99-2.8-1.53-4.14-.54-1.33-1.1-2.62-1.69-3.85-.59-1.23-1.21-2.42-1.85-3.55-.64-1.13-1.31-2.21-2-3.23s-1.41-1.99-2.14-2.91-1.5-1.77-2.28-2.57c-.78-.8-1.58-1.54-2.4-2.22-.82-.68-1.66-1.3-2.52-1.86-.86-.56-1.73-1.06-2.63-1.5-.89-.44-1.8-.81-2.72-1.13m-7.87,181.26c1.02-.75,2.03-1.54,3.03-2.35s2-1.67,2.99-2.55c.99-.88,1.97-1.8,2.94-2.75.97-.95,1.93-1.93,2.88-2.93s1.89-2.05,2.82-3.11c.93-1.07,1.85-2.16,2.75-3.28.9-1.12,1.8-2.27,2.68-3.45.88-1.18,1.74-2.38,2.59-3.6.85-1.23,1.69-2.48,2.5-3.75.82-1.27,1.62-2.57,2.41-3.89.79-1.32,1.56-2.66,2.31-4.02.75-1.36,1.49-2.74,2.2-4.13.72-1.4,1.41-2.81,2.09-4.24.68-1.43,1.34-2.88,1.98-4.34s1.26-2.94,1.85-4.43,1.17-2.99,1.73-4.51c.55-1.51,1.09-3.04,1.6-4.57.51-1.53,1-3.08,1.47-4.63.47-1.55.91-3.11,1.33-4.67s.82-3.13,1.19-4.71c.37-1.57.72-3.15,1.04-4.73.32-1.58.62-3.16.9-4.74.28-1.58.53-3.16.75-4.74.23-1.58.43-3.15.6-4.72.18-1.57.33-3.14.45-4.7s.22-3.12.3-4.67c.07-1.55.12-3.09.14-4.62.02-1.53.02-3.05,0-4.56s-.08-3.01-.16-4.49c-.08-1.48-.18-2.96-.31-4.41-.13-1.46-.29-2.9-.49-4.47-.21-1.57-.46-3.28-.76-4.95-.29-1.68-.62-3.32-.99-4.94-.37-1.62-.77-3.2-1.2-4.76s-.91-3.07-1.42-4.56-1.05-2.93-1.62-4.34-1.18-2.78-1.82-4.11c-.64-1.33-1.31-2.62-2.02-3.86-.7-1.25-1.44-2.45-2.21-3.6-.77-1.16-1.56-2.27-2.38-3.33s-1.68-2.08-2.56-3.05-1.79-1.88-2.72-2.75c-.93-.87-1.89-1.68-2.87-2.45-.98-.76-1.99-1.47-3.01-2.13-1.03-.66-2.07-1.26-3.14-1.81s-2.16-1.04-3.26-1.48m-13.86,179.83c1.21-.68,2.41-1.4,3.61-2.16s2.38-1.54,3.56-2.36c1.18-.82,2.35-1.67,3.5-2.55,1.16-.88,2.3-1.8,3.44-2.74,1.13-.95,2.25-1.92,3.36-2.93,1.11-1.01,2.2-2.04,3.28-3.1,1.08-1.06,2.14-2.15,3.19-3.27,1.05-1.12,2.08-2.26,3.09-3.43,1.01-1.17,2.01-2.37,2.98-3.59s1.93-2.46,2.87-3.73c.94-1.27,1.86-2.55,2.75-3.86s1.77-2.64,2.63-3.99c.85-1.35,1.68-2.72,2.49-4.11.81-1.39,1.59-2.79,2.35-4.21s1.5-2.86,2.21-4.31c.71-1.45,1.4-2.92,2.06-4.39s1.3-2.97,1.91-4.47c.61-1.5,1.19-3.01,1.75-4.53.56-1.52,1.08-3.05,1.58-4.59s.97-3.08,1.42-4.63c.44-1.55.86-3.1,1.24-4.66.39-1.56.74-3.12,1.07-4.68.33-1.56.63-3.12.89-4.69.27-1.56.51-3.13.72-4.69.21-1.56.39-3.12.54-4.67.15-1.55.27-3.1.35-4.65s.15-3.08.17-4.61c.03-1.53.02-3.05-.01-4.56-.03-1.51-.1-3.01-.19-4.5s-.22-2.97-.38-4.43c-.16-1.47-.34-2.92-.57-4.44s-.51-3.11-.83-4.69c-.32-1.57-.67-3.12-1.06-4.65-.39-1.53-.82-3.03-1.28-4.5-.46-1.48-.96-2.93-1.5-4.35s-1.11-2.82-1.71-4.18c-.61-1.36-1.25-2.7-1.92-4-.67-1.3-1.38-2.57-2.12-3.8-.74-1.23-1.51-2.43-2.31-3.6-.8-1.16-1.64-2.29-2.5-3.38-.86-1.09-1.76-2.14-2.68-3.15-.92-1.01-1.88-1.99-2.86-2.92-.98-.93-1.99-1.82-3.02-2.67s-2.09-1.66-3.17-2.42c-1.08-.76-2.19-1.48-3.32-2.16-1.13-.68-2.28-1.31-3.45-1.89m-21.93,176.96c1.37-.61,2.73-1.25,4.08-1.93,1.35-.68,2.69-1.39,4.02-2.13,1.33-.74,2.65-1.52,3.96-2.33,1.31-.81,2.6-1.65,3.88-2.53,1.28-.87,2.55-1.78,3.8-2.71s2.49-1.9,3.71-2.89c1.22-.99,2.42-2.02,3.6-3.07,1.18-1.05,2.35-2.13,3.49-3.24,1.15-1.11,2.27-2.24,3.37-3.4,1.1-1.16,2.19-2.34,3.25-3.55,1.06-1.21,2.1-2.44,3.11-3.69,1.01-1.25,2-2.53,2.97-3.82s1.9-2.61,2.82-3.95c.91-1.34,1.8-2.69,2.66-4.06.86-1.37,1.69-2.76,2.5-4.17.8-1.41,1.58-2.83,2.33-4.26.75-1.44,1.47-2.88,2.15-4.35.69-1.46,1.35-2.94,1.97-4.42.63-1.48,1.22-2.98,1.79-4.48.57-1.5,1.1-3.02,1.6-4.54.5-1.52.97-3.05,1.41-4.58s.84-3.07,1.21-4.61c.37-1.54.71-3.09,1.01-4.63.3-1.55.57-3.09.81-4.64.24-1.55.44-3.09.61-4.64s.3-3.09.4-4.62c.1-1.54.16-3.07.2-4.6.03-1.53.03-3.05-.01-4.56-.04-1.51-.11-3.02-.22-4.52-.11-1.5-.25-2.98-.42-4.46-.18-1.48-.39-2.94-.63-4.37-.24-1.43-.51-2.84-.81-4.23-.3-1.39-.64-2.77-1-4.13s-.76-2.7-1.19-4.03c-.43-1.33-.89-2.64-1.38-3.93s-1.01-2.56-1.56-3.81c-.55-1.25-1.13-2.48-1.74-3.69s-1.25-2.4-1.92-3.56c-.67-1.16-1.37-2.31-2.09-3.42-.73-1.12-1.48-2.21-2.26-3.28-.78-1.07-1.59-2.11-2.42-3.12-.83-1.02-1.69-2-2.58-2.96-.88-.96-1.79-1.89-2.73-2.8-.93-.9-1.89-1.78-2.87-2.62-.98-.84-1.98-1.66-3.01-2.44-1.03-.78-2.07-1.54-3.14-2.26m-32.11,172.47c1.56-.43,3.1-.9,4.64-1.4,1.54-.5,3.06-1.04,4.58-1.61s3.02-1.18,4.5-1.82,2.96-1.32,4.42-2.02c1.46-.71,2.9-1.45,4.32-2.22,1.42-.77,2.83-1.58,4.22-2.42,1.39-.84,2.75-1.71,4.1-2.6,1.35-.9,2.67-1.83,3.97-2.79,1.3-.96,2.58-1.95,3.84-2.96,1.26-1.02,2.49-2.06,3.69-3.13s2.39-2.17,3.54-3.29c1.15-1.12,2.28-2.27,3.38-3.44,1.1-1.17,2.17-2.37,3.2-3.58,1.04-1.22,2.05-2.46,3.03-3.72.98-1.26,1.93-2.54,2.84-3.85s1.8-2.62,2.65-3.96c.85-1.34,1.67-2.7,2.45-4.07.78-1.37,1.53-2.76,2.24-4.17.71-1.4,1.39-2.82,2.03-4.25.64-1.43,1.25-2.88,1.82-4.33.57-1.46,1.1-2.92,1.6-4.4.5-1.48.96-2.96,1.38-4.45.42-1.49.81-2.99,1.15-4.5s.65-3.02.92-4.54c.27-1.52.5-3.04.69-4.56.19-1.52.34-3.05.46-4.57.11-1.52.19-3.05.22-4.57.03-1.52.03-3.05-.01-4.56-.04-1.52-.13-3.03-.25-4.54-.12-1.51-.28-3.01-.48-4.51-.2-1.5-.44-2.99-.66-4.24-.22-1.25-.43-2.27-.66-3.28-.23-1.01-.47-2.02-.74-3.02-.26-1-.55-2-.85-2.99-.3-.99-.62-1.98-.95-2.96-.34-.98-.69-1.95-1.06-2.92-.37-.97-.76-1.92-1.16-2.87-.41-.95-.83-1.89-1.27-2.83m-67.97,133.39c1.41-.29,2.81-.61,4.2-.96s2.77-.73,4.15-1.14,2.74-.84,4.09-1.3c1.35-.46,2.7-.95,4.03-1.47,1.33-.52,2.65-1.06,3.96-1.63,1.31-.57,2.6-1.17,3.88-1.79,1.28-.62,2.54-1.28,3.79-1.95,1.25-.68,2.48-1.38,3.69-2.11,1.21-.73,2.41-1.48,3.59-2.25,1.18-.78,2.34-1.58,3.48-2.4,1.14-.82,2.27-1.67,3.37-2.54,1.1-.87,2.19-1.76,3.25-2.68,1.06-.91,2.1-1.85,3.12-2.81,1.02-.96,2.01-1.93,2.99-2.93s1.92-2.01,2.85-3.05c.93-1.04,1.83-2.09,2.7-3.16.88-1.07,1.73-2.16,2.56-3.27.83-1.11,1.63-2.23,2.4-3.37.77-1.14,1.52-2.3,2.24-3.47s1.41-2.36,2.08-3.56c.67-1.2,1.3-2.41,1.91-3.64.61-1.23,1.19-2.46,1.74-3.71.55-1.25,1.07-2.51,1.57-3.78s.96-2.55,1.39-3.84.84-2.59,1.21-3.9c.37-1.31.72-2.62,1.03-3.94s.59-2.65.84-3.98c.25-1.33.47-2.67.66-4.01.19-1.34.34-2.69.47-4.03.13-1.35.22-2.7.28-4.05m-76.34,87.76c1.88-.31,3.75-.68,5.6-1.1,1.85-.42,3.68-.9,5.5-1.42s3.61-1.11,5.38-1.74c1.77-.63,3.52-1.31,5.24-2.05,1.72-.73,3.42-1.52,5.08-2.35,1.67-.83,3.3-1.71,4.91-2.64s3.18-1.91,4.72-2.93c1.54-1.02,3.04-2.09,4.51-3.2,1.47-1.11,2.89-2.27,4.28-3.47,1.39-1.2,2.74-2.44,4.04-3.72,1.31-1.28,2.57-2.6,3.79-3.95,1.22-1.36,2.39-2.75,3.52-4.18s2.21-2.89,3.24-4.39c1.03-1.49,2.02-3.02,2.95-4.58m-65.53,43.25c1.22-.11,2.43-.25,3.63-.42,1.2-.16,2.4-.35,3.59-.57,1.19-.21,2.37-.45,3.55-.71,1.18-.26,2.34-.55,3.5-.86,1.16-.31,2.31-.65,3.45-1.01,1.14-.36,2.27-.74,3.39-1.15,1.12-.41,2.22-.84,3.32-1.3,1.1-.46,2.18-.93,3.25-1.44,1.07-.5,2.13-1.03,3.17-1.57,1.04-.55,2.07-1.12,3.09-1.71s2.02-1.21,3-1.84c.99-.64,1.96-1.29,2.91-1.97s1.89-1.38,2.82-2.1c.92-.72,1.83-1.46,2.72-2.22m-45.55,19.92c1.58-.09,3.15-.23,4.71-.43,1.56-.19,3.1-.44,4.63-.73,1.53-.29,3.04-.64,4.54-1.03s2.97-.84,4.43-1.33c1.46-.49,2.89-1.03,4.31-1.62,1.41-.59,2.8-1.23,4.17-1.91m-30.1,8.18c1.05.02,2.1,0,3.14-.03,1.04-.04,2.08-.11,3.1-.21s2.05-.23,3.06-.38c1.01-.16,2.02-.34,3.02-.55s1.99-.45,2.96-.72c.98-.27,1.95-.57,2.91-.89m-21.38,3.65c.7.07,1.39.12,2.09.15.69.03,1.38.05,2.07.04s1.37-.03,2.05-.07,1.36-.1,2.03-.18c.67-.08,1.34-.17,2-.28.66-.11,1.32-.24,1.98-.39m-14.07,1.58c.9.14,1.79.22,2.67.26.88.03,1.76.02,2.63-.05m-12.86.6c.25.18.5.33.75.45s.5.2.74.25m-8.98-.71c-.25.18-.5.33-.75.45s-.5.2-.74.25m-2.27-1c-.54.17-1.07.3-1.6.39-.53.09-1.06.14-1.58.16m-.62-1.06c-.9.14-1.79.22-2.67.26-.88.03-1.76.02-2.63-.05m3.45-1.06c-.7.07-1.39.12-2.09.15-.69.03-1.38.05-2.07.04s-1.37-.03-2.05-.07-1.36-.1-2.03-.18c-.67-.08-1.34-.17-2-.28-.66-.11-1.32-.24-1.98-.39m9.03-.14c-1.05.02-2.1,0-3.14-.03-1.04-.04-2.08-.11-3.1-.21s-2.05-.23-3.06-.38c-1.01-.16-2.02-.34-3.02-.55s-1.99-.45-2.96-.72c-.98-.27-1.95-.57-2.91-.89m14.87,1.67c-1.58-.09-3.15-.23-4.71-.43-1.56-.19-3.1-.44-4.63-.73-1.53-.29-3.04-.64-4.54-1.03s-2.97-.84-4.43-1.33c-1.46-.49-2.89-1.03-4.31-1.62-1.41-.59-2.8-1.23-4.17-1.91m30.05,6.06c-.08-.08-.15-.16-.21-.25-.06-.08-.12-.17-.18-.25-.05-.08-.1-.17-.15-.25s-.08-.17-.11-.25-.06-.17-.08-.25c-.02-.09-.04-.17-.05-.26-.01-.09-.02-.17-.02-.26s0-.17.02-.26.03-.17.05-.26c.02-.09.05-.17.08-.25s.07-.17.11-.25.09-.17.15-.25c.05-.08.11-.17.18-.25.06-.08.13-.16.21-.25.08-.08.16-.16.24-.24.09-.08.18-.16.27-.24.1-.08.2-.16.3-.23s.22-.15.33-.23c.12-.08.24-.15.36-.22s.25-.15.39-.22c.13-.07.27-.14.42-.21s.29-.14.44-.21c.15-.07.31-.13.47-.2s.33-.13.49-.19c.17-.06.34-.12.52-.19s.36-.12.54-.18c.18-.06.37-.11.56-.17.19-.05.39-.11.59-.16.2-.05.4-.1.61-.15s.41-.1.62-.14c.21-.05.42-.09.64-.13.22-.04.44-.08.66-.12s.45-.08.67-.11c.23-.04.46-.07.69-.1.23-.03.46-.06.7-.09.24-.03.47-.06.71-.08.24-.03.48-.05.72-.07s.48-.04.73-.06c.24-.02.49-.04.74-.05.25-.01.49-.03.74-.04.25-.01.5-.02.75-.03.25,0,.5-.01.75-.02s.5,0,.75,0,.5,0,.75,0,.5,0,.75.02c.25,0,.5.02.75.03.25.01.5.02.74.04.25.01.49.03.74.05.24.02.49.04.73.06s.48.05.72.07c.24.03.48.05.71.08.24.03.47.06.7.09.23.03.46.07.69.1.23.04.45.07.67.11s.44.08.66.12c.22.04.43.09.64.13.21.05.42.09.62.14s.41.1.61.15c.2.05.39.11.59.16.19.05.38.11.56.17.18.06.37.12.54.18s.35.12.52.19c.17.06.33.13.49.19s.32.13.47.2c.15.07.3.14.44.21s.28.14.42.21c.13.07.26.15.39.22s.25.15.36.22c.12.08.23.15.33.23s.21.16.3.23c.1.08.19.16.27.24.09.08.17.16.24.24.08.08.15.16.21.25.06.08.12.17.18.25.05.08.1.17.15.25s.08.17.11.25.06.17.08.25c.02.09.04.17.05.26s.02.17.02.26,0,.17-.02.26c-.01.09-.03.17-.05.26-.02.09-.05.17-.08.25s-.07.17-.11.25-.09.17-.15.25c-.05.08-.11.17-.18.25-.06.08-.13.16-.21.25-.08.08-.16.16-.24.24-.09.08-.18.16-.27.24-.1.08-.2.16-.3.23s-.22.15-.33.23c-.12.08-.24.15-.36.22s-.25.15-.39.22c-.13.07-.27.14-.42.21s-.29.14-.44.21c-.15.07-.31.13-.47.2-.16.07-.33.13-.49.19-.17.06-.34.12-.52.19s-.36.12-.54.18c-.18.06-.37.11-.56.17-.19.05-.39.11-.59.16-.2.05-.4.1-.61.15s-.41.1-.62.14-.42.09-.64.13c-.22.04-.44.08-.66.12s-.45.08-.67.11c-.23.04-.46.07-.69.1-.23.03-.46.06-.7.09-.24.03-.47.06-.71.08s-.48.05-.72.07c-.24.02-.48.04-.73.06-.24.02-.49.04-.74.05-.25.01-.49.03-.74.04-.25.01-.5.02-.75.03-.25,0-.5.01-.75.02s-.5,0-.75,0-.5,0-.75,0-.5,0-.75-.02c-.25,0-.5-.02-.75-.03-.25-.01-.5-.02-.74-.04-.25-.01-.49-.03-.74-.05-.24-.02-.49-.04-.73-.06-.24-.02-.48-.05-.72-.07s-.48-.05-.71-.08c-.24-.03-.47-.06-.7-.09-.23-.03-.46-.07-.69-.1-.23-.04-.45-.07-.67-.11s-.44-.08-.66-.12c-.22-.04-.43-.09-.64-.13s-.42-.09-.62-.14-.41-.1-.61-.15c-.2-.05-.39-.11-.59-.16-.19-.05-.38-.11-.56-.17-.18-.06-.37-.12-.54-.18s-.35-.12-.52-.19c-.17-.06-.33-.13-.49-.19-.16-.07-.32-.13-.47-.2-.15-.07-.3-.14-.44-.21s-.28-.14-.42-.21c-.13-.07-.26-.15-.39-.22s-.25-.15-.36-.22c-.12-.08-.23-.15-.33-.23s-.21-.16-.3-.23m-16.42-2.97c-.15-.16-.29-.32-.41-.48s-.24-.33-.35-.49-.2-.33-.29-.5c-.09-.17-.16-.33-.22-.5-.06-.17-.12-.33-.16-.5-.04-.17-.08-.34-.1-.5-.02-.17-.03-.34-.03-.51s.01-.34.03-.51c.02-.17.05-.34.1-.5.04-.17.1-.34.16-.5.06-.17.14-.33.22-.5.09-.17.18-.33.29-.5s.22-.33.35-.49.27-.32.41-.48c.15-.16.31-.32.48-.48.17-.16.35-.32.54-.47s.39-.31.6-.46.43-.3.65-.45c.23-.15.46-.3.71-.44s.5-.29.77-.43c.26-.14.54-.28.82-.42.28-.14.57-.27.87-.41.3-.13.61-.26.93-.39.32-.13.64-.26.97-.38.33-.12.67-.25,1.02-.36s.7-.24,1.07-.35c.36-.11.73-.22,1.11-.33.38-.11.76-.21,1.15-.32.39-.1.79-.2,1.19-.3.4-.1.81-.19,1.23-.28.42-.09.84-.18,1.26-.26s.86-.17,1.3-.24.88-.15,1.33-.22.9-.14,1.35-.2c.46-.06.91-.13,1.38-.18.46-.06.93-.11,1.4-.16.47-.05.94-.1,1.42-.14s.95-.08,1.44-.12c.48-.04.96-.07,1.45-.1.49-.03.97-.05,1.46-.08.49-.02.98-.04,1.47-.06.49-.01.98-.03,1.47-.03.49,0,.98-.01,1.48-.01s.99,0,1.48.01c.49,0,.98.02,1.47.03.49.01.98.03,1.47.06.49.02.98.05,1.46.08.49.03.97.06,1.45.1.48.04.96.08,1.44.12s.95.09,1.42.14c.47.05.94.1,1.4.16.46.06.92.12,1.38.18.46.06.91.13,1.35.2s.89.15,1.33.22.87.16,1.3.24.85.17,1.26.26c.42.09.83.18,1.23.28.4.1.8.2,1.19.3.39.1.78.21,1.15.32.38.11.75.22,1.11.33.36.11.72.23,1.07.35s.69.24,1.02.36c.33.12.66.25.97.38.32.13.63.26.93.39.3.13.59.27.87.41.28.14.56.28.82.42.26.14.52.29.77.43s.48.29.71.44c.23.15.45.3.65.45s.41.31.6.46.37.31.54.47c.17.16.33.32.48.48.15.16.29.32.41.48s.24.33.35.49.2.33.29.5c.09.17.16.33.22.5.06.17.12.33.16.5.04.17.08.34.1.5.02.17.03.34.03.51s-.01.34-.03.51c-.02.17-.05.34-.1.5-.04.17-.1.34-.16.5-.06.17-.14.33-.22.5-.09.17-.18.33-.29.5s-.22.33-.35.49-.27.32-.41.48-.31.32-.48.48c-.17.16-.35.32-.54.47s-.39.31-.6.46c-.21.15-.43.3-.65.45-.23.15-.46.3-.71.44-.25.15-.5.29-.77.43s-.54.28-.82.42c-.28.14-.57.27-.87.41-.3.13-.61.26-.93.39-.32.13-.64.26-.97.38-.33.12-.67.25-1.02.36-.35.12-.7.24-1.07.35-.36.11-.73.22-1.11.33-.38.11-.76.21-1.15.32-.39.1-.79.2-1.19.3-.4.1-.81.19-1.23.28-.42.09-.84.18-1.26.26s-.86.17-1.3.24-.88.15-1.33.22c-.45.07-.9.14-1.35.2-.46.06-.91.13-1.38.18-.46.06-.93.11-1.4.16s-.94.1-1.42.14-.95.08-1.44.12c-.48.04-.96.07-1.45.1-.49.03-.97.05-1.46.08-.49.02-.98.04-1.47.05-.49.01-.98.03-1.47.03-.49,0-.98.01-1.48.01s-.99,0-1.48-.01c-.49,0-.98-.02-1.47-.03-.49-.01-.98-.03-1.47-.05-.49-.02-.98-.05-1.46-.08-.49-.03-.97-.06-1.45-.1-.48-.04-.96-.08-1.44-.12s-.95-.09-1.42-.14-.94-.1-1.4-.16c-.46-.06-.92-.12-1.38-.18-.46-.06-.91-.13-1.35-.2-.45-.07-.89-.15-1.33-.22s-.87-.16-1.3-.24-.85-.17-1.26-.26c-.42-.09-.83-.18-1.23-.28-.4-.1-.8-.2-1.19-.3-.39-.1-.78-.21-1.15-.32-.38-.11-.75-.22-1.11-.33-.36-.11-.72-.23-1.07-.35-.35-.12-.69-.24-1.02-.36-.33-.12-.66-.25-.97-.38-.32-.13-.63-.26-.93-.39-.3-.13-.59-.27-.87-.41-.28-.14-.56-.28-.82-.42s-.52-.29-.77-.43c-.25-.15-.48-.29-.71-.44-.23-.15-.45-.3-.65-.45-.21-.15-.41-.31-.6-.46m-15.93-6.19c-.22-.23-.42-.47-.6-.71-.19-.24-.36-.48-.51-.72s-.3-.48-.42-.72c-.13-.24-.23-.49-.33-.73s-.17-.49-.24-.73c-.06-.25-.11-.49-.14-.74-.03-.25-.05-.49-.05-.74s.02-.49.05-.74c.03-.25.08-.49.14-.74.06-.25.14-.49.24-.73s.2-.49.33-.73c.13-.24.27-.48.42-.72s.33-.48.51-.72c.19-.24.39-.47.6-.71s.45-.47.69-.7c.25-.23.51-.46.78-.69s.57-.45.87-.68c.3-.22.62-.44.96-.66s.68-.43,1.04-.65c.36-.21.73-.42,1.12-.63s.79-.41,1.2-.61c.41-.2.84-.4,1.28-.6.44-.2.89-.39,1.35-.58.46-.19.94-.37,1.42-.56s.98-.36,1.49-.53c.51-.17,1.03-.34,1.56-.51.53-.17,1.07-.33,1.62-.49.55-.16,1.11-.31,1.68-.46.57-.15,1.15-.3,1.74-.44.59-.14,1.19-.28,1.8-.41.61-.13,1.22-.26,1.85-.38.62-.12,1.26-.24,1.89-.36s1.28-.22,1.94-.33,1.31-.2,1.98-.3c.67-.09,1.34-.18,2.01-.27.68-.08,1.36-.16,2.05-.24s1.38-.14,2.07-.21c.7-.06,1.4-.12,2.1-.18.7-.05,1.41-.1,2.12-.14.71-.04,1.42-.08,2.14-.11.71-.03,1.43-.06,2.15-.08.72-.02,1.44-.04,2.16-.05.72-.01,1.44-.02,2.16-.02s1.44,0,2.16.02c.72.01,1.44.03,2.16.05.72.02,1.43.05,2.15.08.71.03,1.43.07,2.14.11.71.04,1.42.09,2.12.14.7.05,1.4.11,2.1.18.7.06,1.39.13,2.07.21s1.37.15,2.05.24c.68.08,1.35.17,2.01.27.67.09,1.32.19,1.98.3s1.3.21,1.94.33,1.27.23,1.89.36c.62.12,1.24.25,1.85.38.61.13,1.21.27,1.8.41.59.14,1.17.29,1.74.44.57.15,1.13.3,1.68.46.55.16,1.09.32,1.62.49.53.17,1.05.34,1.56.51.51.17,1.01.35,1.49.53s.96.37,1.42.56c.46.19.91.38,1.35.58.44.2.86.39,1.28.6.41.2.81.41,1.2.61s.76.42,1.12.63c.36.21.71.43,1.04.65s.65.44.96.66c.3.22.59.45.87.68s.54.46.78.69c.25.23.48.46.69.7s.42.47.6.71c.19.24.36.48.51.72s.3.48.42.72c.13.24.23.49.33.73s.17.49.24.73c.06.25.11.49.14.74.03.25.05.49.05.74s-.02.49-.05.74c-.03.25-.08.49-.14.74-.06.25-.14.49-.24.73s-.2.49-.33.73c-.13.24-.27.48-.42.72s-.33.48-.51.72c-.19.24-.39.47-.6.71s-.45.47-.69.7c-.25.23-.51.46-.78.69s-.57.45-.87.68c-.3.22-.62.44-.96.66s-.68.43-1.04.65c-.36.21-.73.42-1.12.63s-.79.41-1.2.61c-.41.2-.84.4-1.2.56m-78.74,0c-.36-.16-.78-.36-1.2-.56-.41-.2-.81-.41-1.2-.61s-.76-.42-1.12-.63c-.36-.21-.71-.43-1.04-.65s-.65-.44-.96-.66c-.3-.22-.59-.45-.87-.68m-14.96-9.24c-.28-.3-.54-.61-.78-.91s-.46-.61-.66-.92-.38-.62-.54-.93c-.16-.31-.3-.62-.42-.94-.12-.31-.22-.63-.3-.94-.08-.32-.14-.63-.18-.95-.04-.32-.06-.63-.06-.95s.02-.63.06-.95c.04-.32.1-.63.18-.95.08-.32.18-.63.3-.94.12-.31.26-.63.42-.94.16-.31.34-.62.54-.93s.42-.62.66-.92c.24-.31.5-.61.78-.91.28-.3.58-.6.89-.9.32-.3.65-.59,1.01-.88s.73-.58,1.12-.87c.39-.29.8-.57,1.23-.85.43-.28.87-.56,1.34-.83s.94-.54,1.44-.81c.5-.27,1.01-.53,1.54-.79.53-.26,1.08-.51,1.64-.77.56-.25,1.14-.5,1.74-.74.6-.24,1.21-.48,1.83-.71.63-.23,1.27-.46,1.92-.69s1.32-.44,2.01-.66,1.38-.42,2.09-.63c.71-.2,1.43-.4,2.17-.59s1.48-.38,2.24-.56c.76-.18,1.53-.36,2.31-.53.78-.17,1.57-.33,2.37-.49.8-.16,1.61-.31,2.44-.46.82-.15,1.65-.29,2.49-.42.84-.13,1.69-.26,2.54-.38.86-.12,1.72-.24,2.59-.34.87-.11,1.75-.21,2.63-.31.88-.1,1.77-.18,2.67-.27s1.79-.16,2.7-.23c.9-.07,1.81-.13,2.72-.19.91-.05,1.83-.1,2.75-.14.92-.04,1.84-.08,2.76-.1.92-.03,1.85-.05,2.77-.06.93-.01,1.85-.02,2.78-.02s1.85,0,2.78.02c.93.01,1.85.03,2.77.06.92.03,1.84.06,2.76.1.92.04,1.83.09,2.75.14.91.05,1.82.12,2.72.19.9.07,1.8.14,2.7.23s1.78.17,2.67.27c.88.1,1.76.2,2.63.31.87.11,1.73.22,2.59.34.86.12,1.7.25,2.54.38.84.13,1.67.27,2.49.42.82.15,1.63.3,2.44.46.8.16,1.59.32,2.37.49.78.17,1.55.35,2.31.53.76.18,1.51.37,2.24.56s1.46.39,2.17.59c.71.2,1.41.41,2.09.63s1.35.43,2.01.66,1.3.45,1.92.69c.63.23,1.24.47,1.83.71.6.24,1.17.49,1.74.74.56.25,1.11.51,1.64.77.53.26,1.05.52,1.54.79.5.27.98.54,1.44.81.46.27.91.55,1.34.83.43.28.84.56,1.23.85s.76.58,1.12.87c.35.29.69.59,1.01.88.32.3.61.6.89.9s.54.61.78.91c.24.31.46.61.66.92.2.31.38.62.54.93.16.31.3.62.42.94.12.31.22.63.3.94s.14.63.18.95c.04.32.06.63.06.95s-.02.63-.06.95-.1.63-.18.95-.18.63-.3.94c-.12.31-.26.63-.42.94-.16.31-.34.62-.54.93-.2.31-.42.62-.66.92s-.5.61-.78.91-.58.6-.89.9-.65.59-1.01.88c-.35.29-.73.58-.97.77m-115.69,0c-.24-.19-.62-.48-.97-.77m-13.7-12.15c-.17-.2-.48-.56-.77-.93s-.55-.73-.79-1.1-.45-.74-.65-1.11c-.19-.37-.36-.74-.5-1.12-.14-.37-.26-.75-.36-1.12-.1-.38-.17-.75-.22-1.13s-.07-.75-.07-1.13.02-.75.07-1.13.12-.75.22-1.13c.1-.38.22-.75.36-1.12.14-.37.31-.75.5-1.12.19-.37.41-.74.65-1.11s.5-.73.79-1.1.59-.73.93-1.09c.33-.36.69-.72,1.06-1.07s.78-.71,1.2-1.05c.42-.35.87-.69,1.33-1.04.47-.34.95-.68,1.46-1.01s1.04-.67,1.59-.99c.55-.33,1.12-.65,1.72-.97.59-.32,1.21-.63,1.84-.94.63-.31,1.29-.61,1.96-.91.67-.3,1.36-.59,2.07-.88.71-.29,1.44-.57,2.18-.85.75-.28,1.51-.55,2.29-.82.78-.27,1.58-.53,2.39-.78.81-.25,1.64-.5,2.49-.75.85-.24,1.71-.48,2.58-.71s1.77-.45,2.67-.67c.9-.22,1.82-.43,2.75-.63.93-.2,1.87-.4,2.83-.59.96-.19,1.92-.37,2.9-.54.98-.17,1.97-.34,2.97-.5s2.01-.31,3.03-.46c1.02-.14,2.05-.28,3.09-.41,1.04-.13,2.08-.25,3.13-.36,1.05-.11,2.11-.22,3.18-.32,1.07-.1,2.14-.19,3.22-.27,1.08-.08,2.16-.16,3.25-.22,1.09-.07,2.18-.12,3.27-.17s2.19-.09,3.29-.12,2.2-.06,3.3-.07,2.21-.02,3.31-.02,2.21,0,3.31.02,2.2.04,3.3.07,2.2.07,3.29.12,2.18.11,3.27.17c1.09.07,2.17.14,3.25.22,1.08.08,2.15.17,3.22.27,1.07.1,2.13.2,3.18.32,1.05.11,2.1.23,3.13.36,1.04.13,2.07.27,3.09.41,1.02.14,2.03.3,3.03.46s1.99.33,2.97.5c.98.17,1.95.36,2.9.54.96.19,1.9.38,2.83.59.93.2,1.85.41,2.75.63.9.22,1.79.44,2.67.67s1.74.47,2.58.71c.85.24,1.68.49,2.49.75.81.25,1.61.52,2.39.78.78.27,1.54.54,2.29.82.75.28,1.47.56,2.18.85.71.29,1.4.58,2.07.88.67.3,1.32.6,1.96.91.63.31,1.25.62,1.84.94.59.32,1.17.64,1.72.97s1.08.66,1.59.99c.51.33,1,.67,1.46,1.01.47.34.91.69,1.33,1.04.42.35.82.7,1.2,1.05s.73.71,1.06,1.07c.33.36.64.72.93,1.09s.55.73.79,1.1c.24.37.45.74.65,1.11.19.37.36.74.5,1.12.14.37.26.75.36,1.12.1.38.17.75.22,1.13s.07.75.07,1.13-.02.75-.07,1.13-.12.75-.22,1.13-.22.75-.36,1.12-.31.75-.5,1.12c-.19.37-.41.74-.65,1.11-.24.37-.5.73-.79,1.1s-.59.73-.77.93m-157-15.86c-.2-.39-.39-.81-.55-1.23-.16-.42-.3-.85-.41-1.27-.11-.42-.19-.85-.24-1.28-.05-.43-.08-.85-.08-1.28s.03-.85.08-1.28c.05-.43.14-.85.24-1.28.11-.42.24-.85.41-1.27.16-.42.35-.84.57-1.26.22-.42.46-.84.73-1.25s.57-.83.89-1.24c.32-.41.67-.82,1.05-1.23.38-.41.78-.81,1.2-1.21s.88-.8,1.36-1.19c.48-.39.98-.78,1.51-1.17.53-.39,1.08-.77,1.66-1.15.58-.38,1.18-.75,1.8-1.12.62-.37,1.27-.73,1.94-1.09s1.36-.71,2.08-1.06c.72-.35,1.45-.69,2.21-1.03s1.54-.67,2.34-1,1.62-.65,2.47-.96,1.71-.62,2.59-.92c.88-.3,1.78-.6,2.7-.88.92-.29,1.86-.57,2.81-.84.96-.27,1.93-.54,2.92-.8.99-.26,2-.51,3.02-.76,1.02-.24,2.06-.48,3.11-.71,1.05-.23,2.12-.45,3.2-.66s2.17-.42,3.28-.62c1.11-.2,2.23-.39,3.36-.57,1.13-.18,2.27-.35,3.43-.52s2.32-.32,3.49-.46,2.35-.28,3.54-.41c1.19-.13,2.39-.25,3.59-.36s2.42-.21,3.63-.3c1.22-.09,2.44-.18,3.67-.25s2.46-.14,3.7-.19c1.24-.06,2.48-.1,3.72-.14s2.49-.07,3.73-.08c1.25-.02,2.49-.03,3.74-.03s2.49,0,3.74.03c1.25.02,2.49.05,3.73.08s2.48.08,3.72.14c1.24.06,2.47.12,3.7.19s2.45.16,3.67.25c1.22.09,2.43.19,3.63.3s2.4.23,3.59.36c1.19.13,2.37.27,3.54.41s2.34.3,3.49.46,2.29.33,3.43.52c1.13.18,2.25.37,3.36.57,1.11.2,2.2.4,3.28.62s2.15.43,3.2.66c1.05.23,2.09.47,3.11.71,1.02.24,2.03.5,3.02.76.99.26,1.96.53,2.92.8.96.27,1.89.56,2.81.84.92.29,1.82.58,2.7.88.88.3,1.74.61,2.59.92s1.67.64,2.47.96,1.58.66,2.34,1c.76.34,1.5.68,2.21,1.03.72.35,1.41.7,2.08,1.06.67.36,1.32.72,1.94,1.09.62.37,1.22.74,1.8,1.12s1.13.76,1.66,1.15c.53.39,1.03.78,1.51,1.17s.93.79,1.36,1.19.83.8,1.2,1.21c.38.41.72.82,1.05,1.23s.62.83.89,1.24c.27.42.51.83.73,1.25s.41.84.57,1.26c.16.42.3.85.41,1.27.11.42.19.85.24,1.28.05.43.08.85.08,1.28s-.03.85-.08,1.28c-.05.43-.14.85-.24,1.28-.11.42-.24.85-.41,1.27-.16.42-.35.84-.55,1.23M7.58,135.75c-.08-.24-.23-.7-.34-1.16-.12-.46-.21-.92-.27-1.38-.06-.46-.09-.92-.09-1.39s.03-.93.09-1.39c.06-.46.15-.92.27-1.38.12-.46.27-.92.44-1.38s.38-.92.62-1.37c.24-.46.5-.91.79-1.36.29-.45.61-.9.97-1.35.35-.45.73-.89,1.14-1.33.41-.44.84-.88,1.31-1.31s.95-.87,1.47-1.29,1.06-.85,1.64-1.27c.57-.42,1.17-.83,1.8-1.24s1.28-.82,1.95-1.22c.68-.4,1.38-.8,2.11-1.19.73-.39,1.48-.78,2.26-1.15.78-.38,1.58-.75,2.4-1.12.82-.37,1.67-.73,2.54-1.08s1.76-.7,2.68-1.04c.91-.34,1.85-.68,2.81-1,.96-.33,1.94-.65,2.93-.96s2.02-.62,3.05-.92c1.04-.3,2.09-.59,3.17-.87,1.07-.28,2.17-.56,3.27-.82s2.23-.52,3.38-.77c1.14-.25,2.3-.49,3.47-.72,1.17-.23,2.36-.45,3.56-.67,1.2-.21,2.41-.42,3.64-.61,1.23-.2,2.47-.38,3.72-.56,1.25-.18,2.51-.34,3.78-.5,1.27-.16,2.55-.31,3.84-.45s2.59-.27,3.9-.39c1.31-.12,2.62-.23,3.94-.33,1.32-.1,2.65-.19,3.98-.27s2.67-.15,4.01-.21c1.34-.06,2.69-.11,4.04-.15s2.7-.07,4.05-.09,2.71-.03,4.06-.03,2.71.01,4.06.03,2.7.05,4.05.09,2.69.09,4.04.15c1.34.06,2.68.13,4.01.21s2.66.17,3.98.27c1.32.1,2.64.21,3.94.33,1.31.12,2.61.25,3.9.39s2.57.29,3.84.45c1.27.16,2.53.33,3.78.5,1.25.18,2.49.36,3.72.56,1.23.2,2.44.4,3.64.61,1.2.21,2.39.44,3.56.67,1.17.23,2.33.47,3.47.72,1.14.25,2.27.51,3.38.77s2.2.54,3.27.82c1.07.28,2.13.57,3.17.87,1.04.3,2.05.6,3.05.92,1,.31,1.98.63,2.93.96.96.33,1.89.66,2.81,1,.91.34,1.81.69,2.68,1.04s1.72.72,2.54,1.08c.82.37,1.62.74,2.4,1.12.78.38,1.53.76,2.26,1.15.73.39,1.43.79,2.11,1.19.68.4,1.33.81,1.95,1.22s1.22.83,1.8,1.24c.57.42,1.12.84,1.64,1.27s1.01.86,1.47,1.29c.46.43.9.87,1.31,1.31.41.44.79.89,1.14,1.33.35.45.67.9.97,1.35s.56.91.79,1.36c.24.46.44.91.62,1.37.18.46.32.92.44,1.38.12.46.21.92.27,1.38.06.46.09.92.09,1.39s-.03.93-.09,1.39-.15.92-.27,1.38c-.12.46-.27.92-.34,1.16M2.47,117.48c-.03-.36-.06-.84-.06-1.33s.03-.97.09-1.45c.06-.48.15-.97.28-1.45.12-.48.28-.97.46-1.45.19-.48.4-.96.65-1.44.25-.48.52-.95.83-1.43.31-.47.64-.94,1.01-1.41.37-.47.76-.93,1.19-1.4.43-.46.88-.92,1.37-1.38.49-.46,1-.91,1.54-1.36.54-.45,1.11-.89,1.71-1.33.6-.44,1.23-.87,1.88-1.3.66-.43,1.34-.86,2.05-1.28.71-.42,1.45-.83,2.21-1.24s1.55-.81,2.36-1.21,1.65-.79,2.52-1.17,1.75-.76,2.66-1.13c.91-.37,1.85-.74,2.81-1.09.96-.36,1.94-.71,2.94-1.05s2.03-.68,3.07-1.01c1.05-.33,2.11-.65,3.2-.96,1.09-.31,2.19-.62,3.32-.91,1.13-.3,2.27-.58,3.43-.86,1.16-.28,2.34-.55,3.54-.81,1.2-.26,2.41-.51,3.64-.75,1.23-.24,2.47-.48,3.73-.7,1.26-.22,2.53-.44,3.82-.64s2.58-.4,3.9-.59c1.31-.19,2.63-.36,3.97-.53,1.33-.17,2.68-.32,4.03-.47,1.35-.15,2.72-.28,4.09-.41,1.37-.13,2.75-.24,4.13-.35,1.38-.1,2.78-.2,4.17-.28,1.4-.08,2.8-.16,4.21-.22,1.41-.06,2.82-.12,4.23-.16s2.83-.07,4.25-.1,2.84-.03,4.25-.03,2.84.01,4.25.03,2.83.05,4.25.1,2.82.1,4.23.16c1.41.06,2.81.14,4.21.22,1.4.08,2.79.18,4.17.28,1.38.1,2.76.22,4.13.35,1.37.13,2.73.26,4.09.41,1.35.15,2.7.3,4.03.47,1.33.17,2.66.34,3.97.53,1.31.19,2.61.38,3.9.59s2.56.42,3.82.64c1.26.22,2.5.46,3.73.7,1.23.24,2.44.49,3.64.75,1.2.26,2.38.53,3.54.81,1.16.28,2.31.56,3.43.86s2.23.6,3.32.91c1.09.31,2.15.63,3.2.96,1.05.33,2.07.66,3.07,1.01,1,.34,1.98.69,2.94,1.05.96.36,1.89.72,2.81,1.09.91.37,1.8.75,2.66,1.13.86.38,1.7.78,2.52,1.17.81.4,1.6.8,2.36,1.21s1.5.82,2.21,1.24c.71.42,1.39.85,2.05,1.28s1.28.87,1.88,1.3c.6.44,1.17.88,1.71,1.33s1.06.9,1.54,1.36c.49.46.94.91,1.37,1.38.43.46.82.93,1.19,1.4s.7.94,1.01,1.41c.31.47.58.95.83,1.43.25.48.46.96.65,1.44.19.48.34.96.46,1.45.12.48.22.97.28,1.45.06.48.09.97.09,1.45s-.03.97-.06,1.33M2.8,80.82c.11-.37.26-.85.45-1.33.19-.48.4-.96.65-1.44.25-.48.52-.95.83-1.43.31-.47.64-.94,1.01-1.41.37-.47.76-.93,1.19-1.4.43-.46.88-.92,1.37-1.38.49-.46,1-.91,1.54-1.36.54-.45,1.11-.89,1.71-1.33.6-.44,1.23-.87,1.88-1.3.66-.43,1.34-.86,2.05-1.28.71-.42,1.45-.83,2.21-1.24s1.55-.81,2.36-1.21,1.65-.79,2.52-1.17,1.75-.76,2.66-1.13,1.85-.74,2.81-1.09c.96-.36,1.94-.71,2.94-1.05,1-.34,2.03-.68,3.07-1.01,1.05-.33,2.11-.65,3.2-.96s2.19-.62,3.32-.91c1.13-.3,2.27-.58,3.43-.86,1.16-.28,2.34-.55,3.54-.81s2.41-.51,3.64-.75,2.47-.48,3.73-.7c1.26-.22,2.53-.44,3.82-.64s2.58-.4,3.9-.59c1.31-.19,2.63-.36,3.97-.53,1.33-.17,2.68-.32,4.03-.47,1.35-.15,2.72-.28,4.09-.41,1.37-.13,2.75-.24,4.13-.35,1.38-.1,2.78-.2,4.17-.28,1.4-.08,2.8-.16,4.21-.22,1.41-.06,2.82-.12,4.23-.16s2.83-.07,4.25-.1,2.84-.03,4.25-.03,2.84.01,4.25.03,2.83.05,4.25.1,2.82.1,4.23.16c1.41.06,2.81.14,4.21.22,1.4.08,2.79.18,4.17.28,1.38.1,2.76.22,4.13.35,1.37.13,2.73.26,4.09.41,1.35.15,2.7.3,4.03.47,1.33.17,2.66.34,3.97.53,1.31.19,2.61.38,3.9.59s2.56.42,3.82.64c1.26.22,2.5.46,3.73.7s2.44.49,3.64.75,2.38.53,3.54.81c1.16.28,2.31.56,3.43.86s2.23.6,3.32.91,2.15.63,3.2.96c1.05.33,2.07.66,3.07,1.01,1,.34,1.98.69,2.94,1.05.96.36,1.89.72,2.81,1.09s1.8.75,2.66,1.13c.86.38,1.7.78,2.52,1.17.81.4,1.6.8,2.36,1.21s1.5.82,2.21,1.24c.71.42,1.39.85,2.05,1.28s1.28.87,1.88,1.3c.6.44,1.17.88,1.71,1.33s1.06.9,1.54,1.36c.49.46.94.91,1.37,1.38.43.46.82.93,1.19,1.4.37.47.7.94,1.01,1.41.31.47.58.95.83,1.43.25.48.46.96.65,1.44.19.48.34.96.45,1.33M8.3,62.64c.23-.45.5-.9.79-1.35.29-.45.61-.9.97-1.35s.73-.89,1.14-1.33.84-.88,1.31-1.31c.46-.43.95-.87,1.47-1.29.52-.43,1.06-.85,1.64-1.27.57-.42,1.17-.83,1.8-1.24.63-.41,1.28-.82,1.95-1.22.68-.4,1.38-.8,2.11-1.19.73-.39,1.48-.78,2.26-1.15s1.58-.75,2.4-1.12,1.67-.73,2.54-1.08c.87-.35,1.76-.7,2.68-1.04.91-.34,1.85-.68,2.81-1,.96-.33,1.94-.65,2.93-.96s2.02-.62,3.05-.92c1.04-.3,2.09-.59,3.17-.87,1.07-.28,2.17-.56,3.27-.82,1.11-.27,2.23-.52,3.38-.77,1.14-.25,2.3-.49,3.47-.72s2.36-.45,3.56-.67c1.2-.21,2.41-.42,3.64-.61,1.23-.2,2.47-.38,3.72-.56,1.25-.18,2.51-.34,3.78-.5,1.27-.16,2.55-.31,3.84-.45,1.29-.14,2.59-.27,3.9-.39,1.31-.12,2.62-.23,3.94-.33s2.65-.19,3.98-.27,2.67-.15,4.01-.21c1.34-.06,2.69-.11,4.04-.15,1.35-.04,2.7-.07,4.05-.09s2.71-.03,4.06-.03,2.71.01,4.06.03,2.7.05,4.05.09c1.35.04,2.69.09,4.04.15,1.34.06,2.68.13,4.01.21s2.66.17,3.98.27,2.64.21,3.94.33c1.31.12,2.61.25,3.9.39,1.29.14,2.57.29,3.84.45,1.27.16,2.53.33,3.78.5,1.25.18,2.49.36,3.72.56,1.23.2,2.44.4,3.64.61,1.2.21,2.39.44,3.56.67s2.33.47,3.47.72c1.14.25,2.27.51,3.38.77,1.11.27,2.2.54,3.27.82,1.07.28,2.13.57,3.17.87s2.05.6,3.05.92c1,.31,1.98.63,2.93.96.96.33,1.89.66,2.81,1s1.81.69,2.68,1.04c.87.35,1.72.72,2.54,1.08.82.37,1.62.74,2.4,1.12.78.38,1.53.76,2.26,1.15.73.39,1.43.79,2.11,1.19.68.4,1.33.81,1.95,1.22.63.41,1.22.83,1.8,1.24.57.42,1.12.84,1.64,1.27.52.43,1.01.86,1.47,1.29.46.43.9.87,1.31,1.31s.79.89,1.14,1.33c.35.45.67.9.97,1.35s.56.91.79,1.35M16.31,46.95c.17-.24.46-.65.79-1.06.32-.41.67-.82,1.05-1.23.38-.41.78-.81,1.2-1.21s.88-.8,1.36-1.19c.48-.39.98-.78,1.51-1.17.53-.39,1.08-.77,1.66-1.15.58-.38,1.18-.75,1.8-1.12.62-.37,1.27-.73,1.94-1.09s1.36-.71,2.08-1.06c.72-.35,1.45-.69,2.21-1.03.76-.34,1.54-.67,2.34-1s1.62-.65,2.47-.96,1.71-.62,2.59-.92,1.78-.6,2.7-.88c.92-.29,1.86-.57,2.81-.84.96-.27,1.93-.54,2.92-.8.99-.26,2-.51,3.02-.76,1.02-.24,2.06-.48,3.11-.71,1.05-.23,2.12-.45,3.2-.66s2.17-.42,3.28-.62c1.11-.2,2.23-.39,3.36-.57,1.13-.18,2.27-.35,3.43-.52s2.32-.32,3.49-.46c1.17-.15,2.35-.28,3.54-.41,1.19-.13,2.39-.25,3.59-.36s2.42-.21,3.63-.3c1.22-.09,2.44-.18,3.67-.25,1.23-.07,2.46-.14,3.7-.19,1.24-.06,2.48-.1,3.72-.14s2.49-.07,3.73-.08,2.49-.03,3.74-.03,2.49,0,3.74.03,2.49.05,3.73.08,2.48.08,3.72.14c1.24.06,2.47.12,3.7.19,1.23.07,2.45.16,3.67.25,1.22.09,2.43.19,3.63.3s2.4.23,3.59.36c1.19.13,2.37.27,3.54.41,1.17.15,2.34.3,3.49.46s2.29.33,3.43.52c1.13.18,2.25.37,3.36.57,1.11.2,2.2.4,3.28.62s2.15.43,3.2.66c1.05.23,2.09.47,3.11.71,1.02.24,2.03.5,3.02.76.99.26,1.96.53,2.92.8s1.89.56,2.81.84c.92.29,1.82.58,2.7.88.88.3,1.74.61,2.59.92s1.67.64,2.47.96,1.58.66,2.34,1c.76.34,1.5.68,2.21,1.03.72.35,1.41.7,2.08,1.06.67.36,1.32.72,1.94,1.09.62.37,1.22.74,1.8,1.12.58.38,1.13.76,1.66,1.15.53.39,1.03.78,1.51,1.17.48.39.93.79,1.36,1.19s.83.8,1.2,1.21c.38.41.72.82,1.05,1.23s.62.83.79,1.06M28.67,31.3c.36-.33.76-.69,1.18-1.03.42-.35.87-.69,1.33-1.04s.95-.68,1.46-1.01c.51-.33,1.04-.67,1.59-.99.55-.33,1.12-.65,1.72-.97.59-.32,1.21-.63,1.84-.94.63-.31,1.29-.61,1.96-.91.67-.3,1.36-.59,2.07-.88.71-.29,1.44-.57,2.18-.85.75-.28,1.51-.55,2.29-.82.78-.27,1.58-.53,2.39-.78.81-.25,1.64-.5,2.49-.75.85-.24,1.71-.48,2.58-.71.88-.23,1.77-.45,2.67-.67.9-.22,1.82-.43,2.75-.63.93-.2,1.87-.4,2.83-.59.96-.19,1.92-.37,2.9-.54.98-.17,1.97-.34,2.97-.5s2.01-.31,3.03-.46c1.02-.14,2.05-.28,3.09-.41,1.04-.13,2.08-.25,3.13-.36,1.05-.11,2.11-.22,3.18-.32,1.07-.1,2.14-.19,3.22-.27,1.08-.08,2.16-.16,3.25-.22s2.18-.12,3.27-.17,2.19-.09,3.29-.12,2.2-.06,3.3-.07,2.21-.02,3.31-.02,2.21,0,3.31.02,2.2.04,3.3.07,2.2.07,3.29.12,2.18.11,3.27.17,2.17.14,3.25.22c1.08.08,2.15.17,3.22.27,1.07.1,2.13.2,3.18.32,1.05.11,2.1.23,3.13.36,1.04.13,2.07.27,3.09.41,1.02.14,2.03.3,3.03.46s1.99.33,2.97.5c.98.17,1.95.36,2.9.54.96.19,1.9.38,2.83.59.93.2,1.85.41,2.75.63.9.22,1.79.44,2.67.67.88.23,1.74.47,2.58.71.85.24,1.68.49,2.49.75.81.25,1.61.52,2.39.78.78.27,1.54.54,2.29.82.75.28,1.47.56,2.18.85.71.29,1.4.58,2.07.88.67.3,1.32.6,1.96.91.63.31,1.25.62,1.84.94.59.32,1.17.64,1.72.97s1.08.66,1.59.99c.51.33,1,.67,1.46,1.01.47.34.91.69,1.33,1.04.42.35.82.7,1.18,1.03m-127.68-12.67c.37-.24.82-.52,1.28-.79s.94-.54,1.44-.81c.5-.27,1.01-.53,1.54-.79.53-.26,1.08-.51,1.64-.77.56-.25,1.14-.5,1.74-.74.6-.24,1.21-.48,1.83-.71s1.27-.46,1.92-.69,1.32-.44,2.01-.66,1.38-.42,2.09-.63c.71-.2,1.43-.4,2.17-.59s1.48-.38,2.24-.56c.76-.18,1.53-.36,2.31-.53.78-.17,1.57-.33,2.37-.49.8-.16,1.61-.31,2.44-.46.82-.15,1.65-.29,2.49-.42.84-.13,1.69-.26,2.54-.38.86-.12,1.72-.24,2.59-.34.87-.11,1.75-.21,2.63-.31.88-.1,1.77-.18,2.67-.27s1.79-.16,2.7-.23c.9-.07,1.81-.13,2.72-.19.91-.05,1.83-.1,2.75-.14s1.84-.08,2.76-.1c.92-.03,1.85-.05,2.77-.06.93-.01,1.85-.02,2.78-.02s1.85,0,2.78.02c.93.01,1.85.03,2.77.06.92.03,1.84.06,2.76.1s1.83.09,2.75.14c.91.05,1.82.12,2.72.19.9.07,1.8.14,2.7.23s1.78.17,2.67.27c.88.1,1.76.2,2.63.31.87.11,1.73.22,2.59.34.86.12,1.7.25,2.54.38.84.13,1.67.27,2.49.42.82.15,1.63.3,2.44.46.8.16,1.59.32,2.37.49.78.17,1.55.35,2.31.53.76.18,1.51.37,2.24.56s1.46.39,2.17.59c.71.2,1.41.41,2.09.63s1.35.43,2.01.66,1.3.45,1.92.69,1.24.47,1.83.71c.6.24,1.17.49,1.74.74.56.25,1.11.51,1.64.77.53.26,1.05.52,1.54.79.5.27.98.54,1.44.81.46.27.91.55,1.28.79M62.15,8.47c.32-.13.79-.31,1.28-.49.49-.18.98-.36,1.49-.53.51-.17,1.03-.34,1.56-.51.53-.17,1.07-.33,1.62-.49.55-.16,1.11-.31,1.68-.46.57-.15,1.15-.3,1.74-.44s1.19-.28,1.8-.41c.61-.13,1.22-.26,1.85-.38.62-.12,1.26-.24,1.89-.36s1.28-.22,1.94-.33,1.31-.2,1.98-.3c.67-.09,1.34-.18,2.01-.27s1.36-.16,2.05-.24c.69-.07,1.38-.14,2.07-.21.7-.06,1.4-.12,2.1-.18.7-.05,1.41-.1,2.12-.14s1.42-.08,2.14-.11c.71-.03,1.43-.06,2.15-.08.72-.02,1.44-.04,2.16-.05.72-.01,1.44-.02,2.16-.02s1.44,0,2.16.02c.72.01,1.44.03,2.16.05.72.02,1.43.05,2.15.08.71.03,1.43.07,2.14.11s1.42.09,2.12.14c.7.05,1.4.11,2.1.18.7.06,1.39.13,2.07.21.69.07,1.37.15,2.05.24s1.35.17,2.01.27c.67.09,1.32.19,1.98.3s1.3.21,1.94.33,1.27.23,1.89.36c.62.12,1.24.25,1.85.38.61.13,1.21.27,1.8.41s1.17.29,1.74.44c.57.15,1.13.3,1.68.46.55.16,1.09.32,1.62.49.53.17,1.05.34,1.56.51.51.17,1.01.35,1.49.53.49.18.96.37,1.28.49"/>
  <path class="cls-2" d="m102.48,186.52c-.27.11-.65.07-.91-.04s-.4-.31-.13-.42c.27-.11.94-.15,1.2-.03.26.12.11.38-.16.5m-20.68,5.08c-.25.04-.82.04-1.18-.02-.35-.06-.49-.18-.24-.22s.88,0,1.23.06c.35.06.43.14.18.18m25.58-5.41c-.58.38-1.42.55-1.93.52-.51-.04-.68-.29-.58-.49.11-.2.5-.34.97-.61.47-.28,1.02-.7,1.49-.88.47-.18.85-.12.89.19.04.32-.27.89-.84,1.27m-21.21-6.57c-.06.12-.76.24-1.05.18-.29-.06-.17-.3.18-.36.35-.06.93.06.87.18m13.99-1.59c-.51.26-1.46.33-2.02.25s-.74-.33-.56-.54c.17-.21.7-.39.97-.79.28-.4.31-1.02.48-1.45s.47-.67.79-.4c.32.27.66,1.04.8,1.64s.06,1.04-.45,1.29m-22.28,18.47c-.38-.09-.28-.08-.54-.19-.26-.1-.89-.32-1.39-.48-.51-.16-.89-.27-1.2-.46-.31-.2-.55-.48-.92-.77-.37-.29-.88-.58-1.09-.77-.21-.19-.13-.29.46-.22.59.07,1.69.3,2.55.5.85.21,1.46.39,2.1.53.63.15,1.28.26,2,.34.72.08,1.51.14,2.17.11s1.2-.14,1.73-.12c.53.02,1.06.18,1.77.26.72.08,1.63.08,2.3,0,.68-.07,1.12-.22,1.67-.43.55-.21,1.2-.47,1.49-.65.28-.18.2-.27.2-.33s.1-.1.15-.11t-.12-.02c-.16,0-.49-.01-.59-.06-.09-.05.05-.14-.09-.23-.14-.09-.56-.19-.58-.25-.03-.07.34-.11.74-.19.4-.08.84-.2.99-.3.15-.09,0-.16.09-.22.09-.07.43-.13.46-.24.04-.1-.21-.24-.47-.33-.25-.1-.51-.15-.76-.12-.25.03-.5.13-.81.2s-.69.08-1.34.01c-.65-.07-1.58-.24-2.33-.31-.75-.07-1.31-.05-1.5-.12s0-.23-.05-.4c-.06-.17-.37-.36-.73-.51s-.76-.26-1.15-.31c-.39-.05-.76-.03-1.07.07-.31.1-.56.27-.98.35-.43.08-1.03.06-1.53-.01s-.91-.21-1.04-.39c-.14-.18-.01-.41-.13-.71-.12-.3-.5-.68-.98-.96-.49-.28-1.08-.47-1.31-.6s-.07-.19-.08-.56c0-.38-.18-1.07.42-1.74.6-.67,1.97-1.32,2.82-1.86.84-.54,1.16-.98,1.95-1.1.8-.12,2.07.09,3.15.11s1.95-.14,1.79-.59c-.16-.45-1.36-1.2-1.7-1.6s.19-.46.86-.41c.67.06,1.48.23,2.43.13.95-.1,2.03-.47,3.18-.56,1.15-.09,2.38.09,3.04.05.67-.04.78-.3,1.2-.3.42,0,1.14.25,2.09.21.95-.05,2.11-.39,2.84-.66.72-.26,1-.45,1.06-.96.06-.52-.1-1.38-.08-2.33.02-.96.23-2.01.94-3.06.71-1.05,1.93-2.09,3.15-2.84,1.21-.75,2.41-1.2,2.91-1.23s.29.37-.27.69c-.56.32-1.46.57-1.9.92s-.43.79-.84,1.27c-.41.48-1.25,1-1.38,1.93-.12.93.47,2.27.75,3.31s.25,1.78.08,2.36c-.17.58-.48,1-1.29,1.55-.81.55-2.13,1.24-3.23,1.6-1.1.37-1.97.41-2.2.56s.2.4.4.62.17.43-.02.57c-.19.13-.55.19-.7.34s-.1.39.1.66.54.57,1.37,1.02,2.13,1.05,2.79,1.47c.66.41.67.64,1.1.59s1.28-.37,1.92-.45c.64-.08,1.08.09,1.56.11s1.03-.1,1.82-.19c.8-.09,1.85-.15,2.53-.32.68-.17.99-.46.87-.65s-.7-.27-.81-.46c-.11-.19.23-.49,1.03-.77.8-.28,2.05-.55,3.1-.66s1.89-.05,2.97-.09c1.08-.05,2.4-.2,3.16-.37.76-.17.97-.37,1.97-.66,1-.29,2.78-.68,3.69-.74.91-.06.96.21,1.19.26.23.05.65-.11.93.08.28.2.42.76,1.15,1.15s2.08.64,2.55.89c.47.25.07.51.14.63.07.13.6.12.93.3.32.19.44.56.27.93-.17.37-.61.74-.77,1.09-.16.36-.02.71.2.94.22.23.52.35.87.38.35.03.76-.03.5.19s-1.2.72-1.54.98c-.34.25-.09.26.07.48s.25.66.36.89c.11.23.26.25.1.39-.16.13-.62.37-1.29.63-.67.26-1.56.55-2.4.82-.85.28-1.66.55-2.07.7s-.43.2-.91.36-1.45.45-2.29.66c-.84.21-1.56.34-2.19.41s-1.19.09-1.71.16c-.53.07-1.03.2-1.12.29-.09.09.22.13.12.22s-.59.22-.81.29c-.22.07-.16.08-.27.12s-.4.1-.55.13q-.14.03-1,.16c-.85.13-2.56.4-4.28.62-1.71.22-3.43.4-5.16.53-1.72.13-3.45.22-5.18.26-1.73.04-3.46.04-5.18,0-1.73-.05-3.45-.14-5.18-.28-1.72-.14-3.44-.32-4.88-.5-1.44-.18-2.59-.35-3.74-.55-1.15-.19-2.29-.41-3.3-.61-1-.2-1.87-.4-2.25-.49m26.05-40.07c-.08.42-1.12.82-2.11.9-.99.07-1.92-.19-3.04-.84s-2.4-1.69-2.42-1.92,1.23.34,2.28.28c1.05-.06,1.9-.75,2.47-.8s.86.54,1.44,1.04,1.47.93,1.39,1.35m7.09-3.68c-.5.15-1.1-.05-.9-.31s1.19-.57,1.49-.46-.09.62-.59.77m-12.18-115.94c1.16.28,2.51.85,2.26,1.26-.25.41-2.1.67-3.26.39s-1.62-1.09-1.37-1.5c.25-.41,1.21-.43,2.37-.15m-9.96-2.22c1.43.47,2.87.98,2.62,1.36-.25.38-2.18.64-3.38.4s-1.66-.98-2.94-1.51-3.36-.86-3.59-1.1,1.39-.38,2.91-.23c1.52.15,2.95.6,4.38,1.08m-42.51-17.38c-.1-.05.07-.28.33-.47.26-.19.6-.34.69-.29.1.05-.05.28-.31.48-.26.19-.62.33-.71.29M116,7.83c.56.19,1.45.34,2.15.62s1.22.68.86.82c-.36.13-1.61,0-2.86-.12-1.25-.11-2.51-.21-2.84-.6s.26-1.08.69-1.36c.43-.28.71-.15.96.04.25.18.48.41,1.04.6m36.75,8.42c-.47-.29-1.18-.74-1.53-.96q-.35-.22.12.07c.47.29,1.42.88,1.77,1.11.35.22.11.08-.36-.22M91.4,1.81c.14.02-.56.05-1.28.13s-1.45.2-1.85.24c-.4.04-.46-.01-.24-.1.22-.09.73-.21,1.49-.26.75-.05,1.75-.03,1.89,0m92.18,151.08c-.38.52-.79,1.03-1.1,1.34-.32.31-.54.43-.59.21-.04-.22.09-.78.02-1.09-.07-.31-.36-.36-.35-.72,0-.35.3-1,.8-1.84.49-.83,1.18-1.85,1.84-3.02.66-1.17,1.29-2.51,1.89-3.85.6-1.35,1.17-2.71,1.76-4.05.59-1.34,1.19-2.66,1.76-3.99.57-1.33,1.11-2.67,1.56-3.97.44-1.3.78-2.56,1.1-3.83.32-1.27.61-2.55.86-3.57s.48-1.78.81-2.68c.33-.9.76-1.93,1.16-2.97.4-1.04.77-2.09,1.12-3.58.35-1.49.68-3.44.89-4.95.21-1.51.3-2.59.37-3.67.07-1.08.12-2.16.12-3.39,0-1.22-.06-2.59-.15-3.96-.09-1.37-.21-2.73-.24-3.93-.03-1.2.02-2.24.06-3.27.03-1.03.04-2.07-.05-3.16s-.3-2.26-.56-2.95-.57-.92-.89-1.72c-.32-.8-.66-2.17-1.09-3.07-.44-.9-.97-1.33-1.51-1.5-.54-.17-1.09-.07-1.6-.34s-.99-.88-1.65-1.28c-.66-.4-1.5-.57-2.13-.92-.63-.35-1.06-.87-1.59-1.69-.53-.82-1.17-1.94-1.83-3.05-.66-1.11-1.35-2.22-2.11-3.71-.76-1.5-1.6-3.39-2.37-4.81-.77-1.41-1.48-2.35-2.14-3.53-.66-1.18-1.28-2.61-1.48-3.59-.2-.97.02-1.49,0-2.21-.01-.73-.25-1.67-.51-2.6-.26-.93-.53-1.85-.86-2.58s-.74-1.27-.96-2.04c-.23-.78-.29-1.79-.37-2.78-.09-.99-.21-1.96-.03-2.87s.64-1.77.55-2.81c-.09-1.04-.75-2.27-1.01-2.93-.26-.66-.11-.76-.18-1.06-.07-.3-.35-.81-.04-.67.31.14,1.21.92,1.73,1.3s.65.35.85.47.46.4.59.54q.13.14.67.82c.53.68,1.6,2.04,2.64,3.42,1.03,1.38,2.03,2.8,2.99,4.23.96,1.44,1.88,2.9,2.76,4.38.88,1.48,1.73,2.99,2.53,4.52s1.57,3.08,2.29,4.65c.72,1.57,1.4,3.16,2.04,4.76s1.24,3.23,1.79,4.86c.55,1.64,1.07,3.29,1.54,4.95.47,1.66.89,3.34,1.27,5.02.38,1.68.72,3.38,1.01,5.08.29,1.7.54,3.41.74,5.13.2,1.72.36,3.44.47,5.16.11,1.72.18,3.45.2,5.18.02,1.73,0,3.45-.07,5.18-.07,1.73-.18,3.45-.34,5.17s-.36,3.44-.61,5.15-.54,3.41-.88,5.11c-.34,1.69-.72,3.38-1.15,5.05s-.9,3.34-1.41,4.99-1.07,3.29-1.67,4.91c-.6,1.62-1.24,3.22-1.92,4.81s-1.41,3.16-2.1,4.57c-.69,1.42-1.35,2.68-2.03,3.92-.68,1.25-1.4,2.48-1.93,3.36-.53.88-.89,1.42-1.27,1.94m-12.69-121.98c.35.38,1.03,1.13,1.53,1.73.5.61.81,1.07.78,1.21-.03.14-.41-.05-.87-.41s-1-.91-1.51-1.34-1-.73-1.6-1.27c-.6-.54-1.32-1.31-1.92-2.01-.6-.7-1.09-1.31-1.78-2.05-.69-.73-1.58-1.58-2.01-2.04-.43-.45-.4-.51-.07-.33.32.18.93.61,1.52,1.06.59.45,1.17.91,1.18.89,0-.02-.56-.54-.85-.79q-.28-.26.19.17c.47.42,1.41,1.27,2.33,2.14.92.87,1.83,1.75,2.28,2.2.45.44.46.45.8.83m-11.37-10.03c-.08-.06-.06-.04-.05-.04t.09.07c.08.06.24.18.23.17-.01,0-.19-.14-.27-.2M88.78,1.65c.31-.03.91-.11,1.21-.16s.3-.04.59-.07c.29-.03.87-.08,1.34-.12.46-.04.8-.06.85-.05.05.01-.19.06-.82.13-.64.07-1.67.17-2.5.29-.83.11-1.45.24-2.13.36-.68.12-1.41.24-2.2.4-.79.16-1.62.35-2.46.57-.83.21-1.67.44-2.34.68-.68.24-1.19.48-1.27.58-.08.1.29.06.44.14.15.07.09.26.52.31.43.05,1.35-.04,2.31-.04.97,0,1.99.1,2.93.12s1.8-.03,2.23.19c.43.21.44.69.66.99.23.31.67.45,1.17.38.5-.06,1.06-.34,1.21-.63.15-.3-.11-.62.36-.94s1.65-.65,2.01-.93-.1-.54-.12-.74c-.02-.19.39-.32.58-.49.18-.17.14-.39.69-.52.55-.13,1.69-.18,2.58-.16.89.02,1.53.12,2.1.17.57.05,1.06.06,1.36.16s.39.32.69.47.8.24,1.47.18c.67-.06,1.5-.27,2.2-.27.7,0,1.28.19,1.85.4s1.15.44,1.39.6c.25.15.16.23.91.44.75.21,2.33.55,3.53.96,1.2.4,2.02.87,1.75,1.22-.27.36-1.62.6-2.88.69s-2.42.03-3.59-.02c-1.16-.05-2.33-.07-3.35.08-1.02.15-1.91.48-2.79.83-.88.35-1.76.73-1.34.68.43-.05,2.16-.54,3.48-.46s2.22.74,3.6,1.15c1.38.41,3.25.57,3.65.76.4.19-.66.41-1.73.65-1.07.24-2.14.51-3.02.48s-1.58-.37-2.57-.4c-.99-.03-2.28.24-2.89.65s-.55.95-1.15,1.28c-.6.33-1.86.46-3.17,1.02-1.31.56-2.66,1.55-3.37,2.42-.72.87-.8,1.63-1.54,2.32-.74.69-2.14,1.31-3.63,2.22-1.49.91-3.06,2.1-3.6,3.41-.53,1.31-.02,2.73-.09,3.79s-.71,1.78-1.53,1.25c-.82-.52-1.81-2.28-2.94-3.18-1.13-.9-2.39-.96-3.78-.86-1.4.1-2.94.35-3.71.66-.77.31-.77.69-1.27.84s-1.49.09-2.7.2c-1.21.11-2.65.39-4.1,1.05-1.45.65-2.93,1.68-3.87,2.71-.94,1.03-1.35,2.06-1.74,3.11s-.78,2.12-.66,3.38c.12,1.26.73,2.7,1.38,3.52.65.82,1.32,1.01,2.62.72s3.22-1.07,4.37-1.86c1.15-.79,1.52-1.58,2.54-2.19s2.7-1.04,3.3-.68c.59.36.1,1.5-.38,2.67-.48,1.17-.95,2.35-1.36,3.11-.4.76-.74,1.1.3,1.15,1.04.06,3.46-.17,4.99-.11,1.52.06,2.15.4,2.22,1.46s-.43,2.84-.04,4.33c.39,1.49,1.67,2.67,2.84,3.03,1.17.35,2.23-.13,3.52-.16,1.29-.03,2.82.38,3.98.08,1.16-.3,1.94-1.32,3.39-2.3,1.45-.98,3.56-1.92,4.72-2.03,1.15-.11,1.35.61,2.16.85.81.24,2.23,0,3.14.11s1.3.55,2.39.76c1.09.22,2.87.2,4.65.22,1.78.01,3.56.05,4.31.25.75.2.48.57,1.28,1.3.8.73,2.67,1.81,4.17,2.91,1.5,1.1,2.62,2.22,4.37,3.04,1.75.81,4.12,1.32,5.74,1.94,1.62.62,2.5,1.34,3.32,2.59.82,1.25,1.59,3.02,1.86,4.19.27,1.17.03,1.75.39,2.14.36.39,1.31.6,2.48,1.09,1.17.49,2.55,1.28,3.91,2.07,1.36.79,2.71,1.6,4.25,2.3s3.28,1.29,4.8,2.26c1.53.97,2.84,2.33,3.96,3.29,1.12.96,2.05,1.54,2.47,2.81.42,1.28.32,3.26-.78,5.4-1.1,2.14-3.21,4.44-4.47,6.39-1.26,1.95-1.68,3.56-2.11,5.17-.44,1.61-.89,3.21-1.82,4.87-.92,1.66-2.31,3.37-4.13,4.37-1.82,1-4.06,1.28-5.75,1.86s-2.84,1.46-3.64,2.67c-.8,1.22-1.26,2.77-2.32,4.36-1.07,1.58-2.75,3.2-4.45,4.79-1.7,1.6-3.42,3.17-5.09,3.75-1.66.58-3.27.16-3.77.66-.5.5.1,1.92-.21,3.09s-1.53,2.08-2.83,2.53c-1.3.45-2.68.43-3.38.92s-.7,1.5-1.36,2.08c-.66.58-1.96.74-2.29,1.23-.33.49.33,1.32.27,1.96s-.81,1.12-1.29,1.75c-.48.64-.69,1.44-1.22,2.16-.53.72-1.37,1.36-1.42,1.93-.05.57.69,1.06.37,2.18s-1.71,2.86-2.24,4.13-.19,2.07-.49,2.6c-.3.53-1.25.79-1.74,1.15s-.55.81-1.27.66c-.72-.14-2.13-.88-3.02-2.13-.89-1.25-1.28-3.02-1.22-4.36.06-1.34.57-2.24.52-2.75-.05-.52-.66-.65-.75-1.38-.09-.74.34-2.07.79-2.66.45-.58.92-.41,1.24-.87.32-.46.5-1.56.25-1.88s-.9.14-1.05-1.28c-.15-1.42.22-4.73.77-7.7.56-2.97,1.31-5.6,1.66-7.92.35-2.32.3-4.34.42-5.69s.41-2.05.76-4.2c.35-2.14.76-5.73.89-8.4.13-2.67-.03-4.42-1.67-6.33s-4.79-3.98-7.47-7.08c-2.68-3.1-4.89-7.24-6.47-9.96s-2.54-4.04-2.56-5.3c-.02-1.26.89-2.47,1.01-3.17.12-.7-.56-.88-.66-1.81-.09-.93.4-2.6,1.49-4.3s2.79-3.43,3.55-5.03c.76-1.6.58-3.07.04-4.37-.54-1.3-1.44-2.43-2.15-2.61s-1.23.58-2.31.85c-1.08.27-2.73.04-4.31-.49-1.58-.53-3.1-1.35-3.82-2.01s-.65-1.13-1.11-1.76c-.46-.63-1.45-1.42-2.87-1.94-1.42-.52-3.25-.79-4.99-1.33-1.74-.54-3.38-1.37-4.68-1.58-1.3-.21-2.28.21-3.55.25-1.27.04-2.85-.28-4.39-.57-1.54-.29-3.06-.55-4.2-1.04s-1.91-1.24-2.21-2.12c-.3-.88-.14-1.88-.47-2.99s-1.14-2.32-1.9-3.27c-.76-.95-1.45-1.65-1.75-2.38-.3-.73-.2-1.5-.38-1.92-.17-.41-.62-.47-.99-.18-.38.29-.68.92-.6,1.76.08.85.56,1.91.97,3.02s.77,2.26.5,2.7-1.16.17-1.53-.23c-.36-.4-.2-.93-.42-1.3-.22-.37-.83-.58-.95-1s.26-1.04.31-1.47c.04-.43-.25-.67-.31-1.36-.07-.69.09-1.85-.15-2.5-.24-.65-.87-.8-1.13-1.19-.26-.39-.15-1.02-.01-1.63.13-.61.29-1.19.6-1.78.31-.59.78-1.19,1.26-1.78s.97-1.16,1.74-1.91,1.82-1.67,2.76-2.5,1.76-1.57,2.46-2.11c.7-.54,1.27-.87,1.42-1.05.15-.18-.14-.19.12-.47.26-.28,1.06-.83,1.47-1.1q.4-.27,1.16-.69c.76-.42,2.27-1.26,3.8-2.06,1.53-.8,3.09-1.56,4.66-2.27,1.57-.72,3.16-1.39,4.77-2.03,1.61-.63,3.23-1.23,4.87-1.77,1.64-.55,3.29-1.05,4.96-1.52,1.67-.46,3.34-.88,5.15-1.28,1.81-.39,3.75-.77,4.76-.96,1.01-.19,1.08-.2,1.13-.21.05,0,.09-.01.11-.02s.02,0,.65-.09,1.91-.26,2.56-.34.68-.07.99-.1m12.72-.64c-.07,0-.44,0,.17.05.61.04,2.2.13,2.81.2s.25.13-.29.12c-.54-.01-1.26-.09-1.78-.12-.52-.03-.83,0-.63.05.2.05.93.13,1.37.23.44.1.59.21.16.22-.43.01-1.43-.08-1.57-.06s.59.17.58.22c0,.05-.74,0-1.86-.07-1.12-.08-2.62-.2-3.73-.24s-1.84,0-2.19-.02-.32-.07.17-.11c.49-.05,1.44-.09,2.09-.15s1.01-.13,1.13-.17c.12-.04,0-.06-.42-.06-.42,0-1.13,0-1.6.01-.47,0-.7.01-.81.02q-.11,0,.91-.02c1.02-.02,3.06-.06,4.2-.07,1.14-.02,1.37,0,1.3,0m19.49,2.29c-.15,0,.06.1.07.15.01.05-.17.05-.03.18.14.13.59.37.11.36s-1.9-.29-3.28-.61c-1.38-.31-2.71-.67-3.65-.91-.94-.25-1.48-.39-2.02-.51-.54-.12-1.09-.23-1.23-.28s.13-.04.26-.03c.13,0,.11,0,.1,0t.85.12c.86.12,2.57.36,4.27.65,1.7.29,3.4.62,4.36.81s1.17.24,1.02.21-.66-.13-.81-.13"/>
  <circle class="cls-1" cx="88.09" cy="177.26" r="5"/>
  <circle class="cls-3" cx="62.15" cy="29.11" r="2.5"/>
  <g>
    <path class="cls-5" d="m32.31,134.85v2.14h-3.28v9.51h-2.7v-9.51h-3.28v-2.14h9.26Z"/>
    <path class="cls-5" d="m33.87,146.51v-11.98h2.48v4.41c.3-.26.62-.46.97-.62.35-.16.77-.24,1.25-.24.45,0,.85.08,1.2.24.35.16.64.38.88.66.24.28.42.61.54,1,.12.39.18.81.18,1.26v5.27h-2.48v-5.27c0-.41-.09-.72-.28-.95-.19-.23-.46-.34-.82-.34-.27,0-.53.06-.77.18-.24.12-.47.27-.69.47v5.91h-2.48Z"/>
    <path class="cls-5" d="m42.56,138.21h1.98c.18,0,.33.04.46.12.13.08.21.18.23.31l.83,3.72c.06.28.12.56.18.82.05.27.1.53.14.79.07-.26.15-.52.24-.79.08-.26.16-.54.24-.83l1.04-3.73c.03-.12.11-.23.23-.31.12-.08.26-.12.42-.12h1.1c.18,0,.33.04.45.12.12.08.2.19.24.31l.99,3.73c.07.28.15.56.23.82.08.27.15.54.22.81.04-.27.09-.53.16-.8.06-.26.13-.54.2-.84l.88-3.72c.03-.13.1-.23.23-.31.13-.08.27-.12.43-.12h1.89l-2.58,8.3h-2.02c-.11,0-.2-.03-.27-.1s-.13-.17-.18-.32l-1.18-4.14c-.05-.19-.1-.37-.15-.55-.05-.18-.09-.36-.13-.54-.04.19-.08.37-.12.56-.05.18-.1.37-.16.56l-1.2,4.12c-.08.28-.26.42-.53.42h-1.92l-2.58-8.3Z"/>
    <path class="cls-5" d="m62.66,146.51c-.23,0-.41-.03-.53-.1-.12-.06-.22-.2-.3-.4l-.18-.46c-.21.18-.41.33-.6.46s-.39.25-.6.34c-.21.09-.42.16-.66.21s-.49.07-.77.07c-.38,0-.72-.05-1.03-.15s-.57-.24-.79-.44c-.22-.19-.38-.43-.5-.72s-.18-.62-.18-.99c0-.29.07-.6.22-.91.15-.31.41-.59.78-.85.37-.25.86-.47,1.49-.64s1.41-.26,2.36-.26v-.36c0-.49-.1-.84-.3-1.06-.2-.22-.48-.33-.85-.33-.29,0-.53.03-.72.1-.19.06-.35.14-.5.22-.15.08-.29.15-.43.22-.14.06-.3.1-.5.1-.17,0-.32-.04-.44-.12-.12-.08-.21-.19-.28-.31l-.45-.78c.5-.44,1.06-.77,1.67-.99.61-.22,1.27-.32,1.96-.32.5,0,.95.08,1.36.24.4.16.74.39,1.02.68.28.29.49.64.64,1.04.15.4.22.84.22,1.31v5.18h-1.14Zm-2.85-1.51c.32,0,.6-.06.84-.17.24-.11.48-.29.73-.54v-1.14c-.5,0-.9.03-1.22.1-.32.06-.57.15-.76.24-.19.1-.32.21-.39.33-.07.12-.11.26-.11.4,0,.29.08.49.23.6.15.12.38.17.68.17Z"/>
    <path class="cls-5" d="m68.89,135.94c0,.2-.04.38-.12.56-.08.17-.19.33-.33.46-.14.13-.3.23-.48.31-.18.08-.38.12-.59.12s-.39-.04-.57-.12c-.18-.08-.33-.18-.47-.31-.14-.13-.24-.28-.32-.46-.08-.17-.12-.36-.12-.56s.04-.39.12-.57c.08-.18.18-.33.32-.46.14-.13.29-.24.47-.31.18-.07.37-.11.57-.11s.4.04.59.11.35.18.48.31.25.29.33.46c.08.18.12.37.12.57Zm-.29,2.27v8.3h-2.48v-8.3h2.48Z"/>
    <path class="cls-5" d="m73.88,146.63c-.4,0-.74-.06-1.04-.17s-.55-.28-.76-.49c-.21-.21-.36-.46-.47-.76-.11-.3-.16-.63-.16-1v-4.29h-.7c-.13,0-.24-.04-.33-.12-.09-.08-.14-.2-.14-.36v-.97l1.32-.26.49-2.02c.06-.26.25-.38.54-.38h1.3v2.42h2.02v1.7h-2.02v4.12c0,.19.05.35.14.48.09.12.23.19.4.19.09,0,.17,0,.23-.03.06-.02.11-.04.16-.06s.09-.04.13-.06c.04-.02.09-.03.14-.03.07,0,.13.02.18.05s.09.09.14.16l.75,1.18c-.32.24-.68.42-1.08.54-.4.12-.81.18-1.24.18Z"/>
    <path class="cls-5" d="m81.26,138.08c.55,0,1.05.08,1.51.26s.85.42,1.18.74c.33.33.58.72.77,1.2s.28,1.01.28,1.6c0,.19,0,.34-.02.46-.02.12-.05.21-.09.28-.04.07-.1.12-.17.14-.07.03-.16.04-.28.04h-4.78c.08.69.29,1.2.63,1.51s.78.47,1.32.47c.29,0,.54-.03.74-.1s.39-.15.56-.23.31-.16.45-.23c.14-.07.28-.1.43-.1.2,0,.35.07.45.22l.72.89c-.26.29-.53.53-.83.72-.3.18-.6.33-.91.43s-.62.18-.94.22-.61.06-.89.06c-.58,0-1.13-.09-1.64-.28-.51-.19-.95-.47-1.34-.84-.38-.37-.68-.84-.9-1.39s-.33-1.2-.33-1.94c0-.55.09-1.08.28-1.58.19-.5.46-.93.82-1.3.35-.37.78-.67,1.29-.89.5-.22,1.07-.33,1.71-.33Zm.05,1.71c-.47,0-.85.13-1.11.4-.27.27-.44.66-.53,1.16h3.1c0-.2-.03-.39-.08-.58-.05-.19-.13-.35-.25-.5-.11-.15-.27-.27-.45-.36-.19-.09-.41-.14-.68-.14Z"/>
    <path class="cls-5" d="m92.15,140.03c-.06.1-.13.17-.2.22-.07.04-.16.06-.28.06s-.23-.02-.35-.08c-.12-.05-.24-.11-.38-.16-.14-.06-.29-.11-.46-.16-.17-.05-.37-.08-.58-.08-.31,0-.56.06-.72.18-.17.12-.25.29-.25.5,0,.15.05.28.16.38.11.1.25.19.44.27.18.08.39.15.62.22.23.07.46.15.7.23.24.09.47.19.7.3.23.11.43.26.62.42.18.17.33.37.44.61.11.24.16.53.16.86,0,.41-.07.79-.22,1.14s-.37.65-.67.9c-.3.25-.66.45-1.1.58s-.93.21-1.5.21c-.28,0-.57-.03-.85-.08-.28-.05-.56-.12-.82-.22-.26-.09-.51-.2-.73-.32-.22-.12-.42-.26-.58-.4l.58-.91c.07-.11.15-.19.25-.25.1-.06.22-.09.38-.09.14,0,.27.03.39.1.11.06.24.13.37.21.13.07.29.14.47.21s.4.1.68.1c.19,0,.35-.02.49-.06s.24-.09.32-.16.14-.15.18-.23c.04-.09.06-.17.06-.26,0-.17-.06-.3-.17-.41-.11-.11-.26-.2-.44-.28-.18-.08-.39-.15-.62-.22-.23-.07-.47-.14-.71-.23-.24-.08-.48-.19-.71-.31-.23-.12-.44-.27-.62-.46-.18-.18-.33-.41-.44-.68-.11-.27-.17-.59-.17-.97,0-.35.07-.69.2-1,.14-.32.34-.6.61-.84.27-.24.61-.43,1.02-.57s.89-.21,1.44-.21c.3,0,.59.03.87.08.28.05.54.13.79.22.25.1.47.21.67.34.2.13.38.27.54.43l-.56.87Z"/>
    <path class="cls-5" d="m44.31,162.55c.37,0,.7-.03.99-.1s.56-.15.82-.26v-1.77h-1.15c-.17,0-.3-.05-.4-.14-.1-.09-.14-.21-.14-.34v-1.49h4.14v4.92c-.3.22-.61.41-.93.56-.32.16-.67.29-1.03.39-.37.1-.75.18-1.17.22-.41.05-.86.07-1.33.07-.85,0-1.64-.15-2.37-.45-.73-.3-1.35-.72-1.88-1.25s-.95-1.16-1.25-1.89c-.3-.73-.45-1.52-.45-2.37s.14-1.67.43-2.4c.29-.73.7-1.36,1.24-1.88.54-.53,1.18-.94,1.94-1.23.76-.29,1.61-.44,2.55-.44.48,0,.94.04,1.37.12s.82.19,1.18.33.69.3.99.5c.3.19.57.4.8.62l-.78,1.19c-.07.11-.16.2-.27.26-.1.06-.22.1-.34.1-.16,0-.33-.05-.5-.16-.21-.13-.41-.24-.6-.33s-.38-.17-.58-.23-.41-.1-.62-.13c-.22-.03-.46-.04-.74-.04-.51,0-.96.09-1.37.27-.41.18-.75.43-1.04.76-.29.33-.51.72-.66,1.17-.15.46-.23.96-.23,1.52,0,.62.08,1.17.26,1.65.17.48.41.89.71,1.22.3.33.66.58,1.07.76.41.17.87.26,1.36.26Z"/>
    <path class="cls-5" d="m53.36,152.53v11.98h-2.48v-11.98h2.48Z"/>
    <path class="cls-5" d="m61.5,164.51c-.23,0-.41-.03-.53-.1-.12-.06-.22-.2-.3-.4l-.18-.46c-.21.18-.41.33-.6.46s-.39.25-.6.34c-.21.09-.42.16-.66.21s-.49.07-.77.07c-.38,0-.72-.05-1.03-.15s-.57-.24-.79-.44c-.22-.19-.38-.43-.5-.72s-.18-.62-.18-.99c0-.29.07-.6.22-.91.15-.31.41-.59.78-.85.37-.25.86-.47,1.49-.64s1.41-.26,2.36-.26v-.36c0-.49-.1-.84-.3-1.06-.2-.22-.48-.33-.85-.33-.29,0-.53.03-.72.1-.19.06-.35.14-.5.22-.15.08-.29.15-.43.22-.14.06-.3.1-.5.1-.17,0-.32-.04-.44-.12-.12-.08-.21-.19-.28-.31l-.45-.78c.5-.44,1.06-.77,1.67-.99.61-.22,1.27-.32,1.96-.32.5,0,.95.08,1.36.24.4.16.74.39,1.02.68.28.29.49.64.64,1.04.15.4.22.84.22,1.31v5.18h-1.14Zm-2.85-1.51c.32,0,.6-.06.84-.17.24-.11.48-.29.73-.54v-1.14c-.5,0-.9.03-1.22.1-.32.06-.57.15-.76.24-.19.1-.32.21-.39.33-.07.12-.11.26-.11.4,0,.29.08.49.23.6.15.12.38.17.68.17Z"/>
    <path class="cls-5" d="m70.97,158.18c-.07.09-.15.16-.22.22s-.17.08-.3.08-.23-.03-.33-.09c-.1-.06-.21-.12-.33-.2-.12-.07-.27-.14-.43-.2-.17-.06-.37-.09-.62-.09-.3,0-.57.06-.79.17-.22.11-.4.27-.55.48-.14.21-.25.46-.32.76s-.1.64-.1,1.02c0,.79.15,1.41.46,1.83s.73.64,1.27.64c.29,0,.52-.04.68-.11.17-.07.31-.15.43-.24.12-.09.23-.17.32-.24s.22-.11.37-.11c.2,0,.35.07.45.22l.72.89c-.26.29-.53.53-.81.72s-.57.33-.87.43c-.3.1-.59.18-.89.22-.3.04-.59.06-.87.06-.51,0-.99-.1-1.45-.29-.46-.19-.87-.47-1.22-.84-.35-.37-.63-.81-.83-1.35-.21-.53-.31-1.14-.31-1.82,0-.6.09-1.16.27-1.68.18-.52.44-.97.79-1.35.35-.38.78-.68,1.3-.9.51-.22,1.11-.33,1.79-.33s1.22.1,1.71.31.93.51,1.33.91l-.66.87Z"/>
    <path class="cls-5" d="m76.06,153.94c0,.2-.04.38-.12.56-.08.17-.19.33-.33.46-.14.13-.3.23-.48.31-.18.08-.38.12-.59.12s-.39-.04-.57-.12c-.18-.08-.33-.18-.47-.31-.14-.13-.24-.28-.32-.46-.08-.17-.12-.36-.12-.56s.04-.39.12-.57c.08-.18.18-.33.32-.46.14-.13.29-.24.47-.31.18-.07.37-.11.57-.11s.4.04.59.11.35.18.48.31.25.29.33.46c.08.18.12.37.12.57Zm-.29,2.27v8.3h-2.48v-8.3h2.48Z"/>
    <path class="cls-5" d="m81.79,156.08c.55,0,1.05.08,1.51.26s.85.42,1.18.74c.33.33.58.72.77,1.2s.28,1.01.28,1.6c0,.19,0,.34-.02.46-.02.12-.05.21-.09.28-.04.07-.1.12-.17.14-.07.03-.16.04-.28.04h-4.78c.08.69.29,1.2.63,1.51s.78.47,1.32.47c.29,0,.54-.03.74-.1s.39-.15.56-.23.31-.16.45-.23c.14-.07.28-.1.43-.1.2,0,.35.07.45.22l.72.89c-.26.29-.53.53-.83.72-.3.18-.6.33-.91.43s-.62.18-.94.22-.61.06-.89.06c-.58,0-1.13-.09-1.64-.28-.51-.19-.95-.47-1.34-.84-.38-.37-.68-.84-.9-1.39s-.33-1.2-.33-1.94c0-.55.09-1.08.28-1.58.19-.5.46-.93.82-1.3.35-.37.78-.67,1.29-.89.5-.22,1.07-.33,1.71-.33Zm.05,1.71c-.47,0-.85.13-1.11.4-.27.27-.44.66-.53,1.16h3.1c0-.2-.03-.39-.08-.58-.05-.19-.13-.35-.25-.5-.11-.15-.27-.27-.45-.36-.19-.09-.41-.14-.68-.14Z"/>
    <path class="cls-5" d="m87.51,164.51v-8.3h1.47c.12,0,.23.01.31.03.08.02.15.05.21.1.06.05.1.11.13.18.03.07.05.17.08.27l.14.78c.3-.47.65-.84,1.02-1.11.38-.27.79-.41,1.24-.41.38,0,.68.09.91.27l-.32,1.82c-.02.11-.06.19-.13.24s-.15.07-.26.07c-.09,0-.2-.01-.32-.04-.12-.02-.28-.04-.46-.04-.65,0-1.16.35-1.54,1.04v5.09h-2.48Z"/>
  </g>
  <g>
    <path class="cls-7" d="m72.76,39.58c.27,0,.52-.01.75-.04.23-.03.44-.06.64-.12.2-.05.39-.11.57-.19.18-.07.35-.15.53-.25v-2.21h-1.55c-.09,0-.16-.03-.21-.08-.05-.05-.08-.11-.08-.19v-.77h3.08v3.85c-.25.18-.51.34-.79.48s-.56.25-.88.34c-.31.09-.64.16-1,.2-.35.04-.74.07-1.16.07-.73,0-1.4-.12-2-.37-.61-.25-1.13-.6-1.57-1.05s-.78-.99-1.03-1.62-.37-1.32-.37-2.08.12-1.46.36-2.09c.24-.63.58-1.17,1.03-1.62.45-.45.98-.8,1.62-1.05.63-.25,1.34-.37,2.12-.37.4,0,.77.03,1.11.09.34.06.66.14.95.25.29.11.56.24.81.4.25.16.48.33.69.53l-.38.62c-.08.13-.18.19-.31.19-.07,0-.16-.03-.25-.08-.12-.07-.25-.14-.39-.24-.14-.09-.32-.18-.53-.27-.21-.09-.45-.16-.73-.22-.28-.06-.62-.09-1-.09-.56,0-1.08.09-1.53.28-.46.18-.85.45-1.17.79-.32.34-.57.76-.74,1.25-.17.49-.26,1.03-.26,1.64s.09,1.2.27,1.7.43.92.76,1.26c.33.35.71.61,1.16.79.45.18.94.27,1.48.27Z"/>
    <path class="cls-7" d="m83.99,40.57h-.55c-.12,0-.22-.02-.29-.06-.07-.04-.12-.12-.15-.24l-.14-.66c-.19.17-.37.32-.55.45-.18.13-.36.25-.56.34-.2.09-.41.16-.63.21s-.47.07-.74.07-.53-.04-.77-.12-.45-.19-.63-.35c-.18-.15-.32-.35-.42-.59-.1-.24-.16-.52-.16-.84,0-.28.08-.55.23-.81.15-.26.4-.49.75-.69.34-.2.79-.37,1.35-.5.56-.13,1.23-.19,2.04-.19v-.56c0-.55-.12-.97-.35-1.26-.24-.28-.58-.43-1.05-.43-.3,0-.56.04-.77.12-.21.08-.39.16-.54.26-.15.1-.28.18-.39.26-.11.08-.22.12-.33.12-.08,0-.16-.02-.22-.07s-.11-.1-.15-.16l-.22-.4c.39-.38.81-.66,1.27-.85s.95-.28,1.5-.28c.4,0,.75.07,1.06.2.31.13.57.31.78.55.21.23.37.52.48.85s.16.7.16,1.09v4.54Zm-3.23-.76c.22,0,.42-.02.6-.07.18-.04.35-.11.51-.19.16-.08.32-.18.46-.3s.29-.25.43-.4v-1.46c-.57,0-1.06.04-1.46.11s-.73.17-.98.29-.44.26-.55.42c-.11.16-.17.34-.17.54s.03.35.09.49c.06.14.14.25.24.33.1.09.22.15.36.19s.29.06.46.06Z"/>
    <path class="cls-7" d="m87.64,30.26v10.31h-1.25v-10.31h1.25Z"/>
    <path class="cls-7" d="m89.34,33.48h1.02c.1,0,.18.03.25.08.07.05.11.11.14.18l1.8,4.56c.07.17.12.34.15.5.04.17.07.33.1.5.04-.16.08-.33.12-.5s.1-.34.16-.5l1.82-4.56c.03-.07.07-.14.14-.19.06-.05.14-.07.23-.07h.97l-2.89,7.09h-1.13l-2.89-7.09Z"/>
    <path class="cls-7" d="m100.49,33.37c.42,0,.82.07,1.18.21.36.14.67.35.93.62.26.27.47.6.61.99s.22.84.22,1.35c0,.2-.02.33-.06.39-.04.07-.12.1-.24.1h-4.72c0,.45.07.84.18,1.17.11.33.27.61.46.83s.43.39.7.5c.27.11.57.16.91.16.31,0,.58-.04.81-.11.23-.07.42-.15.58-.23.16-.08.3-.16.41-.23.11-.07.2-.11.28-.11.1,0,.18.04.24.12l.35.46c-.15.19-.34.35-.55.49-.21.14-.44.25-.69.34s-.5.16-.76.2c-.26.04-.52.07-.78.07-.49,0-.94-.08-1.35-.25s-.77-.41-1.07-.73c-.3-.32-.54-.72-.7-1.19s-.25-1.01-.25-1.62c0-.49.08-.96.23-1.39.15-.43.37-.8.65-1.12s.63-.56,1.04-.74.87-.27,1.39-.27Zm.03.92c-.6,0-1.08.17-1.42.52s-.56.83-.64,1.45h3.86c0-.29-.04-.55-.12-.79-.08-.24-.2-.45-.35-.62-.15-.18-.34-.31-.56-.41-.22-.1-.48-.14-.76-.14Z"/>
    <path class="cls-7" d="m109.58,34.65c-.06.1-.14.15-.26.15-.07,0-.15-.03-.24-.08-.09-.05-.2-.11-.33-.17s-.28-.12-.46-.17c-.18-.05-.39-.08-.63-.08-.21,0-.4.03-.57.08s-.31.13-.43.22c-.12.09-.21.2-.27.33s-.09.26-.09.4c0,.18.05.33.16.46.1.12.24.23.42.31.17.09.37.17.59.23.22.07.44.14.68.22s.46.16.68.26c.22.09.42.21.59.35.17.14.31.31.42.51.1.2.16.45.16.73,0,.33-.06.63-.17.91-.12.28-.29.52-.52.72-.23.2-.51.36-.84.48-.33.12-.71.17-1.15.17-.49,0-.94-.08-1.34-.24s-.74-.37-1.02-.62l.29-.48c.04-.06.08-.11.13-.14.05-.03.12-.05.2-.05s.17.03.27.1.21.14.34.22c.13.08.29.15.48.22s.43.1.71.1c.24,0,.46-.03.64-.09s.33-.15.46-.26c.12-.11.21-.23.27-.37.06-.14.09-.29.09-.45,0-.2-.05-.36-.16-.49s-.24-.24-.42-.33c-.17-.09-.37-.17-.59-.24-.22-.07-.45-.14-.68-.21-.23-.07-.46-.16-.68-.26s-.42-.22-.59-.36c-.17-.14-.31-.32-.42-.54-.1-.21-.16-.47-.16-.77,0-.27.06-.53.17-.78.11-.25.28-.47.49-.66.21-.19.48-.34.79-.45.31-.11.67-.17,1.07-.17.47,0,.89.07,1.26.22s.69.35.96.61l-.28.46Z"/>
    <path class="cls-7" d="m114.3,40.68c-.56,0-.99-.16-1.29-.47-.3-.31-.45-.76-.45-1.35v-4.34h-.85c-.07,0-.14-.02-.19-.07-.05-.04-.08-.11-.08-.21v-.5l1.16-.15.29-2.19c0-.07.04-.13.09-.17.05-.04.12-.07.2-.07h.63v2.44h2.03v.9h-2.03v4.26c0,.3.07.52.22.67.14.14.33.22.56.22.13,0,.24-.02.34-.05.1-.04.18-.07.25-.12s.13-.08.18-.12c.05-.04.09-.05.13-.05.06,0,.12.04.17.12l.36.59c-.21.2-.47.36-.78.47s-.62.17-.94.17Z"/>
    <path class="cls-7" d="m120.47,33.37c.52,0,.99.09,1.4.26.42.17.77.42,1.06.73s.52.7.67,1.15c.16.45.23.95.23,1.51s-.08,1.06-.23,1.51c-.16.45-.38.83-.67,1.15-.29.32-.65.56-1.06.73-.42.17-.89.26-1.4.26s-.99-.09-1.4-.26c-.42-.17-.77-.41-1.07-.73-.29-.32-.52-.7-.68-1.15-.16-.45-.24-.95-.24-1.51s.08-1.06.24-1.51c.16-.45.38-.83.68-1.15s.65-.56,1.07-.73c.42-.17.89-.26,1.4-.26Zm0,6.33c.7,0,1.22-.23,1.57-.7.35-.47.52-1.12.52-1.96s-.17-1.5-.52-1.97c-.35-.47-.87-.71-1.57-.71-.35,0-.66.06-.92.18-.26.12-.48.3-.65.52-.17.23-.31.51-.39.84s-.13.71-.13,1.13.04.8.13,1.13c.09.33.22.61.39.84.17.23.39.4.65.52.26.12.57.18.92.18Z"/>
    <path class="cls-7" d="m125.83,40.57v-7.09h.74c.18,0,.29.09.34.26l.1.77c.31-.34.65-.62,1.03-.83s.82-.31,1.32-.31c.39,0,.73.06,1.03.19.3.13.54.31.74.55.2.24.35.52.45.85.1.33.15.7.15,1.1v4.52h-1.25v-4.52c0-.54-.12-.95-.37-1.25s-.62-.44-1.12-.44c-.37,0-.71.09-1.03.27-.32.18-.61.42-.89.72v5.22h-1.25Z"/>
  </g>
</svg>