<?xml version="1.0" encoding="UTF-8"?>
<svg id="nepal" xmlns="http://www.w3.org/2000/svg" viewBox="0 0 200 200">
  <defs>
    <style>
      .cls-1 {
        stroke: #f38c15;
        stroke-width: 2px;
      }

      .cls-1, .cls-2, .cls-3 {
        stroke-miterlimit: 3.65;
      }

      .cls-1, .cls-3 {
        fill: none;
      }

      .cls-4 {
        fill: #f38c15;
      }

      .cls-5 {
        fill: #333;
      }

      .cls-2 {
        fill: #666;
        stroke: #333;
      }

      .cls-3 {
        stroke: #666;
        stroke-width: .46px;
      }
    </style>
  </defs>
  <path class="cls-5" d="m97.41,198.97c-.86-.02-1.73-.06-2.59-.1-.86-.05-1.72-.1-2.59-.17s-1.72-.15-2.58-.24-1.72-.19-2.57-.3-1.71-.24-2.56-.37c-.85-.14-1.7-.28-2.55-.44-.85-.16-1.7-.33-2.54-.51-.85-.18-1.69-.37-2.53-.57s-1.68-.41-2.51-.64c-.83-.22-1.67-.46-2.49-.7-.83-.25-1.65-.5-2.48-.77-.82-.27-1.64-.54-2.45-.83-.81-.29-1.62-.59-2.43-.9-.81-.31-1.61-.63-2.41-.96-.8-.33-1.59-.67-2.38-1.02s-1.57-.71-2.35-1.09c-.78-.37-1.55-.75-2.32-1.15-.77-.39-1.53-.79-2.29-1.21-.76-.41-1.51-.83-2.26-1.27-.75-.43-1.49-.87-2.23-1.33s-1.47-.91-2.19-1.38c-.72-.47-1.44-.95-2.15-1.44-.71-.49-1.42-.99-2.12-1.5-.7-.51-1.39-1.02-2.08-1.55-.69-.53-1.36-1.06-2.04-1.6-.67-.54-1.34-1.1-1.99-1.66-.66-.56-1.31-1.13-1.95-1.71s-1.28-1.16-1.9-1.76c-.63-.59-1.25-1.2-1.86-1.81-.61-.61-1.21-1.23-1.81-1.86-.59-.63-1.18-1.26-1.76-1.9-.58-.64-1.15-1.29-1.71-1.95s-1.11-1.32-1.66-1.99-1.08-1.35-1.6-2.04-1.04-1.38-1.55-2.08c-.51-.7-1.01-1.4-1.5-2.12s-.97-1.43-1.44-2.15c-.47-.72-.93-1.46-1.38-2.19-.45-.74-.89-1.48-1.33-2.23-.43-.75-.85-1.5-1.27-2.26s-.81-1.52-1.21-2.29c-.39-.77-.77-1.54-1.15-2.32-.37-.78-.73-1.56-1.09-2.35s-.69-1.58-1.02-2.38c-.33-.8-.65-1.6-.96-2.41-.31-.81-.61-1.62-.9-2.43-.29-.81-.57-1.63-.83-2.45-.27-.82-.52-1.65-.77-2.48-.25-.83-.48-1.66-.7-2.49-.22-.83-.44-1.67-.64-2.51-.2-.84-.39-1.68-.57-2.53s-.35-1.69-.51-2.54c-.16-.85-.3-1.7-.44-2.55-.14-.85-.26-1.71-.37-2.56s-.21-1.71-.3-2.57c-.09-.86-.17-1.72-.24-2.58-.07-.86-.12-1.72-.17-2.59s-.08-1.73-.1-2.59c-.02-.86-.03-1.73-.03-2.59s.01-1.73.03-2.59c.02-.86.06-1.73.1-2.59.05-.86.1-1.72.17-2.59s.15-1.72.24-2.58c.09-.86.19-1.72.3-2.57.11-.86.24-1.71.37-2.56.14-.85.28-1.7.44-2.55.16-.85.33-1.7.51-2.54.18-.85.37-1.69.57-2.53.2-.84.41-1.68.64-2.51.22-.83.46-1.67.7-2.49.25-.83.5-1.65.77-2.48.27-.82.54-1.64.83-2.45s.59-1.62.9-2.43c.31-.81.63-1.61.96-2.41.33-.8.67-1.59,1.02-2.38s.71-1.57,1.09-2.35c.37-.78.75-1.55,1.15-2.32.39-.77.79-1.53,1.21-2.29s.83-1.51,1.27-2.26c.43-.75.87-1.49,1.33-2.23s.91-1.47,1.38-2.19c.47-.72.95-1.44,1.44-2.15.49-.71.99-1.42,1.5-2.12.51-.7,1.02-1.39,1.55-2.08.53-.69,1.06-1.36,1.6-2.04.54-.67,1.1-1.34,1.66-1.99s1.13-1.31,1.71-1.95c.58-.64,1.16-1.28,1.76-1.9.59-.63,1.2-1.25,1.81-1.86.61-.61,1.23-1.21,1.86-1.81s1.26-1.18,1.9-1.76c.64-.58,1.29-1.15,1.95-1.71.66-.56,1.32-1.11,1.99-1.66s1.35-1.08,2.04-1.6,1.38-1.04,2.08-1.55c.7-.51,1.4-1.01,2.12-1.5.71-.49,1.43-.97,2.15-1.44.72-.47,1.46-.93,2.19-1.38.74-.45,1.48-.89,2.23-1.33.75-.43,1.5-.85,2.26-1.27.76-.41,1.52-.81,2.29-1.21.77-.39,1.54-.77,2.32-1.15s1.56-.73,2.35-1.09,1.58-.69,2.38-1.02c.8-.33,1.6-.65,2.41-.96.81-.31,1.62-.61,2.43-.9.81-.29,1.63-.57,2.45-.83.82-.27,1.65-.52,2.48-.77.83-.25,1.66-.48,2.49-.7s1.67-.44,2.51-.64c.84-.2,1.68-.39,2.53-.57s1.69-.35,2.54-.51c.85-.16,1.7-.3,2.55-.44.85-.14,1.71-.26,2.56-.37.86-.11,1.71-.21,2.57-.3.86-.09,1.72-.17,2.58-.24.86-.07,1.72-.12,2.59-.17s1.73-.08,2.59-.1c.86-.02,1.73-.03,2.59-.03s1.73.01,2.59.03c.86.02,1.73.06,2.59.1.86.05,1.72.1,2.59.17.86.07,1.72.15,2.58.24s1.72.19,2.57.3c.86.11,1.71.24,2.56.37.85.14,1.7.28,2.55.44.85.16,1.7.33,2.54.51.85.18,1.69.37,2.53.57.84.2,1.68.41,2.51.64.83.22,1.67.46,2.49.7.83.25,1.65.5,2.48.77.82.27,1.64.54,2.45.83s1.62.59,2.43.9c.81.31,1.61.63,2.41.96.8.33,1.59.67,2.38,1.02.79.35,1.57.71,2.35,1.09.78.37,1.55.75,2.32,1.15s1.53.79,2.29,1.21c.76.41,1.51.83,2.26,1.27.75.43,1.49.87,2.23,1.33.74.45,1.47.91,2.19,1.38.72.47,1.44.95,2.15,1.44.71.49,1.42.99,2.12,1.5s1.39,1.02,2.08,1.55c.69.53,1.36,1.06,2.04,1.6.67.54,1.34,1.1,1.99,1.66.66.56,1.31,1.13,1.95,1.71s1.28,1.16,1.9,1.76,1.25,1.2,1.86,1.81c.61.61,1.21,1.23,1.81,1.86.59.63,1.18,1.26,1.76,1.9s1.15,1.29,1.71,1.95c.56.66,1.11,1.32,1.66,1.99.54.67,1.08,1.35,1.6,2.04.53.69,1.04,1.38,1.55,2.08s1.01,1.4,1.5,2.12c.49.71.97,1.43,1.44,2.15.47.72.93,1.46,1.38,2.19.45.74.89,1.48,1.33,2.23.43.75.85,1.5,1.27,2.26.41.76.81,1.52,1.21,2.29s.77,1.54,1.15,2.32c.37.78.73,1.56,1.09,2.35.35.79.69,1.58,1.02,2.38.33.8.65,1.6.96,2.41.31.81.61,1.62.9,2.43.29.81.57,1.63.83,2.45s.52,1.65.77,2.48c.25.83.48,1.66.7,2.49.22.83.44,1.67.64,2.51.2.84.39,1.68.57,2.53.18.85.35,1.69.51,2.54.16.85.3,1.7.44,2.55s.26,1.71.37,2.56.21,1.71.3,2.57c.09.86.17,1.72.24,2.58.07.86.12,1.72.17,2.59.05.86.08,1.73.1,2.59.02.86.03,1.73.03,2.59s-.01,1.73-.03,2.59c-.02.86-.06,1.73-.1,2.59-.05.86-.1,1.72-.17,2.59s-.15,1.72-.24,2.58-.19,1.72-.3,2.57-.24,1.71-.37,2.56c-.14.85-.28,1.7-.44,2.55-.16.85-.33,1.7-.51,2.54-.18.85-.37,1.69-.57,2.53s-.41,1.68-.64,2.51c-.22.83-.46,1.67-.7,2.49-.25.83-.5,1.65-.77,2.48-.27.82-.54,1.64-.83,2.45-.29.81-.59,1.62-.9,2.43-.31.81-.63,1.61-.96,2.41-.33.8-.67,1.59-1.02,2.38s-.71,1.57-1.09,2.35c-.37.78-.75,1.55-1.15,2.32-.39.77-.79,1.53-1.21,2.29-.41.76-.83,1.51-1.27,2.26-.43.75-.87,1.49-1.33,2.23s-.91,1.47-1.38,2.19c-.47.72-.95,1.44-1.44,2.15-.49.71-.99,1.42-1.5,2.12s-1.02,1.39-1.55,2.08c-.53.69-1.06,1.36-1.6,2.04-.54.67-1.1,1.34-1.66,1.99-.56.66-1.13,1.31-1.71,1.95s-1.16,1.28-1.76,1.9-1.2,1.25-1.81,1.86c-.61.61-1.23,1.21-1.86,1.81-.63.59-1.26,1.18-1.9,1.76s-1.29,1.15-1.95,1.71c-.66.56-1.32,1.11-1.99,1.66-.67.54-1.35,1.08-2.04,1.6-.69.53-1.38,1.04-2.08,1.55-.7.51-1.4,1.01-2.12,1.5-.71.49-1.43.97-2.15,1.44-.72.47-1.46.93-2.19,1.38-.74.45-1.48.89-2.23,1.33-.75.43-1.5.85-2.26,1.27-.76.41-1.52.81-2.29,1.21-.77.39-1.54.77-2.32,1.15-.78.37-1.56.73-2.35,1.09-.79.35-1.58.69-2.38,1.02-.8.33-1.6.65-2.41.96-.81.31-1.62.61-2.43.9-.81.29-1.63.57-2.45.83-.82.27-1.65.52-2.48.77-.83.25-1.66.48-2.49.7-.83.22-1.67.44-2.51.64-.84.2-1.68.39-2.53.57s-1.69.35-2.54.51c-.85.16-1.7.3-2.55.44-.85.14-1.71.26-2.56.37s-1.71.21-2.57.3c-.86.09-1.72.17-2.58.24-.86.07-1.72.12-2.59.17-.86.05-1.73.08-2.59.1-.86.02-1.73.03-2.16.04q-.43,0-.86,0c-.43,0-1.3-.02-2.16-.04"/>
  <path class="cls-3" d="m194.52,70.76c-.34-1.01-.71-2.01-1.1-3-.4-.99-.82-1.97-1.27-2.94-.45-.97-.93-1.93-1.44-2.87-.51-.95-1.04-1.88-1.61-2.81-.56-.92-1.15-1.83-1.77-2.73-.62-.9-1.26-1.78-1.93-2.65-.67-.87-1.36-1.73-2.08-2.57-.72-.84-1.47-1.67-2.24-2.48-.77-.81-1.57-1.61-2.38-2.38-.82-.78-1.66-1.54-2.53-2.29-.87-.75-1.76-1.47-2.67-2.18s-1.85-1.4-2.8-2.08c-.96-.67-1.93-1.33-2.93-1.97s-2.02-1.26-3.05-1.86c-1.04-.6-2.1-1.18-3.17-1.74s-2.17-1.1-3.28-1.62c-1.11-.52-2.24-1.02-3.39-1.5-1.15-.48-2.31-.93-3.49-1.37-1.18-.44-2.37-.85-3.58-1.24-1.21-.39-2.43-.76-3.67-1.11-1.24-.35-2.49-.67-3.75-.98-1.26-.3-2.54-.59-3.82-.84-1.29-.26-2.58-.5-3.89-.71-1.31-.21-2.63-.4-3.95-.57s-2.66-.31-4-.43-2.69-.22-4.05-.29c-1.36-.08-2.72-.13-4.09-.16-1.37-.03-2.74-.03-4.12-.02-1.38.02-2.76.06-4.14.12-1.38.06-2.77.15-4.15.26M89.44,1.68c.2.04.4.12.61.22s.42.24.63.41c.21.17.43.37.65.6.22.23.44.5.66.79.22.3.45.62.68.98.23.36.46.75.69,1.16.23.42.47.87.83,1.63.36.76.84,1.84,1.33,3.04.49,1.19.98,2.5,1.48,3.92s1,2.95,1.5,4.59M3.67,122.48c-.25-1.25-.46-2.5-.63-3.76-.17-1.26-.3-2.53-.38-3.81s-.13-2.56-.13-3.83c0-1.26.04-2.51.12-3.76.08-1.25.2-2.5.35-3.75.16-1.25.35-2.51.59-3.76.23-1.25.51-2.51.82-3.76s.66-2.5,1.05-3.75.81-2.49,1.28-3.73c.46-1.24.96-2.47,1.5-3.7.54-1.23,1.11-2.45,1.72-3.67s1.26-2.42,1.94-3.62c.68-1.2,1.4-2.39,2.15-3.57.75-1.18,1.54-2.35,2.36-3.51s1.67-2.3,2.56-3.43c.89-1.13,1.8-2.25,2.75-3.35s1.93-2.19,2.94-3.27c1.01-1.07,2.05-2.13,3.12-3.17,1.07-1.04,2.17-2.06,3.3-3.07,1.13-1.01,2.28-1.99,3.46-2.96,1.18-.97,2.39-1.91,3.62-2.84,1.23-.93,2.49-1.83,3.77-2.72,1.28-.88,2.59-1.75,3.91-2.59,1.33-.84,2.67-1.66,4.04-2.45,1.37-.79,2.76-1.56,4.16-2.31,1.41-.74,2.83-1.46,4.27-2.16,1.44-.69,2.9-1.36,4.37-2,1.47-.64,2.96-1.26,4.46-1.85,1.5-.59,3.02-1.15,4.54-1.68,1.53-.53,3.06-1.04,4.61-1.52s3.1-.93,4.67-1.34,3.14-.81,4.71-1.17c1.58-.36,3.16-.69,4.75-.99,1.59-.3,3.18-.57,4.77-.81m16.28,173.48c.12-.04.23-.09.4-.2.17-.11.39-.28.6-.5.21-.22.42-.48.62-.8s.39-.67.58-1.08.37-.86.54-1.36c.17-.5.34-1.04.5-1.63.16-.59.31-1.23.46-1.91.14-.68.28-1.4.41-2.17s.25-1.58.37-2.43.22-1.75.32-2.68c.1-.94.19-1.91.27-2.93.08-1.02.16-2.07.24-3.76s.19-4.03.25-6.49c.07-2.47.1-5.08.1-7.67s-.02-5.17-.08-7.84c-.06-2.67-.14-5.42-.25-8.25-.11-2.83-.25-5.73-.41-8.7-.16-2.97-.35-5.99-.57-9.07-.21-3.07-.46-6.19-.72-9.34-.26-3.15-.55-6.33-.87-9.53-.31-3.2-.65-6.41-1-9.63-.36-3.21-.73-6.43-1.13-9.63-.4-3.2-.81-6.39-1.25-9.54s-.89-6.28-1.35-9.36c-.47-3.08-.95-6.11-1.44-9.09s-1-5.89-1.52-8.73c-.52-2.84-1.05-5.61-1.59-8.29-.54-2.68-1.08-5.27-1.63-7.76-.55-2.49-1.11-4.88-1.67-7.16M1.11,102.78c.06.92.16,1.85.28,2.77.13.92.28,1.84.47,2.76.19.92.41,1.83.66,2.74.25.91.53,1.82.84,2.72.31.9.65,1.8,1.03,2.7.37.89.78,1.78,1.21,2.66.43.88.9,1.76,1.39,2.63.49.87,1.01,1.73,1.57,2.59.55.85,1.13,1.7,1.74,2.54.61.84,1.25,1.67,1.91,2.49.66.82,1.36,1.63,2.08,2.43s1.47,1.59,2.24,2.37c.77.78,1.57,1.55,2.4,2.31.83.76,1.68,1.5,2.55,2.24.88.73,1.78,1.46,2.7,2.16s1.87,1.4,2.85,2.09c.97.68,1.97,1.35,2.99,2.01,1.02.65,2.06,1.29,3.12,1.92s2.14,1.24,3.25,1.83c1.1.59,2.23,1.17,3.37,1.74,1.14.56,2.3,1.11,3.48,1.64,1.18.53,2.38,1.04,3.59,1.54,1.21.5,2.45.98,3.69,1.44,1.25.46,2.51.91,3.79,1.34,1.28.43,2.57.84,3.87,1.23,1.3.39,2.62.76,3.95,1.12s2.67.69,4.02,1.01,2.72.61,4.09.89c1.37.28,2.76.54,4.15.78,1.39.24,2.79.46,4.19.66s2.82.38,4.24.54c1.42.16,2.84.3,4.27.42,1.43.12,2.86.22,4.29.3s2.87.14,4.31.18c1.44.04,2.88.06,4.32.06s2.88-.02,4.32-.06c1.44-.04,2.88-.1,4.31-.18s2.87-.18,4.29-.3c1.43-.12,2.85-.26,4.27-.42,1.42-.16,2.83-.34,4.24-.54s2.8-.42,4.19-.66c1.39-.24,2.77-.5,4.15-.78,1.37-.28,2.74-.58,4.09-.89s2.69-.65,4.02-1.01,2.65-.73,3.95-1.12c1.3-.39,2.6-.8,3.87-1.23,1.28-.43,2.54-.87,3.79-1.34,1.25-.46,2.48-.94,3.69-1.44s2.41-1.01,3.59-1.54c1.18-.53,2.34-1.08,3.48-1.64s2.27-1.14,3.37-1.74,2.19-1.21,3.25-1.83c1.06-.63,2.1-1.27,3.12-1.92,1.02-.65,2.01-1.32,2.99-2.01s1.92-1.38,2.85-2.09c.93-.71,1.83-1.43,2.7-2.16.88-.73,1.73-1.48,2.55-2.24.83-.76,1.63-1.53,2.4-2.31.77-.78,1.52-1.57,2.24-2.37s1.41-1.61,2.08-2.43c.66-.82,1.3-1.65,1.91-2.49s1.19-1.69,1.74-2.54c.55-.85,1.07-1.72,1.57-2.59.49-.87.96-1.75,1.39-2.63.43-.88.84-1.77,1.21-2.66.37-.89.71-1.79,1.03-2.7.31-.9.59-1.81.84-2.72s.47-1.83.66-2.74.34-1.84.47-2.76c.13-.92.22-1.85.28-2.77.06-.92.09-1.85.11-2.31m-14-51.17c-.4-.64-.81-1.26-1.23-1.88-.43-.62-.86-1.23-1.32-1.83-.45-.6-.92-1.19-1.4-1.77-.48-.58-.97-1.16-1.48-1.72-.51-.56-1.03-1.12-1.56-1.66-.53-.54-1.08-1.08-1.64-1.6-.56-.52-1.13-1.04-1.71-1.54s-1.18-1-1.79-1.48c-.61-.48-1.23-.95-1.86-1.41-.63-.46-1.28-.91-1.93-1.35-.66-.44-1.32-.87-2-1.28-.68-.42-1.37-.82-2.07-1.21s-1.41-.78-2.13-1.15c-.72-.37-1.45-.73-2.19-1.08s-1.49-.68-2.25-1c-.76-.32-1.53-.63-2.31-.93s-1.57-.58-2.37-.86c-.8-.27-1.61-.54-2.42-.78-.82-.25-1.64-.49-2.47-.71s-1.67-.44-2.52-.63-1.7-.38-2.57-.56c-.86-.17-1.73-.33-2.61-.48s-1.76-.28-2.65-.4c-.89-.12-1.79-.23-2.69-.33-.9-.1-1.81-.18-2.72-.25-.91-.07-1.83-.13-2.76-.17s-1.85-.07-2.79-.09c-.93-.02-1.87-.02-2.82-.01-.94,0-1.89.03-2.84.06-.95.03-1.9.08-2.86.14m53.41,11.24c-.41-.42-.83-.83-1.26-1.24s-.86-.8-1.31-1.19-.9-.77-1.36-1.14-.93-.73-1.41-1.09c-.48-.35-.96-.7-1.46-1.04-.49-.34-.99-.66-1.5-.98s-1.03-.63-1.55-.93c-.52-.3-1.06-.59-1.59-.88-.54-.28-1.09-.56-1.64-.82-.55-.26-1.11-.52-1.68-.77s-1.14-.48-1.72-.71c-.58-.23-1.17-.45-1.76-.65-.59-.21-1.2-.41-2.11-.68-.92-.27-2.16-.61-3.42-.91s-2.55-.57-3.86-.79c-1.31-.22-2.64-.41-3.98-.56-1.35-.15-2.72-.25-4.1-.32-1.39-.07-2.79-.09-4.21-.08-1.42.01-2.85.06-4.3.15-1.45.09-2.91.22-4.38.39-1.47.17-2.96.38-4.45.63m38.6.92c-.76-.49-1.53-.95-2.33-1.38-.8-.43-1.61-.83-2.45-1.21-.84-.37-1.69-.72-2.56-1.03-.87-.31-1.76-.6-2.67-.85-.91-.25-1.83-.47-2.78-.67-.94-.19-1.9-.35-2.87-.48-.97-.13-1.96-.23-2.96-.3-1-.07-2.02-.11-3.05-.11-1.03,0-2.07.02-3.13.07-1.05.06-2.12.14-3.2.26s-2.17.27-3.26.44-2.2.39-3.32.63c-1.12.24-2.24.51-3.37.81-1.13.3-2.27.63-3.41.99m28.57-5.06c-.61-.27-1.24-.51-1.87-.73-.64-.22-1.29-.41-1.95-.58-.66-.17-1.33-.31-2.02-.43-.68-.12-1.38-.21-2.08-.28-.71-.07-1.42-.11-2.15-.13s-1.46,0-2.21.03c-.74.03-1.5.09-2.26.18-.76.08-1.53.19-2.31.33-.78.13-1.57.29-2.36.48-.79.18-1.6.39-2.4.63-.81.23-1.62.49-2.44.78-.82.28-1.65.59-2.48.93-.83.33-1.67.69-2.51,1.07-.84.38-1.69.79-2.54,1.22m19.49-8.73c-.46-.12-.92-.22-1.39-.3-.47-.08-.95-.13-1.44-.17-.49-.03-.98-.05-1.48-.04-.5,0-1,.04-1.52.09-.51.05-1.03.13-1.55.22s-1.05.21-1.59.35-1.08.3-1.62.48c-.55.18-1.1.38-1.65.61s-1.12.47-1.68.73c-.57.27-1.14.55-1.71.86s-1.15.64-1.73.99c-.58.35-1.17.72-1.76,1.11s-1.18.8-1.78,1.23c-.59.43-1.19.88-1.79,1.35m11.26-10.82c-.3-.03-.61-.04-.91-.03-.31,0-.62.04-.94.08-.32.05-.64.11-.96.2-.32.09-.65.19-.99.32-.33.12-.67.27-1.01.43-.34.16-.68.35-1.03.55-.35.2-.69.42-1.05.66-.35.24-.71.5-1.06.77-.36.28-.72.57-1.08.89-.36.31-.73.65-1.1,1-.37.35-.74.72-1.3,1.33-.56.61-1.31,1.45-2.07,2.37m2.54-10.39c-.15.02-.3.06-.45.11-.15.06-.31.13-.46.22s-.31.2-.47.33c-.16.13-.32.27-.48.44-.16.16-.33.35-.58.67-.25.33-.59.79-.93,1.33s-.69,1.15-1.05,1.83-.71,1.42-1.07,2.24c-.36.81-.73,1.69-1.1,2.64m-25.76-7.99c.3-.03.61-.04.91-.03.31,0,.62.04.94.08.32.05.64.11.96.2.32.09.65.19.99.32.33.12.67.27,1.01.43.34.16.68.35,1.03.55.35.2.69.42,1.05.66.35.24.71.5,1.06.77.36.28.72.57,1.08.89.36.31.73.65,1.1,1,.37.35.74.72,1.3,1.33.56.61,1.31,1.45,2.07,2.37m-24.93-5.26c.46-.12.92-.22,1.39-.3.47-.08.95-.13,1.44-.17.49-.03.98-.05,1.48-.04.5,0,1,.04,1.52.09.51.05,1.03.13,1.55.22s1.05.21,1.59.35,1.08.3,1.62.48c.55.18,1.1.38,1.65.61s1.12.47,1.68.73c.57.27,1.14.55,1.71.86s1.15.64,1.73.99c.58.35,1.17.72,1.76,1.11s1.18.8,1.78,1.23c.59.43,1.19.88,1.79,1.35m-34.79-2.28c.61-.27,1.24-.51,1.87-.73.64-.22,1.29-.41,1.95-.58.66-.17,1.33-.31,2.02-.43.68-.12,1.38-.21,2.08-.28s1.42-.11,2.15-.13,1.46,0,2.21.03c.74.03,1.5.09,2.26.18.76.08,1.53.19,2.31.33.78.13,1.57.29,2.36.48.79.18,1.6.39,2.4.63.81.23,1.62.49,2.44.78.82.28,1.65.59,2.48.93.83.33,1.67.69,2.51,1.07.84.38,1.69.79,2.54,1.22m-44.38,4.37c.76-.49,1.53-.95,2.33-1.38.8-.43,1.61-.83,2.45-1.21s1.69-.72,2.56-1.03c.87-.31,1.76-.6,2.67-.85.91-.25,1.83-.47,2.78-.67.94-.19,1.9-.35,2.87-.48.97-.13,1.96-.23,2.96-.3,1-.07,2.02-.11,3.05-.11,1.03,0,2.07.02,3.13.07,1.05.06,2.12.14,3.2.26s2.17.27,3.26.44,2.2.39,3.32.63c1.12.24,2.24.51,3.37.81,1.13.3,2.27.63,3.41.99m-55.83,15.5c.41-.42.83-.83,1.26-1.24.43-.4.86-.8,1.31-1.19s.9-.77,1.36-1.14.93-.73,1.41-1.09.96-.7,1.46-1.04c.49-.34.99-.66,1.5-.98.51-.32,1.03-.63,1.55-.93s1.06-.59,1.59-.88,1.09-.56,1.64-.82c.55-.26,1.11-.52,1.68-.77s1.14-.48,1.72-.71c.58-.23,1.17-.45,1.76-.65.59-.21,1.2-.41,2.11-.68.92-.27,2.16-.61,3.42-.91,1.26-.3,2.55-.57,3.86-.79s2.64-.41,3.98-.56,2.72-.25,4.1-.32c1.39-.07,2.79-.09,4.21-.08,1.42.01,2.85.06,4.3.15,1.45.09,2.91.22,4.38.39,1.47.17,2.96.38,4.45.63M15.01,49.29c.4-.64.81-1.26,1.23-1.88.43-.62.86-1.23,1.32-1.83s.92-1.19,1.4-1.77c.48-.58.97-1.16,1.48-1.72.51-.56,1.03-1.12,1.56-1.66.53-.54,1.08-1.08,1.64-1.6s1.13-1.04,1.71-1.54c.58-.5,1.18-1,1.79-1.48s1.23-.95,1.86-1.41c.63-.46,1.28-.91,1.93-1.35.66-.44,1.32-.87,2-1.28.68-.42,1.37-.82,2.07-1.21s1.41-.78,2.13-1.15c.72-.37,1.45-.73,2.19-1.08s1.49-.68,2.25-1c.76-.32,1.53-.63,2.31-.93.78-.3,1.57-.58,2.37-.86.8-.27,1.61-.54,2.42-.78.82-.25,1.64-.49,2.47-.71.83-.22,1.67-.44,2.52-.63s1.7-.38,2.57-.56c.86-.17,1.73-.33,2.61-.48.88-.15,1.76-.28,2.65-.4.89-.12,1.79-.23,2.69-.33.9-.1,1.81-.18,2.72-.25.91-.07,1.83-.13,2.76-.17s1.85-.07,2.79-.09c.93-.02,1.87-.02,2.82-.01.94,0,1.89.03,2.84.06.95.03,1.9.08,2.86.14M5.34,71.15c.29-.88.6-1.76.93-2.62.33-.87.69-1.73,1.06-2.58.38-.85.77-1.7,1.19-2.53s.86-1.66,1.32-2.48c.46-.82.94-1.63,1.44-2.43.5-.8,1.02-1.59,1.57-2.37s1.11-1.55,1.69-2.31c.58-.76,1.19-1.51,1.81-2.25.62-.74,1.26-1.46,1.92-2.18.66-.71,1.34-1.42,2.04-2.11.7-.69,1.41-1.37,2.15-2.04.73-.67,1.49-1.32,2.25-1.96.77-.64,1.56-1.27,2.36-1.88.8-.61,1.62-1.21,2.46-1.8.84-.59,1.69-1.16,2.56-1.72.87-.56,1.75-1.1,2.65-1.63.9-.53,1.81-1.04,2.74-1.54.93-.5,1.87-.98,2.83-1.45.96-.47,1.93-.92,2.91-1.36.98-.44,1.98-.86,2.99-1.26,1.01-.41,2.03-.79,3.07-1.17,1.03-.37,2.08-.73,3.14-1.07,1.06-.34,2.12-.66,3.2-.97,1.08-.31,2.17-.6,3.26-.87,1.1-.27,2.2-.53,3.32-.77,1.12-.24,2.24-.46,3.37-.66,1.13-.2,2.27-.39,3.42-.56,1.15-.17,2.3-.32,3.46-.46,1.16-.13,2.33-.25,3.5-.35,1.17-.1,2.35-.18,3.54-.24M1.11,96.69c.06-1.1.16-2.2.28-3.3.13-1.1.28-2.2.47-3.29.19-1.09.41-2.18.64-3.2.23-1.02.47-1.97.74-2.91s.56-1.88.87-2.82.65-1.87,1.01-2.79.74-1.84,1.15-2.76c.4-.91.83-1.82,1.28-2.72s.92-1.8,1.42-2.68c.49-.89,1.01-1.77,1.55-2.64.54-.87,1.1-1.74,1.68-2.59.58-.86,1.18-1.7,1.81-2.54.62-.84,1.27-1.67,1.93-2.49s1.35-1.63,2.06-2.43c.71-.8,1.43-1.59,2.18-2.37.74-.78,1.51-1.55,2.29-2.3.78-.76,1.59-1.5,2.41-2.23.82-.73,1.66-1.45,2.51-2.16.86-.71,1.73-1.4,2.62-2.09.89-.68,1.8-1.35,2.72-2.01s1.86-1.3,2.82-1.93c.96-.63,1.93-1.24,2.91-1.84.99-.6,1.99-1.19,3-1.76,1.02-.57,2.05-1.13,3.09-1.67,1.04-.54,2.1-1.07,3.17-1.58,1.07-.51,2.15-1,3.25-1.48,1.09-.48,2.2-.94,3.32-1.39s2.25-.87,3.38-1.29c1.14-.41,2.29-.81,3.45-1.19,1.16-.38,2.33-.74,3.5-1.09,1.18-.34,2.36-.67,3.55-.98s2.39-.6,3.6-.88c1.21-.28,2.42-.53,3.64-.77s2.45-.46,3.68-.67M12.68,146.57c-.38-.75-.73-1.5-1.07-2.26-.34-.76-.66-1.54-.96-2.32s-.59-1.57-.85-2.37-.51-1.6-.74-2.42c-.23-.81-.44-1.64-.63-2.46-.19-.83-.36-1.66-.52-2.51-.15-.84-.29-1.69-.4-2.55-.12-.86-.21-1.72-.29-2.58-.08-.87-.14-1.74-.17-2.62-.04-.88-.06-1.76-.06-2.65,0-.89.02-1.78.05-2.67.04-.9.09-1.79.17-2.7.08-.9.17-1.81.28-2.72s.25-1.82.4-2.73.32-1.83.52-2.79.43-1.96.68-2.96c.25-1,.52-2,.82-3.01.29-1,.61-2.01.95-3.01.34-1,.7-2.01,1.08-3.01.38-1,.78-2,1.21-3.01.42-1,.87-2,1.33-3,.46-1,.95-1.99,1.46-2.98.51-.99,1.03-1.98,1.58-2.96s1.11-1.96,1.7-2.94c.59-.98,1.19-1.95,1.82-2.91.63-.97,1.27-1.93,1.93-2.88.66-.95,1.34-1.9,2.04-2.85.7-.94,1.42-1.88,2.15-2.81.74-.93,1.49-1.85,2.26-2.76.77-.91,1.56-1.82,2.36-2.71s1.63-1.78,2.46-2.66c.84-.88,1.69-1.75,2.56-2.61.87-.86,1.75-1.71,2.65-2.55.9-.84,1.81-1.67,2.74-2.48.93-.82,1.87-1.62,2.82-2.42.95-.79,1.92-1.58,2.9-2.35.98-.77,1.97-1.53,2.98-2.27s2.02-1.48,3.05-2.2c1.03-.72,2.07-1.42,3.12-2.11,1.05-.69,2.11-1.37,3.18-2.03,1.07-.66,2.15-1.31,3.24-1.95s2.19-1.25,3.29-1.86,2.22-1.19,3.34-1.76c1.12-.57,2.25-1.13,3.38-1.67,1.13-.54,2.28-1.06,3.42-1.57s2.3-1,3.46-1.47M24.48,163.9c-.6-.77-1.18-1.56-1.73-2.36-.55-.81-1.08-1.64-1.58-2.49-.5-.85-.97-1.72-1.42-2.6-.45-.89-.87-1.79-1.26-2.72-.39-.92-.76-1.86-1.1-2.82-.34-.96-.65-1.93-.94-2.92-.28-.99-.54-2-.77-3.02s-.43-2.06-.6-3.11-.32-2.11-.44-3.19-.21-2.17-.27-3.27c-.06-1.1-.09-2.21-.1-3.34,0-1.12.02-2.26.07-3.4.05-1.14.13-2.3.24-3.46.11-1.16.25-2.33.41-3.51.16-1.18.36-2.36.56-3.46.2-1.1.41-2.13.64-3.16.23-1.03.48-2.06.75-3.1.27-1.04.56-2.07.87-3.11.31-1.04.64-2.08.99-3.13.35-1.04.72-2.09,1.11-3.14.39-1.05.8-2.09,1.23-3.14s.88-2.09,1.34-3.14c.47-1.05.95-2.09,1.46-3.13.5-1.04,1.03-2.08,1.57-3.12s1.1-2.08,1.67-3.11c.58-1.03,1.17-2.06,1.78-3.09.61-1.03,1.24-2.05,1.88-3.07.65-1.02,1.31-2.03,1.99-3.04s1.37-2.01,2.08-3.01c.71-1,1.44-1.99,2.18-2.97.74-.98,1.5-1.96,2.27-2.93.77-.97,1.56-1.93,2.36-2.88.8-.95,1.61-1.9,2.44-2.83.83-.94,1.67-1.86,2.52-2.78s1.72-1.82,2.6-2.72c.88-.9,1.77-1.78,2.68-2.66.9-.88,1.82-1.74,2.75-2.59s1.86-1.7,2.81-2.52,1.91-1.65,2.87-2.45c.97-.8,1.95-1.6,2.93-2.38.99-.78,1.98-1.54,2.98-2.3,1-.75,2.01-1.49,3.03-2.21,1.02-.72,2.05-1.43,3.08-2.13,1.03-.69,2.07-1.37,3.12-2.04,1.05-.66,2.1-1.31,3.15-1.94s2.12-1.25,3.19-1.85m-43.28,145.05c-.38-.32-.76-.65-1.31-1.18s-1.26-1.23-1.94-1.98c-.68-.75-1.34-1.53-1.96-2.34-.63-.81-1.22-1.66-1.79-2.53-.57-.88-1.1-1.78-1.6-2.72-.5-.94-.98-1.9-1.42-2.9-.44-.99-.85-2.02-1.22-3.07-.38-1.05-.72-2.13-1.03-3.23-.31-1.1-.59-2.23-.83-3.39s-.46-2.33-.63-3.53-.32-2.42-.43-3.67c-.11-1.24-.19-2.51-.23-3.79s-.05-2.59-.03-3.91c.03-1.32.08-2.66.18-4.02.09-1.35.22-2.73.38-4.11.16-1.38.35-2.78.54-4.01.19-1.22.38-2.27.58-3.32.2-1.05.43-2.11.67-3.18.24-1.06.5-2.13.77-3.21s.57-2.15.88-3.23c.31-1.08.64-2.17.98-3.25.34-1.09.71-2.18,1.09-3.27.38-1.09.77-2.19,1.19-3.28.41-1.09.84-2.19,1.29-3.29.45-1.1.91-2.19,1.39-3.29s.97-2.19,1.48-3.29c.51-1.09,1.03-2.19,1.58-3.28.54-1.09,1.1-2.18,1.67-3.27.57-1.09,1.16-2.17,1.76-3.25.6-1.08,1.21-2.16,1.84-3.23.63-1.07,1.27-2.14,1.93-3.2s1.33-2.12,2.01-3.17c.68-1.05,1.38-2.09,2.09-3.13.71-1.04,1.43-2.07,2.16-3.09.73-1.02,1.48-2.04,2.23-3.05.76-1.01,1.52-2.01,2.3-3,.78-.99,1.57-1.97,2.37-2.94.8-.97,1.61-1.93,2.43-2.89.82-.95,1.65-1.89,2.49-2.82.84-.93,1.69-1.85,2.54-2.76.86-.91,1.72-1.8,2.59-2.69.87-.88,1.75-1.75,2.64-2.61.89-.86,1.78-1.7,2.68-2.53.9-.83,1.81-1.65,2.72-2.45s1.83-1.59,2.76-2.37c.92-.77,1.86-1.53,2.79-2.28.93-.74,1.87-1.47,2.82-2.18m-32.19,151.92c-.4-.24-.78-.5-1.17-.77-.38-.27-.76-.55-1.13-.84-.37-.29-.73-.59-1.09-.91-.35-.31-.7-.64-1.04-.98-.34-.34-.67-.68-1-1.04s-.65-.73-.96-1.11c-.31-.38-.62-.77-.91-1.18-.3-.4-.59-.82-.87-1.24s-.56-.86-.82-1.3c-.27-.45-.52-.9-.77-1.37-.25-.47-.49-.94-.73-1.43s-.46-.98-.68-1.49c-.22-.51-.43-1.02-.72-1.83-.29-.8-.66-1.89-1-3.02s-.64-2.29-.91-3.49-.51-2.44-.71-3.7c-.2-1.27-.37-2.57-.51-3.9-.13-1.33-.23-2.7-.3-4.09-.07-1.39-.1-2.81-.09-4.26,0-1.45.04-2.92.12-4.42.07-1.5.18-3.02.32-4.56.14-1.54.32-3.11.48-4.42s.32-2.38.49-3.46c.17-1.07.36-2.16.56-3.24s.42-2.18.65-3.29.48-2.21.74-3.32c.26-1.11.54-2.23.82-3.35.29-1.12.59-2.25.91-3.38.32-1.13.65-2.27,1-3.4.35-1.14.71-2.28,1.08-3.42s.76-2.29,1.16-3.43c.4-1.15.82-2.29,1.24-3.44.43-1.15.87-2.29,1.32-3.44.45-1.15.92-2.29,1.4-3.44.48-1.15.97-2.29,1.47-3.43.5-1.14,1.02-2.28,1.55-3.42.53-1.14,1.07-2.27,1.62-3.4s1.11-2.26,1.68-3.38c.57-1.12,1.16-2.24,1.75-3.35.59-1.11,1.2-2.22,1.81-3.32.61-1.1,1.24-2.19,1.87-3.28.63-1.09,1.28-2.16,1.93-3.24.65-1.07,1.32-2.13,1.99-3.19s1.35-2.1,2.04-3.14c.69-1.04,1.38-2.06,2.09-3.08s1.41-2.02,2.13-3.02c.72-1,1.44-1.98,2.18-2.95.73-.97,1.47-1.94,2.22-2.88s1.5-1.89,2.25-2.81,1.52-1.84,2.28-2.73c.77-.9,1.54-1.78,2.31-2.65s1.56-1.73,2.34-2.57c.78-.84,1.57-1.67,2.36-2.48m-22.08,156.2c-.35-.16-.7-.34-1.03-.53-.34-.19-.67-.4-1-.62-.33-.22-.65-.45-.97-.7-.32-.25-.63-.51-.93-.79s-.6-.57-.89-.87c-.29-.3-.58-.62-.86-.95-.28-.33-.55-.68-.82-1.03s-.53-.73-.78-1.11c-.25-.38-.5-.78-.74-1.19-.24-.41-.47-.84-.7-1.27-.23-.44-.45-.89-.66-1.35-.21-.46-.42-.94-.62-1.43-.2-.49-.39-.99-.65-1.78s-.6-1.86-.91-2.98c-.31-1.12-.59-2.29-.84-3.5-.25-1.21-.47-2.47-.66-3.77-.19-1.3-.35-2.64-.48-4.02-.13-1.38-.23-2.8-.3-4.26-.07-1.46-.11-2.96-.12-4.49,0-1.53.01-3.1.07-4.69s.14-3.23.25-4.88.26-3.34.46-5.28c.21-1.93.47-4.12.78-6.33.31-2.22.67-4.47,1.08-6.74.4-2.28.85-4.58,1.35-6.9.49-2.32,1.03-4.67,1.61-7.03s1.21-4.73,1.87-7.11c.66-2.38,1.37-4.76,2.11-7.15.74-2.38,1.53-4.77,2.35-7.14.82-2.38,1.68-4.75,2.57-7.1.89-2.35,1.81-4.7,2.77-7.01.96-2.32,1.94-4.62,2.96-6.89,1.02-2.27,2.06-4.51,3.13-6.72s2.16-4.38,3.28-6.52,2.26-4.23,3.41-6.27c1.16-2.05,2.33-4.05,3.53-5.99,1.19-1.95,2.4-3.84,3.62-5.68m-11.06,155.89c-.26-.09-.52-.21-.77-.33-.25-.13-.5-.27-.74-.43s-.48-.33-.72-.53c-.23-.19-.47-.4-.69-.62s-.45-.46-.67-.72c-.22-.25-.43-.53-.64-.81-.21-.29-.41-.59-.61-.9-.2-.32-.39-.65-.58-1-.19-.35-.37-.71-.64-1.3-.26-.59-.6-1.41-.92-2.28-.32-.87-.62-1.81-.89-2.8s-.53-2.04-.77-3.14c-.23-1.1-.45-2.26-.64-3.47s-.36-2.47-.51-3.78c-.15-1.31-.27-2.67-.37-4.08-.1-1.41-.18-2.86-.24-4.36-.06-1.5-.09-3.04-.1-4.63-.01-1.58,0-3.21.03-4.87.03-1.66.09-3.36.17-5.1.08-1.74.18-3.5.32-5.49.14-1.99.32-4.2.54-6.44.21-2.25.46-4.53.74-6.84.28-2.32.58-4.66.92-7.03.34-2.37.71-4.77,1.1-7.18.4-2.41.82-4.84,1.28-7.28s.94-4.89,1.45-7.35c.51-2.45,1.04-4.91,1.61-7.37.56-2.45,1.15-4.9,1.76-7.34.61-2.44,1.24-4.87,1.89-7.28s1.33-4.8,2.02-7.17c.69-2.37,1.41-4.71,2.14-7.02.73-2.31,1.48-4.59,2.24-6.83.76-2.24,1.54-4.44,2.33-6.6.79-2.16,1.6-4.27,2.41-6.33.82-2.06,1.64-4.07,2.48-6.02m-3.17,156.83c-.14-.05-.27-.12-.41-.2-.13-.09-.27-.19-.39-.31-.13-.12-.26-.26-.38-.41-.12-.15-.25-.33-.37-.51-.12-.19-.24-.39-.41-.75-.17-.36-.39-.87-.6-1.45-.21-.58-.41-1.22-.6-1.93s-.37-1.49-.54-2.32c-.17-.84-.33-1.74-.48-2.71-.15-.96-.29-1.99-.41-3.08-.13-1.09-.24-2.23-.34-3.43-.1-1.2-.19-2.46-.27-3.78-.08-1.31-.15-2.68-.2-4.1-.06-1.42-.1-2.89-.13-4.41-.03-1.52-.05-3.09-.06-4.7,0-1.61,0-3.27.01-4.97.02-1.7.05-3.44.09-5.22.04-1.78.09-3.6.17-5.62s.16-4.24.27-6.51c.11-2.26.23-4.57.37-6.91.14-2.34.3-4.71.47-7.11.17-2.4.36-4.83.56-7.27.2-2.45.42-4.91.65-7.39.23-2.48.48-4.97.73-7.47.26-2.5.53-5,.82-7.5.28-2.5.58-5,.89-7.49s.63-4.97.96-7.44.67-4.91,1.03-7.34c.35-2.43.72-4.83,1.09-7.2.37-2.37.75-4.71,1.14-7.02s.78-4.57,1.19-6.79c.4-2.22.81-4.4,1.22-6.53s.83-4.21,1.26-6.23m4.26,152.41V62.69m23.34,133.46c.26-.09.52-.21.77-.33.25-.13.5-.27.74-.43s.48-.33.72-.53c.23-.19.47-.4.69-.62s.45-.46.67-.72c.22-.25.43-.53.64-.81.21-.29.41-.59.61-.9.2-.32.39-.65.58-1,.19-.35.37-.71.64-1.3.26-.59.6-1.41.92-2.28.32-.87.62-1.81.89-2.8s.53-2.04.77-3.14c.23-1.1.45-2.26.64-3.47s.36-2.47.51-3.78c.15-1.31.27-2.67.37-4.08.1-1.41.18-2.86.24-4.36.06-1.5.09-3.04.1-4.63.01-1.58,0-3.21-.03-4.87-.03-1.66-.09-3.36-.17-5.1-.08-1.74-.18-3.5-.32-5.49-.14-1.99-.32-4.2-.54-6.44-.21-2.25-.46-4.53-.74-6.84-.28-2.32-.58-4.66-.92-7.03-.34-2.37-.71-4.77-1.1-7.18-.4-2.41-.82-4.84-1.28-7.28s-.94-4.89-1.45-7.35c-.51-2.45-1.04-4.91-1.61-7.37-.56-2.45-1.15-4.9-1.76-7.34-.61-2.44-1.24-4.87-1.89-7.28s-1.33-4.8-2.02-7.17c-.69-2.37-1.41-4.71-2.14-7.02-.73-2.31-1.48-4.59-2.24-6.83-.76-2.24-1.54-4.44-2.33-6.6-.79-2.16-1.6-4.27-2.41-6.33-.82-2.06-1.64-4.07-2.48-6.02m27.11,150.93c.35-.16.7-.34,1.03-.53.34-.19.67-.4,1-.62.33-.22.65-.45.97-.7s.63-.51.93-.79.6-.57.89-.87c.29-.3.58-.62.86-.95.28-.33.55-.68.82-1.03s.53-.73.78-1.11c.25-.38.5-.78.74-1.19.24-.41.47-.84.7-1.27s.45-.89.66-1.35c.21-.46.42-.94.62-1.43.2-.49.39-.99.65-1.78.27-.79.6-1.86.91-2.98.31-1.12.59-2.29.84-3.5.25-1.21.47-2.47.66-3.77.19-1.3.35-2.64.48-4.02.13-1.38.23-2.8.3-4.26s.11-2.96.12-4.49-.01-3.1-.07-4.69c-.05-1.6-.14-3.23-.25-4.88s-.26-3.34-.46-5.28-.47-4.12-.78-6.33-.67-4.47-1.08-6.74-.85-4.58-1.35-6.9c-.49-2.32-1.03-4.67-1.61-7.03-.58-2.36-1.21-4.73-1.87-7.11-.66-2.38-1.37-4.76-2.11-7.15-.74-2.38-1.53-4.77-2.35-7.14-.82-2.38-1.68-4.75-2.57-7.1-.89-2.35-1.81-4.7-2.77-7.01-.96-2.32-1.94-4.62-2.96-6.89-1.02-2.27-2.06-4.51-3.13-6.72s-2.16-4.38-3.28-6.52-2.26-4.23-3.41-6.27c-1.16-2.05-2.33-4.05-3.53-5.99-1.19-1.95-2.4-3.84-3.62-5.68m35.92,146.17c.4-.24.78-.5,1.17-.77.38-.27.76-.55,1.13-.84s.73-.59,1.09-.91.7-.64,1.04-.98c.34-.34.67-.68,1-1.04s.65-.73.96-1.11c.31-.38.62-.77.91-1.18.3-.4.59-.82.87-1.24.28-.42.56-.86.82-1.3.27-.45.52-.9.77-1.37.25-.47.49-.94.73-1.43.23-.49.46-.98.68-1.49.22-.51.43-1.02.72-1.83.29-.8.66-1.89,1-3.02.34-1.13.64-2.29.91-3.49s.51-2.44.71-3.7c.2-1.27.37-2.57.51-3.9.13-1.33.23-2.7.3-4.09.07-1.39.1-2.81.09-4.26s-.04-2.92-.12-4.42-.18-3.02-.32-4.56c-.14-1.54-.32-3.11-.48-4.42-.17-1.32-.32-2.38-.49-3.46-.17-1.07-.36-2.16-.56-3.24-.2-1.09-.42-2.18-.65-3.29s-.48-2.21-.74-3.32c-.26-1.11-.54-2.23-.82-3.35-.29-1.12-.59-2.25-.91-3.38-.32-1.13-.65-2.27-1-3.4-.35-1.14-.71-2.28-1.08-3.42-.37-1.14-.76-2.29-1.16-3.43s-.82-2.29-1.24-3.44c-.43-1.15-.87-2.29-1.32-3.44-.45-1.15-.92-2.29-1.4-3.44s-.97-2.29-1.47-3.43c-.5-1.14-1.02-2.28-1.55-3.42-.53-1.14-1.07-2.27-1.62-3.4-.55-1.13-1.11-2.26-1.68-3.38-.57-1.12-1.16-2.24-1.75-3.35-.59-1.11-1.2-2.22-1.81-3.32-.61-1.1-1.24-2.19-1.87-3.28s-1.28-2.16-1.93-3.24c-.65-1.07-1.32-2.13-1.99-3.19s-1.35-2.1-2.04-3.14c-.69-1.04-1.38-2.06-2.09-3.08s-1.41-2.02-2.13-3.02c-.72-1-1.44-1.98-2.18-2.95-.73-.97-1.47-1.94-2.22-2.88s-1.5-1.89-2.25-2.81-1.52-1.84-2.28-2.73c-.77-.9-1.54-1.78-2.31-2.65s-1.56-1.73-2.34-2.57c-.78-.84-1.57-1.67-2.36-2.48m47.94,141.48c.38-.32.76-.65,1.31-1.18.55-.52,1.26-1.23,1.94-1.98.68-.75,1.34-1.53,1.96-2.34.63-.81,1.22-1.66,1.79-2.53.57-.88,1.1-1.78,1.6-2.72.5-.94.98-1.9,1.42-2.9.44-.99.85-2.02,1.22-3.07.38-1.05.72-2.13,1.03-3.23s.59-2.23.83-3.39.46-2.33.63-3.53c.18-1.2.32-2.42.43-3.67s.19-2.51.23-3.79c.04-1.28.05-2.59.03-3.91-.03-1.32-.08-2.66-.18-4.02s-.22-2.73-.38-4.11c-.16-1.38-.35-2.78-.54-4.01-.19-1.22-.38-2.27-.58-3.32-.2-1.05-.43-2.11-.67-3.18-.24-1.06-.5-2.13-.77-3.21s-.57-2.15-.88-3.23c-.31-1.08-.64-2.17-.98-3.25-.34-1.09-.71-2.18-1.09-3.27-.38-1.09-.77-2.19-1.19-3.28-.41-1.09-.84-2.19-1.29-3.29-.45-1.1-.91-2.19-1.39-3.29-.48-1.1-.97-2.19-1.48-3.29s-1.03-2.19-1.58-3.28c-.54-1.09-1.1-2.18-1.67-3.27-.57-1.09-1.16-2.17-1.76-3.25-.6-1.08-1.21-2.16-1.84-3.23-.63-1.07-1.27-2.14-1.93-3.2-.66-1.06-1.33-2.12-2.01-3.17-.68-1.05-1.38-2.09-2.09-3.13-.71-1.04-1.43-2.07-2.16-3.09-.73-1.02-1.48-2.04-2.23-3.05-.76-1.01-1.52-2.01-2.3-3s-1.57-1.97-2.37-2.94c-.8-.97-1.61-1.93-2.43-2.89-.82-.95-1.65-1.89-2.49-2.82-.84-.93-1.69-1.85-2.54-2.76-.86-.91-1.72-1.8-2.59-2.69-.87-.88-1.75-1.75-2.64-2.61-.89-.86-1.78-1.7-2.68-2.53-.9-.83-1.81-1.65-2.72-2.45s-1.83-1.59-2.76-2.37c-.92-.77-1.86-1.53-2.79-2.28-.93-.74-1.87-1.47-2.82-2.18m59.51,129.39c.6-.77,1.18-1.56,1.73-2.36.55-.81,1.08-1.64,1.58-2.49.5-.85.97-1.72,1.42-2.6s.87-1.79,1.26-2.72c.39-.92.76-1.86,1.1-2.82.34-.96.65-1.93.94-2.92.28-.99.54-2,.77-3.02.23-1.02.43-2.06.6-3.11s.32-2.11.44-3.19c.12-1.08.21-2.17.27-3.27.06-1.1.09-2.21.1-3.34,0-1.12-.02-2.26-.07-3.4-.05-1.14-.13-2.3-.24-3.46-.11-1.16-.25-2.33-.41-3.51s-.36-2.36-.56-3.46c-.2-1.1-.41-2.13-.64-3.16s-.48-2.06-.75-3.1c-.27-1.04-.56-2.07-.87-3.11-.31-1.04-.64-2.08-.99-3.13-.35-1.04-.72-2.09-1.11-3.14-.39-1.05-.8-2.09-1.23-3.14-.43-1.05-.88-2.09-1.34-3.14-.47-1.05-.95-2.09-1.46-3.13-.5-1.04-1.03-2.08-1.57-3.12s-1.1-2.08-1.67-3.11c-.58-1.03-1.17-2.06-1.78-3.09s-1.24-2.05-1.88-3.07c-.65-1.02-1.31-2.03-1.99-3.04-.68-1.01-1.37-2.01-2.08-3.01-.71-1-1.44-1.99-2.18-2.97-.74-.98-1.5-1.96-2.27-2.93-.77-.97-1.56-1.93-2.36-2.88-.8-.95-1.61-1.9-2.44-2.83-.83-.94-1.67-1.86-2.52-2.78s-1.72-1.82-2.6-2.72c-.88-.9-1.77-1.78-2.68-2.66-.9-.88-1.82-1.74-2.75-2.59s-1.86-1.7-2.81-2.52-1.91-1.65-2.87-2.45c-.97-.8-1.95-1.6-2.93-2.38-.99-.78-1.98-1.54-2.98-2.3-1-.75-2.01-1.49-3.03-2.21-1.02-.72-2.05-1.43-3.08-2.13-1.03-.69-2.07-1.37-3.12-2.04-1.05-.66-2.1-1.31-3.15-1.94s-2.12-1.25-3.19-1.85m69.22,113.97c.38-.75.73-1.5,1.07-2.26.34-.76.66-1.54.96-2.32.3-.78.59-1.57.85-2.37s.51-1.6.74-2.42c.23-.81.44-1.64.63-2.46s.36-1.66.52-2.51c.15-.84.29-1.69.4-2.55.12-.86.21-1.72.29-2.58.08-.87.14-1.74.17-2.62.04-.88.06-1.76.06-2.65s-.02-1.78-.05-2.67-.09-1.79-.17-2.7c-.08-.9-.17-1.81-.28-2.72s-.25-1.82-.4-2.73-.32-1.83-.52-2.79c-.2-.96-.43-1.96-.68-2.96-.25-1-.52-2-.82-3.01-.29-1-.61-2.01-.95-3.01s-.7-2.01-1.08-3.01c-.38-1-.78-2-1.21-3.01-.42-1-.87-2-1.33-3-.46-1-.95-1.99-1.46-2.98s-1.03-1.98-1.58-2.96-1.11-1.96-1.7-2.94c-.59-.98-1.19-1.95-1.82-2.91-.63-.97-1.27-1.93-1.93-2.88-.66-.95-1.34-1.9-2.04-2.85s-1.42-1.88-2.15-2.81c-.74-.93-1.49-1.85-2.26-2.76-.77-.91-1.56-1.82-2.36-2.71s-1.63-1.78-2.46-2.66c-.84-.88-1.69-1.75-2.56-2.61-.87-.86-1.75-1.71-2.65-2.55-.9-.84-1.81-1.67-2.74-2.48-.93-.82-1.87-1.62-2.82-2.42-.95-.79-1.92-1.58-2.9-2.35-.98-.77-1.97-1.53-2.98-2.27s-2.02-1.48-3.05-2.2c-1.03-.72-2.07-1.42-3.12-2.11-1.05-.69-2.11-1.37-3.18-2.03s-2.15-1.31-3.24-1.95c-1.09-.63-2.19-1.25-3.29-1.86s-2.22-1.19-3.34-1.76c-1.12-.57-2.25-1.13-3.38-1.67-1.13-.54-2.28-1.06-3.42-1.57s-2.3-1-3.46-1.47m76.64,92.27c.24-1.15.44-2.32.61-3.49.17-1.17.3-2.35.4-3.53.1-1.18.15-2.37.18-3.57s0-2.39-.04-3.59c-.05-1.2-.14-2.41-.26-3.61-.12-1.21-.28-2.41-.48-3.62-.2-1.21-.43-2.42-.66-3.51s-.47-2.07-.74-3.04c-.26-.97-.55-1.94-.85-2.91s-.64-1.94-.99-2.9c-.35-.97-.73-1.93-1.13-2.89-.4-.96-.82-1.91-1.26-2.87-.44-.95-.91-1.9-1.4-2.84-.49-.94-1-1.88-1.53-2.81s-1.08-1.86-1.66-2.78c-.57-.92-1.17-1.84-1.78-2.74-.61-.91-1.25-1.81-1.9-2.7-.66-.89-1.33-1.78-2.03-2.66s-1.41-1.75-2.14-2.61c-.73-.86-1.49-1.71-2.26-2.56-.77-.84-1.56-1.68-2.37-2.5-.81-.82-1.63-1.64-2.48-2.44-.84-.8-1.7-1.6-2.58-2.38-.88-.78-1.77-1.55-2.68-2.31-.91-.76-1.84-1.51-2.78-2.24-.94-.74-1.9-1.46-2.87-2.17-.97-.71-1.96-1.41-2.96-2.09-1-.68-2.01-1.35-3.04-2.01-1.03-.66-2.07-1.3-3.12-1.93-1.05-.63-2.12-1.24-3.2-1.84-1.08-.6-2.17-1.19-3.27-1.76-1.1-.57-2.21-1.13-3.33-1.67-1.12-.54-2.25-1.06-3.39-1.57-1.14-.51-2.29-1-3.45-1.48s-2.33-.94-3.5-1.38c-1.17-.44-2.36-.87-3.55-1.28s-2.39-.8-3.59-1.18c-1.2-.38-2.41-.73-3.62-1.08m78.31,68.48c-.06-1.1-.16-2.2-.28-3.3-.13-1.1-.28-2.2-.47-3.29-.19-1.09-.41-2.18-.64-3.2-.23-1.02-.47-1.97-.74-2.91s-.56-1.88-.87-2.82-.65-1.87-1.01-2.79-.74-1.84-1.15-2.76c-.4-.91-.83-1.82-1.28-2.72s-.92-1.8-1.42-2.68c-.49-.89-1.01-1.77-1.55-2.64-.54-.87-1.1-1.74-1.68-2.59-.58-.86-1.18-1.7-1.81-2.54-.62-.84-1.27-1.67-1.93-2.49s-1.35-1.63-2.06-2.43c-.71-.8-1.43-1.59-2.18-2.37-.74-.78-1.51-1.55-2.29-2.3-.78-.76-1.59-1.5-2.41-2.23-.82-.73-1.66-1.45-2.51-2.16-.86-.71-1.73-1.4-2.62-2.09s-1.8-1.35-2.72-2.01-1.86-1.3-2.82-1.93-1.93-1.24-2.91-1.84c-.99-.6-1.99-1.19-3-1.76s-2.05-1.13-3.09-1.67c-1.04-.54-2.1-1.07-3.17-1.58-1.07-.51-2.15-1-3.25-1.48-1.09-.48-2.2-.94-3.32-1.39-1.12-.45-2.25-.87-3.38-1.29s-2.29-.81-3.45-1.19c-1.16-.38-2.33-.74-3.5-1.09-1.18-.34-2.36-.67-3.55-.98s-2.39-.6-3.6-.88c-1.21-.28-2.42-.53-3.64-.77s-2.45-.46-3.68-.67M46.73,183.45c.44.27,1.23.76,2.05,1.24.81.48,1.64.95,2.49,1.4s1.71.9,2.58,1.33c.87.43,1.76.85,2.67,1.26.9.41,1.82.8,2.75,1.18.93.38,1.87.75,2.83,1.1s1.92.7,2.9,1.02c.98.33,1.97.64,2.97.94s2.01.59,3.03.86c1.02.27,2.05.53,3.08.77,1.04.24,2.08.47,3.13.68,1.05.21,2.11.41,3.18.6,1.07.18,2.14.35,3.21.51,1.08.15,2.16.29,3.24.41,1.09.12,2.18.23,3.27.32,1.09.09,2.19.17,3.29.23,1.1.06,2.2.11,3.3.14s2.2.05,3.31.05,2.21-.02,3.31-.05,2.2-.08,3.3-.14c1.1-.06,2.2-.14,3.29-.23,1.09-.09,2.18-.2,3.27-.32,1.09-.12,2.17-.26,3.24-.41,1.08-.15,2.15-.32,3.21-.51,1.07-.18,2.12-.38,3.18-.6,1.05-.21,2.1-.44,3.13-.68,1.04-.24,2.06-.5,3.08-.77,1.02-.27,2.03-.56,3.03-.86s1.99-.61,2.97-.94c.98-.33,1.95-.67,2.9-1.02.96-.35,1.9-.72,2.83-1.1.93-.38,1.85-.77,2.75-1.18.9-.41,1.79-.83,2.67-1.26.87-.43,1.74-.88,2.58-1.33s1.67-.92,2.49-1.4,1.61-.97,2.05-1.24m-127.33-17.77c.45.48,1.09,1.17,1.76,1.84.67.68,1.36,1.34,2.08,2,.72.66,1.45,1.3,2.21,1.94s1.54,1.26,2.34,1.87c.8.61,1.62,1.22,2.47,1.81s1.7,1.17,2.59,1.74c.88.57,1.78,1.12,2.7,1.66.92.54,1.86,1.07,2.81,1.59s1.93,1.02,2.92,1.5c.99.49,1.99.96,3.02,1.42,1.02.46,2.06.9,3.11,1.34,1.05.43,2.12.85,3.2,1.25,1.08.4,2.17.79,3.28,1.16,1.11.37,2.22.72,3.35,1.06,1.13.34,2.27.66,3.42.97,1.15.31,2.31.6,3.49.87,1.17.27,2.35.53,3.54.77,1.19.24,2.39.47,3.59.67,1.2.21,2.42.4,3.63.57,1.22.17,2.44.33,3.67.47s2.46.26,3.7.37c1.24.1,2.48.19,3.72.26,1.24.07,2.49.12,3.73.16,1.25.03,2.49.05,3.74.05s2.49-.02,3.74-.05c1.25-.03,2.49-.09,3.73-.16,1.24-.07,2.48-.16,3.72-.26,1.24-.1,2.47-.23,3.7-.37s2.45-.3,3.67-.47c1.22-.17,2.43-.36,3.63-.57,1.2-.21,2.4-.43,3.59-.67,1.19-.24,2.37-.5,3.54-.77,1.17-.27,2.33-.56,3.49-.87,1.15-.31,2.29-.63,3.42-.97,1.13-.34,2.25-.69,3.35-1.06,1.11-.37,2.2-.76,3.28-1.16,1.08-.4,2.15-.82,3.2-1.25,1.05-.43,2.09-.88,3.11-1.34,1.02-.46,2.03-.93,3.02-1.42.99-.49,1.96-.99,2.92-1.5.96-.52,1.89-1.04,2.81-1.59.92-.54,1.82-1.1,2.7-1.66.88-.57,1.74-1.15,2.59-1.74s1.66-1.19,2.47-1.81c.8-.61,1.58-1.24,2.34-1.87s1.5-1.28,2.21-1.94c.72-.66,1.41-1.32,2.08-2,.67-.68,1.32-1.36,1.76-1.84M12.62,146.44c.44.77.93,1.58,1.45,2.38.52.8,1.06,1.6,1.63,2.39.57.79,1.17,1.57,1.79,2.34.62.77,1.28,1.53,1.95,2.29.68.75,1.38,1.5,2.11,2.23.73.73,1.48,1.46,2.25,2.17.78.71,1.58,1.41,2.4,2.1.82.69,1.67,1.37,2.54,2.03.87.67,1.76,1.32,2.68,1.96.91.64,1.85,1.27,2.81,1.88.96.61,1.93,1.22,2.93,1.8,1,.59,2.01,1.16,3.05,1.72,1.04.56,2.09,1.1,3.16,1.63s2.16,1.04,3.27,1.54c1.11.5,2.23.98,3.37,1.45,1.14.47,2.3.92,3.47,1.35,1.17.43,2.36.85,3.56,1.25,1.2.4,2.41.79,3.64,1.15,1.23.37,2.46.72,3.71,1.05,1.25.33,2.51.65,3.78.95s2.55.58,3.84.84c1.29.26,2.59.5,3.9.73,1.31.23,2.62.43,3.94.62,1.32.19,2.65.36,3.98.51,1.33.15,2.67.28,4.01.4,1.34.11,2.69.21,4.03.28,1.35.08,2.7.13,4.05.17,1.35.04,2.7.06,4.06.06s2.71-.02,4.06-.06c1.35-.04,2.7-.09,4.05-.17,1.35-.08,2.69-.17,4.03-.28,1.34-.11,2.68-.25,4.01-.4,1.33-.15,2.66-.32,3.98-.51,1.32-.19,2.64-.39,3.94-.62,1.31-.23,2.61-.47,3.9-.73,1.29-.26,2.57-.54,3.84-.84s2.53-.61,3.78-.95c1.25-.33,2.49-.68,3.71-1.05s2.44-.75,3.64-1.15,2.39-.82,3.56-1.25c1.17-.43,2.33-.89,3.47-1.35,1.14-.47,2.27-.95,3.37-1.45,1.11-.5,2.2-1.01,3.27-1.54,1.07-.53,2.13-1.07,3.16-1.63,1.04-.56,2.05-1.13,3.05-1.72,1-.59,1.97-1.19,2.93-1.8.96-.61,1.89-1.24,2.81-1.88.91-.64,1.81-1.3,2.68-1.96s1.72-1.34,2.54-2.03c.82-.69,1.62-1.39,2.4-2.1.78-.71,1.53-1.44,2.25-2.17.73-.73,1.43-1.48,2.11-2.23.68-.75,1.33-1.52,1.95-2.29.62-.77,1.22-1.55,1.79-2.34.57-.79,1.12-1.58,1.63-2.39.52-.8,1.01-1.61,1.45-2.38M4.04,124.23c.21.71.48,1.61.79,2.5.31.89.64,1.78,1.01,2.66s.76,1.76,1.19,2.62c.43.87.88,1.73,1.37,2.59.48.86,1,1.71,1.54,2.55s1.11,1.68,1.71,2.5,1.23,1.64,1.88,2.45,1.34,1.61,2.05,2.4c.71.79,1.44,1.57,2.21,2.34s1.55,1.53,2.36,2.27,1.65,1.48,2.51,2.2,1.75,1.43,2.66,2.13,1.85,1.38,2.8,2.06,1.94,1.33,2.94,1.97c1,.64,2.03,1.27,3.07,1.89s2.11,1.22,3.2,1.8c1.09.59,2.19,1.16,3.32,1.71,1.12.55,2.27,1.09,3.43,1.62,1.16.52,2.34,1.03,3.54,1.52,1.2.49,2.41.96,3.64,1.42,1.23.46,2.47.89,3.73,1.31,1.26.42,2.53.82,3.81,1.21,1.28.39,2.58.75,3.89,1.1,1.31.35,2.63.68,3.96.99s2.68.6,4.03.88c1.35.27,2.71.53,4.08.76s2.75.45,4.13.65c1.38.2,2.77.38,4.17.53s2.8.3,4.2.42c1.41.12,2.82.22,4.23.3s2.83.14,4.24.18c1.42.04,2.83.06,4.25.06s2.84-.02,4.25-.06c1.42-.04,2.83-.1,4.24-.18s2.82-.18,4.23-.3c1.41-.12,2.81-.26,4.2-.42s2.79-.34,4.17-.53c1.38-.2,2.76-.41,4.13-.65s2.73-.49,4.08-.76c1.35-.27,2.69-.57,4.03-.88s2.65-.64,3.96-.99c1.31-.35,2.61-.72,3.89-1.1s2.56-.79,3.81-1.21c1.26-.42,2.5-.86,3.73-1.31,1.23-.46,2.44-.93,3.64-1.42,1.2-.49,2.37-1,3.54-1.52,1.16-.52,2.3-1.06,3.43-1.62,1.12-.55,2.23-1.13,3.32-1.71,1.09-.59,2.15-1.19,3.2-1.8s2.07-1.25,3.07-1.89c1-.64,1.98-1.3,2.94-1.97.96-.67,1.89-1.36,2.8-2.06.91-.7,1.8-1.41,2.66-2.13s1.7-1.46,2.51-2.2c.81-.75,1.6-1.5,2.36-2.27s1.5-1.55,2.21-2.34c.71-.79,1.39-1.59,2.05-2.4s1.28-1.63,1.88-2.45,1.17-1.66,1.71-2.5,1.06-1.69,1.54-2.55c.48-.86.94-1.72,1.37-2.59.43-.87.82-1.74,1.19-2.62.37-.88.7-1.77,1.01-2.66.31-.89.58-1.78.79-2.5M3.29,78.92c-.12.64-.27,1.54-.4,2.45-.12.91-.22,1.82-.28,2.73-.06.91-.09,1.82-.09,2.73s.03,1.82.09,2.73c.06.91.15,1.82.28,2.73.12.91.28,1.81.46,2.72s.4,1.8.65,2.7c.25.9.52,1.79.83,2.68.31.89.64,1.78,1.01,2.66.37.88.76,1.76,1.19,2.62.43.87.88,1.73,1.37,2.59.48.86,1,1.71,1.54,2.55s1.11,1.68,1.71,2.5,1.23,1.64,1.88,2.45c.65.81,1.34,1.61,2.05,2.4.71.79,1.44,1.57,2.21,2.34.76.77,1.55,1.53,2.36,2.27s1.65,1.48,2.51,2.2,1.75,1.43,2.66,2.13,1.85,1.38,2.8,2.06,1.94,1.33,2.94,1.97c1,.64,2.03,1.27,3.07,1.89,1.05.62,2.11,1.22,3.2,1.8,1.09.59,2.19,1.16,3.32,1.71s2.27,1.09,3.43,1.62c1.16.52,2.34,1.03,3.54,1.52,1.2.49,2.41.96,3.64,1.42,1.23.46,2.47.89,3.73,1.31,1.26.42,2.53.82,3.81,1.21,1.28.39,2.58.75,3.89,1.1,1.31.35,2.63.68,3.96.99,1.33.31,2.68.6,4.03.88,1.35.27,2.71.53,4.08.76s2.75.45,4.13.65,2.77.38,4.17.53c1.4.16,2.8.3,4.2.42,1.41.12,2.82.22,4.23.3,1.41.08,2.83.14,4.24.18,1.42.04,2.83.06,4.25.06s2.84-.02,4.25-.06c1.42-.04,2.83-.1,4.24-.18,1.41-.08,2.82-.18,4.23-.3,1.41-.12,2.81-.26,4.2-.42,1.4-.16,2.79-.34,4.17-.53s2.76-.41,4.13-.65,2.73-.49,4.08-.76c1.35-.27,2.69-.57,4.03-.88,1.33-.31,2.65-.64,3.96-.99s2.61-.72,3.89-1.1,2.56-.79,3.81-1.21c1.26-.42,2.5-.86,3.73-1.31,1.23-.46,2.44-.93,3.64-1.42,1.2-.49,2.37-1,3.54-1.52,1.16-.52,2.3-1.06,3.43-1.62,1.12-.55,2.23-1.13,3.32-1.71,1.09-.59,2.15-1.19,3.2-1.8,1.05-.62,2.07-1.25,3.07-1.89,1-.64,1.98-1.3,2.94-1.97.96-.67,1.89-1.36,2.8-2.06.91-.7,1.8-1.41,2.66-2.13s1.7-1.46,2.51-2.2c.81-.75,1.6-1.5,2.36-2.27.76-.77,1.5-1.55,2.21-2.34.71-.79,1.39-1.59,2.05-2.4.65-.81,1.28-1.63,1.88-2.45s1.17-1.66,1.71-2.5,1.06-1.69,1.54-2.55c.48-.86.94-1.72,1.37-2.59.43-.87.82-1.74,1.19-2.62.37-.88.7-1.77,1.01-2.66.31-.89.58-1.78.83-2.68.25-.9.46-1.8.65-2.7.19-.9.34-1.81.46-2.72.12-.91.22-1.82.28-2.73s.09-1.82.09-2.73-.03-1.82-.09-2.73-.15-1.82-.28-2.73c-.12-.91-.28-1.81-.4-2.45m-5.9-17.8c-.29-.85-.61-1.69-.96-2.53-.35-.84-.73-1.67-.94-2.14m-177.8,0c-.21.46-.59,1.3-.94,2.14s-.67,1.68-.96,2.53c-.29.85-.56,1.7-.79,2.56s-.44,1.72-.62,2.58c-.18.86-.32,1.73-.44,2.59-.12.87-.21,1.73-.27,2.6-.06.87-.09,1.74-.09,2.61s.03,1.74.09,2.61c.06.87.15,1.74.27,2.6.12.87.27,1.73.44,2.59s.38,1.72.62,2.58.5,1.71.79,2.56c.29.85.61,1.69.96,2.53.35.84.73,1.67,1.14,2.5.41.83.84,1.65,1.3,2.47.46.82.95,1.63,1.47,2.43.52.8,1.06,1.6,1.63,2.39.57.79,1.17,1.57,1.79,2.34.62.77,1.28,1.53,1.95,2.29.68.75,1.38,1.5,2.11,2.23.73.73,1.48,1.46,2.25,2.17.78.71,1.58,1.41,2.4,2.1.82.69,1.67,1.37,2.54,2.03.87.67,1.76,1.32,2.68,1.96.91.64,1.85,1.27,2.81,1.88.96.61,1.93,1.22,2.93,1.8,1,.59,2.01,1.16,3.05,1.72,1.04.56,2.09,1.1,3.16,1.63s2.16,1.04,3.27,1.54c1.11.5,2.23.98,3.37,1.45,1.14.47,2.3.92,3.47,1.35,1.17.43,2.36.85,3.56,1.25,1.2.4,2.41.79,3.64,1.15,1.23.37,2.46.72,3.71,1.05,1.25.33,2.51.65,3.78.95s2.55.58,3.84.84c1.29.26,2.59.5,3.9.73,1.31.23,2.62.43,3.94.62,1.32.19,2.65.36,3.98.51,1.33.15,2.67.28,4.01.4,1.34.11,2.69.21,4.03.28,1.35.08,2.7.13,4.05.17,1.35.04,2.7.06,4.06.06s2.71-.02,4.06-.06c1.35-.04,2.7-.09,4.05-.17,1.35-.08,2.69-.17,4.03-.28,1.34-.11,2.68-.25,4.01-.4,1.33-.15,2.66-.32,3.98-.51,1.32-.19,2.64-.39,3.94-.62,1.31-.23,2.61-.47,3.9-.73,1.29-.26,2.57-.54,3.84-.84s2.53-.61,3.78-.95c1.25-.33,2.49-.68,3.71-1.05,1.23-.37,2.44-.75,3.64-1.15,1.2-.4,2.39-.82,3.56-1.25s2.33-.89,3.47-1.35,2.27-.95,3.37-1.45c1.11-.5,2.2-1.01,3.27-1.54,1.07-.53,2.13-1.07,3.16-1.63,1.04-.56,2.05-1.13,3.05-1.72,1-.59,1.97-1.19,2.93-1.8.96-.61,1.89-1.24,2.81-1.88.91-.64,1.81-1.3,2.68-1.96.87-.67,1.72-1.34,2.54-2.03.82-.69,1.62-1.39,2.4-2.1.78-.71,1.53-1.44,2.25-2.17.73-.73,1.43-1.48,2.11-2.23.68-.75,1.33-1.52,1.95-2.29.62-.77,1.22-1.55,1.79-2.34.57-.79,1.12-1.58,1.63-2.39.52-.8,1.01-1.61,1.47-2.43.46-.82.9-1.64,1.3-2.47.41-.83.79-1.66,1.14-2.5.35-.84.67-1.68.96-2.53.29-.85.56-1.7.79-2.56.23-.86.44-1.72.62-2.58s.32-1.73.44-2.59c.12-.87.21-1.73.27-2.6.06-.87.09-1.74.09-2.61s-.03-1.74-.09-2.61-.15-1.74-.27-2.6-.27-1.73-.44-2.59m-8.53-16.1c-.27-.78-.57-1.56-.89-2.34-.32-.77-.67-1.54-1.05-2.31-.37-.76-.78-1.52-1.2-2.28-.43-.75-.88-1.5-1.36-2.24s-.98-1.47-1.51-2.2c-.53-.73-1.08-1.45-1.53-2.02m-152.32,0c-.45.57-1,1.29-1.53,2.02-.53.73-1.03,1.46-1.51,2.2s-.93,1.49-1.36,2.24c-.43.75-.83,1.51-1.2,2.28-.37.76-.72,1.53-1.05,2.31-.32.77-.62,1.55-.89,2.34s-.51,1.57-.73,2.36c-.22.79-.41,1.58-.57,2.38-.16.79-.3,1.59-.41,2.39-.11.8-.19,1.6-.24,2.4-.05.8-.08,1.6-.08,2.4s.03,1.6.08,2.4c.05.8.14,1.6.24,2.4.11.8.24,1.6.41,2.39.16.79.35,1.59.57,2.38.22.79.46,1.58.73,2.36s.57,1.56.89,2.34.67,1.54,1.05,2.31c.37.76.78,1.52,1.2,2.28.43.75.88,1.5,1.36,2.24.48.74.98,1.47,1.51,2.2.53.73,1.08,1.45,1.65,2.16s1.18,1.41,1.8,2.11c.62.69,1.27,1.38,1.94,2.06.67.68,1.36,1.34,2.08,2,.72.66,1.45,1.3,2.21,1.94s1.54,1.26,2.34,1.87,1.62,1.22,2.47,1.81,1.7,1.17,2.59,1.74c.88.57,1.78,1.12,2.7,1.66.92.54,1.86,1.07,2.81,1.59s1.93,1.02,2.92,1.5c.99.49,1.99.96,3.02,1.42,1.02.46,2.06.9,3.11,1.34,1.05.43,2.12.85,3.2,1.25s2.17.79,3.28,1.16c1.11.37,2.22.72,3.35,1.06,1.13.34,2.27.66,3.42.97,1.15.31,2.31.6,3.49.87,1.17.27,2.35.53,3.54.77,1.19.24,2.39.47,3.59.67s2.42.4,3.63.57c1.22.17,2.44.33,3.67.47,1.23.14,2.46.26,3.7.37,1.24.1,2.48.19,3.72.26,1.24.07,2.49.12,3.73.16,1.25.03,2.49.05,3.74.05s2.49-.02,3.74-.05c1.25-.03,2.49-.09,3.73-.16,1.24-.07,2.48-.16,3.72-.26,1.24-.1,2.47-.23,3.7-.37,1.23-.14,2.45-.3,3.67-.47,1.22-.17,2.43-.36,3.63-.57s2.4-.43,3.59-.67c1.19-.24,2.37-.5,3.54-.77,1.17-.27,2.33-.56,3.49-.87,1.15-.31,2.29-.63,3.42-.97,1.13-.34,2.25-.69,3.35-1.06,1.11-.37,2.2-.76,3.28-1.16,1.08-.4,2.15-.82,3.2-1.25,1.05-.43,2.09-.88,3.11-1.34,1.02-.46,2.03-.93,3.02-1.42.99-.49,1.96-.99,2.92-1.5.96-.52,1.89-1.04,2.81-1.59.92-.54,1.82-1.1,2.7-1.66s1.74-1.15,2.59-1.74,1.66-1.19,2.47-1.81,1.58-1.24,2.34-1.87,1.5-1.28,2.21-1.94c.72-.66,1.41-1.32,2.08-2,.67-.68,1.32-1.36,1.94-2.06.62-.69,1.22-1.4,1.8-2.11.58-.71,1.13-1.43,1.65-2.16.53-.73,1.03-1.46,1.51-2.2.48-.74.93-1.49,1.36-2.24s.83-1.51,1.2-2.28c.37-.76.72-1.53,1.05-2.31.32-.77.62-1.55.89-2.34s.51-1.57.73-2.36c.22-.79.41-1.58.57-2.38.16-.79.3-1.59.41-2.39.11-.8.19-1.6.24-2.4.05-.8.08-1.6.08-2.4s-.03-1.6-.08-2.4c-.05-.8-.14-1.6-.24-2.4-.11-.8-.24-1.6-.41-2.39m-10.96-14.19c-.24-.69-.5-1.38-.79-2.07-.29-.68-.59-1.37-.93-2.04-.33-.68-.69-1.35-1.06-2.01-.38-.67-.78-1.33-1.2-1.98-.42-.65-.87-1.3-1.33-1.95-.47-.64-.95-1.28-1.46-1.91-.51-.63-1.04-1.25-1.59-1.86s-1.12-1.22-1.72-1.82c-.59-.6-1.21-1.19-1.84-1.77s-1.28-1.15-1.96-1.71c-.67-.56-1.36-1.12-2.07-1.66s-1.44-1.08-2.14-1.57m-111.88,0c-.71.5-1.44,1.03-2.14,1.57-.71.54-1.4,1.1-2.07,1.66-.67.56-1.32,1.13-1.96,1.71s-1.25,1.17-1.84,1.77c-.59.6-1.16,1.2-1.72,1.82s-1.08,1.24-1.59,1.86c-.51.63-1,1.26-1.46,1.91s-.91,1.29-1.33,1.95c-.42.65-.82,1.32-1.2,1.98-.38.67-.73,1.34-1.06,2.01-.33.68-.64,1.36-.93,2.04-.29.68-.55,1.37-.79,2.07s-.45,1.39-.65,2.09c-.19.7-.36,1.4-.5,2.1-.14.7-.26,1.41-.36,2.11-.1.71-.17,1.41-.22,2.12-.05.71-.07,1.42-.07,2.13s.02,1.42.07,2.13c.05.71.12,1.42.22,2.12.1.71.22,1.41.36,2.11s.31,1.4.5,2.1.41,1.39.65,2.09.5,1.38.79,2.07c.29.68.59,1.37.93,2.04.33.68.69,1.35,1.06,2.01s.78,1.33,1.2,1.98c.42.65.87,1.3,1.33,1.95s.95,1.28,1.46,1.91,1.04,1.25,1.59,1.86,1.12,1.22,1.72,1.82,1.21,1.19,1.84,1.77c.63.58,1.28,1.15,1.96,1.71.67.56,1.36,1.12,2.07,1.66.71.54,1.44,1.08,2.18,1.6.75.52,1.51,1.03,2.29,1.54.78.5,1.58.99,2.39,1.47.81.48,1.64.95,2.49,1.4.84.46,1.71.9,2.58,1.33s1.76.85,2.67,1.26c.9.41,1.82.8,2.75,1.18.93.38,1.87.75,2.83,1.1.96.35,1.92.7,2.9,1.02.98.33,1.97.64,2.97.94s2.01.59,3.03.86c1.02.27,2.05.53,3.08.77,1.04.24,2.08.47,3.13.68,1.05.21,2.11.41,3.18.6,1.07.18,2.14.35,3.21.51,1.08.15,2.16.29,3.24.41,1.09.12,2.18.23,3.27.32,1.09.09,2.19.17,3.29.23,1.1.06,2.2.11,3.3.14s2.2.05,3.31.05,2.21-.02,3.31-.05,2.2-.08,3.3-.14c1.1-.06,2.2-.14,3.29-.23,1.09-.09,2.18-.2,3.27-.32,1.09-.12,2.17-.26,3.24-.41,1.08-.15,2.15-.32,3.21-.51,1.07-.18,2.12-.38,3.18-.6,1.05-.21,2.1-.44,3.13-.68,1.04-.24,2.06-.5,3.08-.77,1.02-.27,2.03-.56,3.03-.86s1.99-.61,2.97-.94c.98-.33,1.95-.67,2.9-1.02.96-.35,1.9-.72,2.83-1.1.93-.38,1.85-.77,2.75-1.18.9-.41,1.79-.83,2.67-1.26s1.74-.88,2.58-1.33c.84-.46,1.67-.92,2.49-1.4.81-.48,1.61-.97,2.39-1.47.78-.5,1.54-1.01,2.29-1.54.75-.52,1.47-1.06,2.18-1.6s1.4-1.1,2.07-1.66c.67-.56,1.32-1.13,1.96-1.71.63-.58,1.25-1.17,1.84-1.77s1.16-1.2,1.72-1.82,1.08-1.24,1.59-1.86,1-1.26,1.46-1.91c.47-.64.91-1.29,1.33-1.95.42-.65.82-1.32,1.2-1.98s.73-1.34,1.06-2.01c.33-.68.64-1.36.93-2.04.29-.68.55-1.37.79-2.07.24-.69.45-1.39.65-2.09.19-.7.36-1.4.5-2.1s.26-1.41.36-2.11c.1-.71.17-1.41.22-2.12.05-.71.07-1.42.07-2.13s-.02-1.42-.07-2.13c-.05-.71-.12-1.42-.22-2.12-.1-.71-.22-1.41-.36-2.11m-13.06-11.84c-.2-.58-.42-1.16-.66-1.73-.24-.57-.5-1.15-.78-1.71-.28-.57-.58-1.13-.89-1.69-.32-.56-.65-1.11-1.01-1.66-.35-.55-.73-1.09-1.12-1.63s-.8-1.07-1.23-1.6c-.43-.53-.87-1.05-1.34-1.56-.46-.52-.94-1.02-1.44-1.53-.5-.5-1.01-1-1.54-1.48-.53-.49-1.08-.97-1.64-1.44-.56-.47-1.14-.94-1.74-1.39-.59-.46-1.21-.9-1.83-1.34-.63-.44-1.27-.87-1.92-1.29-.65-.42-1.32-.83-2.01-1.23-.68-.4-1.38-.79-2.09-1.18-.71-.38-1.43-.75-2.16-1.12-.73-.36-1.48-.71-2.24-1.06-.76-.34-1.53-.67-2.31-.99-.78-.32-1.57-.63-2.37-.93-.8-.3-1.61-.58-2.43-.86-.82-.27-1.65-.54-2.49-.79-.84-.25-1.69-.49-2.54-.72-.85-.23-1.72-.44-2.59-.65-.87-.2-1.75-.39-2.63-.57-.88-.18-1.77-.35-2.66-.5-.89-.15-1.79-.3-2.7-.42-.9-.13-1.81-.24-2.72-.35-.91-.1-1.83-.19-2.74-.27-.92-.08-1.84-.14-2.76-.19-.92-.05-1.85-.09-2.77-.12-.92-.03-1.85-.04-2.78-.04s-1.85.01-2.78.04c-.92.03-1.85.06-2.77.12-.92.05-1.84.12-2.76.19-.92.08-1.83.17-2.74.27-.91.1-1.82.22-2.72.35-.9.13-1.8.27-2.7.42-.89.15-1.78.32-2.66.5-.88.18-1.76.37-2.63.57-.87.2-1.73.42-2.59.65-.85.23-1.7.47-2.54.72-.84.25-1.67.51-2.49.79-.82.27-1.63.56-2.43.86-.8.3-1.59.61-2.37.93-.78.32-1.55.65-2.31.99-.76.34-1.5.69-2.24,1.06-.73.36-1.46.73-2.16,1.12-.71.38-1.4.77-2.09,1.18-.68.4-1.35.81-2.01,1.23-.65.42-1.29.85-1.92,1.29-.63.44-1.24.89-1.83,1.34-.59.46-1.17.92-1.74,1.39-.56.47-1.11.95-1.64,1.44-.53.49-1.04.98-1.54,1.48-.5.5-.98,1.01-1.44,1.53-.46.52-.91,1.04-1.34,1.56-.43.53-.84,1.06-1.23,1.6s-.76,1.08-1.12,1.63-.69,1.1-1.01,1.66-.61,1.12-.89,1.69c-.28.57-.54,1.14-.78,1.71s-.46,1.15-.66,1.73-.38,1.16-.54,1.75c-.16.59-.3,1.17-.42,1.76s-.22,1.18-.3,1.77c-.08.59-.14,1.19-.18,1.78s-.06,1.19-.06,1.78.02,1.19.06,1.78.1,1.19.18,1.78c.08.59.18,1.18.3,1.77s.26,1.18.42,1.76c.16.59.34,1.17.54,1.75s.42,1.16.66,1.73c.24.57.5,1.15.78,1.71.28.57.58,1.13.89,1.69s.65,1.11,1.01,1.66c.35.55.73,1.09,1.12,1.63s.8,1.07,1.23,1.6c.43.53.87,1.05,1.34,1.56s.94,1.02,1.44,1.53c.5.5,1.01,1,1.54,1.48.53.49,1.08.97,1.64,1.44.56.47,1.14.94,1.74,1.39s1.21.9,1.83,1.34c.63.44,1.27.87,1.92,1.29.65.42,1.32.83,2.01,1.23.68.4,1.38.79,2.09,1.18s1.43.75,2.16,1.12c.73.36,1.48.71,2.24,1.06.76.34,1.53.67,2.31.99.78.32,1.57.63,2.37.93s1.61.58,2.43.86,1.65.54,2.49.79c.84.25,1.69.49,2.54.72.85.23,1.72.44,2.59.65.87.2,1.75.39,2.63.57.88.18,1.77.35,2.66.5.89.15,1.79.3,2.7.42.9.13,1.81.24,2.72.35s1.83.19,2.74.27,1.84.14,2.76.19c.92.05,1.85.09,2.77.12.92.03,1.85.04,2.78.04s1.85-.01,2.78-.04c.92-.03,1.85-.06,2.77-.12.92-.05,1.84-.12,2.76-.19s1.83-.17,2.74-.27,1.82-.22,2.72-.35c.9-.13,1.8-.27,2.7-.42.89-.15,1.78-.32,2.66-.5.88-.18,1.76-.37,2.63-.57.87-.2,1.73-.42,2.59-.65.85-.23,1.7-.47,2.54-.72.84-.25,1.67-.51,2.49-.79s1.63-.56,2.43-.86,1.59-.61,2.37-.93c.78-.32,1.55-.65,2.31-.99.76-.34,1.5-.69,2.24-1.06.73-.36,1.46-.73,2.16-1.12s1.4-.77,2.09-1.18c.68-.4,1.35-.81,2.01-1.23.65-.42,1.29-.85,1.92-1.29.63-.44,1.24-.89,1.83-1.34s1.17-.92,1.74-1.39c.56-.47,1.11-.95,1.64-1.44.53-.49,1.04-.98,1.54-1.48.5-.5.98-1.01,1.44-1.53.46-.52.91-1.04,1.34-1.56.43-.53.84-1.06,1.23-1.6s.76-1.08,1.12-1.63c.35-.55.69-1.1,1.01-1.66.32-.56.61-1.12.89-1.69.28-.57.54-1.14.78-1.71.24-.57.46-1.15.66-1.73s.38-1.16.54-1.75c.16-.59.3-1.17.42-1.76.12-.59.22-1.18.3-1.77.08-.59.14-1.19.18-1.78s.06-1.19.06-1.78-.02-1.19-.06-1.78-.1-1.19-.18-1.78c-.08-.59-.18-1.18-.3-1.77m-14.76-9.13c-.16-.45-.33-.9-.51-1.35-.19-.45-.39-.89-.6-1.33-.22-.44-.45-.88-.69-1.31s-.51-.87-.78-1.29-.57-.85-.87-1.27c-.3-.42-.62-.83-.96-1.24-.33-.41-.68-.82-1.04-1.22-.36-.4-.73-.8-1.12-1.19-.39-.39-.79-.78-1.2-1.15-.41-.38-.84-.75-1.28-1.12-.44-.37-.89-.73-1.35-1.08-.46-.35-.94-.7-1.42-1.04s-.98-.68-1.49-1c-.51-.33-1.03-.65-1.56-.96-.53-.31-1.07-.62-1.62-.92-.55-.3-1.11-.59-1.68-.87s-1.15-.56-1.74-.82c-.59-.27-1.19-.52-1.8-.77s-1.22-.49-1.85-.72c-.62-.23-1.25-.45-1.89-.67-.64-.21-1.28-.42-1.94-.61-.65-.2-1.31-.38-1.98-.56s-1.34-.34-2.01-.5-1.36-.31-2.04-.45c-.69-.14-1.38-.27-2.07-.39-.7-.12-1.39-.23-2.1-.33-.7-.1-1.41-.19-2.12-.27-.71-.08-1.42-.15-2.13-.21-.71-.06-1.43-.11-2.15-.15-.72-.04-1.44-.07-2.15-.09s-1.44-.03-2.16-.03-1.44.01-2.16.03-1.44.05-2.15.09c-.72.04-1.43.09-2.15.15-.71.06-1.43.13-2.13.21-.71.08-1.42.17-2.12.27-.7.1-1.4.21-2.1.33-.7.12-1.39.25-2.07.39-.69.14-1.37.29-2.04.45s-1.35.33-2.01.5-1.32.36-1.98.56c-.65.2-1.3.4-1.94.61-.64.21-1.27.44-1.89.67-.62.23-1.24.47-1.85.72s-1.21.51-1.8.77c-.59.27-1.17.54-1.74.82s-1.13.57-1.68.87c-.55.3-1.09.6-1.62.92-.53.31-1.05.63-1.56.96-.51.33-1.01.66-1.49,1s-.96.69-1.42,1.04c-.46.35-.91.72-1.35,1.08-.44.37-.86.74-1.28,1.12-.41.38-.81.76-1.2,1.15-.39.39-.76.79-1.12,1.19s-.71.81-1.04,1.22c-.33.41-.65.83-.96,1.24s-.59.84-.87,1.27-.54.86-.78,1.29-.48.87-.69,1.31c-.22.44-.42.89-.6,1.33-.19.45-.36.9-.51,1.35-.16.45-.3.91-.42,1.36-.12.46-.23.91-.33,1.37-.09.46-.17.92-.24,1.38-.06.46-.11.92-.14,1.38-.03.46-.05.92-.05,1.39s.02.93.05,1.39c.03.46.08.92.14,1.38.06.46.14.92.24,1.38.09.46.2.92.33,1.37.12.46.27.91.42,1.36.16.45.33.9.51,1.35.19.45.39.89.6,1.33.22.44.45.88.69,1.31.25.43.51.87.78,1.29.28.43.57.85.87,1.27s.62.83.96,1.24c.33.41.68.82,1.04,1.22s.73.8,1.12,1.19c.39.39.79.78,1.2,1.15s.84.75,1.28,1.12c.44.37.89.73,1.35,1.08.46.35.94.7,1.42,1.04s.98.68,1.49,1c.51.33,1.03.65,1.56.96.53.31,1.07.62,1.62.92s1.11.59,1.68.87,1.15.56,1.74.82c.59.27,1.19.52,1.8.77.61.25,1.22.49,1.85.72.62.23,1.25.45,1.89.67.64.21,1.28.42,1.94.61s1.31.38,1.98.56,1.34.34,2.01.5,1.36.31,2.04.45c.69.14,1.38.27,2.07.39s1.39.23,2.1.33c.7.1,1.41.19,2.12.27.71.08,1.42.15,2.13.21.71.06,1.43.11,2.15.15.72.04,1.44.07,2.15.09.72.02,1.44.03,2.16.03s1.44-.01,2.16-.03c.72-.02,1.44-.05,2.15-.09.72-.04,1.43-.09,2.15-.15.71-.06,1.43-.13,2.13-.21.71-.08,1.42-.17,2.12-.27.7-.1,1.4-.21,2.1-.33s1.39-.25,2.07-.39c.69-.14,1.37-.29,2.04-.45s1.35-.33,2.01-.5,1.32-.36,1.98-.56,1.3-.4,1.94-.61c.64-.21,1.27-.44,1.89-.67.62-.23,1.24-.47,1.85-.72.61-.25,1.21-.51,1.8-.77.59-.27,1.17-.54,1.74-.82s1.13-.57,1.68-.87,1.09-.6,1.62-.92c.53-.31,1.05-.63,1.56-.96.51-.33,1.01-.66,1.49-1s.96-.69,1.42-1.04c.46-.35.91-.72,1.35-1.08.44-.37.86-.74,1.28-1.12.41-.38.81-.76,1.2-1.15.39-.39.76-.79,1.12-1.19.36-.4.71-.81,1.04-1.22.33-.41.65-.83.96-1.24.3-.42.59-.84.87-1.27.28-.43.54-.86.78-1.29.25-.43.48-.87.69-1.31s.42-.89.6-1.33c.19-.45.36-.9.51-1.35s.3-.91.42-1.36c.12-.46.23-.91.33-1.37s.17-.92.24-1.38c.06-.46.11-.92.14-1.38s.05-.92.05-1.39-.02-.93-.05-1.39-.08-.92-.14-1.38c-.06-.46-.14-.92-.24-1.38m-16.02-6.15c-.11-.31-.22-.62-.35-.92-.13-.31-.27-.61-.41-.91s-.31-.6-.47-.9c-.17-.3-.35-.59-.54-.88-.19-.29-.39-.58-.59-.87s-.43-.57-.65-.85-.46-.56-.71-.83c-.25-.27-.5-.54-.77-.81-.26-.27-.54-.53-.82-.79-.28-.26-.57-.51-.87-.77-.3-.25-.61-.5-.92-.74-.32-.24-.64-.48-.97-.71-.33-.23-.67-.46-1.02-.69-.35-.22-.7-.44-1.07-.66-.36-.21-.73-.42-1.11-.63-.38-.2-.76-.4-1.15-.59-.39-.19-.79-.38-1.19-.56-.4-.18-.81-.36-1.23-.53-.42-.17-.84-.33-1.26-.49-.43-.16-.86-.31-1.29-.46s-.88-.29-1.32-.42c-.45-.13-.9-.26-1.35-.38s-.91-.24-1.38-.34c-.46-.11-.93-.21-1.4-.31-.47-.1-.94-.18-1.42-.27-.48-.08-.95-.16-1.43-.23-.48-.07-.96-.13-1.45-.19s-.97-.1-1.46-.14c-.49-.04-.98-.08-1.47-.1-.49-.03-.98-.05-1.47-.06-.49-.01-.98-.02-1.48-.02s-.98,0-1.48.02c-.49.01-.98.03-1.47.06-.49.03-.98.06-1.47.1-.49.04-.97.09-1.46.14s-.97.12-1.45.19c-.48.07-.96.14-1.43.23-.48.08-.95.17-1.42.27-.47.1-.94.2-1.4.31-.46.11-.92.22-1.38.34s-.91.25-1.35.38c-.45.13-.89.27-1.32.42s-.87.3-1.29.46c-.43.16-.85.32-1.26.49-.42.17-.82.35-1.23.53-.4.18-.8.37-1.19.56-.39.19-.77.39-1.15.59-.38.2-.75.41-1.11.63-.36.21-.72.43-1.07.66-.35.22-.69.45-1.02.69-.33.23-.66.47-.97.71-.32.24-.62.49-.92.74-.3.25-.59.51-.87.77-.28.26-.56.52-.82.79-.26.27-.52.54-.77.81-.25.27-.48.55-.71.83s-.45.56-.65.85-.41.58-.59.87c-.19.29-.37.59-.54.88-.17.3-.33.6-.47.9s-.29.61-.41.91c-.13.31-.24.61-.35.92-.11.31-.2.62-.29.93-.09.31-.16.62-.22.94s-.12.63-.16.94-.08.63-.1.95-.03.63-.03.95.01.63.03.95c.02.32.05.63.1.95s.1.63.16.94.14.63.22.94.18.62.29.93.22.62.35.92c.13.31.27.61.41.91s.31.6.47.9.35.59.54.88c.19.29.39.58.59.87s.43.57.65.85c.23.28.46.56.71.83.25.27.5.54.77.81.26.27.54.53.82.79.28.26.57.51.87.77.3.25.61.5.92.74.32.24.64.48.97.71.33.23.67.46,1.02.69.35.22.7.44,1.07.66.36.21.73.42,1.11.63.38.2.76.4,1.15.59.39.19.79.38,1.19.56s.81.36,1.23.53.84.33,1.26.49.86.31,1.29.46c.44.15.88.29,1.32.42.45.13.9.26,1.35.38.45.12.91.24,1.38.34.46.11.93.21,1.4.31.47.1.94.18,1.42.27s.95.16,1.43.23c.48.07.96.13,1.45.19s.97.1,1.46.14c.49.04.98.08,1.47.1.49.03.98.05,1.47.06s.98.02,1.48.02.98,0,1.48-.02.98-.03,1.47-.06c.49-.03.98-.06,1.47-.1.49-.04.97-.09,1.46-.14s.97-.12,1.45-.19c.48-.07.96-.14,1.43-.23s.95-.17,1.42-.27c.47-.1.94-.2,1.4-.31.46-.11.92-.22,1.38-.34.45-.12.91-.25,1.35-.38.45-.13.89-.27,1.32-.42.44-.15.87-.3,1.29-.46s.85-.32,1.26-.49.82-.35,1.23-.53.8-.37,1.19-.56c.39-.19.77-.39,1.15-.59.38-.2.75-.41,1.11-.63.36-.21.72-.43,1.07-.66.35-.22.69-.45,1.02-.69.33-.23.66-.47.97-.71.32-.24.62-.49.92-.74.3-.25.59-.51.87-.77.28-.26.56-.52.82-.79.26-.27.52-.54.77-.81.25-.27.48-.55.71-.83.23-.28.45-.56.65-.85s.41-.58.59-.87c.19-.29.37-.59.54-.88s.33-.6.47-.9.29-.61.41-.91c.13-.31.24-.61.35-.92s.2-.62.29-.93.16-.62.22-.94.12-.63.16-.94.08-.63.1-.95c.02-.32.03-.63.03-.95s-.01-.63-.03-.95-.05-.63-.1-.95-.1-.63-.16-.94m-16.78-2.97c-.05-.16-.11-.31-.18-.47s-.13-.31-.21-.46c-.08-.15-.16-.31-.24-.46-.09-.15-.18-.3-.27-.45s-.2-.3-.3-.44c-.11-.15-.22-.29-.33-.43-.12-.14-.24-.28-.36-.42s-.25-.28-.39-.41c-.13-.14-.27-.27-.42-.4s-.29-.26-.44-.39c-.15-.13-.31-.25-.47-.38-.16-.12-.33-.24-.49-.36-.17-.12-.34-.23-.52-.35-.18-.11-.36-.22-.54-.33-.18-.11-.37-.21-.56-.32s-.39-.2-.58-.3-.4-.19-.6-.29c-.2-.09-.41-.18-.62-.27s-.42-.17-.64-.25c-.22-.08-.44-.16-.66-.23-.22-.07-.45-.15-.67-.21-.23-.07-.46-.13-.69-.19-.23-.06-.46-.12-.7-.17-.23-.05-.47-.11-.71-.15-.24-.05-.48-.09-.72-.13-.24-.04-.48-.08-.73-.11-.24-.03-.49-.07-.74-.09s-.49-.05-.74-.07c-.25-.02-.5-.04-.75-.05-.25-.01-.5-.02-.75-.03s-.5-.01-.75-.01-.5,0-.75.01-.5.02-.75.03c-.25.01-.5.03-.75.05-.25.02-.49.05-.74.07s-.49.06-.74.09c-.24.03-.49.07-.73.11-.24.04-.48.09-.72.13-.24.05-.48.1-.71.15-.23.05-.47.11-.7.17-.23.06-.46.13-.69.19-.23.07-.45.14-.67.21-.22.07-.44.15-.66.23-.22.08-.43.16-.64.25s-.42.18-.62.27c-.2.09-.41.19-.6.29s-.39.2-.58.3-.38.21-.56.32c-.18.11-.36.22-.54.33-.18.11-.35.23-.52.35-.17.12-.33.24-.49.36-.16.12-.32.25-.47.38-.15.13-.3.26-.44.39s-.28.27-.42.4c-.13.14-.26.27-.39.41s-.25.28-.36.42c-.12.14-.23.29-.33.43-.11.15-.21.29-.3.44s-.19.3-.27.45c-.09.15-.17.3-.24.46-.08.15-.15.31-.21.46s-.12.31-.18.47-.1.31-.15.47-.08.32-.11.48c-.03.16-.06.32-.08.48s-.04.32-.05.48c-.01.16-.02.32-.02.48s0,.32.02.48c.01.16.03.32.05.48s.05.32.08.48c.03.16.07.32.11.48s.09.32.15.47.11.31.18.47.13.31.21.46c.08.15.16.31.24.46.09.15.18.3.27.45s.2.3.3.44c.11.15.22.29.33.43.12.14.24.28.36.42s.25.28.39.41c.13.14.27.27.42.4.14.13.29.26.44.39.15.13.31.25.47.38.16.12.33.24.49.36.17.12.34.23.52.35.18.11.36.22.54.33.18.11.37.21.56.32s.39.2.58.3c.2.1.4.19.6.29s.41.18.62.27.42.17.64.25c.22.08.44.16.66.23.22.07.45.15.67.21.23.07.46.13.69.19.23.06.46.12.7.17s.47.11.71.15.48.09.72.13.48.08.73.11c.24.03.49.07.74.09.25.03.49.05.74.07.25.02.5.04.75.05.25.01.5.02.75.03.25,0,.5.01.75.01s.5,0,.75-.01c.25,0,.5-.02.75-.03.25-.01.5-.03.75-.05.25-.02.49-.05.74-.07.25-.03.49-.06.74-.09.24-.03.49-.07.73-.11s.48-.09.72-.13.48-.1.71-.15.47-.11.7-.17c.23-.06.46-.13.69-.19.23-.07.45-.14.67-.21.22-.07.44-.15.66-.23.22-.08.43-.16.64-.25s.42-.18.62-.27.41-.19.6-.29c.2-.1.39-.2.58-.3s.38-.21.56-.32c.18-.11.36-.22.54-.33.18-.11.35-.23.52-.35.17-.12.33-.24.49-.36.16-.12.32-.25.47-.38.15-.13.3-.26.44-.39.14-.13.28-.27.42-.4.13-.14.26-.27.39-.41s.25-.28.36-.42c.12-.14.23-.29.33-.43.11-.15.21-.29.3-.44s.19-.3.27-.45c.09-.15.17-.3.24-.46.08-.15.15-.31.21-.46s.12-.31.18-.47.1-.31.15-.47.08-.32.11-.48c.03-.16.06-.32.08-.48s.04-.32.05-.48c.01-.16.02-.32.02-.48s0-.32-.02-.48c-.01-.16-.03-.32-.05-.48s-.05-.32-.08-.48"/>
  <path class="cls-2" d="m52.59,173.67c-.01.97-.36,2.25-.64,3.43-.28,1.18-.5,2.26-1.26,2.51-.76.26-2.07-.31-3.1-1.09-1.02-.78-1.76-1.78-2-2.46-.24-.69,0-1.06.02-1.55.02-.49-.17-1.1-.36-1.72s-.36-1.25-.11-1.54c.25-.29.92-.23,1.6-.19.68.05,1.37.08,1.98-.22.61-.3,1.15-.93,1.67-.89s1.04.74,1.46,1.42c.42.68.74,1.33.73,2.3m114.78-1.21c-.26.18-.86.63-1.6,1.21s-1.65,1.3-2.57,2.01c-.92.7-1.85,1.38-2.93,2.19s-2.3,1.73-3.25,2.39c-.95.66-1.62,1.07-2.3,1.46s-1.37.78-2.17,1.26c-.8.48-1.71,1.06-2.66,1.53-.94.48-1.92.85-2.07.77-.15-.08.52-.63.86-1.05.34-.42.36-.72.37-1.04s0-.66.05-1.03c.05-.37.16-.77.25-1.18.1-.41.18-.84.56-1.5.38-.66,1.04-1.55,1.77-2.24.73-.69,1.54-1.17,2.33-1.66.8-.49,1.58-1,2.36-1.51.78-.51,1.55-1.04,2.32-1.57.76-.53,1.52-1.08,2.22-1.74s1.35-1.45,1.98-2.26c.63-.8,1.26-1.62,2.04-2.5.79-.89,1.74-1.84,2.67-2.82s1.85-1.97,2.49-2.44c.65-.48,1.02-.44,1.48-.78.46-.35,1-1.08,1.53-1.82.53-.74,1.05-1.49,1.68-2.22.62-.73,1.35-1.45,1.72-1.97.37-.52.39-.84.75-1.21.36-.37,1.08-.8,1.77-1.24.69-.44,1.36-.9,1.32-.45s-.77,1.81-.94,2.45c-.16.64.25.57.65.49.39-.08.77-.18,1.18-.48s.85-.79,1.35-1.6,1.04-1.94,1.47-3.01.74-2.09,1.1-3.07.75-1.94.94-2.2c.19-.25.16.2.13.64-.03.44-.08.88-.1,1.1q-.02.22.12.16c.14-.06.42-.17.47.07s-.12.84-.31,1.43-.4,1.16-.38,1.32.27-.11.29-.02c.01.09-.21.53-.33.75-.11.22-.11.22-.11.22t-.22.37c-.22.37-.66,1.12-1.11,1.85s-.91,1.47-1.38,2.2-.95,1.45-1.43,2.16-.98,1.42-1.49,2.12-1.02,1.39-1.55,2.08c-.52.69-1.06,1.37-1.6,2.04s-1.09,1.34-1.65,2c-.56.66-1.13,1.31-1.92,2.18-.8.87-1.82,1.96-2.86,3.03-1.05,1.07-2.12,2.11-2.61,2.59-.5.48-.42.38-.68.56m1.17-15.42c.55-.62,1.78-1.64,1.85-1.54.06.11-1.04,1.35-1.65,1.86s-.74.3-.19-.32m-18.17,6.06c1.12-.31,2.28-.4,3.42-.52,1.14-.12,2.27-.26,2.55-.13.29.12-.26.51-1.28.93-1.02.41-2.5.86-4.01,1.26s-3.04.78-4.54,1.03c-1.49.25-2.95.37-3.49.18-.54-.19-.16-.68.68-.97s2.11-.37,3.29-.66,2.25-.81,3.37-1.12m42.28-33.71c-.35.61-.67.87-.65.7s.38-.78.73-1.39c.35-.61.68-1.23.66-1.06-.02.17-.39,1.14-.74,1.75m-11.18,10.42c.44-.12.92-.92,1.39-1.72.47-.8.93-1.61,1.6-2.28.67-.67,1.55-1.2,2.38-1.75s1.62-1.12,2.19-1.19c.57-.07.94.35,1.25.76.31.41.58.79.86.88.28.09.58-.13.45.22-.13.35-.69,1.27-1.23,1.74-.54.47-1.06.5-1.65,1.21-.59.71-1.26,2.11-1.89,2.99-.63.89-1.23,1.26-1.9,1.87-.68.61-1.43,1.45-1.61,1.48-.18.03.21-.74.35-1.42s.02-1.24-.36-1.4c-.37-.15-1.01.12-1.66.38-.65.26-1.33.5-2.2.52-.87.02-1.94-.19-2.13-.68-.2-.5.47-1.28,1.11-1.77s1.24-.66,1.74-.47c.5.19.89.75,1.33.63m-12.42,5.04c-.61.62-1.5,1.2-2.4,1.77-.91.57-1.83,1.13-1.97,1.84-.15.71.48,1.56,1.07,2.39.59.83,1.15,1.63,1.24,2.14.09.51-.3.71-.88.56-.58-.16-1.35-.67-1.74-.4s-.41,1.33-.65,1.95-.7.81-1.03.44-.53-1.32-.39-2.36.64-2.18,1.12-3.33.94-2.31,1.85-3.21c.91-.89,2.27-1.52,3.18-2.09.91-.57,1.39-1.1,1.46-1.04.08.06-.25.71-.85,1.33m4.63-2.01c-.25.2-.52-.45-.41-.98.11-.53.61-.94.74-.61s-.09,1.39-.34,1.59m-35.43,20.94c-1.35-.6-2.38-1.61-3.44-2.66-1.06-1.05-2.14-2.14-3.58-3.24-1.44-1.1-3.24-2.2-3.57-2.93-.32-.73.83-1.08,2.28-.71,1.45.36,3.21,1.44,4.94,2.2,1.73.76,3.44,1.21,4.57,1.88,1.13.67,1.67,1.58,2.25,2.08.58.51,1.21.62,1.42,1.28s0,1.86-.93,2.37c-.93.51-2.59.33-3.94-.26m21.92-12.6c-.3.88-.75,1.39-1.09,2.23-.34.84-.57,2.01-1.36,2.71-.79.7-2.14.93-3.55,1.3-1.41.37-2.89.88-3.91.71s-1.56-1.03-1.69-2.07c-.13-1.03.14-2.23.66-2.94.51-.71,1.26-.92,1.99-1.46.73-.54,1.44-1.41,2.13-2.29s1.38-1.77,2.06-2.66c.68-.9,1.34-1.8,2-2.72.65-.91,1.3-1.84,2.11-2.18.81-.34,1.79-.09,1.89.75.1.84-.69,2.27-.94,3.24-.25.97.02,1.48.09,2.36s-.09,2.13-.39,3.01m9.72-15.16c-.54.5-1.38-.1-2.07-.28-.69-.18-1.25.04-1.14-.24.11-.28.88-1.07,1.64-1.87.76-.8,1.5-1.6,1.93-1.82.43-.22.55.16.48,1.14-.07.98-.31,2.57-.85,3.06m-69.21,18.81c-.44-.48-.81-1.56-.87-2.5-.06-.94.2-1.74.8-1.58.6.16,1.53,1.28,1.84,2.17.31.88-.02,1.53-.43,1.91-.41.38-.91.49-1.35,0m67.88-24.8c-.26.06-.67-.98-.61-1.56.06-.58.59-.7.79-.18s.08,1.68-.18,1.74m-4.92-6.89c.31,1,.28,2.57-.12,3.39-.4.82-1.16.89-1.59-.04s-.54-2.86-.47-3.89c.07-1.03.32-1.17.77-1.03s1.1.58,1.41,1.58m-18.14,5.2c-.34-.19-.24-.96.19-1.55.43-.6,1.19-1.02,1.53-.83.34.19.27,1-.16,1.6s-1.21.98-1.56.78m13.53-14.5c-.02-.66.49-1.81.76-1.73s.31,1.39.05,1.97c-.25.58-.8.42-.81-.24m7.42-23.45c-.23.23-.6-.41-.55-.97.05-.56.5-1.02.69-.7.18.32.09,1.43-.14,1.67m-138.17-14.82c-.39-.28-.56-1.44-.27-1.74s1.07.25,1.16.83c.09.58-.5,1.19-.89.91m-.29-7.5c-.41.32-.6-.02-.27-.5.32-.48,1.15-1.12,1.24-.95s-.55,1.14-.97,1.45m141.83,14.09c-.08,1.08-.68,2.12-1.01,3.09s-.4,1.89-.68,2.16c-.28.27-.77-.09-1.52.4s-1.73,1.84-1.98,2.57c-.25.73.24.85.58,1.42.35.56.56,1.57.14,1.84-.41.27-1.45-.18-1.76-1.32s.11-2.96.73-4.27,1.43-2.1,1.88-3.05c.45-.95.54-2.06.61-3.16.07-1.1.13-2.2-.22-3.54-.35-1.34-1.1-2.92-1.4-3.88-.29-.96-.13-1.3.36-1.04.5.26,1.32,1.12,1.96,2.13.63,1.01,1.08,2.17,1.51,3.31.43,1.14.86,2.26.78,3.34m-4.46-14.36c.32.56.33,1.69.06,2.29-.27.6-.81.68-1.56.05-.74-.63-1.69-1.98-1.73-2.58-.04-.6.81-.46,1.55-.39s1.36.06,1.67.62M128.13,5.15c.6.22,1.1.45.98.43-.12-.02-.88-.28-1.47-.5-.6-.22-1.04-.39-.91-.37s.81.22,1.4.44m-73.01,7.66c-.57.28-1.3.72-2.03,1.1-.74.38-1.49.71-1.41.57.08-.14,1.01-.74,1.94-1.31.93-.58,1.88-1.13,2.44-1.39.56-.26.74-.22.93-.16.19.06.38.14.31.25-.07.11-.42.25-.8.39-.38.14-.8.28-1.37.56m102.99,47.69c.25.35-.13.53-.09.99s.49,1.2.99,1.68c.5.48,1.06.69,1.37,1.15.31.46.37,1.16-.06.97-.43-.19-1.35-1.26-2.3-2.32-.94-1.06-1.9-2.11-2.89-3.07-.99-.95-2.02-1.81-2.55-2.43-.53-.61-.57-.98.1-.66s2.07,1.32,3.19,2.08c1.13.75,1.99,1.26,2.24,1.61m-118.73-20.05c.36-.54,1.3-1.03,2.08-1.21.77-.18,1.38-.06,1.56.29.18.34-.05.91-.71,1.39-.66.48-1.74.88-2.4.78-.66-.1-.89-.7-.53-1.25m8.13-.78c-.21.23-.07.61-.42,1.04-.35.43-1.21.91-1.95,1.51-.74.6-1.37,1.32-1.99,2.04-.62.73-1.23,1.46-1.54,1.99s-.31.86-.79,1.22c-.48.36-1.43.76-2.19.31-.76-.45-1.32-1.73-1.35-2.36-.03-.63.49-.61,1.26-.97s1.8-1.1,2.59-1.53,1.34-.55,1.75-.91c.41-.36.68-.97,1.15-1.54.48-.56,1.17-1.07,1.97-1.46.81-.38,1.73-.64,2.22-.57.49.06.56.45.31.68-.25.23-.81.32-1.02.55M86.22,5.45c-.35-.06.43-.17,1.05-.34.62-.17,1.07-.41,1.46-.48s.72.02.85.2.05.45-.73.58c-.78.13-2.27.11-2.62.05m-27.78,23.6c-.71-.1-1.41-.65-1.55-1.29-.14-.64.29-1.36.59-1.67.3-.31.47-.21.93-.42s1.22-.73,1.74-.87.81.1.75.37c-.06.27-.49.58-.6,1.13-.12.56.08,1.36-.18,1.93-.26.57-.97.92-1.68.82m1.98,67.31c-.07,1.32.46,1.95,1.34,2.45.88.49,2.11.85,2.89.49s1.11-1.46,1.25-2.59.07-2.32.4-2.82,1.05-.32.96-1.03c-.09-.72-1.01-2.34-1.51-3.62-.5-1.28-.59-2.21-.08-2.69.51-.47,1.62-.49,2.32-.93s1-1.31.85-1.9c-.15-.6-.76-.92-1.81-.93-1.05-.01-2.55.28-3.59.63-1.03.35-1.6.76-1.8,2.03-.2,1.27-.03,3.41-.27,5.48s-.9,4.1-.97,5.42m-42.25,59.27c-.62-.94-1.21-1.9-1.83-2.94-.62-1.04-1.27-2.16-1.9-3.29-.63-1.13-1.23-2.27-1.66-3.14-.43-.86-.68-1.44-.87-2.02-.19-.57-.31-1.14-.4-1.72s-.15-1.17-.3-1.85c-.14-.68-.37-1.45-.58-2.23-.21-.78-.4-1.56-.64-2.43s-.51-1.83-.76-2.8c-.26-.97-.5-1.94-.81-3.12s-.72-2.56-1.09-3.95c-.37-1.39-.71-2.79-.83-3.87s-.03-1.82.08-2.58c.11-.75.25-1.51.23-2.5-.02-.99-.2-2.2-.52-3.15s-.79-1.64-1.08-2.71c-.3-1.07-.43-2.54-.61-3.52-.18-.98-.41-1.49-.62-2-.22-.51-.42-1.02-.61-1.41-.2-.39-.38-.67-.56-.95-.18-.28-.34-.56-.48-1.18-.14-.62-.26-1.57-.38-2.28-.12-.71-.23-1.17-.32-1.63-.09-.46-.17-.92-.21-1.53s-.04-1.38,0-2.45c.04-1.07.12-2.45.24-3.82.11-1.37.26-2.75.41-3.94s.32-2.2.5-3.21c.18-1.01.38-2.02.6-3.11.22-1.1.47-2.29.8-3.6s.74-2.74,1.01-3.54c.27-.8.41-.97.64-1.45s.56-1.25.91-2.02c.35-.77.71-1.54,1.01-2.24.3-.7.53-1.33.89-1.94s.86-1.21,1.39-1.79c.53-.58,1.11-1.15,1.85-1.34.74-.19,1.65-.01,2.35-.16.7-.15,1.19-.64,1.69-1.13s1.02-.96,1.43-1.1c.41-.13.72.08,1.16.02.44-.06,1.01-.38,1.29.14.28.52.27,1.87.64,2.8.37.93,1.14,1.44,1.81,2.18.67.74,1.25,1.72,1.86,2.71s1.28,2,1.54,2.86c.26.86.13,1.56-.3,2.31s-1.15,1.52-1.59,2.27-.59,1.49-.54,2.26c.04.78.28,1.59.52,2.42s.51,1.65.56,2.33c.06.68-.09,1.23.08,2.23.17,1.01.64,2.47,1.42,2.87.77.4,1.84-.27,2.81.13.96.4,1.82,1.89,2.72,3.37.9,1.49,1.84,2.98,2.57,3.72.73.74,1.24.73,2.15,1.27.92.55,2.24,1.65,3.31,1.72,1.07.06,1.89-.91,2.72-1.89s1.69-1.95,2-2.84.06-1.69-.49-2.15c-.56-.46-1.43-.59-2.52-1.35-1.09-.76-2.4-2.14-2.86-3.68s-.06-3.24.81-4.18c.87-.93,2.21-1.09,3.13-.94.92.15,1.41.62,2.39,1.03.97.4,2.42.74,3.51,1.49,1.08.75,1.8,1.91,2.76,2.62.96.71,2.17.98,2.88.82s.95-.76.66-2.14c-.29-1.38-1.11-3.54-.87-4.92s1.52-1.98,1.6-2.4c.08-.43-1.05-.68-1.69-.45s-.77.94-1.37,1.33-1.69.45-2.06.09c-.36-.36,0-1.15-.1-2-.09-.84-.62-1.73-1.4-1.97-.78-.24-1.8.18-2.82.82s-2.06,1.51-2.65,2.44c-.59.92-.75,1.9-1.69,1.85s-2.64-1.14-3.68-1.01c-1.05.13-1.44,1.48-2.13,2.19-.69.71-1.68.78-2.04.28-.37-.5-.11-1.58.16-2.65.27-1.07.55-2.13.94-2.98.4-.85.91-1.48,1.12-2.62s.14-2.77.28-4.06.52-2.22.68-3.04.12-1.51-.25-1.58c-.37-.07-1.08.47-1.52,1.22s-.62,1.7-.79,2.65-.33,1.91-.36,2.96c-.03,1.05.06,2.2-.5,3.01-.57.81-1.8,1.3-2.14.99s.19-1.4.44-2.53c.25-1.13.21-2.3.32-3.47.11-1.16.36-2.32.63-3.47.27-1.15.55-2.29.31-2.92-.24-.63-1.01-.74-1.59-1.23-.58-.49-.97-1.37-1.39-1.59-.42-.22-.88.22-1.37.3s-1.02-.19-1.72.01c-.7.2-1.59.87-2.47,1.28-.88.41-1.76.55-2.4.28s-1.05-.95-1.11-1.65c-.05-.7.25-1.4.37-2.1.12-.69.05-1.37.34-2.13s.95-1.6,1.65-2.26c.7-.66,1.45-1.14,2.26-1.84s1.68-1.63,2.26-2.02c.58-.39.88-.25,1.05.25s.19,1.36.24,2.22c.05.87.11,1.75.69,1.82s1.65-.65,2.43-1.45c.77-.8,1.24-1.68,1.72-2.54.48-.87.97-1.73,1.27-1.79.3-.06.42.67,1.32,1.17.9.5,2.57.76,3.78.74,1.2-.02,1.93-.33,2.7-.22.77.11,1.59.65,2.68.36,1.09-.29,2.45-1.42,3.38-1.89.93-.48,1.42-.31,1.11.08-.31.39-1.44,1-2.24,1.7-.81.7-1.31,1.48-1.4,2.24s.21,1.5.85,1.99c.64.5,1.61.75,2.18,1.15.56.4.71.96,1.08,1.23s.95.25,1.55-.09c.6-.35,1.22-1.03,1.85-1.44s1.26-.56,1.57-.35c.31.21.28.77.65.55.36-.22,1.11-1.23,1.94-1.44.83-.21,1.74.39,2.4.48.67.09,1.08-.33.73-.79s-1.49-.98-1.99-1.53c-.5-.55-.36-1.13.1-1.8.46-.67,1.24-1.42,2.47-1.97,1.23-.55,2.92-.9,3.68-1.4.76-.49.6-1.13.18-1.27-.42-.14-1.11.23-2.05.46-.94.23-2.13.33-3.09.57-.96.24-1.69.64-2.22,1.2-.53.56-.87,1.29-1.47,1.74-.6.46-1.47.64-2.53,1.14-1.07.5-2.33,1.31-3.33,1.58-.99.27-1.71-.01-1.68-.64.03-.63.79-1.6,1.57-2.57.78-.96,1.57-1.92,1.6-2.38s-.7-.43-1.13-.71c-.42-.28-.53-.87.2-1.74.74-.87,2.32-2.02,3.94-2.53,1.62-.51,3.29-.38,4.62-.44,1.33-.05,2.32-.28,3.32-.51s2-.43,3.19-.59c1.19-.16,2.57-.27,3.54-.17s1.54.38,2.09.46c.55.08,1.09-.05,1.59.04.5.08.97.38,1.1.8.13.42-.07.96.06,1.75.13.8.58,1.84.9,2.78s.52,1.75.5,2.44c-.02.69-.26,1.26-.76,1.59s-1.25.41-1.86.06c-.61-.35-1.07-1.13-1.66-.97-.59.16-1.29,1.25-1.56,2.04-.27.78-.1,1.26.23,1.23.33-.03.82-.58,1.17-.59.36,0,.58.52.88.57.29.06.66-.36,1.48-.63.82-.27,2.11-.39,2.94-.9.83-.51,1.21-1.41,1.59-1.67.38-.27.77.1.74.64-.03.54-.48,1.27-.41,1.51.07.24.65-.02,1.64-.27.99-.25,2.38-.5,2.97-.47s.39.32.88.45c.49.13,1.66.1,2.3.25.64.16.75.5,1.01.31.26-.19.66-.93,1.12-1.16s.97.03,1.63.6c.67.57,1.49,1.45,2,1.77.51.32.7.07.69-.67,0-.75-.22-2,.07-3.08.29-1.07,1.08-1.96,1.68-2.33.6-.36,1.02-.19,1.12.22.09.41-.14,1.06-.27,1.98s-.17,2.12-.09,2.87c.08.76.27,1.09.03,1.76-.24.67-.91,1.69-1.12,2.25-.21.56.04.66.51.32.47-.34,1.15-1.11,1.39-2.42.25-1.32.06-3.18.57-4.3.51-1.12,1.71-1.5,2.48-1.55.77-.05,1.1.23,1.17-.1.07-.32-.12-1.24.29-1.79.41-.55,1.41-.73,1.9-1.1s.46-.93.83-1.48c.37-.55,1.13-1.07,1.76-1.35s1.11-.29,1.57-.48c.46-.18.9-.53,1.11-.91.21-.38.18-.79.77-1.04.59-.25,1.78-.35,2.75-.18s1.72.6,1.97,1.17,0,1.28.29,1.71c.28.42,1.09.56,1.57.48s.62-.37,1.02-.5c.4-.13,1.06-.09,1.69-.19s1.21-.34,1.36-.61c.15-.27-.13-.57.17-.79.3-.22,1.19-.37,1.84-.24.65.13,1.07.53,1.7.82.63.29,1.46.47,1.71.33.25-.14-.09-.61.2-1.15.29-.54,1.22-1.16,1.39-1.71s-.43-1.03-.24-1.64,1.18-1.33,2.12-1.71c.94-.38,1.85-.43,2.43-.8.58-.38.85-1.09,1.39-1.42.55-.33,1.37-.27,1.82-.7.44-.43.5-1.34.77-1.84.27-.5.76-.58.62-.79-.14-.21-.89-.54-1.15-1.18-.26-.64,0-1.59.21-2.14.22-.55.4-.68.49-.75q.09-.07.46-.35c.37-.28,1.1-.84,1.41-1.31s.21-.83.32-1.12c.11-.29.43-.5.82-.4.39.1.86.52,1.43.89s1.24.67,1.38.95c.14.28-.26.52-.5.89-.24.37-.32.86-.13,1.17.19.31.66.44.89.51.23.07.24.07.38.29.14.23.43.68.95.87.52.19,1.28.11,2.08.67.8.56,1.65,1.75,2.53,2.83.88,1.08,1.81,2.05,2.09,2.59.29.54-.06.65-.06,1.03s.37,1.05.49,1.62c.13.58.02,1.07.33,1.67.31.61,1.05,1.33,1.6,1.66.54.33.9.28,1.7.75.81.47,2.08,1.48,2.78,2.24s.85,1.29,1.25,2.01c.39.73,1.03,1.65,1.65,2.59.62.94,1.24,1.88,1.03,2.06s-1.22-.43-2.26-1.01c-1.03-.59-2.08-1.16-3.13-1.97-1.04-.81-2.08-1.86-2.61-2.57-.52-.71-.53-1.07-.84-1.72-.31-.64-.94-1.57-1.58-2.48-.64-.91-1.28-1.81-1.95-2.5s-1.36-1.17-1.28-.78.92,1.66,1.02,2.2c.1.54-.55.35-.87.53-.31.17-.29.71.04,1.45.33.74.96,1.68,1.46,2.17.5.49.85.53.96.95.1.42-.05,1.23-.29,1.51-.24.28-.57.03-1.16.78-.59.75-1.44,2.5-1.7,4.1-.26,1.6.07,3.06.38,4.54s.6,2.97,1.21,3.65c.62.68,1.56.54,2.09.22.54-.32.67-.83,1.07-.99.41-.17,1.09,0,1.84.64.75.63,1.55,1.73,2.34,2.83.79,1.1,1.56,2.22,2.12,3.62s.91,3.08,1.23,4.78c.32,1.7.61,3.41.46,4.58-.16,1.16-.77,1.78-1.13,2.77-.37.99-.49,2.34-.64,3.71-.14,1.36-.31,2.73.3,3.95.6,1.22,1.98,2.28,2.82,3.28.85,1,1.17,1.93,1,2.87s-.83,1.87-1.62,1.52c-.79-.35-1.72-1.99-2.46-2.74-.74-.76-1.3-.63-1.88-.99-.58-.36-1.19-1.19-1.89-1.04-.7.16-1.5,1.31-2.05,1.3-.55,0-.86-1.18-1.45-.81-.59.36-1.47,2.26-1.05,3.42.42,1.16,2.15,1.59,2.85,2.45.7.86.38,2.15,1.06,3.36s2.34,2.34,3.4,3.37c1.05,1.03,1.49,1.96,1.61,3.29.12,1.34-.07,3.08-.29,4.83s-.47,3.48-1.05,5.1-1.49,3.1-2.47,4.27c-.98,1.17-2.02,2.02-3.07,2.87-1.06.84-2.13,1.68-3.21,2.21-1.08.53-2.17.75-3.28,1.78-1.11,1.04-2.24,2.89-1.87,4.54.37,1.65,2.23,3.09,3.36,4.69,1.13,1.6,1.52,3.37,1.25,4.8-.27,1.43-1.2,2.54-2.15,3.63s-1.91,2.17-2.44,2.39-.62-.41-1.36-1.11c-.74-.7-2.13-1.46-3.5-1.99-1.37-.53-2.73-.82-3.59-.04-.86.78-1.23,2.62-1.02,4.08.2,1.46.98,2.54,2.17,3.49,1.19.95,2.8,1.77,3.67,3.01.86,1.23.98,2.88.47,3.5-.51.62-1.66.23-2.77-.92-1.12-1.15-2.2-3.07-3.13-4.19s-1.69-1.45-1.96-2.41c-.27-.96-.03-2.56-.46-4.69s-1.52-4.77-2.51-5.68c-.99-.91-1.89-.1-2.66.28s-1.42.31-1.75-.3-.35-1.77-1.23-3.47-2.61-3.93-3.76-4.75c-1.15-.82-1.71-.24-2.86.23-1.15.47-2.88.82-4.24,1.58s-2.34,1.92-3.48,3.01-2.41,2.09-3.69,3.09c-1.28.99-2.57,1.97-3.34,3.88s-1.03,4.76-1.83,6.76c-.79,2-2.11,3.17-3.04,3.51s-1.46-.13-2.14-1.28c-.68-1.15-1.5-2.97-2.32-4.83-.82-1.86-1.63-3.75-2.22-6.15-.59-2.4-.96-5.31-1.73-6.69-.77-1.38-1.93-1.23-2.7-1.61-.77-.38-1.15-1.28-2.11-2.67s-2.5-3.25-4.5-4.32-4.46-1.32-6.67-1.88c-2.2-.55-4.14-1.4-5.26-2.26-1.11-.86-1.4-1.75-2-2.13-.6-.38-1.5-.26-2.6-.82-1.1-.55-2.39-1.78-3.2-3.13-.8-1.34-1.11-2.81-1.73-3.67-.62-.86-1.56-1.12-2.02-.56s-.43,1.93-.2,3.23c.23,1.3.66,2.54,1.11,3.77.44,1.23.9,2.46,1.65,3.22.75.76,1.8,1.04,3,.73,1.2-.31,2.54-1.21,3.15-1.26.61-.05.48.76,1.14,2.08.66,1.33,2.1,3.18,2.2,4.84.1,1.66-1.15,3.15-2.48,4.19s-2.72,1.66-4.16,1.96-2.93.29-3.76.46c-.83.18-.99.55-1.98.83-.99.28-2.79.48-4.33.49-1.54.01-2.82-.16-4.08-.34-1.26-.18-2.5-.37-3.13-1.03-.63-.66-.64-1.78-.65-2.91,0-1.13,0-2.26-.24-3.6-.24-1.33-.74-2.86-1.22-4.41-.47-1.54-.93-3.09-1.07-4.2-.15-1.11,0-1.79-.08-3.06-.09-1.27-.41-3.12-.7-4.98-.29-1.86-.55-3.72-1.03-5.1s-1.2-2.27-1.54-2.16c-.33.11-.28,1.21-.22,2.31s.14,2.2.22,3.31c.09,1.1.18,2.2.29,3.3.11,1.1.23,2.19.18,3.67-.05,1.48-.26,3.35-.16,5.17.11,1.82.53,3.59,1.1,5.15.57,1.56,1.27,2.9,2,4.24.73,1.33,1.47,2.66,1.96,3.88s.72,2.35,1.68,3.07,2.64,1.03,4.35,1.32c1.71.29,3.46.56,3.81,1.81.34,1.26-.72,3.5-2,5.26-1.28,1.76-2.79,3.04-4.36,3.89-1.57.85-3.21,1.27-4.66,1.78-1.46.51-2.73,1.09-3.64,2.03s-1.43,2.21-1.45,3.38c-.03,1.17.44,2.23.92,3.27s.98,2.07,1.34,2.97c.36.9.57,1.67.79,2.42.22.76.46,1.5.39,2.07-.06.57-.42.98-.98,1.08s-1.29-.08-2.04-.12c-.75-.05-1.5.05-1.56.55s.57,1.43.98,2.19c.41.76.59,1.35.4,1.53s-.78-.05-.89.18c-.11.23.26.92.34,1.31.08.39-.13.49-.31.55-.18.06-.34.09-.62-.05-.28-.14-.69-.45-1.1-.79-.4-.34-.8-.71-1-.89q-.2-.18-.51-.48c-.31-.3-.93-.9-1.55-1.51-.61-.61-1.22-1.22-1.82-1.85-.6-.62-1.19-1.26-1.77-1.9-.58-.64-1.15-1.29-1.86-2.12-.71-.83-1.55-1.85-2.37-2.88s-1.62-2.09-2.34-3.07c-.72-.99-1.36-1.92-1.98-2.86M99.3,6.67c.27.09-.04.24-.46.22s-.97-.2-.82-.27c.15-.07,1.01-.04,1.28.05m32.48,18.1c.13.09.03.22-.16.19-.18-.03-.45-.21-.4-.28.05-.06.42,0,.55.08m-4.72-19.99c-.38-.1-1.04-.28-1.08-.28-.04,0,.54.19,1.12.39.58.2,1.15.42,1.45.59.3.17.34.3.37.45s.05.32.12.63c.06.31.16.75.52,1.12s.96.66,1.44,1.01c.48.35.83.76,1.37,1.23.54.46,1.27.98,1.79,1.45s.83.89,1.24,1.16c.41.27.92.39,1.68.73.76.33,1.77.88,1.94,1.11.17.23-.5.15-.33.32.17.17,1.17.59,1.7.75s.6.07,1.15.27c.55.2,1.58.7,2.6,1.21s2.04,1.04,2.95,1.64c.91.6,1.72,1.26,2.53,1.94.8.68,1.59,1.38,1.36,1.23-.23-.14-1.5-1.12-2.68-1.93-1.18-.8-2.29-1.43-3.18-1.84-.89-.41-1.55-.61-1.63-.52-.07.08.45.44.76.97.3.53.38,1.22.17,1.68s-.71.71-1.43.65c-.72-.06-1.66-.41-2.49-.88-.83-.47-1.57-1.06-2.16-1.36-.6-.31-1.06-.33-.98-.05.08.29.71.89.89,1.38.17.49-.11.88-.64.81s-1.31-.61-1.73-1.06c-.43-.45-.5-.81-.81-.77-.31.04-.85.48-1.84.49-.98.01-2.4-.41-3.61-.88-1.21-.47-2.2-.99-2.76-1.49-.56-.49-.7-.96-1.12-1.57-.42-.6-1.11-1.34-1.58-1.76-.47-.42-.72-.52-1.17-.94s-1.11-1.14-1.91-1.6-1.73-.65-2.66-.82-1.87-.34-2.43-.57c-.55-.23-.73-.53-1.14-.73s-1.05-.3-1.74-.51c-.69-.21-1.42-.53-2.15-.84-.73-.31-1.47-.6-1.83-.81-.36-.21-.36-.35-1.18-.4-.82-.06-2.47-.03-3.46-.1-.99-.07-1.34-.23-2.15-.35s-2.08-.17-2.7-.15c-.62.02-.59.14-.99.18-.4.04-1.24.01-1.68.09-.44.08-.48.27-.26.45.23.18.72.35.88.63s0,.67-.31.81c-.31.14-.76.05-1.29-.16s-1.11-.53-1.4-.68q-.29-.16-.44-.17c-.14,0-.43-.02-.88-.18-.45-.16-1.06-.46-1.39-.35s-.36.63-.85.91c-.48.28-1.41.31-2.04.15-.63-.15-.96-.49-.69-.79s1.14-.56,1.65-.85.65-.61,1-.86c.35-.25.9-.43,1.41-.65.51-.22.97-.48,1.43-.72.46-.24.92-.46,1.17-.68s.28-.41.08-.5c-.21-.09-.65-.08-1.06-.12-.41-.05-.8-.15-1.5-.16-.71,0-1.73.08-2.96.18-1.23.1-2.65.2-3.81.33-1.16.13-2.04.29-2.66.36-.62.07-.98.06-1.34.05-.36,0-.71,0-1.21.07-.5.06-1.14.17-1.58.28s-.65.22-.39.24c.26.02,1-.04,1.04.09.04.13-.63.45-.47.59.16.15,1.15.12,1.57.18.43.06.3.22.57.38s.94.32.77.56c-.17.24-1.19.55-2.15.75-.96.2-1.86.29-2.54.42s-1.13.27-1.66.31c-.53.03-1.14-.06-1.75-.03s-1.22.16-1.61.43c-.39.27-.55.68-1.07.94-.52.27-1.41.4-2.29.54-.88.15-1.75.31-2.23.36-.48.06-.57,0-1.02.13-.46.13-1.28.44-2.1.76-.82.32-1.63.65-2.64,1-1.01.35-2.21.72-2.66.76-.46.04-.17-.25.13-.53s.6-.54,1.21-.91,1.54-.84,2.48-1.29c.94-.45,1.88-.88,2.54-1.21.66-.33,1.04-.56,1.42-.77.39-.21.78-.39.73-.37-.05.01-.55.22-1.05.44s-.98.46-1.57.7c-.59.24-1.27.48-1.96.73-.68.25-1.36.51-2.09.83-.73.32-1.51.69-2.29,1.07-.78.38-1.55.78-1.7.84-.15.06.33-.22.81-.48.48-.26.97-.51,1.22-.63q.25-.12.64-.3c.39-.18,1.18-.53,1.98-.87.79-.34,1.59-.67,2.39-.99.8-.32,1.61-.63,2.42-.93.81-.3,1.62-.59,2.44-.87.82-.28,1.64-.55,2.46-.8.82-.26,1.65-.5,2.48-.74.83-.24,1.67-.46,2.5-.67.84-.21,1.68-.42,2.52-.61.84-.19,1.69-.37,2.53-.54s1.7-.33,2.55-.48c.85-.15,1.7-.28,2.56-.41s1.71-.24,2.57-.34,1.72-.19,2.58-.27c.86-.08,1.72-.15,2.58-.21.86-.06,1.72-.1,2.59-.14.86-.03,1.73-.06,2.59-.07.86-.01,1.73-.01,2.59,0,.86.01,1.73.03,2.59.06.86.03,1.73.08,2.59.13.86.06,1.72.12,2.58.2.86.08,1.72.17,2.58.27.86.1,1.71.21,2.57.34.86.12,1.71.26,2.56.4.85.15,1.7.3,2.83.54s2.54.54,3.94.89c1.4.34,2.8.71,3.45.89.65.18.56.15.18.05m-21.24,4.23c-.34-.07-.58.02-.79-.09-.21-.11-.4-.42-.53-.42-.13,0-.21.31-.49.41s-.75-.04-1.04-.29-.37-.62-.74-.91c-.37-.29-1.01-.51-1.18-.73-.16-.23.15-.46.66-.53.51-.06,1.22.05,2.36.13,1.14.08,2.7.13,3.78.35s1.67.61,1.47.77c-.2.15-1.18.07-1.18.14s1,.27,1.28.42-.17.23-.13.35c.04.12.58.29.61.46.04.17-.42.34-.98.42-.56.07-1.23.05-1.78-.07s-.99-.34-1.33-.4m-16.16,1.07c.37-.01.7.17.49.27-.21.1-.96.12-1.12.03-.16-.09.25-.29.63-.3m1.94-.13c-.56-.02-1.11-.32-1.55-.34s-.79.23-1.46.37c-.67.14-1.68.17-2.69.21-1,.04-2.01.1-2.85.1-.85,0-1.54-.07-1.79-.2-.25-.13-.06-.32-.42-.34-.36-.02-1.27.14-2.17.31-.9.17-1.8.35-2.36.27-.55-.09-.76-.44-.38-.67.38-.23,1.34-.34,1.86-.49.52-.15.6-.34.17-.37-.43-.04-1.38.08-2.14.09-.76,0-1.32-.09-1.05-.27.28-.18,1.4-.44,1.42-.52.02-.08-1.06.02-1.24-.04-.18-.06.55-.29,1.37-.47.82-.19,1.75-.34,2.67-.47.93-.14,1.85-.26,2.63-.42.78-.16,1.41-.37,1.85-.41s.7.08.41.27c-.29.19-1.12.46-1.45.75s-.17.61.07.8c.24.19.56.26,1.15.25s1.46-.09,2.22-.07,1.41.13,1.91.09c.5-.03.86-.21,1.78-.35s2.42-.26,3.39-.15,1.43.45,1.58.78c.15.33-.02.65-.27.79-.25.14-.6.1-1.06.2-.46.1-1.05.35-1.61.33m7.28-.67c-.33-.14-.5-.41-.44-.68.06-.28.35-.56.87-.57s1.25.26,1.44.41-.17.19-.36.34c-.19.15-.21.41-.45.53-.25.12-.73.11-1.05-.03m25.77,26.87c-.22-.02-.28-.37-.09-.52.18-.15.62-.11.65.06.03.17-.34.48-.55.46m-27.2-27.66c.24,0,.39.19.36.43-.03.24-.22.52-.64.66s-1.07.13-1.22-.02c-.15-.15.21-.43.56-.66.35-.23.69-.41.94-.41m15.1.83c.41.17.66.48.43.76-.24.28-.96.53-1.33.74-.36.21-.36.37-.89.31-.53-.06-1.58-.35-2.2-.61-.63-.25-.83-.47-.55-.61.28-.15,1.03-.23,1.61-.35.58-.12,1-.29,1.49-.37s1.04-.05,1.45.12m11.58,23.34c-.22.14-.82.22-.89.13-.07-.1.37-.38.67-.42.3-.04.45.16.22.3m-25.92-22.3c.11.08-.15.27-.39.28-.24.02-.46-.13-.33-.23.13-.09.6-.13.71-.06m24.85,23.8c.02.39-.26.91-.78,1.03s-1.26-.17-1.53-.49-.06-.66.3-.91c.35-.25.85-.4,1.25-.34.41.06.73.32.75.71m-23.64-23.66c.16-.21.57-.2.88-.03.31.17.53.49.37.7-.16.21-.71.3-1.02.14-.31-.17-.39-.6-.22-.81m3.25.5c-.09-.16.03-.39.56-.53s1.47-.18,1.86-.12c.39.06.24.23.59.39.34.16,1.18.32,1.34.51.16.2-.35.43-.98.37-.63-.06-1.37-.43-1.84-.53-.46-.1-.64.07-.89.11-.24.04-.55-.04-.64-.2m-16.89,36.08c-.41-.33-.58-.76-.23-1.44.35-.68,1.22-1.59,1.96-2.3.74-.71,1.35-1.2,2.15-1.61.79-.41,1.77-.74,2.76-.99s1.99-.39,2.45-.31c.46.09.38.41-.18.71-.56.3-1.61.59-2.44.9-.83.31-1.45.63-2.21,1.17-.75.54-1.64,1.29-2.08,2.09-.44.81-.45,1.67-.78,1.99s-.99.11-1.4-.22m10.9-35.41c-.43-.15-.86-.41-1.63-.43-.77-.02-1.86.19-2.57.23-.71.04-1.04-.1-1.09-.26s.16-.33.73-.5c.57-.17,1.49-.34,2.29-.41s1.49-.03,1.98.16c.5.19.8.54,1.18.76.38.22.83.31.9.4.07.1-.23.2-.59.23-.36.03-.78-.03-1.21-.18m9.87.65c.37-.14.97-.24,1.45-.24.48,0,.85.12.67.28-.19.16-.93.38-1.48.47-.55.09-.92.05-1.03-.06-.11-.11.02-.3.39-.45m-24.4,20.93c-.03-.18.25-.52.42-.51.17.01.23.38.09.55-.14.17-.48.14-.51-.04m18.82-20.23c.29.14.53.42.37.42-.17,0-.75-.29-.87-.43-.12-.14.21-.13.5.02m6.15,24.91c-.3-.14-.36-.75-.09-.91.27-.16.87.12.9.42.03.3-.51.63-.8.49m-23.37-6.21c-.26.17-.6.12-1.26.26-.66.14-1.64.47-1.75.18s.66-1.21,1.23-1.77c.57-.57.96-.78,1.39-.74.43.04.9.34,1.08.57.18.23.06.39-.09.66s-.34.67-.61.84m1.69.18c-.35-.03-.66-.37-.69-.72-.03-.34.21-.69.55-.75s.77.14.99.34.24.4.06.64c-.18.24-.56.52-.91.49m5.63,2.56c-.16-.07-.04-.29.19-.34.23-.05.55.08.49.2-.06.11-.52.21-.68.14m14.62,2.81c-.39-.05-.96-.26-1.4-.55-.44-.29-.77-.65-.77-1.06,0-.41.3-.86.77-.82.47.04,1.12.58,1.51,1.04s.55.85.52,1.09c-.03.25-.24.35-.63.3m-10-23.36c.03-.2.25-.53.58-.71s.78-.21,1.06-.08.38.41.63.65c.25.24.65.44.79.7.13.26,0,.57-.18.75-.17.17-.37.2-.72.11s-.86-.32-1.2-.52c-.33-.2-.49-.37-.66-.49-.16-.12-.33-.19-.3-.39m-2.93,4.41c-.32,0-.61-.08-.81-.57s-.31-1.38-.16-1.98c.15-.59.57-.88.62-1.1s-.29-.37-.41-.81c-.11-.43,0-1.15.66-1.57.66-.42,1.88-.55,2.5-.36s.64.71.56,1.12c-.08.41-.26.72.09,1.2.35.48,1.24,1.13,1.5,1.59.26.47-.12.75-.42.86s-.52.04-.69.16c-.17.11-.29.41-.68.66s-1.07.45-1.58.59c-.51.14-.86.21-1.18.2m-4.91,4.76c-.37.07-.55-.02-.58-.29-.03-.27.11-.71-.02-.77s-.53.26-.93.46c-.39.2-.78.27-.81.51-.03.23.29.63.27.93-.03.31-.4.52-.89.49-.49-.03-1.11-.32-1.78-.51-.68-.19-1.42-.29-2.29-.26-.87.03-1.88.19-2.44.14-.56-.05-.69-.3-.92-.34s-.57.14-1.24.3c-.67.16-1.67.3-2.55.16-.88-.14-1.63-.55-2.57-.56-.94,0-2.08.4-2.66.5-.58.1-.61-.1-.32-.34s.89-.53.9-.7c0-.16-.58-.2-1,.03-.42.23-.66.72-1.07.68s-.99-.61-1.22-1.15c-.23-.54-.12-1.04-.31-1.42s-.69-.65-.92-1.14-.21-1.21-.56-1.65c-.34-.43-1.06-.58-1.47-.76s-.54-.39-1.11-.5c-.57-.1-1.58-.1-1.52-.47s1.17-1.11,2.15-1.6c.97-.49,1.8-.71,2.63-.93.83-.22,1.67-.42,2.52-.56.85-.14,1.72-.2,2.6-.25.87-.05,1.75-.09,2.31.07.56.16.8.52,1.12.77.32.25.73.4.97.32.25-.08.34-.37.74-.49.41-.12,1.13-.06,1.25.09.12.15-.37.39-.11.38s1.26-.3,1.87-.34c.61-.04.83.15,1.72.32.89.16,2.45.3,3.48.33s1.53-.02,2.18-.24c.65-.22,1.46-.6,2.16-.75s1.31-.08,1.41.09c.1.17-.3.45-.24.52.07.08.6-.05,1.08-.05.48,0,.92.1.92.4,0,.3-.43.79-.44,1.07,0,.28.42.36.6.64s.14.75.2,1.03c.07.28.25.37.25.55,0,.18-.18.45-.45.64-.27.18-.63.27-.76.42-.13.15-.04.35-.31.5-.27.16-.91.27-.95.35-.04.08.51.14.86.28s.49.36.53.65-.02.65-.17.98c-.16.33-.41.63-.8.9-.4.27-.94.51-1.31.58"/>
  <circle class="cls-1" cx="108.17" cy="115.32" r="5"/>
  <g>
    <path class="cls-4" d="m112.59,92.39v2.14h-3.28v9.51h-2.7v-9.51h-3.28v-2.14h9.26Z"/>
    <path class="cls-4" d="m118.15,97.57c-.06.1-.13.17-.2.22-.07.04-.16.06-.28.06s-.23-.02-.35-.08c-.12-.05-.24-.11-.38-.16-.14-.06-.29-.11-.46-.16-.17-.05-.37-.08-.58-.08-.31,0-.56.06-.72.18s-.25.29-.25.5c0,.15.05.28.16.38.11.1.25.19.44.27.18.08.39.15.62.22s.46.15.7.23.47.19.7.3c.23.11.43.26.62.42.18.17.33.37.44.61.11.24.16.53.16.86,0,.41-.07.79-.22,1.14s-.37.65-.67.9c-.3.25-.66.45-1.1.58s-.93.21-1.5.21c-.28,0-.57-.03-.85-.08s-.56-.12-.82-.22c-.26-.09-.51-.2-.73-.32-.22-.12-.42-.26-.58-.4l.58-.91c.07-.11.15-.19.25-.25.1-.06.22-.09.38-.09.14,0,.27.03.39.1s.24.13.37.21c.13.07.29.14.47.21s.4.1.68.1c.19,0,.36-.02.49-.06.13-.04.24-.09.32-.16s.14-.15.18-.23.06-.17.06-.26c0-.17-.06-.3-.17-.41-.11-.11-.26-.2-.44-.28-.18-.08-.39-.15-.62-.22-.23-.07-.47-.14-.71-.23-.24-.08-.48-.19-.71-.31-.23-.12-.44-.27-.62-.46-.18-.18-.33-.41-.44-.68-.11-.27-.17-.59-.17-.97,0-.35.07-.69.2-1,.14-.32.34-.6.61-.84.27-.24.61-.43,1.02-.57.41-.14.89-.21,1.44-.21.3,0,.59.03.87.08.28.05.54.13.79.22.25.1.47.21.67.34.2.13.38.27.54.43l-.56.87Z"/>
    <path class="cls-4" d="m120.69,104.05v-11.98h2.48v4.41c.3-.26.62-.46.97-.62s.77-.24,1.25-.24c.45,0,.85.08,1.2.24s.64.38.88.66c.24.28.42.61.54,1,.12.39.18.81.18,1.26v5.27h-2.48v-5.27c0-.41-.09-.72-.28-.95-.19-.23-.46-.34-.82-.34-.27,0-.53.06-.77.18-.24.12-.47.27-.69.47v5.91h-2.48Z"/>
    <path class="cls-4" d="m134.25,95.63c.63,0,1.2.1,1.72.3s.96.48,1.33.85c.37.37.66.81.86,1.34s.31,1.12.31,1.77-.1,1.26-.31,1.79-.49.98-.86,1.35c-.37.37-.81.66-1.33.86-.52.2-1.09.3-1.72.3s-1.21-.1-1.73-.3c-.52-.2-.97-.49-1.34-.86s-.67-.82-.87-1.35-.31-1.13-.31-1.79.1-1.25.31-1.77.5-.97.87-1.34c.38-.37.82-.65,1.34-.85.52-.2,1.1-.3,1.73-.3Zm0,6.71c.57,0,.99-.2,1.26-.6s.4-1.01.4-1.84-.13-1.43-.4-1.83-.69-.6-1.26-.6-1.02.2-1.29.6c-.27.4-.41,1.01-.41,1.83s.14,1.43.41,1.84c.27.4.7.6,1.29.6Z"/>
    <path class="cls-4" d="m146.91,99.74v4.31h-2.7v-11.66h3.79c.84,0,1.56.09,2.16.26s1.08.41,1.46.72c.38.31.65.67.82,1.1.17.42.26.88.26,1.38,0,.38-.05.74-.15,1.07s-.25.65-.45.93c-.2.29-.45.54-.74.76-.29.22-.63.41-1,.55.18.09.35.2.51.34s.29.3.41.49l2.48,4.06h-2.45c-.45,0-.78-.17-.98-.51l-1.94-3.38c-.09-.15-.19-.26-.3-.32-.11-.06-.28-.1-.48-.1h-.69Zm0-1.86h1.09c.37,0,.68-.05.94-.14s.47-.22.64-.39c.17-.17.29-.36.36-.58.07-.22.11-.46.11-.72,0-.51-.17-.91-.5-1.2-.33-.29-.85-.43-1.55-.43h-1.09v3.46Z"/>
    <path class="cls-4" d="m158.77,95.63c.63,0,1.2.1,1.72.3.52.2.96.48,1.33.85.37.37.66.81.86,1.34.21.53.31,1.12.31,1.77s-.1,1.26-.31,1.79c-.21.53-.49.98-.86,1.35-.37.37-.82.66-1.33.86-.52.2-1.09.3-1.72.3s-1.21-.1-1.73-.3c-.52-.2-.97-.49-1.34-.86s-.67-.82-.87-1.35c-.21-.53-.31-1.13-.31-1.79s.1-1.25.31-1.77c.21-.53.5-.97.87-1.34.38-.37.82-.65,1.34-.85.52-.2,1.1-.3,1.73-.3Zm0,6.71c.57,0,.99-.2,1.26-.6.27-.4.4-1.01.4-1.84s-.13-1.43-.4-1.83c-.27-.4-.69-.6-1.26-.6s-1.02.2-1.29.6c-.27.4-.41,1.01-.41,1.83s.14,1.43.41,1.84c.27.4.7.6,1.29.6Z"/>
    <path class="cls-4" d="m167.45,92.07v11.98h-2.48v-11.98h2.48Z"/>
    <path class="cls-4" d="m169.89,106.68v-10.93h1.54c.15,0,.28.03.39.1.1.07.18.17.22.31l.18.61c.16-.18.33-.34.52-.48s.38-.27.59-.37.44-.19.68-.24c.24-.06.51-.09.8-.09.43,0,.83.1,1.2.29.37.19.69.47.95.83s.48.81.63,1.33c.15.53.23,1.12.23,1.79,0,.62-.09,1.2-.26,1.73-.17.53-.42.99-.73,1.38-.31.39-.69.69-1.12.91-.43.22-.92.33-1.44.33-.43,0-.79-.06-1.09-.18-.29-.12-.56-.29-.8-.5v3.18h-2.48Zm4.05-9.19c-.18,0-.35.02-.49.05s-.28.08-.41.15c-.12.06-.24.15-.35.24-.11.1-.21.21-.32.34v3.52c.19.21.39.35.61.44.22.08.45.12.69.12s.44-.05.63-.14c.19-.09.36-.24.5-.44.14-.2.25-.46.33-.78.08-.32.12-.71.12-1.17s-.03-.81-.1-1.1c-.06-.3-.15-.54-.27-.72-.12-.18-.25-.32-.41-.4s-.34-.12-.54-.12Z"/>
    <path class="cls-4" d="m185.33,104.05c-.23,0-.41-.03-.53-.1-.12-.06-.22-.2-.3-.4l-.18-.46c-.21.18-.41.33-.6.46-.19.13-.39.25-.6.34-.21.09-.42.16-.66.21-.23.05-.49.07-.77.07-.38,0-.72-.05-1.03-.15-.31-.1-.57-.24-.79-.44-.22-.19-.38-.43-.5-.72s-.18-.62-.18-.99c0-.29.08-.6.22-.91.15-.31.41-.59.78-.85.37-.25.86-.47,1.49-.64s1.41-.26,2.36-.26v-.36c0-.49-.1-.84-.3-1.06-.2-.22-.48-.33-.85-.33-.29,0-.53.03-.72.1-.19.06-.35.14-.5.22-.15.08-.29.15-.43.22-.14.06-.3.1-.5.1-.17,0-.32-.04-.44-.12-.12-.08-.21-.19-.28-.31l-.45-.78c.5-.44,1.06-.77,1.67-.99.61-.22,1.27-.32,1.96-.32.5,0,.95.08,1.36.24s.74.39,1.02.68c.28.29.49.64.64,1.04s.22.84.22,1.31v5.18h-1.14Zm-2.85-1.51c.32,0,.6-.06.84-.17.24-.11.48-.29.73-.54v-1.14c-.5,0-.9.03-1.22.1s-.57.15-.76.24-.32.21-.39.33c-.07.12-.11.26-.11.4,0,.29.08.49.23.6.15.12.38.17.68.17Z"/>
  </g>
</svg>