<?xml version="1.0" encoding="UTF-8"?>
<svg id="alaska" xmlns="http://www.w3.org/2000/svg" viewBox="0 0 200 200">
  <defs>
    <style>
      .cls-1 {
        stroke: #f38c15;
        stroke-width: 2px;
      }

      .cls-1, .cls-2, .cls-3 {
        stroke-miterlimit: 3.65;
      }

      .cls-1, .cls-3 {
        fill: none;
      }

      .cls-4 {
        fill: #f38c15;
      }

      .cls-5 {
        fill: #333;
      }

      .cls-2 {
        fill: #666;
        stroke: #333;
      }

      .cls-3 {
        stroke: #666;
        stroke-width: .46px;
      }
    </style>
  </defs>
  <path class="cls-5" d="m94.8,198.83c-1.73-.09-3.45-.23-5.17-.41-1.72-.18-3.43-.41-5.14-.68-1.71-.27-3.41-.59-5.1-.94-1.69-.36-3.37-.76-5.04-1.21-1.67-.45-3.33-.94-4.97-1.47-1.64-.53-3.27-1.11-4.89-1.73s-3.21-1.28-4.79-1.98c-1.58-.7-3.14-1.45-4.68-2.23-1.54-.78-3.06-1.61-4.55-2.47-1.5-.86-2.97-1.77-4.42-2.71-1.45-.94-2.87-1.92-4.27-2.94-1.4-1.02-2.77-2.07-4.11-3.15s-2.66-2.21-3.94-3.37c-1.28-1.16-2.54-2.35-3.76-3.57-1.22-1.22-2.41-2.48-3.57-3.76-1.16-1.28-2.28-2.6-3.37-3.94-1.09-1.34-2.14-2.71-3.15-4.11-1.02-1.4-1.99-2.82-2.94-4.27s-1.84-2.92-2.71-4.42c-.86-1.5-1.69-3.01-2.47-4.55-.78-1.54-1.53-3.1-2.23-4.68-.7-1.58-1.36-3.17-1.98-4.79-.62-1.61-1.2-3.24-1.73-4.89-.53-1.64-1.02-3.3-1.47-4.97-.45-1.67-.85-3.35-1.21-5.04-.36-1.69-.67-3.39-.94-5.1-.27-1.71-.5-3.42-.68-5.14-.18-1.72-.32-3.44-.41-5.17-.09-1.73-.14-3.45-.14-5.18s.05-3.46.14-5.18c.09-1.73.23-3.45.41-5.17.18-1.72.41-3.43.68-5.14.27-1.71.59-3.41.94-5.1.36-1.69.76-3.37,1.21-5.04.45-1.67.94-3.33,1.47-4.97.53-1.64,1.11-3.27,1.73-4.89.62-1.61,1.28-3.21,1.98-4.79.7-1.58,1.45-3.14,2.23-4.68.78-1.54,1.61-3.06,2.47-4.55.86-1.5,1.77-2.97,2.71-4.42.94-1.45,1.92-2.87,2.94-4.27,1.02-1.4,2.07-2.77,3.15-4.11,1.09-1.34,2.21-2.66,3.37-3.94,1.16-1.28,2.35-2.54,3.57-3.76,1.22-1.22,2.48-2.41,3.76-3.57,1.28-1.16,2.6-2.28,3.94-3.37s2.71-2.14,4.11-3.15c1.4-1.02,2.82-1.99,4.27-2.94,1.45-.94,2.92-1.84,4.42-2.71,1.5-.86,3.01-1.69,4.55-2.47,1.54-.78,3.1-1.53,4.68-2.23,1.58-.7,3.17-1.36,4.79-1.98,1.61-.62,3.24-1.2,4.89-1.73,1.64-.53,3.3-1.02,4.97-1.47,1.67-.45,3.35-.85,5.04-1.21,1.69-.36,3.39-.67,5.1-.94,1.71-.27,3.42-.5,5.14-.68s3.44-.32,5.17-.41c1.73-.09,3.45-.14,5.18-.14s3.46.05,5.18.14c1.73.09,3.45.23,5.17.41,1.72.18,3.43.41,5.14.68,1.71.27,3.41.59,5.1.94,1.69.36,3.37.76,5.04,1.21,1.67.45,3.33.94,4.97,1.47,1.64.53,3.27,1.11,4.89,1.73,1.61.62,3.21,1.28,4.79,1.98,1.58.7,3.14,1.45,4.68,2.23,1.54.78,3.06,1.61,4.55,2.47,1.5.86,2.97,1.77,4.42,2.71,1.45.94,2.87,1.92,4.27,2.94,1.4,1.02,2.77,2.07,4.11,3.15,1.34,1.09,2.66,2.21,3.94,3.37,1.28,1.16,2.54,2.35,3.76,3.57,1.22,1.22,2.41,2.48,3.57,3.76,1.16,1.28,2.28,2.6,3.37,3.94,1.09,1.34,2.14,2.71,3.15,4.11,1.02,1.4,1.99,2.82,2.94,4.27.94,1.45,1.84,2.92,2.71,4.42.86,1.5,1.69,3.01,2.47,4.55.78,1.54,1.53,3.1,2.23,4.68.7,1.58,1.36,3.17,1.98,4.79.62,1.61,1.2,3.24,1.73,4.89.53,1.64,1.02,3.3,1.47,4.97.45,1.67.85,3.35,1.21,5.04.36,1.69.67,3.39.94,5.1.27,1.71.5,3.42.68,5.14.18,1.72.32,3.44.41,5.17.09,1.73.14,3.45.14,5.18s-.05,3.46-.14,5.18c-.09,1.73-.23,3.45-.41,5.17-.18,1.72-.41,3.43-.68,5.14-.27,1.71-.59,3.41-.94,5.1-.36,1.69-.76,3.37-1.21,5.04-.45,1.67-.94,3.33-1.47,4.97-.53,1.64-1.11,3.27-1.73,4.89-.62,1.61-1.28,3.21-1.98,4.79-.7,1.58-1.45,3.14-2.23,4.68-.78,1.54-1.61,3.06-2.47,4.55-.86,1.5-1.77,2.97-2.71,4.42-.94,1.45-1.92,2.87-2.94,4.27-1.02,1.4-2.07,2.77-3.15,4.11-1.09,1.34-2.21,2.66-3.37,3.94-1.16,1.28-2.35,2.54-3.57,3.76s-2.48,2.41-3.76,3.57c-1.28,1.16-2.6,2.28-3.94,3.37-1.34,1.09-2.71,2.14-4.11,3.15-1.4,1.02-2.82,1.99-4.27,2.94-1.45.94-2.92,1.84-4.42,2.71-1.5.86-3.01,1.69-4.55,2.47-1.54.78-3.1,1.53-4.68,2.23-1.58.7-3.17,1.36-4.79,1.98-1.61.62-3.24,1.2-4.89,1.73-1.64.53-3.3,1.02-4.97,1.47-1.67.45-3.35.85-5.04,1.21-1.69.36-3.39.67-5.1.94s-3.42.5-5.14.68c-1.72.18-3.44.32-5.17.41-1.73.09-3.45.14-4.32.16q-.86.02-1.73,0c-.86-.02-2.59-.07-4.32-.16"/>
  <path class="cls-3" d="m8.42,137.24c-.32-1-.59-2.02-.8-3.06-.21-1.04-.37-2.1-.48-3.18-.11-1.08-.16-2.17-.17-3.19,0-1.02.03-1.96.1-2.91.07-.95.19-1.91.34-2.88.15-.97.34-1.95.56-2.93.22-.99.48-1.98.78-2.98.3-1,.63-2.01,1-3.02.37-1.01.78-2.03,1.22-3.05.44-1.02.92-2.05,1.43-3.07.51-1.03,1.06-2.06,1.64-3.09.58-1.03,1.2-2.07,1.85-3.1.65-1.03,1.34-2.07,2.05-3.1.72-1.03,1.47-2.07,2.25-3.1.78-1.03,1.6-2.06,2.44-3.08.85-1.02,1.72-2.05,2.63-3.06.91-1.02,1.84-2.03,2.81-3.03.97-1.01,1.96-2.01,2.98-3,1.02-.99,2.07-1.98,3.15-2.96,1.08-.98,2.18-1.95,3.31-2.91,1.13-.96,2.28-1.91,3.46-2.85,1.18-.94,2.38-1.87,3.6-2.79,1.22-.92,2.47-1.82,3.73-2.72s2.55-1.77,3.86-2.64c1.31-.87,2.63-1.72,3.97-2.56,1.34-.84,2.7-1.66,4.08-2.47,1.38-.81,2.77-1.6,4.17-2.37,1.41-.77,2.83-1.53,4.26-2.27,1.43-.74,2.88-1.46,4.34-2.17,1.46-.7,2.92-1.39,4.4-2.06,1.48-.67,2.96-1.31,4.45-1.94,1.49-.63,2.99-1.23,4.5-1.82,1.51-.59,3.02-1.15,4.53-1.69,1.51-.54,3.03-1.06,4.55-1.56m33.51,149.97c.21-.11.42-.24.62-.39.2-.15.39-.32.58-.51.19-.19.37-.4.62-.79.25-.38.57-.93.86-1.56.29-.63.56-1.34.79-2.13.24-.79.44-1.66.62-2.6.18-.94.33-1.96.45-3.06s.21-2.26.27-3.5c.06-1.24.09-2.55.08-4.19s-.07-3.62-.18-5.71c-.11-2.09-.27-4.29-.49-6.6-.22-2.31-.49-4.71-.81-7.21-.32-2.5-.69-5.09-1.12-7.76-.42-2.67-.9-5.41-1.42-8.22-.52-2.81-1.09-5.69-1.71-8.61-.61-2.93-1.27-5.9-1.98-8.92-.7-3.01-1.45-6.07-2.23-9.14-.78-3.07-1.6-6.17-2.46-9.27-.86-3.1-1.75-6.21-2.67-9.31-.92-3.1-1.87-6.2-2.85-9.27-.98-3.07-1.98-6.12-3-9.13-1.02-3.01-2.07-5.98-3.12-8.91-1.06-2.92-2.13-5.79-3.22-8.6-1.09-2.8-2.18-5.54-3.28-8.2m86.18,6.78c-.35-.65-.73-1.3-1.14-1.93-.41-.63-.84-1.25-1.29-1.85s-.94-1.19-1.44-1.77c-.51-.58-1.04-1.14-1.59-1.69-.56-.55-1.14-1.08-1.74-1.6-.6-.52-1.23-1.02-1.88-1.51-.65-.49-1.33-.96-2.02-1.42-.7-.46-1.42-.9-2.16-1.33-.74-.43-1.51-.84-2.29-1.23-.79-.39-1.59-.77-2.42-1.13-.83-.36-1.68-.7-2.55-1.03-.87-.33-1.76-.64-2.67-.93-.91-.29-1.84-.57-2.78-.82-.95-.26-1.91-.5-2.89-.72-.98-.22-1.98-.43-3-.61-1.02-.19-2.05-.35-3.1-.5-1.05-.15-2.11-.28-3.19-.4-1.08-.11-2.17-.21-3.28-.29-1.11-.08-2.23-.14-3.37-.18-1.14-.04-2.28-.06-3.44-.07-1.16,0-2.33,0-3.52.04-1.18.03-2.38.08-3.58.15s-2.42.16-3.64.26c-1.22.11-2.45.23-3.69.37-1.24.14-2.49.3-3.74.48-1.25.18-2.51.37-3.78.59-1.27.21-2.54.45-4.46.85-1.92.4-4.49.97-7.07,1.61M72.91,4.98c.42,0,.85.07,1.31.2.45.13.92.32,1.4.56.48.25.98.56,1.5.92.51.37,1.04.79,1.59,1.28s1.1,1.03,1.67,1.63c.57.6,1.15,1.26,1.74,1.98.59.72,1.2,1.49,1.81,2.31.61.83,1.24,1.71,1.87,2.64s1.28,1.92,1.93,2.96c.65,1.04,1.31,2.13,1.97,3.27.66,1.14,1.34,2.33,2.01,3.56.68,1.24,1.36,2.52,2.04,3.84.69,1.33,1.37,2.7,2.42,4.88M1.08,103.52c.06,1.18.16,2.36.28,3.53.13,1.17.28,2.35.47,3.52.19,1.17.41,2.34.66,3.5.25,1.16.53,2.32.84,3.47.31,1.15.65,2.3,1.03,3.44.37,1.14.78,2.27,1.21,3.4l2.95,6.65c.55,1.09,1.13,2.17,1.74,3.24.61,1.07,1.25,2.13,1.91,3.17s1.36,2.08,2.08,3.1c.72,1.02,1.47,2.03,2.24,3.02.77.99,1.57,1.98,2.4,2.94s1.68,1.92,2.55,2.85c.88.94,1.78,1.86,2.7,2.76.93.9,1.88,1.79,2.85,2.66.97.87,1.97,1.72,2.99,2.56,1.02.83,2.06,1.65,3.12,2.45,1.06.8,2.14,1.57,3.25,2.33,1.1.76,2.23,1.5,3.37,2.21,1.14.72,2.3,1.42,3.48,2.09,1.18.68,2.38,1.33,3.59,1.97,1.21.63,2.45,1.25,3.69,1.84,1.25.59,2.51,1.16,3.79,1.7,1.28.54,2.57,1.07,3.87,1.56,1.3.5,2.62.97,3.95,1.42,1.33.45,2.67.88,4.03,1.28,1.35.4,2.72.78,4.09,1.14,1.37.35,2.76.68,4.15.99,1.39.31,2.79.59,4.2.84,1.41.26,2.82.49,4.24.69,1.42.2,2.84.38,4.27.54,1.43.15,2.86.28,4.29.39,1.43.1,2.87.18,4.31.23,1.44.05,2.88.08,4.32.08s2.88-.03,4.32-.08c1.44-.05,2.88-.13,4.31-.23,1.43-.1,2.87-.23,4.29-.39,1.43-.15,2.85-.33,4.27-.54,1.42-.2,2.83-.43,4.24-.69,1.41-.26,2.8-.54,4.2-.84,1.39-.31,2.77-.64,4.15-.99,1.37-.35,2.74-.73,4.09-1.14,1.35-.4,2.7-.83,4.03-1.28,1.33-.45,2.65-.93,3.95-1.42,1.3-.5,2.6-1.02,3.87-1.56,1.28-.54,2.54-1.11,3.79-1.7,1.25-.59,2.48-1.2,3.69-1.84,1.21-.63,2.41-1.29,3.59-1.97,1.18-.68,2.34-1.37,3.48-2.09,1.14-.72,2.27-1.46,3.37-2.21,1.1-.76,2.19-1.54,3.25-2.33,1.06-.8,2.1-1.61,3.12-2.45,1.02-.83,2.01-1.69,2.99-2.56.97-.87,1.92-1.76,2.85-2.66s1.83-1.82,2.7-2.76c.88-.94,1.73-1.89,2.55-2.85.83-.97,1.63-1.95,2.4-2.94.77-.99,1.52-2,2.24-3.02.72-1.02,1.41-2.06,2.08-3.1.66-1.05,1.3-2.1,1.91-3.17.61-1.07,1.19-2.15,1.74-3.24s1.07-2.19,1.57-3.3.96-2.23,1.39-3.35c.43-1.12.84-2.26,1.21-3.4.37-1.14.71-2.29,1.03-3.44.31-1.15.59-2.31.84-3.47.25-1.16.47-2.33.66-3.5.19-1.17.34-2.34.47-3.52.13-1.17.22-2.35.28-3.53.06-1.18.09-2.36.11-2.95M18.19,155.71c-.27-.45-.53-.9-.78-1.37-.25-.47-.48-.94-.7-1.43-.22-.48-.42-.98-.68-1.74-.26-.77-.58-1.81-.85-2.88-.26-1.07-.47-2.18-.62-3.31-.15-1.14-.24-2.3-.27-3.5-.03-1.19,0-2.42.08-3.67.09-1.25.23-2.52.43-3.82.2-1.3.46-2.62.7-3.68.23-1.06.44-1.87.68-2.69.23-.82.48-1.64.75-2.47.27-.83.56-1.66.87-2.5.31-.84.64-1.69,1.2-2.97s1.34-3,2.19-4.73,1.79-3.48,2.8-5.24,2.09-3.52,3.24-5.3c1.15-1.77,2.37-3.55,3.66-5.32,1.29-1.77,2.65-3.55,4.07-5.32,1.42-1.77,2.9-3.53,4.45-5.28,1.54-1.75,3.14-3.49,4.8-5.21,1.66-1.72,3.36-3.43,5.12-5.12,1.76-1.69,3.57-3.35,5.42-4.99,1.85-1.64,3.75-3.25,5.68-4.83,1.93-1.58,3.91-3.13,5.91-4.65,2.01-1.52,4.04-3,6.11-4.44,2.07-1.44,4.16-2.84,6.27-4.2m-49,114.57c-.36-.41-.69-.84-1.02-1.28s-.63-.9-.92-1.38-.56-.96-.82-1.47-.49-1.03-.71-1.56c-.22-.54-.42-1.09-.61-1.65s-.36-1.14-.51-1.74-.29-1.2-.4-1.82c-.12-.62-.22-1.26-.3-1.9s-.15-1.31-.19-1.98c-.05-.67-.08-1.36-.09-2.06-.01-.7,0-1.41.02-2.13.02-.72.07-1.46.12-2.2.06-.75.14-1.5.3-2.67.17-1.17.43-2.75.76-4.38.33-1.64.74-3.33,1.22-5.06.48-1.73,1.03-3.49,1.65-5.29.62-1.79,1.31-3.62,2.07-5.47.76-1.85,1.58-3.72,2.47-5.62.89-1.89,1.85-3.81,2.87-5.73,1.02-1.93,2.1-3.87,3.24-5.82,1.14-1.95,2.34-3.91,3.6-5.87,1.26-1.96,2.57-3.92,3.93-5.88,1.36-1.96,2.78-3.91,4.24-5.86,1.46-1.95,2.98-3.88,4.53-5.81,1.56-1.92,3.15-3.83,4.79-5.72,1.64-1.89,3.32-3.76,5.03-5.6,1.71-1.84,3.46-3.66,5.23-5.45,1.77-1.79,3.58-3.54,5.4-5.26,1.83-1.72,3.68-3.4,5.55-5.05m-38.47,122.69c-.39-.33-.75-.69-1.11-1.07s-.69-.78-1-1.21c-.32-.43-.62-.88-.9-1.35-.28-.47-.55-.97-.8-1.48-.25-.52-.48-1.05-.69-1.61-.21-.56-.41-1.14-.58-1.74-.18-.6-.33-1.22-.47-1.87s-.26-1.31-.37-1.99c-.1-.68-.19-1.38-.26-2.11-.07-.72-.12-1.46-.15-2.22-.03-.76-.04-1.54-.03-2.33,0-.8.03-1.61.08-2.44s.11-1.68.25-3c.15-1.32.38-3.11.67-4.88.29-1.77.63-3.52,1.03-5.31.4-1.79.86-3.63,1.38-5.5.52-1.88,1.1-3.79,1.73-5.74.64-1.95,1.33-3.93,2.08-5.94.75-2.01,1.55-4.05,2.4-6.11.85-2.06,1.76-4.14,2.72-6.24.96-2.1,1.96-4.21,3.02-6.34,1.05-2.13,2.15-4.26,3.3-6.4,1.14-2.14,2.33-4.28,3.56-6.42,1.23-2.14,2.5-4.28,3.8-6.41,1.31-2.13,2.65-4.25,4.02-6.35,1.37-2.1,2.78-4.19,4.22-6.26,1.44-2.07,2.9-4.12,4.39-6.14,1.49-2.02,3-4.01,4.53-5.97,1.53-1.96,3.09-3.89,4.65-5.78m-27.65,128.41c-.36-.24-.7-.51-1.02-.82-.33-.3-.64-.63-.93-.99-.3-.36-.58-.75-.84-1.17-.27-.42-.51-.87-.75-1.34-.23-.48-.45-.98-.65-1.51-.2-.53-.39-1.09-.56-1.68-.17-.59-.32-1.2-.46-1.85-.14-.64-.26-1.31-.36-2.01-.1-.7-.19-1.42-.26-2.16-.07-.75-.12-1.52-.16-2.32-.04-.8-.06-1.62-.04-2.92.02-1.3.08-3.09.2-4.96.13-1.87.32-3.83.55-5.71.23-1.88.49-3.67.81-5.51.31-1.84.67-3.74,1.08-5.68.4-1.94.85-3.93,1.35-5.96.49-2.03,1.03-4.1,1.61-6.21.58-2.11,1.21-4.25,1.87-6.42.66-2.17,1.37-4.37,2.12-6.59s1.53-4.46,2.35-6.72c.82-2.26,1.68-4.53,2.57-6.82.89-2.28,1.81-4.58,2.77-6.87.96-2.3,1.94-4.6,2.96-6.89,1.02-2.29,2.06-4.59,3.13-6.86,1.07-2.28,2.16-4.55,3.28-6.8,1.12-2.25,2.26-4.49,3.41-6.7,1.16-2.21,2.33-4.4,3.53-6.55,1.19-2.16,2.4-4.28,3.62-6.37m-16.85,132.04c-.27-.16-.53-.35-.78-.58-.25-.23-.49-.49-.72-.79-.23-.3-.44-.63-.65-1-.2-.37-.4-.77-.58-1.2-.18-.44-.35-.9-.51-1.41-.16-.5-.3-1.04-.43-1.61s-.25-1.17-.4-2.17c-.14-1-.31-2.39-.43-3.91-.12-1.52-.18-3.15-.2-4.91-.02-1.75.02-3.62.1-5.59.09-1.97.22-4.05.38-6.01.16-1.95.34-3.77.55-5.65.21-1.88.46-3.82.74-5.81.28-1.99.58-4.03.92-6.12.34-2.09.71-4.23,1.1-6.4.4-2.18.82-4.39,1.28-6.64.45-2.25.94-4.53,1.45-6.84.51-2.31,1.05-4.65,1.61-7.01.56-2.36,1.15-4.74,1.76-7.13.61-2.39,1.24-4.8,1.89-7.21.65-2.41,1.33-4.83,2.02-7.25.69-2.42,1.41-4.83,2.14-7.24s1.48-4.81,2.24-7.2c.76-2.39,1.54-4.76,2.34-7.11.79-2.35,1.6-4.68,2.41-6.98.82-2.3,1.64-4.57,2.48-6.81m-6.21,133.85c-.15-.1-.29-.24-.42-.42s-.26-.39-.39-.65-.24-.55-.4-1.1-.35-1.36-.52-2.32c-.17-.96-.32-2.06-.43-3.31-.12-1.25-.21-2.63-.28-4.16-.07-1.52-.1-3.18-.11-4.97-.01-1.79,0-3.7.05-5.73.04-2.03.11-4.18.26-7.16.14-2.98.36-6.79.64-10.82.28-4.03.62-8.28,1.03-12.71.4-4.43.86-9.02,1.38-13.74.52-4.72,1.09-9.56,1.7-14.46.62-4.9,1.28-9.87,1.98-14.84.7-4.97,1.45-9.95,2.22-14.87.77-4.92,1.58-9.79,2.4-14.56m5.51,117.17v-101.9m14.61,110.52c.15-.1.29-.24.42-.42s.26-.39.39-.65.24-.55.4-1.1.35-1.36.52-2.32c.17-.96.32-2.06.43-3.31.12-1.25.21-2.63.28-4.16.07-1.52.1-3.18.11-4.97.01-1.79,0-3.7-.05-5.73-.04-2.03-.11-4.18-.26-7.16-.14-2.98-.36-6.79-.64-10.82-.28-4.03-.62-8.28-1.03-12.71-.4-4.43-.86-9.02-1.38-13.74-.52-4.72-1.09-9.56-1.7-14.46-.62-4.9-1.28-9.87-1.98-14.84-.7-4.97-1.45-9.95-2.22-14.87s-1.58-9.79-2.4-14.56m37.93,116.86c.36-.24.7-.51,1.02-.82.33-.3.64-.63.93-.99.3-.36.58-.75.84-1.17.27-.42.51-.87.75-1.34.23-.48.45-.98.65-1.51.2-.53.39-1.09.56-1.68.17-.59.32-1.2.46-1.85.14-.64.26-1.31.36-2.01.1-.7.19-1.42.26-2.16.07-.75.12-1.52.16-2.32.04-.8.06-1.62.04-2.92-.02-1.3-.08-3.09-.2-4.96-.13-1.87-.32-3.83-.55-5.71-.23-1.88-.49-3.67-.81-5.51-.31-1.84-.67-3.74-1.08-5.68-.4-1.94-.85-3.93-1.35-5.96-.49-2.03-1.03-4.1-1.61-6.21-.58-2.11-1.21-4.25-1.87-6.42-.66-2.17-1.37-4.37-2.12-6.59s-1.53-4.46-2.35-6.72-1.68-4.53-2.57-6.82c-.89-2.28-1.81-4.58-2.77-6.87-.96-2.3-1.94-4.6-2.96-6.89-1.02-2.29-2.06-4.59-3.13-6.86-1.07-2.28-2.16-4.55-3.28-6.8s-2.26-4.49-3.41-6.7c-1.16-2.21-2.33-4.4-3.53-6.55-1.19-2.16-2.4-4.28-3.62-6.37m45,118.2c.39-.33.75-.69,1.11-1.07.35-.38.69-.78,1-1.21s.62-.88.9-1.35c.28-.47.55-.97.8-1.48.25-.52.48-1.05.69-1.61.21-.56.41-1.14.58-1.74.18-.6.33-1.22.47-1.87.14-.64.26-1.31.36-1.99.1-.68.19-1.38.26-2.11.07-.72.12-1.46.15-2.22.03-.76.04-1.54.03-2.33,0-.8-.03-1.61-.08-2.44-.04-.83-.11-1.68-.25-3-.15-1.32-.38-3.11-.67-4.88-.29-1.77-.63-3.52-1.03-5.31-.4-1.79-.86-3.63-1.38-5.5s-1.1-3.79-1.73-5.74c-.64-1.95-1.33-3.93-2.08-5.94-.75-2.01-1.55-4.05-2.4-6.11-.85-2.06-1.76-4.14-2.72-6.24-.96-2.1-1.96-4.21-3.02-6.34-1.05-2.13-2.15-4.26-3.3-6.4-1.14-2.14-2.33-4.28-3.56-6.42-1.23-2.14-2.5-4.28-3.8-6.41-1.31-2.13-2.65-4.25-4.02-6.35-1.37-2.1-2.78-4.19-4.22-6.26-1.44-2.07-2.9-4.12-4.39-6.14-1.49-2.02-3-4.01-4.53-5.97-1.53-1.96-3.09-3.89-4.65-5.78m54.49,109.22c.36-.41.69-.84,1.02-1.28.32-.44.63-.9.92-1.38.29-.47.56-.96.82-1.47.26-.51.49-1.03.71-1.56.22-.54.42-1.09.61-1.65.19-.56.36-1.14.51-1.74s.29-1.2.4-1.82c.12-.62.22-1.26.3-1.9.08-.65.15-1.31.19-1.98.05-.67.08-1.36.09-2.06.01-.7,0-1.41-.02-2.13s-.07-1.46-.12-2.2c-.06-.75-.14-1.5-.3-2.67-.17-1.17-.43-2.75-.76-4.38-.33-1.64-.74-3.33-1.22-5.06-.48-1.73-1.03-3.49-1.65-5.29-.62-1.79-1.31-3.62-2.07-5.47-.76-1.85-1.58-3.72-2.47-5.62-.89-1.89-1.85-3.81-2.87-5.73-1.02-1.93-2.1-3.87-3.24-5.82-1.14-1.95-2.34-3.91-3.6-5.87-1.26-1.96-2.57-3.92-3.93-5.88-1.36-1.96-2.78-3.91-4.24-5.86-1.46-1.95-2.98-3.88-4.53-5.81-1.56-1.92-3.15-3.83-4.79-5.72s-3.32-3.76-5.03-5.6c-1.71-1.84-3.46-3.66-5.23-5.45-1.77-1.79-3.58-3.54-5.4-5.26-1.83-1.72-3.68-3.4-5.55-5.05m62.98,97.76c.27-.45.53-.9.78-1.37.25-.47.48-.94.7-1.43.22-.48.42-.98.68-1.74.26-.77.58-1.81.85-2.88.26-1.07.47-2.18.62-3.31.15-1.14.24-2.3.27-3.5.03-1.19,0-2.42-.08-3.67s-.23-2.52-.43-3.82c-.2-1.3-.46-2.62-.7-3.68s-.44-1.87-.68-2.69c-.23-.82-.48-1.64-.75-2.47-.27-.83-.56-1.66-.87-2.5-.31-.84-.64-1.69-1.2-2.97s-1.34-3-2.19-4.73c-.86-1.73-1.79-3.48-2.8-5.24-1.01-1.76-2.09-3.52-3.24-5.3-1.15-1.77-2.37-3.55-3.66-5.32-1.29-1.77-2.65-3.55-4.07-5.32-1.42-1.77-2.9-3.53-4.45-5.28-1.54-1.75-3.14-3.49-4.8-5.21-1.66-1.72-3.36-3.43-5.12-5.12-1.76-1.69-3.57-3.35-5.42-4.99-1.85-1.64-3.75-3.25-5.68-4.83-1.93-1.58-3.91-3.13-5.91-4.65-2.01-1.52-4.04-3-6.11-4.44-2.07-1.44-4.16-2.84-6.27-4.2m70.18,82.56c.29-.87.54-1.75.75-2.65.21-.9.38-1.81.51-2.74.13-.93.22-1.87.27-2.82.05-.95.06-1.92.02-2.9-.03-.98-.11-1.97-.22-2.97-.11-1-.27-2.01-.46-3.03-.2-1.02-.43-2.05-.66-2.95-.23-.9-.46-1.68-.71-2.46-.25-.78-.52-1.57-.82-2.35-.29-.79-.61-1.58-.95-2.37-.34-.79-.7-1.59-1.08-2.39-.38-.8-.78-1.6-1.21-2.4-.42-.8-.87-1.6-1.33-2.41-.46-.8-.95-1.61-1.46-2.41-.51-.8-1.03-1.61-1.88-2.81-.85-1.2-2.02-2.81-3.27-4.41-1.25-1.6-2.58-3.19-3.98-4.77-1.4-1.58-2.87-3.15-4.41-4.71-1.54-1.56-3.15-3.1-4.82-4.62-1.67-1.52-3.41-3.02-5.21-4.5-1.8-1.48-3.65-2.93-5.56-4.35-1.91-1.42-3.87-2.82-5.88-4.18-2.01-1.36-4.07-2.69-6.17-3.98-2.1-1.29-4.24-2.55-6.42-3.76-2.18-1.22-4.39-2.39-6.63-3.52-2.24-1.13-4.51-2.22-6.8-3.26m74.08,66.89c.1-.68.18-1.37.24-2.06.06-.69.09-1.38.1-2.08s0-1.4-.03-2.1c-.03-.7-.09-1.41-.16-2.12-.08-.71-.18-1.42-.3-2.13-.12-.71-.26-1.43-.43-2.14-.16-.72-.35-1.43-.56-2.17-.21-.73-.45-1.47-.71-2.22-.26-.74-.55-1.49-.86-2.23-.31-.74-.64-1.49-.99-2.23-.35-.74-.73-1.49-1.13-2.23-.4-.74-.82-1.48-1.26-2.22-.44-.74-.91-1.48-1.4-2.21-.49-.74-1-1.47-1.53-2.2-.53-.73-1.08-1.46-1.66-2.18-.57-.72-1.17-1.44-1.78-2.16-.61-.72-1.25-1.43-1.9-2.14-.66-.71-1.33-1.41-2.03-2.11-.7-.7-1.41-1.39-2.14-2.08-.73-.69-1.49-1.37-2.26-2.05-.77-.68-1.56-1.35-2.8-2.34-1.24-.99-2.92-2.29-4.68-3.57-1.75-1.27-3.57-2.52-5.46-3.73-1.88-1.21-3.83-2.39-5.83-3.53-2-1.14-4.06-2.25-6.16-3.32-2.11-1.07-4.26-2.09-6.46-3.08-2.2-.98-4.44-1.93-6.72-2.82-2.28-.9-4.6-1.75-6.95-2.55-2.35-.8-4.73-1.56-7.13-2.26m74.72,49c-.06-.83-.16-1.65-.28-2.47-.13-.82-.28-1.64-.47-2.46-.19-.82-.41-1.64-.64-2.4-.23-.76-.47-1.47-.74-2.18-.27-.71-.56-1.41-.87-2.11-.31-.7-.65-1.4-1.01-2.09-.36-.69-.74-1.38-1.15-2.07-.41-.68-.83-1.36-1.28-2.04-.45-.67-.92-1.35-1.42-2.01-.49-.66-1.01-1.32-1.55-1.98-.54-.65-1.1-1.3-1.68-1.94-.58-.64-1.18-1.28-1.81-1.9-.62-.63-1.27-1.25-1.93-1.86-.67-.61-1.35-1.22-2.06-1.82-.71-.6-1.43-1.19-2.18-1.77-.75-.58-1.51-1.16-2.29-1.72s-1.59-1.12-2.41-1.67c-.82-.55-1.66-1.09-2.52-1.62-.86-.53-1.73-1.05-2.62-1.56-.89-.51-1.8-1.01-2.72-1.5-.92-.49-1.86-.97-3.32-1.66-1.46-.69-3.43-1.59-5.46-2.44-2.03-.85-4.12-1.66-6.26-2.43s-4.33-1.48-6.56-2.15c-2.23-.67-4.51-1.28-6.83-1.85-2.32-.57-4.67-1.08-7.05-1.55-2.38-.46-4.8-.88-7.24-1.23m71.49,31.38c-.25-.82-.49-1.49-.75-2.16-.26-.67-.55-1.33-.86-1.99-.31-.66-.64-1.3-.99-1.95-.35-.64-.73-1.28-1.13-1.9-.4-.63-.82-1.25-1.26-1.86-.44-.61-.91-1.21-1.4-1.81s-1-1.18-1.53-1.76c-.53-.58-1.08-1.14-1.66-1.7-.57-.56-1.17-1.11-1.78-1.65-.61-.54-1.25-1.07-1.9-1.59-.66-.52-1.33-1.03-2.03-1.53-.7-.5-1.41-.99-2.14-1.46-.73-.48-1.49-.94-2.26-1.4-.77-.45-1.56-.9-2.37-1.33-.81-.43-1.63-.85-2.48-1.26s-1.7-.8-2.58-1.19c-.88-.38-1.77-.76-2.68-1.12-.91-.36-1.84-.71-2.78-1.04-.94-.33-1.9-.66-2.87-.97-.97-.31-1.96-.6-3.48-1.01-1.52-.4-3.58-.92-5.68-1.38-2.11-.46-4.26-.86-6.46-1.21-2.2-.35-4.44-.64-6.72-.88-2.28-.24-4.6-.42-6.95-.54-2.35-.13-4.73-.19-7.13-.21m55.76.12c-.34-.42-.7-.83-1.07-1.24-.37-.4-.76-.79-1.16-1.17-.4-.38-.81-.75-1.24-1.1-.43-.36-.87-.7-1.33-1.04s-.92-.66-1.41-.97c-.48-.31-.98-.61-1.49-.9-.51-.29-1.03-.56-1.85-.94-.82-.38-1.94-.86-3.12-1.29-1.17-.43-2.39-.81-3.66-1.14-1.27-.33-2.58-.61-3.94-.84-1.36-.23-2.76-.41-4.2-.54-1.44-.13-2.92-.21-4.44-.24-1.52-.03-3.08,0-4.67.07s-3.22.2-4.87.38c-1.65.18-3.34.4-5.05.68-1.71.28-3.45.6-5.21.98-1.76.38-3.55.8-5.35,1.28-1.8.47-3.63,1-5.46,1.57m46.68-7.75c-.72-.53-1.47-1.01-2.27-1.45-.8-.44-1.63-.83-2.51-1.17-.87-.35-1.79-.64-2.74-.9s-1.94-.46-2.96-.61c-1.02-.16-2.08-.27-3.17-.33-1.09-.06-2.21-.08-3.37-.05-1.15.03-2.34.11-3.55.24-1.21.13-2.46.3-3.72.52s-2.56.49-3.88.81-2.66.68-4.03,1.08c-1.36.41-2.75.86-4.16,1.36-1.41.5-2.83,1.04-4.27,1.63-1.44.59-2.9,1.22-4.37,1.89-1.47.67-2.95,1.39-4.45,2.15m36.6-15.25c-.63-.3-1.28-.56-1.96-.77-.68-.21-1.39-.38-2.13-.51s-1.5-.2-2.29-.24c-.79-.04-1.6-.03-2.44.03-.84.05-1.7.15-2.59.3-.89.14-1.79.33-2.72.56s-1.88.51-2.85.83c-.97.32-1.96.69-2.97,1.09-1.01.41-2.04.86-3.08,1.35-1.04.49-2.1,1.03-3.18,1.61-1.08.58-2.17,1.2-3.27,1.86-1.1.66-2.22,1.36-3.35,2.1-1.13.74-2.27,1.52-3.42,2.34-1.15.82-2.31,1.68-3.47,2.57m26.33-20.52c-.49-.13-1.01-.22-1.54-.26-.53-.05-1.08-.05-1.65,0-.57.04-1.15.12-1.76.25-.6.12-1.22.29-1.86.5-.64.21-1.29.46-1.96.75-.67.29-1.35.63-2.05,1.01-.7.38-1.41.8-2.13,1.25-.72.46-1.46.96-2.21,1.5-.75.54-1.51,1.12-2.28,1.74s-1.56,1.28-2.35,1.98c-.79.7-1.6,1.43-2.41,2.21-.81.77-1.63,1.58-2.46,2.43-.83.85-1.67,1.73-2.51,2.65-.84.92-1.69,1.87-2.55,2.86m16.13-23.86c-.34-.01-.69.02-1.05.09-.36.07-.74.18-1.12.33-.38.15-.78.34-1.19.58-.41.23-.82.51-1.25.82-.43.31-.86.67-1.31,1.06-.45.39-.9.83-1.36,1.3-.46.47-.94.99-1.41,1.54-.48.55-.97,1.14-1.46,1.77-.5.63-1,1.29-1.77,2.4-.77,1.11-1.82,2.66-2.88,4.35-1.07,1.69-2.15,3.52-3.26,5.48m4.43-22.61c-.17.06-.35.15-.53.29-.18.14-.37.31-.57.53-.19.22-.39.47-.71.97-.31.5-.74,1.25-1.18,2.15-.44.9-.91,1.96-1.38,3.16-.48,1.2-.97,2.56-1.47,4.05-.51,1.5-1.02,3.13-1.55,4.9s-1.07,3.68-1.61,5.71M86.33,2.06c.17.06.35.15.53.29.18.14.37.31.57.53.19.22.39.47.71.97.31.5.74,1.25,1.18,2.15.44.9.91,1.96,1.38,3.16.48,1.2.97,2.56,1.47,4.05.51,1.5,1.02,3.13,1.55,4.9s1.07,3.68,1.61,5.71m-36.26-13.85c.49-.13,1.01-.22,1.54-.26.53-.05,1.08-.05,1.65,0,.57.04,1.15.12,1.76.25.6.12,1.22.29,1.86.5s1.29.46,1.96.75c.67.29,1.35.63,2.05,1.01.7.38,1.41.8,2.13,1.25.72.46,1.46.96,2.21,1.5.75.54,1.51,1.12,2.28,1.74.77.62,1.56,1.28,2.35,1.98.79.7,1.6,1.43,2.41,2.21.81.77,1.63,1.58,2.46,2.43.83.85,1.67,1.73,2.51,2.65.84.92,1.69,1.87,2.55,2.86m-43.1-11.44c.63-.3,1.28-.56,1.96-.77.68-.21,1.39-.38,2.13-.51s1.5-.2,2.29-.24c.79-.04,1.6-.03,2.44.03.84.05,1.7.15,2.59.3.89.14,1.79.33,2.72.56s1.88.51,2.85.83c.97.32,1.96.69,2.97,1.09,1.01.41,2.04.86,3.08,1.35,1.04.49,2.1,1.03,3.18,1.61,1.08.58,2.17,1.2,3.27,1.86,1.1.66,2.22,1.36,3.35,2.1,1.13.74,2.27,1.52,3.42,2.34,1.15.82,2.31,1.68,3.47,2.57m-52.55-3.05c.72-.53,1.47-1.01,2.27-1.45.8-.44,1.63-.83,2.51-1.17.87-.35,1.79-.64,2.74-.9.95-.25,1.94-.46,2.96-.61,1.02-.16,2.08-.27,3.17-.33,1.09-.06,2.21-.08,3.37-.05,1.15.03,2.34.11,3.55.24,1.21.13,2.46.3,3.72.52s2.56.49,3.88.81c1.32.32,2.66.68,4.03,1.08,1.36.41,2.75.86,4.16,1.36,1.41.5,2.83,1.04,4.27,1.63,1.44.59,2.9,1.22,4.37,1.89,1.47.67,2.95,1.39,4.45,2.15m-62.27,9.01c.34-.42.7-.83,1.07-1.24s.76-.79,1.16-1.17c.4-.38.81-.75,1.24-1.1.43-.36.87-.7,1.33-1.04s.92-.66,1.41-.97.98-.61,1.49-.9c.51-.29,1.03-.56,1.85-.94s1.94-.86,3.12-1.29c1.17-.43,2.39-.81,3.66-1.14,1.27-.33,2.58-.61,3.94-.84,1.36-.23,2.76-.41,4.2-.54,1.44-.13,2.92-.21,4.44-.24,1.52-.03,3.08,0,4.67.07s3.22.2,4.87.38c1.65.18,3.34.4,5.05.68,1.71.28,3.45.6,5.21.98,1.76.38,3.55.8,5.35,1.28,1.8.47,3.63,1,5.46,1.57M10.35,58.04c.3-.57.62-1.13.96-1.69.34-.55.7-1.1,1.08-1.63s.78-1.06,1.2-1.57c.42-.51.85-1.02,1.31-1.51.46-.49.93-.97,1.42-1.45.49-.47,1-.93,1.53-1.38s1.08-.89,1.64-1.31c.56-.43,1.15-.84,1.75-1.24.6-.4,1.22-.79,1.85-1.17.63-.38,1.28-.75,1.95-1.1s1.35-.7,2.05-1.03c.7-.33,1.41-.65,2.15-.95.73-.3,1.48-.6,2.24-.88.76-.28,1.54-.54,2.33-.8.79-.25,1.6-.49,2.85-.81,1.25-.32,2.94-.72,4.69-1.07,1.75-.35,3.54-.64,5.39-.87,1.84-.24,3.73-.42,5.67-.55,1.93-.13,3.91-.2,5.92-.21,2.01-.02,4.06.02,6.14.12,2.08.09,4.19.25,6.32.45,2.14.21,4.3.47,6.48.78M3.93,76.39c.25-.82.49-1.49.75-2.16.26-.67.55-1.33.86-1.99.31-.66.64-1.3.99-1.95.35-.64.73-1.28,1.13-1.9s.82-1.25,1.26-1.86c.44-.61.91-1.21,1.4-1.81.49-.59,1-1.18,1.53-1.76.53-.58,1.08-1.14,1.66-1.7.57-.56,1.17-1.11,1.78-1.65.61-.54,1.25-1.07,1.9-1.59.66-.52,1.33-1.03,2.03-1.53.69-.5,1.41-.99,2.14-1.46.73-.48,1.49-.94,2.26-1.4.77-.45,1.56-.9,2.37-1.33.81-.43,1.63-.85,2.48-1.26.84-.41,1.7-.8,2.58-1.19.88-.38,1.77-.76,2.68-1.12.91-.36,1.84-.71,2.78-1.04.94-.33,1.9-.66,2.87-.97s1.96-.6,3.48-1.01,3.58-.92,5.68-1.38c2.11-.46,4.26-.86,6.46-1.21,2.2-.35,4.44-.64,6.72-.88,2.28-.24,4.6-.42,6.95-.54,2.35-.13,4.73-.19,7.13-.21M1.08,97.51c.06-.83.16-1.65.28-2.47.13-.82.28-1.64.47-2.46.19-.82.41-1.64.64-2.4.23-.76.47-1.47.74-2.18.27-.71.56-1.41.87-2.11.31-.7.65-1.4,1.01-2.09.36-.69.74-1.38,1.15-2.07.41-.68.83-1.36,1.28-2.04.45-.67.92-1.35,1.42-2.01.49-.66,1.01-1.32,1.55-1.98.54-.65,1.1-1.3,1.68-1.94.58-.64,1.18-1.28,1.81-1.9.62-.63,1.27-1.25,1.93-1.86.67-.61,1.35-1.22,2.06-1.82.71-.6,1.43-1.19,2.18-1.77.75-.58,1.51-1.16,2.29-1.72.78-.57,1.59-1.12,2.41-1.67.82-.55,1.66-1.09,2.52-1.62.86-.53,1.73-1.05,2.62-1.56.89-.51,1.8-1.01,2.72-1.5.92-.49,1.86-.97,3.32-1.66s3.43-1.59,5.46-2.44c2.03-.85,4.12-1.66,6.26-2.43,2.14-.76,4.33-1.48,6.56-2.15,2.23-.67,4.51-1.28,6.83-1.85,2.32-.57,4.67-1.08,7.05-1.55,2.38-.46,4.8-.88,7.24-1.23M2.83,118.79c-.1-.68-.18-1.37-.24-2.06-.06-.69-.09-1.38-.1-2.08-.01-.7,0-1.4.03-2.1.03-.7.09-1.41.16-2.12.08-.71.18-1.42.3-2.13.12-.71.26-1.43.43-2.14.16-.72.35-1.43.56-2.17.21-.73.45-1.47.71-2.22.26-.74.55-1.49.86-2.23.31-.74.64-1.49.99-2.23.35-.74.73-1.49,1.13-2.23s.82-1.48,1.26-2.22c.44-.74.91-1.48,1.4-2.21.49-.74,1-1.47,1.53-2.2.53-.73,1.08-1.46,1.66-2.18.57-.72,1.17-1.44,1.78-2.16.61-.72,1.25-1.43,1.9-2.14.66-.71,1.33-1.41,2.03-2.11.69-.7,1.41-1.39,2.14-2.08.73-.69,1.49-1.37,2.26-2.05.77-.68,1.56-1.35,2.8-2.34,1.24-.99,2.92-2.29,4.68-3.57,1.75-1.27,3.57-2.52,5.46-3.73,1.88-1.21,3.83-2.39,5.83-3.53,2-1.14,4.06-2.25,6.16-3.32,2.11-1.07,4.26-2.09,6.46-3.08,2.2-.98,4.44-1.93,6.72-2.82,2.28-.9,4.6-1.75,6.95-2.55s4.73-1.56,7.13-2.26m-21.76,139.17c.94.48,2,1.01,3.08,1.52s2.17,1,3.28,1.47c1.11.47,2.22.92,3.35,1.36,1.13.43,2.27.84,3.42,1.23,1.15.39,2.31.76,3.49,1.11,1.17.35,2.35.68,3.54.98,1.19.31,2.39.59,3.59.86,1.2.26,2.42.51,3.63.73,1.22.22,2.44.42,3.67.6,1.23.18,2.46.33,3.7.47,1.24.13,2.48.24,3.72.33,1.24.09,2.49.16,3.73.2s2.49.07,3.74.07,2.49-.02,3.74-.07,2.49-.11,3.73-.2c1.24-.09,2.48-.2,3.72-.33,1.24-.13,2.47-.29,3.7-.47,1.23-.18,2.45-.38,3.67-.6,1.22-.22,2.43-.46,3.63-.73,1.2-.26,2.4-.55,3.59-.86,1.19-.31,2.37-.64,3.54-.98,1.17-.35,2.33-.72,3.49-1.11,1.15-.39,2.29-.8,3.42-1.23,1.13-.43,2.25-.88,3.35-1.36,1.11-.47,2.2-.96,3.28-1.47,1.08-.51,2.15-1.04,3.08-1.52m-124.23-27.07c.54.68,1.3,1.6,2.07,2.51s1.58,1.8,2.4,2.68c.82.88,1.67,1.74,2.54,2.59.87.85,1.76,1.68,2.68,2.5.91.82,1.85,1.62,2.81,2.4.96.78,1.93,1.55,2.93,2.3,1,.75,2.02,1.48,3.05,2.19,1.04.71,2.09,1.41,3.17,2.08,1.07.67,2.16,1.33,3.27,1.97,1.11.64,2.23,1.25,3.37,1.85,1.14.6,2.3,1.17,3.47,1.72,1.17.55,2.36,1.09,3.56,1.6,1.2.51,2.41,1,3.64,1.47,1.23.47,2.47.91,3.72,1.34,1.25.42,2.51.83,3.78,1.21,1.27.38,2.55.74,3.84,1.07s2.59.64,3.9.93c1.31.29,2.62.55,3.94.79,1.32.24,2.65.46,3.98.65,1.33.19,2.67.36,4.01.51,1.34.14,2.69.27,4.03.36,1.35.1,2.7.17,4.05.22,1.35.05,2.7.07,4.06.07s2.71-.02,4.06-.07c1.35-.05,2.7-.12,4.05-.22,1.35-.1,2.69-.22,4.03-.36,1.34-.14,2.68-.31,4.01-.51,1.33-.19,2.66-.41,3.98-.65,1.32-.24,2.64-.5,3.94-.79,1.31-.29,2.61-.6,3.9-.93s2.57-.69,3.84-1.07c1.27-.38,2.53-.78,3.78-1.21,1.25-.42,2.49-.87,3.72-1.34,1.23-.47,2.44-.96,3.64-1.47,1.2-.51,2.39-1.05,3.56-1.6,1.17-.55,2.33-1.13,3.47-1.72,1.14-.6,2.27-1.21,3.37-1.85,1.11-.64,2.2-1.29,3.27-1.97,1.07-.67,2.13-1.37,3.17-2.08,1.04-.71,2.05-1.44,3.05-2.19,1-.75,1.98-1.52,2.93-2.3.96-.78,1.89-1.58,2.81-2.4.91-.82,1.81-1.65,2.68-2.5.87-.85,1.72-1.71,2.54-2.59.82-.88,1.62-1.77,2.4-2.68.78-.91,1.53-1.83,2.07-2.51M9.91,140.41c.54,1.07,1.11,2.14,1.71,3.19.6,1.05,1.23,2.09,1.88,3.13.65,1.03,1.34,2.05,2.05,3.05.71,1.01,1.44,2,2.21,2.98s1.55,1.95,2.36,2.9c.81.95,1.65,1.89,2.52,2.81.86.92,1.75,1.83,2.66,2.72.91.89,1.85,1.76,2.8,2.62.96.86,1.94,1.7,2.94,2.52s2.03,1.62,3.07,2.41c1.05.78,2.11,1.55,3.2,2.3s2.19,1.47,3.32,2.18c1.12.71,2.27,1.39,3.43,2.06,1.16.67,2.34,1.31,3.54,1.94s2.41,1.23,3.64,1.81c1.23.58,2.47,1.14,3.73,1.68,1.26.54,2.53,1.05,3.82,1.54,1.29.49,2.58.96,3.89,1.4,1.31.44,2.63.87,3.96,1.26,1.33.4,2.68.77,4.03,1.12,1.35.35,2.71.67,4.08.98,1.37.3,2.75.58,4.13.83,1.38.25,2.78.48,4.17.68,1.4.2,2.8.38,4.2.53,1.41.15,2.82.28,4.23.38,1.41.1,2.83.18,4.24.23,1.42.05,2.83.08,4.25.08s2.84-.03,4.25-.08c1.42-.05,2.83-.13,4.24-.23,1.41-.1,2.82-.23,4.23-.38,1.41-.15,2.81-.33,4.2-.53,1.4-.2,2.79-.43,4.17-.68,1.38-.25,2.76-.53,4.13-.83,1.37-.3,2.73-.63,4.08-.98,1.35-.35,2.7-.72,4.03-1.12,1.33-.4,2.65-.82,3.96-1.26,1.31-.44,2.61-.91,3.89-1.4,1.29-.49,2.56-1,3.82-1.54,1.26-.54,2.5-1.1,3.73-1.68,1.23-.58,2.44-1.18,3.64-1.81s2.38-1.27,3.54-1.94c1.16-.67,2.31-1.35,3.43-2.06s2.23-1.43,3.32-2.18c1.09-.75,2.15-1.51,3.2-2.3,1.05-.78,2.07-1.59,3.07-2.41,1-.82,1.98-1.66,2.94-2.52.96-.86,1.89-1.73,2.8-2.62.91-.89,1.8-1.8,2.66-2.72.86-.92,1.7-1.86,2.52-2.81.81-.95,1.6-1.92,2.36-2.9.76-.98,1.5-1.97,2.21-2.98.71-1.01,1.39-2.02,2.05-3.05s1.28-2.07,1.88-3.13c.6-1.05,1.17-2.12,1.71-3.19.54-1.07,1.06-2.16,1.54-3.25s.94-2.19,1.37-3.3c.43-1.11.82-2.22,1.05-2.87m-188.07,0c.23.65.63,1.77,1.05,2.87m-2.23-60.94c-.28,1.04-.55,2.18-.8,3.32-.25,1.14-.46,2.29-.65,3.44-.19,1.15-.34,2.31-.46,3.46-.12,1.16-.22,2.32-.28,3.48-.06,1.16-.09,2.32-.09,3.48s.03,2.32.09,3.48c.06,1.16.15,2.32.28,3.48.12,1.16.28,2.31.46,3.46.19,1.15.4,2.3.65,3.44.25,1.14.52,2.28.83,3.42.31,1.13.64,2.26,1.01,3.38.37,1.12.76,2.24,1.19,3.35l2.91,6.55c.54,1.07,1.11,2.14,1.71,3.19.6,1.05,1.23,2.09,1.88,3.13.65,1.03,1.34,2.05,2.05,3.05.71,1.01,1.44,2,2.21,2.98.76.98,1.55,1.95,2.36,2.9.81.95,1.65,1.89,2.52,2.81.86.92,1.75,1.83,2.66,2.72.91.89,1.85,1.76,2.8,2.62.96.86,1.94,1.7,2.94,2.52,1,.82,2.03,1.62,3.07,2.41,1.05.78,2.11,1.55,3.2,2.3,1.09.75,2.19,1.47,3.32,2.18,1.12.71,2.27,1.39,3.43,2.06,1.16.67,2.34,1.31,3.54,1.94,1.2.62,2.41,1.23,3.64,1.81,1.23.58,2.47,1.14,3.73,1.68,1.26.54,2.53,1.05,3.82,1.54,1.29.49,2.58.96,3.89,1.4s2.63.87,3.96,1.26c1.33.4,2.68.77,4.03,1.12,1.35.35,2.71.67,4.08.98,1.37.3,2.75.58,4.13.83,1.38.25,2.78.48,4.17.68,1.4.2,2.8.38,4.2.53,1.41.15,2.82.28,4.23.38,1.41.1,2.83.18,4.24.23,1.42.05,2.83.08,4.25.08s2.84-.03,4.25-.08c1.42-.05,2.83-.13,4.24-.23,1.41-.1,2.82-.23,4.23-.38,1.41-.15,2.81-.33,4.2-.53,1.4-.2,2.79-.43,4.17-.68,1.38-.25,2.76-.53,4.13-.83,1.37-.3,2.73-.63,4.08-.98,1.35-.35,2.7-.72,4.03-1.12s2.65-.82,3.96-1.26,2.61-.91,3.89-1.4c1.29-.49,2.56-1,3.82-1.54,1.26-.54,2.5-1.1,3.73-1.68,1.23-.58,2.44-1.18,3.64-1.81,1.2-.62,2.38-1.27,3.54-1.94,1.16-.67,2.31-1.35,3.43-2.06s2.23-1.43,3.32-2.18c1.09-.75,2.15-1.51,3.2-2.3,1.05-.78,2.07-1.59,3.07-2.41,1-.82,1.98-1.66,2.94-2.52.96-.86,1.89-1.73,2.8-2.62.91-.89,1.8-1.8,2.66-2.72.86-.92,1.7-1.86,2.52-2.81.81-.95,1.6-1.92,2.36-2.9.76-.98,1.5-1.97,2.21-2.98.71-1.01,1.39-2.02,2.05-3.05s1.28-2.07,1.88-3.13c.6-1.05,1.17-2.12,1.71-3.19.54-1.07,1.06-2.16,1.54-3.25s.94-2.19,1.37-3.3c.43-1.11.82-2.22,1.19-3.35.37-1.12.7-2.25,1.01-3.38.31-1.13.58-2.27.83-3.42.25-1.14.46-2.29.65-3.44.19-1.15.34-2.31.46-3.46.12-1.16.22-2.32.28-3.48.06-1.16.09-2.32.09-3.48s-.03-2.32-.09-3.48c-.06-1.16-.15-2.32-.28-3.48-.12-1.16-.28-2.31-.46-3.46-.19-1.15-.4-2.3-.65-3.44-.25-1.14-.52-2.28-.8-3.32M19.25,42.68c-.51.74-1.16,1.71-1.78,2.69-.62.98-1.22,1.98-1.8,2.98-.57,1-1.12,2.02-1.63,3.04-.52,1.02-1.01,2.06-1.47,3.1s-.9,2.09-1.3,3.15c-.41,1.06-.79,2.12-1.14,3.19-.35,1.07-.67,2.15-.96,3.23-.29,1.08-.56,2.17-.79,3.26-.23,1.09-.44,2.19-.62,3.29s-.32,2.2-.44,3.31c-.12,1.1-.21,2.21-.27,3.32-.06,1.11-.09,2.22-.09,3.32s.03,2.22.09,3.32c.06,1.11.15,2.21.27,3.32.12,1.1.27,2.21.44,3.31.18,1.1.38,2.19.62,3.29.23,1.09.5,2.18.79,3.26.29,1.08.61,2.16.96,3.23.35,1.07.73,2.13,1.14,3.19l2.78,6.25c.52,1.02,1.06,2.04,1.63,3.04.57,1,1.17,2,1.8,2.98.62.98,1.28,1.96,1.95,2.91.68.96,1.38,1.91,2.11,2.84.73.93,1.48,1.86,2.25,2.76s1.58,1.8,2.4,2.68c.82.88,1.67,1.74,2.54,2.59.87.85,1.76,1.68,2.68,2.5.91.82,1.85,1.62,2.81,2.4.96.78,1.93,1.55,2.93,2.3,1,.75,2.02,1.48,3.05,2.19,1.04.71,2.09,1.41,3.17,2.08,1.07.67,2.16,1.33,3.27,1.97,1.11.64,2.23,1.25,3.37,1.85,1.14.6,2.3,1.17,3.47,1.72,1.17.55,2.36,1.09,3.56,1.6,1.2.51,2.41,1,3.64,1.47,1.23.47,2.47.91,3.72,1.34,1.25.42,2.51.83,3.78,1.21,1.27.38,2.55.74,3.84,1.07s2.59.64,3.9.93c1.31.29,2.62.55,3.94.79,1.32.24,2.65.46,3.98.65,1.33.19,2.67.36,4.01.51,1.34.14,2.69.27,4.03.36,1.35.1,2.7.17,4.05.22,1.35.05,2.7.07,4.06.07s2.71-.02,4.06-.07c1.35-.05,2.7-.12,4.05-.22,1.35-.1,2.69-.22,4.03-.36,1.34-.14,2.68-.31,4.01-.51,1.33-.19,2.66-.41,3.98-.65,1.32-.24,2.64-.5,3.94-.79,1.31-.29,2.61-.6,3.9-.93s2.57-.69,3.84-1.07c1.27-.38,2.53-.78,3.78-1.21,1.25-.42,2.49-.87,3.72-1.34,1.23-.47,2.44-.96,3.64-1.47,1.2-.51,2.39-1.05,3.56-1.6,1.17-.55,2.33-1.13,3.47-1.72,1.14-.6,2.27-1.21,3.37-1.85,1.11-.64,2.2-1.29,3.27-1.97,1.07-.67,2.13-1.37,3.17-2.08,1.04-.71,2.05-1.44,3.05-2.19,1-.75,1.98-1.52,2.93-2.3.96-.78,1.89-1.58,2.81-2.4.91-.82,1.81-1.65,2.68-2.5.87-.85,1.72-1.71,2.54-2.59.82-.88,1.62-1.77,2.4-2.68.78-.91,1.53-1.83,2.25-2.76.73-.93,1.43-1.88,2.11-2.84.68-.96,1.33-1.93,1.95-2.91.62-.98,1.22-1.98,1.8-2.98.57-1,1.12-2.02,1.63-3.04.52-1.02,1.01-2.06,1.47-3.1.46-1.04.9-2.09,1.3-3.15s.79-2.12,1.14-3.19c.35-1.07.67-2.15.96-3.23.29-1.08.56-2.17.79-3.26.23-1.09.44-2.19.62-3.29.18-1.1.32-2.2.44-3.31.12-1.1.21-2.21.27-3.32.06-1.11.09-2.22.09-3.32s-.03-2.22-.09-3.32c-.06-1.11-.15-2.21-.27-3.32s-.27-2.21-.44-3.31c-.18-1.1-.38-2.19-.62-3.29-.23-1.09-.5-2.18-.79-3.26-.29-1.08-.61-2.16-.96-3.23-.35-1.07-.73-2.13-1.14-3.19s-.84-2.11-1.3-3.15c-.46-1.04-.95-2.07-1.47-3.1-.52-1.02-1.06-2.04-1.63-3.04-.57-1-1.17-2-1.8-2.98-.62-.98-1.28-1.96-1.78-2.69M50.41,14.27c-.62.37-1.62.97-2.61,1.59-.99.62-1.96,1.26-2.92,1.92-.96.66-1.89,1.33-2.81,2.02-.92.69-1.82,1.4-2.7,2.12-.88.72-1.74,1.46-2.59,2.21s-1.66,1.52-2.47,2.3c-.8.78-1.58,1.58-2.34,2.39-.76.81-1.5,1.63-2.21,2.47-.72.84-1.41,1.69-2.08,2.55s-1.32,1.73-1.94,2.62-1.22,1.78-1.8,2.69c-.58.91-1.13,1.82-1.65,2.75-.53.93-1.03,1.86-1.51,2.8-.48.94-.93,1.9-1.36,2.86-.43.96-.83,1.93-1.2,2.9-.37.97-.72,1.96-1.05,2.94-.32.99-.62,1.98-.89,2.98-.27,1-.51,2-.73,3.01-.22,1.01-.41,2.02-.57,3.03-.16,1.01-.3,2.03-.41,3.05-.11,1.02-.19,2.04-.24,3.06-.05,1.02-.08,2.04-.08,3.06s.03,2.04.08,3.06c.05,1.02.14,2.04.24,3.06.11,1.02.24,2.03.41,3.05.16,1.01.35,2.02.57,3.03.22,1.01.46,2.01.73,3.01.27,1,.57,1.99.89,2.98.32.99.67,1.97,1.05,2.94l2.56,5.76c.48.94.98,1.88,1.51,2.8.53.93,1.08,1.84,1.65,2.75.58.91,1.18,1.8,1.8,2.69.62.88,1.27,1.76,1.94,2.62.67.86,1.36,1.71,2.08,2.55.72.84,1.45,1.66,2.21,2.47s1.54,1.61,2.34,2.39c.8.78,1.62,1.55,2.47,2.3.84.75,1.7,1.49,2.59,2.21.88.72,1.78,1.43,2.7,2.12.92.69,1.86,1.36,2.81,2.02.96.66,1.93,1.3,2.92,1.92.99.62,2,1.23,3.02,1.81,1.02.59,2.06,1.15,3.11,1.7,1.05.55,2.12,1.08,3.2,1.59,1.08.51,2.17,1,3.28,1.47,1.11.47,2.22.92,3.35,1.36,1.13.43,2.27.84,3.42,1.23,1.15.39,2.31.76,3.49,1.11s2.35.68,3.54.98c1.19.31,2.39.59,3.59.86,1.2.26,2.42.51,3.63.73,1.22.22,2.44.42,3.67.6,1.23.18,2.46.33,3.7.47,1.24.13,2.48.24,3.72.33,1.24.09,2.49.16,3.73.2,1.25.04,2.49.07,3.74.07s2.49-.02,3.74-.07c1.25-.04,2.49-.11,3.73-.2,1.24-.09,2.48-.2,3.72-.33,1.24-.13,2.47-.29,3.7-.47s2.45-.38,3.67-.6c1.22-.22,2.43-.46,3.63-.73,1.2-.26,2.4-.55,3.59-.86,1.19-.31,2.37-.64,3.54-.98s2.33-.72,3.49-1.11c1.15-.39,2.29-.8,3.42-1.23,1.13-.43,2.25-.88,3.35-1.36,1.11-.47,2.2-.96,3.28-1.47,1.08-.51,2.15-1.04,3.2-1.59,1.05-.55,2.09-1.12,3.11-1.7,1.02-.59,2.03-1.19,3.02-1.81.99-.62,1.96-1.26,2.92-1.92s1.89-1.33,2.81-2.02c.92-.69,1.82-1.4,2.7-2.12.88-.72,1.74-1.46,2.59-2.21.84-.75,1.66-1.52,2.47-2.3.8-.78,1.58-1.58,2.34-2.39.76-.81,1.5-1.63,2.21-2.47.72-.84,1.41-1.69,2.08-2.55.67-.86,1.32-1.73,1.94-2.62.62-.88,1.22-1.78,1.8-2.69.58-.91,1.13-1.82,1.65-2.75.53-.93,1.03-1.86,1.51-2.8.48-.94.93-1.9,1.36-2.86.43-.96.83-1.93,1.2-2.9.37-.97.72-1.96,1.05-2.94.32-.99.62-1.98.89-2.98.27-1,.51-2,.73-3.01.22-1.01.41-2.02.57-3.03.16-1.01.3-2.03.41-3.05.11-1.02.19-2.04.24-3.06.05-1.02.08-2.04.08-3.06s-.03-2.04-.08-3.06c-.05-1.02-.14-2.04-.24-3.06-.11-1.02-.24-2.03-.41-3.05-.16-1.01-.35-2.02-.57-3.03-.22-1.01-.46-2.01-.73-3.01-.27-1-.57-1.99-.89-2.98-.32-.99-.67-1.97-1.05-2.94-.37-.97-.78-1.94-1.2-2.9-.43-.96-.88-1.91-1.36-2.86-.48-.94-.98-1.88-1.51-2.8-.53-.93-1.08-1.84-1.65-2.75-.58-.91-1.18-1.8-1.8-2.69-.62-.88-1.27-1.76-1.94-2.62-.67-.86-1.36-1.71-2.08-2.55-.72-.84-1.45-1.66-2.21-2.47-.76-.81-1.54-1.61-2.34-2.39-.8-.78-1.62-1.55-2.47-2.3s-1.7-1.49-2.59-2.21c-.88-.72-1.78-1.43-2.7-2.12-.92-.69-1.86-1.36-2.81-2.02s-1.93-1.3-2.92-1.92c-.99-.62-2-1.23-2.61-1.59M29.92,87.25c.42.83.87,1.66,1.33,2.48.47.82.95,1.63,1.46,2.43.51.8,1.04,1.59,1.59,2.38.55.78,1.12,1.56,1.72,2.32s1.21,1.51,1.84,2.25c.63.74,1.29,1.47,1.96,2.19.67.72,1.36,1.42,2.07,2.11s1.44,1.37,2.18,2.04c.75.67,1.51,1.32,2.29,1.96.78.64,1.58,1.26,2.39,1.87.81.61,1.64,1.21,2.49,1.79.84.58,1.71,1.15,2.58,1.7.88.55,1.76,1.08,2.67,1.6.9.52,1.82,1.02,2.75,1.51.93.49,1.87.95,2.83,1.41.96.45,1.92.89,2.9,1.3.98.42,1.97.82,2.97,1.2,1,.38,2.01.75,3.03,1.09,1.02.35,2.05.67,3.08.98,1.04.31,2.08.6,3.13.87,1.05.27,2.11.52,3.18.76,1.07.23,2.14.45,3.21.64,1.08.2,2.16.37,3.25.53,1.09.16,2.18.29,3.27.41,1.09.12,2.19.22,3.29.3,1.1.08,2.2.14,3.3.18,1.1.04,2.2.06,3.31.06s2.21-.02,3.31-.06c1.1-.04,2.2-.1,3.3-.18,1.1-.08,2.2-.18,3.29-.3,1.09-.12,2.18-.26,3.27-.41,1.09-.16,2.17-.33,3.25-.53,1.08-.2,2.15-.41,3.21-.64,1.07-.23,2.12-.49,3.18-.76,1.05-.27,2.1-.56,3.13-.87,1.04-.31,2.06-.64,3.08-.98,1.02-.35,2.03-.71,3.03-1.09s1.99-.78,2.97-1.2c.98-.42,1.95-.85,2.9-1.3.96-.45,1.9-.92,2.83-1.41.93-.49,1.85-.99,2.75-1.51.9-.52,1.79-1.05,2.67-1.6.88-.55,1.74-1.12,2.58-1.7.84-.58,1.67-1.18,2.49-1.79.81-.61,1.61-1.24,2.39-1.87.78-.64,1.54-1.29,2.29-1.96.75-.67,1.47-1.35,2.18-2.04s1.4-1.4,2.07-2.11c.67-.72,1.32-1.45,1.96-2.19.63-.74,1.25-1.49,1.84-2.25s1.16-1.53,1.72-2.32,1.08-1.57,1.59-2.38c.51-.8,1-1.61,1.46-2.43.47-.82.91-1.65,1.33-2.48.42-.83.82-1.68,1.2-2.53.38-.85.73-1.7,1.06-2.57.33-.86.64-1.73.93-2.6.29-.87.55-1.75.79-2.63.24-.88.45-1.77.65-2.66.19-.89.36-1.78.5-2.68.14-.9.26-1.79.36-2.69.1-.9.17-1.8.22-2.7.05-.9.07-1.81.07-2.71s-.02-1.81-.07-2.71c-.05-.9-.12-1.8-.22-2.7-.1-.9-.22-1.8-.36-2.69s-.31-1.79-.5-2.68c-.19-.89-.41-1.78-.65-2.66-.24-.88-.5-1.76-.79-2.63s-.59-1.74-.93-2.6c-.33-.86-.69-1.72-1.06-2.57-.38-.85-.78-1.69-1.2-2.53-.42-.83-.87-1.66-1.33-2.48-.47-.82-.95-1.63-1.46-2.43-.51-.8-1.04-1.59-1.59-2.38s-1.12-1.56-1.72-2.32-1.21-1.51-1.84-2.25c-.63-.74-1.29-1.47-1.96-2.19-.67-.72-1.36-1.42-2.07-2.11-.71-.69-1.44-1.37-2.18-2.04-.75-.67-1.51-1.32-2.29-1.96-.78-.64-1.58-1.26-2.39-1.87-.81-.61-1.64-1.21-2.49-1.79-.84-.58-1.71-1.15-2.58-1.7s-1.76-1.08-2.67-1.6c-.9-.52-1.82-1.02-2.75-1.51-.93-.49-1.87-.95-2.83-1.41-.96-.45-1.92-.89-2.9-1.3-.98-.42-1.97-.82-2.97-1.2s-2.01-.75-3.03-1.09c-1.02-.35-2.05-.67-3.08-.98-1.04-.31-2.08-.6-3.13-.87-1.05-.27-2.11-.52-3.18-.76-1.07-.23-2.14-.45-3.21-.64-1.08-.2-2.16-.37-3.25-.53-1.09-.16-2.18-.29-3.27-.41-1.09-.12-2.19-.22-3.29-.3-1.1-.08-2.2-.14-3.3-.18-1.1-.04-2.2-.06-3.31-.06s-2.21.02-3.31.06c-1.1.04-2.2.1-3.3.18-1.1.08-2.2.18-3.29.3-1.09.12-2.18.26-3.27.41-1.09.16-2.17.33-3.25.53-1.08.2-2.15.41-3.21.64-1.07.23-2.12.49-3.18.76-1.05.27-2.1.56-3.13.87-1.04.31-2.06.64-3.08.98-1.02.35-2.03.71-3.03,1.09s-1.99.78-2.97,1.2c-.98.42-1.95.85-2.9,1.3-.96.45-1.9.92-2.83,1.41-.93.49-1.85.99-2.75,1.51-.9.52-1.79,1.05-2.67,1.6-.88.55-1.74,1.12-2.58,1.7-.84.58-1.67,1.18-2.49,1.79-.81.61-1.61,1.24-2.39,1.87-.78.64-1.54,1.29-2.29,1.96-.75.67-1.47,1.35-2.18,2.04-.71.69-1.4,1.4-2.07,2.11-.67.72-1.32,1.45-1.96,2.19-.63.74-1.25,1.49-1.84,2.25s-1.17,1.53-1.72,2.32c-.55.78-1.08,1.57-1.59,2.38s-1,1.61-1.46,2.43c-.47.82-.91,1.65-1.33,2.48-.42.83-.82,1.68-1.2,2.53-.38.85-.73,1.7-1.06,2.57-.33.86-.64,1.73-.93,2.6-.29.87-.55,1.75-.79,2.63-.24.88-.45,1.77-.65,2.66-.19.89-.36,1.78-.5,2.68-.14.9-.26,1.79-.36,2.69-.1.9-.17,1.8-.22,2.7-.05.9-.07,1.81-.07,2.71s.02,1.81.07,2.71c.05.9.12,1.8.22,2.7.1.9.22,1.8.36,2.69.14.9.31,1.79.5,2.68.19.89.41,1.78.65,2.66.24.88.5,1.76.79,2.63.29.87.59,1.74.93,2.6l2.26,5.09Zm11.27-10.83c.35.7.73,1.39,1.12,2.08.39.69.8,1.37,1.23,2.04.43.67.87,1.34,1.34,1.99s.94,1.3,1.44,1.94c.5.64,1.01,1.27,1.54,1.89.53.62,1.08,1.23,1.64,1.83.56.6,1.14,1.19,1.74,1.77.59.58,1.21,1.15,1.83,1.71.63.56,1.27,1.11,1.92,1.64.65.54,1.32,1.06,2.01,1.57.68.51,1.38,1.01,2.09,1.5.71.49,1.43.96,2.17,1.42s1.48.91,2.24,1.34,1.53.86,2.31,1.26c.78.41,1.57.8,2.37,1.18.8.38,1.61.74,2.43,1.09.82.35,1.65.69,2.49,1.01.84.32,1.69.63,2.54.92.86.29,1.72.56,2.59.82.87.26,1.75.5,2.63.73s1.77.44,2.67.64c.89.2,1.79.38,2.7.54.9.16,1.81.31,2.72.44.91.13,1.83.25,2.74.35s1.84.18,2.76.25c.92.07,1.85.12,2.77.15.92.03,1.85.05,2.78.05s1.85-.02,2.78-.05c.92-.03,1.85-.08,2.77-.15.92-.07,1.84-.15,2.76-.25s1.83-.21,2.74-.35c.91-.13,1.82-.28,2.72-.44.9-.16,1.8-.34,2.7-.54.89-.2,1.78-.41,2.67-.64.88-.23,1.76-.47,2.63-.73.87-.26,1.73-.53,2.59-.82.86-.29,1.7-.6,2.54-.92.84-.32,1.67-.66,2.49-1.01.82-.35,1.63-.71,2.43-1.09.8-.38,1.59-.77,2.37-1.18.78-.41,1.55-.83,2.31-1.26s1.5-.88,2.24-1.34,1.46-.94,2.17-1.42c.71-.49,1.41-.99,2.09-1.5.68-.51,1.35-1.04,2.01-1.57s1.29-1.08,1.92-1.64c.63-.56,1.24-1.13,1.83-1.71.59-.58,1.17-1.17,1.74-1.77.56-.6,1.11-1.21,1.64-1.83.53-.62,1.05-1.25,1.54-1.89.5-.64.98-1.29,1.44-1.94.46-.66.91-1.32,1.34-1.99s.84-1.35,1.23-2.04c.39-.69.76-1.38,1.12-2.08.35-.7.69-1.41,1.01-2.12.32-.71.61-1.43.89-2.15.28-.72.54-1.45.78-2.18s.46-1.47.66-2.21c.2-.74.38-1.48.54-2.23.16-.75.3-1.5.42-2.25.12-.75.22-1.51.3-2.26s.14-1.51.18-2.27c.04-.76.06-1.52.06-2.27s-.02-1.52-.06-2.27c-.04-.76-.1-1.51-.18-2.27s-.18-1.51-.3-2.26c-.12-.75-.26-1.5-.42-2.25-.16-.75-.34-1.49-.54-2.23-.2-.74-.42-1.48-.66-2.21s-.5-1.46-.78-2.18c-.28-.72-.58-1.44-.89-2.15-.32-.71-.65-1.42-1.01-2.12-.35-.7-.73-1.39-1.12-2.08-.39-.69-.8-1.37-1.23-2.04s-.87-1.34-1.34-1.99c-.46-.66-.94-1.3-1.44-1.94-.5-.64-1.01-1.27-1.54-1.89-.53-.62-1.08-1.23-1.64-1.83-.56-.6-1.14-1.19-1.74-1.77-.59-.58-1.21-1.15-1.83-1.71-.63-.56-1.27-1.11-1.92-1.64-.65-.54-1.32-1.06-2.01-1.57-.68-.51-1.38-1.01-2.09-1.5-.71-.49-1.43-.96-2.17-1.42s-1.48-.91-2.24-1.34c-.76-.43-1.53-.86-2.31-1.26-.78-.41-1.57-.8-2.37-1.18s-1.61-.74-2.43-1.09c-.82-.35-1.65-.69-2.49-1.01-.84-.32-1.69-.63-2.54-.92-.86-.29-1.72-.56-2.59-.82s-1.75-.5-2.63-.73-1.77-.44-2.67-.64c-.89-.2-1.79-.38-2.7-.54-.9-.16-1.81-.31-2.72-.44-.91-.13-1.83-.25-2.74-.35-.92-.1-1.84-.18-2.76-.25-.92-.07-1.85-.12-2.77-.15-.92-.03-1.85-.05-2.78-.05s-1.85.02-2.78.05c-.92.03-1.85.08-2.77.15-.92.07-1.84.15-2.76.25-.92.1-1.83.21-2.74.35-.91.13-1.82.28-2.72.44-.9.16-1.8.34-2.7.54-.89.2-1.78.41-2.67.64-.88.23-1.76.47-2.63.73-.87.26-1.73.53-2.59.82-.86.29-1.7.6-2.54.92-.84.32-1.67.66-2.49,1.01-.82.35-1.63.71-2.43,1.09s-1.59.77-2.37,1.18c-.78.41-1.55.83-2.31,1.26-.76.43-1.5.88-2.24,1.34s-1.46.94-2.17,1.42c-.71.49-1.41.99-2.09,1.5-.68.51-1.35,1.04-2.01,1.57-.65.54-1.29,1.08-1.92,1.64-.63.56-1.24,1.13-1.83,1.71-.59.58-1.17,1.17-1.74,1.77-.56.6-1.11,1.21-1.64,1.83-.53.62-1.05,1.25-1.54,1.89-.5.64-.98,1.29-1.44,1.94-.46.66-.91,1.32-1.34,1.99-.43.67-.84,1.35-1.23,2.04-.39.69-.76,1.38-1.12,2.08s-.69,1.41-1.01,2.12c-.32.71-.61,1.43-.89,2.15-.28.72-.54,1.45-.78,2.18-.24.73-.46,1.47-.66,2.21-.2.74-.38,1.48-.54,2.23-.16.75-.3,1.5-.42,2.25-.12.75-.22,1.51-.3,2.26-.08.76-.14,1.51-.18,2.27-.04.76-.06,1.52-.06,2.27s.02,1.52.06,2.27c.04.76.1,1.51.18,2.27.08.76.18,1.51.3,2.26.12.75.26,1.5.42,2.25.16.75.34,1.49.54,2.23.2.74.42,1.48.66,2.21.24.73.5,1.46.78,2.18l1.9,4.27Zm13.06-10.11c.28.54.57,1.08.87,1.62s.62,1.06.96,1.59c.33.52.68,1.04,1.04,1.55.36.51.73,1.02,1.12,1.51s.79.99,1.2,1.47c.41.48.84.96,1.28,1.43.44.47.89.93,1.35,1.38s.94.9,1.42,1.33c.49.43.98.86,1.49,1.28.51.42,1.03.82,1.56,1.22.53.4,1.07.79,1.62,1.17.55.38,1.11.75,1.68,1.11.57.36,1.15.71,1.74,1.05s1.19.67,1.8.98c.61.32,1.22.62,1.85.92.62.29,1.25.58,1.89.85s1.28.53,1.94.78,1.31.49,1.98.71c.67.23,1.34.44,2.01.64.68.2,1.36.39,2.05.57.69.18,1.38.34,2.07.5.7.15,1.39.29,2.1.42.7.13,1.41.24,2.12.35.71.1,1.42.19,2.13.27.71.08,1.43.14,2.15.19.72.05,1.44.09,2.16.12.72.03,1.44.04,2.16.04s1.44-.01,2.16-.04c.72-.03,1.44-.06,2.16-.12.72-.05,1.43-.12,2.15-.19.71-.08,1.43-.17,2.13-.27.71-.1,1.42-.22,2.12-.35.7-.13,1.4-.27,2.1-.42.7-.15,1.39-.32,2.07-.5s1.37-.37,2.05-.57c.68-.2,1.35-.42,2.01-.64.67-.23,1.32-.46,1.98-.71s1.3-.51,1.94-.78,1.27-.56,1.89-.85c.62-.29,1.24-.6,1.85-.92.61-.32,1.21-.64,1.8-.98s1.17-.69,1.74-1.05c.57-.36,1.13-.73,1.68-1.11.55-.38,1.09-.77,1.62-1.17.53-.4,1.05-.81,1.56-1.22.51-.42,1.01-.84,1.49-1.28.49-.43.96-.88,1.42-1.33s.91-.91,1.35-1.38c.44-.47.86-.94,1.28-1.43.41-.48.81-.97,1.2-1.47s.76-1,1.12-1.51c.36-.51.71-1.03,1.04-1.55s.65-1.05.96-1.59c.3-.53.59-1.07.87-1.62.28-.54.54-1.09.78-1.65s.48-1.11.69-1.68c.22-.56.42-1.13.6-1.7.19-.57.36-1.14.51-1.72.16-.58.3-1.15.42-1.74.13-.58.23-1.16.33-1.75.09-.58.17-1.17.24-1.76.06-.59.11-1.18.14-1.77.03-.59.05-1.18.05-1.77s-.02-1.18-.05-1.77c-.03-.59-.08-1.18-.14-1.77-.06-.59-.14-1.17-.24-1.76-.09-.58-.2-1.17-.33-1.75-.13-.58-.27-1.16-.42-1.74-.16-.58-.33-1.15-.51-1.72-.19-.57-.39-1.14-.6-1.7s-.45-1.12-.69-1.68-.51-1.1-.78-1.65c-.28-.54-.57-1.08-.87-1.62-.3-.53-.62-1.06-.96-1.59s-.68-1.04-1.04-1.55c-.36-.51-.73-1.02-1.12-1.51s-.79-.99-1.2-1.47c-.41-.48-.84-.96-1.28-1.43-.44-.47-.89-.93-1.35-1.38-.46-.45-.94-.9-1.42-1.33-.49-.43-.98-.86-1.49-1.28-.51-.42-1.03-.82-1.56-1.22-.53-.4-1.07-.79-1.62-1.17-.55-.38-1.11-.75-1.68-1.11-.57-.36-1.15-.71-1.74-1.05-.59-.34-1.19-.67-1.8-.98-.61-.32-1.22-.62-1.85-.92s-1.25-.58-1.89-.85c-.64-.27-1.28-.53-1.94-.78s-1.31-.49-1.98-.71c-.67-.23-1.34-.44-2.01-.64-.68-.2-1.36-.39-2.05-.57-.69-.18-1.38-.34-2.07-.5-.7-.15-1.39-.29-2.1-.42-.7-.13-1.41-.24-2.12-.35-.71-.1-1.42-.19-2.13-.27-.71-.08-1.43-.14-2.15-.19-.72-.05-1.44-.09-2.16-.12-.72-.03-1.44-.04-2.16-.04s-1.44.01-2.16.04c-.72.03-1.44.06-2.16.12-.72.05-1.43.12-2.15.19-.71.08-1.43.17-2.13.27-.71.1-1.42.22-2.12.35-.7.13-1.4.27-2.1.42-.7.15-1.39.32-2.07.5-.69.18-1.37.37-2.05.57s-1.35.42-2.01.64c-.67.23-1.32.46-1.98.71s-1.3.51-1.94.78c-.64.27-1.27.56-1.89.85-.62.29-1.24.6-1.85.92-.61.32-1.21.64-1.8.98-.59.34-1.17.69-1.74,1.05-.57.36-1.13.73-1.68,1.11-.55.38-1.09.77-1.62,1.17-.53.4-1.05.81-1.56,1.22-.51.42-1.01.84-1.49,1.28-.49.43-.96.88-1.42,1.33-.46.45-.91.91-1.35,1.38-.44.47-.86.94-1.28,1.43-.41.48-.81.97-1.2,1.47s-.76,1-1.12,1.51c-.36.51-.71,1.03-1.04,1.55-.33.52-.65,1.05-.96,1.59-.3.53-.59,1.07-.87,1.62-.28.54-.54,1.09-.78,1.65s-.48,1.11-.69,1.68c-.22.56-.42,1.13-.6,1.7-.19.57-.36,1.14-.51,1.72-.16.58-.3,1.15-.42,1.74-.13.58-.23,1.16-.33,1.75-.09.58-.17,1.17-.24,1.76-.06.59-.11,1.18-.14,1.77-.03.59-.05,1.18-.05,1.77s.02,1.18.05,1.77c.03.59.08,1.18.14,1.77.06.59.14,1.17.24,1.76.09.58.2,1.17.33,1.75.13.58.27,1.16.42,1.74.16.58.33,1.15.51,1.72.19.57.39,1.14.6,1.7l1.48,3.32Zm14.45-9.09c.19.37.39.74.59,1.11.21.37.43.73.65,1.09.23.36.46.71.71,1.06.25.35.5.69.77,1.03.26.34.54.68.82,1.01s.57.66.87.98c.3.32.61.63.92.94.32.31.64.61.97.91.33.3.67.59,1.02.87.35.29.7.56,1.07.84.36.27.73.54,1.11.8.38.26.76.51,1.15.76.39.25.79.48,1.19.72.4.23.81.46,1.23.67.42.22.84.43,1.26.63.43.2.86.4,1.3.58s.88.36,1.32.54.9.33,1.35.49c.45.15.91.3,1.38.44.46.14.93.27,1.4.39.47.12.94.23,1.42.34.48.1.95.2,1.43.29.48.09.96.17,1.45.24.48.07.97.13,1.46.18.49.05.98.1,1.47.13.49.04.98.06,1.47.08.49.02.98.03,1.48.03s.98,0,1.48-.03c.49-.02.98-.04,1.47-.08.49-.04.98-.08,1.47-.13.49-.05.98-.11,1.46-.18.48-.07.97-.15,1.45-.24.48-.09.96-.18,1.43-.29.48-.1.95-.22,1.42-.34.47-.12.94-.25,1.4-.39.46-.14.92-.28,1.38-.44.45-.15.91-.32,1.35-.49s.89-.35,1.32-.54.87-.38,1.3-.58c.43-.2.85-.41,1.26-.63.42-.22.82-.44,1.23-.67.4-.23.8-.47,1.19-.72.39-.25.77-.5,1.15-.76.38-.26.75-.53,1.11-.8.36-.27.72-.55,1.07-.84.35-.29.69-.58,1.02-.87.33-.3.66-.6.97-.91.32-.31.62-.62.92-.94.3-.32.59-.65.87-.98s.56-.67.82-1.01c.26-.34.52-.69.77-1.03.25-.35.48-.7.71-1.06.23-.36.45-.72.65-1.09.21-.37.41-.73.59-1.11.19-.37.37-.75.54-1.13.17-.38.33-.76.47-1.15.15-.38.29-.77.41-1.16s.24-.78.35-1.18c.11-.39.2-.79.29-1.19.09-.4.16-.8.22-1.2.06-.4.12-.8.16-1.2.04-.4.08-.8.1-1.21.02-.4.03-.81.03-1.21s-.01-.81-.03-1.21c-.02-.4-.05-.81-.1-1.21-.04-.4-.1-.8-.16-1.2-.06-.4-.14-.8-.22-1.2-.09-.4-.18-.79-.29-1.19-.11-.39-.22-.79-.35-1.18-.13-.39-.27-.78-.41-1.16-.15-.38-.31-.77-.47-1.15-.17-.38-.35-.76-.54-1.13s-.39-.74-.59-1.11c-.21-.37-.43-.73-.65-1.09-.23-.36-.46-.71-.71-1.06s-.5-.69-.77-1.03-.54-.68-.82-1.01-.57-.66-.87-.98c-.3-.32-.61-.63-.92-.94-.32-.31-.64-.61-.97-.91-.33-.3-.67-.59-1.02-.87-.35-.29-.7-.56-1.07-.84s-.73-.54-1.11-.8c-.38-.26-.76-.51-1.15-.76-.39-.25-.79-.48-1.19-.72-.4-.23-.81-.46-1.23-.67-.42-.22-.84-.43-1.26-.63-.43-.2-.86-.4-1.3-.58-.44-.19-.88-.36-1.32-.54-.45-.17-.9-.33-1.35-.49-.45-.15-.91-.3-1.38-.44-.46-.14-.93-.27-1.4-.39s-.94-.23-1.42-.34-.95-.2-1.43-.29c-.48-.09-.96-.17-1.45-.24-.48-.07-.97-.13-1.46-.18-.49-.05-.98-.1-1.47-.13-.49-.04-.98-.06-1.47-.08-.49-.02-.98-.03-1.48-.03s-.98,0-1.48.03c-.49.02-.98.04-1.47.08-.49.04-.98.08-1.47.13-.49.05-.98.11-1.46.18-.48.07-.97.15-1.45.24-.48.09-.96.18-1.43.29s-.95.22-1.42.34c-.47.12-.94.25-1.4.39-.46.14-.92.28-1.38.44-.45.15-.91.32-1.35.49-.45.17-.89.35-1.32.54-.44.19-.87.38-1.3.58-.43.2-.85.41-1.26.63-.42.22-.82.44-1.23.67-.4.23-.8.47-1.19.72-.39.25-.77.5-1.15.76-.38.26-.75.53-1.11.8s-.72.55-1.07.84c-.35.29-.69.58-1.02.87-.33.3-.66.6-.97.91-.32.31-.62.62-.92.94-.3.32-.59.65-.87.98s-.56.67-.82,1.01-.52.69-.77,1.03-.48.7-.71,1.06c-.23.36-.45.72-.65,1.09-.21.37-.41.73-.59,1.11s-.37.75-.54,1.13c-.17.38-.33.76-.47,1.15-.15.38-.29.77-.41,1.16-.13.39-.24.78-.35,1.18-.11.39-.2.79-.29,1.19-.09.4-.16.8-.22,1.2-.06.4-.12.8-.16,1.2-.04.4-.08.8-.1,1.21-.02.4-.03.81-.03,1.21s.01.81.03,1.21c.02.4.05.81.1,1.21.04.4.1.8.16,1.2.06.4.14.8.22,1.2s.18.79.29,1.19c.11.39.22.79.35,1.18s.27.78.41,1.16l1.01,2.27Zm15.4-7.79c.1.19.2.38.3.56.11.19.22.37.33.55.12.18.24.36.36.54.13.18.25.35.39.53.13.17.27.34.42.51s.29.33.44.5c.15.16.31.32.47.48.16.16.33.31.49.46.17.15.34.3.52.44.18.14.36.29.54.42.18.14.37.27.56.41.19.13.39.26.58.38.2.12.4.25.6.36s.41.23.62.34c.21.11.42.22.64.32s.44.2.66.3c.22.09.45.19.67.27.23.09.46.17.69.25.23.08.46.15.7.22.23.07.47.14.71.2.24.06.48.12.72.17s.48.1.73.15c.24.04.49.08.74.12.25.04.49.07.74.09s.5.05.75.07c.25.02.5.03.75.04.25,0,.5.01.75.01s.5,0,.75-.01c.25,0,.5-.02.75-.04.25-.02.5-.04.75-.07s.5-.06.74-.09c.25-.04.49-.08.74-.12.24-.04.49-.09.73-.15s.48-.11.72-.17c.24-.06.48-.13.71-.2.23-.07.47-.14.7-.22.23-.08.46-.16.69-.25.23-.09.45-.18.67-.27.22-.09.44-.19.66-.3s.43-.21.64-.32c.21-.11.42-.22.62-.34s.41-.24.6-.36c.2-.12.39-.25.58-.38.19-.13.38-.27.56-.41.18-.14.37-.28.54-.42.18-.14.35-.29.52-.44.17-.15.33-.31.49-.46.16-.16.32-.32.47-.48.15-.16.3-.33.44-.5s.28-.34.42-.51c.13-.17.26-.35.39-.53.13-.18.25-.36.36-.54.12-.18.23-.37.33-.55.11-.19.21-.37.3-.56.1-.19.19-.38.27-.57.09-.19.17-.39.24-.58.08-.2.15-.39.21-.59.06-.2.12-.4.18-.6.05-.2.1-.4.15-.6.04-.2.08-.4.11-.61.03-.2.06-.41.08-.61.02-.2.04-.41.05-.61.01-.2.02-.41.02-.61s0-.41-.02-.61c-.01-.2-.03-.41-.05-.61-.02-.2-.05-.41-.08-.61s-.07-.41-.11-.61c-.04-.2-.09-.4-.15-.6-.05-.2-.11-.4-.18-.6-.06-.2-.13-.39-.21-.59-.08-.2-.16-.39-.24-.58-.09-.19-.18-.38-.27-.57-.1-.19-.2-.38-.3-.56-.11-.19-.22-.37-.33-.55-.12-.18-.24-.36-.36-.54-.13-.18-.25-.35-.39-.53-.13-.17-.27-.34-.42-.51-.14-.17-.29-.33-.44-.5-.15-.16-.31-.32-.47-.48-.16-.16-.33-.31-.49-.46-.17-.15-.34-.3-.52-.44-.18-.14-.36-.29-.54-.42-.18-.14-.37-.27-.56-.41-.19-.13-.39-.26-.58-.38-.2-.12-.4-.25-.6-.36s-.41-.23-.62-.34c-.21-.11-.42-.22-.64-.32s-.44-.2-.66-.3c-.22-.09-.45-.19-.67-.27-.23-.09-.46-.17-.69-.25-.23-.08-.46-.15-.7-.22-.23-.07-.47-.14-.71-.2-.24-.06-.48-.12-.72-.17s-.48-.1-.73-.15c-.24-.04-.49-.08-.74-.12-.25-.04-.49-.07-.74-.09-.25-.03-.5-.05-.75-.07-.25-.02-.5-.03-.75-.04-.25,0-.5-.01-.75-.01s-.5,0-.75.01c-.25,0-.5.02-.75.04-.25.02-.5.04-.75.07-.25.03-.5.06-.74.09-.25.04-.49.08-.74.12-.24.04-.49.09-.73.15s-.48.11-.72.17c-.24.06-.48.13-.71.2-.23.07-.47.14-.7.22-.23.08-.46.16-.69.25-.23.09-.45.18-.67.27-.22.09-.44.19-.66.3s-.43.21-.64.32c-.21.11-.42.22-.62.34s-.41.24-.6.36c-.2.12-.39.25-.58.38-.19.13-.38.27-.56.41-.18.14-.37.28-.54.42-.18.14-.35.29-.52.44-.17.15-.33.31-.49.46-.16.16-.32.32-.47.48-.15.16-.3.33-.44.5-.14.17-.28.34-.42.51-.13.17-.26.35-.39.53-.13.18-.25.36-.36.54-.12.18-.23.37-.33.55-.11.19-.21.37-.3.56-.1.19-.19.38-.27.57-.09.19-.17.39-.24.58-.08.2-.15.39-.21.59-.06.2-.12.4-.18.6-.05.2-.1.4-.15.6-.04.2-.08.4-.11.61s-.06.41-.08.61c-.02.2-.04.41-.05.61-.01.2-.02.41-.02.61s0,.41.02.61c.01.2.03.41.05.61.02.2.05.41.08.61.03.2.07.41.11.61.04.2.09.4.15.6.05.2.11.4.18.6.06.2.13.39.21.59"/>
  <path class="cls-2" d="m159.05,139.95c.97-.33,2.15-.51,2.07.02-.08.52-1.44,1.74-2.41,2.07-.97.33-1.55-.22-1.47-.74.08-.52.84-1.01,1.8-1.35m-8.79,2.36c1.38-.1,2.73-.21,2.63.27-.1.48-1.66,1.56-2.75,1.82-1.09.26-1.72-.3-3.04-.4-1.32-.1-3.32.26-3.61.1s1.15-.85,2.57-1.23c1.42-.38,2.81-.46,4.19-.56M29.38,30.58c-.17.18-.27.26-.32.31s-.05.04.12-.13.52-.53.57-.57-.2.22-.37.4m-3.42,7.79c.17-.29.57-.54.6-.37s-.3.76-.5.88-.27-.22-.1-.51m138.96-9.48c.48.51.88,1.24.59,1.1-.29-.14-1.25-1.16-1.45-1.52s.37-.08.86.43m1.62,4.25c.41.23.68.63.41.59s-1.11-.49-1.24-.69c-.14-.2.42-.13.84.1M24.21,44.33c-.09-.46.27-1.46.42-2.12.15-.66.08-.98.28-1.36.2-.38.68-.82,1.25-1.7.58-.88,1.25-2.19,1.37-2.62.12-.43-.32.04-.69.29-.37.25-.68.29-.35-.17.33-.46,1.28-1.41,1.7-1.49s.28.7-.08,1.62c-.36.91-.96,1.96-1.16,2.93-.2.97,0,1.85.55,2.22.55.37,1.44.22,1.85.31s.32.42-.15.84-1.31.94-2.02,1.21c-.7.27-1.26.29-1.8.35-.54.06-1.07.15-1.16-.31m6.11,1.34c-.37.04-.57-.55-.45-1.15.12-.61.58-1.23,1.33-1.68.75-.45,1.8-.72,1.94-.45s-.63,1.08-1.27,1.82c-.65.74-1.18,1.42-1.55,1.46m52.1,62.49c-.73-.84-1.44-2.16-1.38-2.58.07-.42.92.08,1.65.91.73.84,1.35,2.01,1.28,2.43-.07.42-.82.07-1.56-.77m69.7-21.07c.54-.03,1.16-.48,1.87-.46.71.02,1.5.51,1.13,1.59s-1.9,2.76-3.01,2.49c-1.11-.27-1.8-2.48-1.97-3.54-.17-1.05.18-.94.58-.69.4.25.86.64,1.41.61M37.87,42.55c-.28.01.01-.47-.1-.72-.12-.25-.65-.27-1.17-.06-.53.2-1.05.63-1.4.67-.35.04-.53-.3-.12-.61.41-.31,1.41-.59,2.43-.85,1.02-.26,2.05-.51,3.11-.8s2.13-.64,2.71-.7c.59-.07.69.14.04.53-.66.39-2.08.96-3.21,1.5-1.14.53-1.99,1.03-2.27,1.04m121.7,3.4c-.26.3-1.21-.05-2.04-.59-.83-.53-1.55-1.25-1.85-1.83-.3-.58-.18-1.03.44-.97.62.05,1.74.61,2.52,1.36.77.76,1.2,1.72.93,2.03m-8.93-6.26c.17-.1-.08-.62.21-.81.29-.19,1.11-.06,2.04-.22.93-.16,1.97-.63,2.45-1.02.48-.39.41-.7.87-.63.45.07,1.43.52,2.17,1.21.73.69,1.22,1.61,1.69,2.55.47.94.94,1.89.87,2.09-.06.2-.65-.34-1.44-.69-.78-.35-1.76-.51-2.55-.76-.78-.26-1.37-.61-1.74-.56-.37.05-.51.5-.9.73-.39.23-1.03.25-1.83.04-.8-.2-1.76-.63-2.32-1.07-.56-.45-.73-.92-.51-1,.22-.08.82.25.99.15m-29.98,40.28c.4.32-.36.42-.9.86-.54.44-.87,1.21-1.23,1.37s-.76-.29-1-1c-.24-.71-.32-1.66.42-1.87.74-.21,2.31.32,2.71.64m20.84-34.68c.8.58,1.73,1.8,2.07,2.8.34,1,.09,1.79-.15,2.05-.24.26-.45-.02-.9,0-.44.02-1.1.33-1.63.21-.53-.12-.92-.66-.93-1.04-.01-.37.35-.57.31-1.3-.04-.72-.48-1.96-.36-2.61.12-.65.79-.7,1.59-.12m-14.19-40.1c-.09-.16-.71-.37-1.68-.65-.97-.28-2.29-.62-3.06-.77-.77-.16-.99-.12-1-.02,0,.1.2.27-.08.27-.28,0-1.05-.18-.86-.03.19.15,1.33.62,2.01.96.68.35.89.57.43.56-.46,0-1.61-.24-2.27-.28-.67-.04-.86.11-.62.29s.9.38,1.99.62c1.09.24,2.6.51,3.63.67,1.02.16,1.56.21,1.6-.01.04-.23-.42-.73-.42-1.03,0-.3.44-.41.35-.57m69.92,76.94c-.06.17-.23.07-.35.22-.12.15-.2.56-.39.59s-.51-.31-.79-.97c-.28-.66-.53-1.62-.82-2.43-.29-.81-.63-1.46-.99-2.1-.36-.64-.73-1.29-1-1.57-.27-.28-.43-.21-.81-.84-.39-.63-1.01-1.96-1.66-3.29-.66-1.32-1.35-2.63-2.01-4.04-.66-1.4-1.29-2.9-1.96-4.39-.67-1.48-1.37-2.95-2.25-4.26-.88-1.3-1.95-2.44-2.7-3.43-.76-1-1.2-1.86-1.75-2.64-.54-.79-1.18-1.5-1.65-2.49-.47-.99-.76-2.27-1.42-3.69-.66-1.42-1.69-2.98-2.64-4.48-.95-1.51-1.82-2.96-2.74-4.38-.91-1.42-1.86-2.81-2.32-3.62-.46-.81-.43-1.06-.06-.97.37.09,1.07.51,1.45.64.38.12.43-.05.04-.76-.39-.7-1.22-1.94-1.59-2.57-.37-.63-.28-.66-.62-1.15-.33-.48-1.09-1.42-2.02-2.31-.94-.89-2.06-1.74-3.2-2.71-1.14-.97-2.29-2.07-3.49-3.12-1.19-1.05-2.43-2.04-3.32-2.73-.9-.68-1.46-1.05-2.52-1.74-1.07-.69-2.64-1.7-3.82-2.39-1.17-.69-1.95-1.07-2.74-1.42-.79-.35-1.59-.68-1.81-.71-.22-.03.14.25.8.65.66.4,1.62.92,2.51,1.47.89.54,1.7,1.11,2.51,1.68.8.58,1.6,1.17,1.9,1.59.3.42.11.66-.71.38-.82-.27-2.25-1.06-3.27-1.67-1.02-.61-1.62-1.04-2.73-1.68-1.1-.64-2.71-1.49-3.97-2.23-1.26-.74-2.18-1.37-3.3-1.97-1.12-.59-2.43-1.15-3.17-1.4-.74-.25-.91-.2-.69.05.21.25.8.7,1.39,1.18.58.47,1.16.97.81,1.06-.35.1-1.62-.21-1.64-.09s1.21.65,1.85.81.67-.02,1.26.11,1.74.6,2.18.88c.44.29.18.4.4.75.22.35.93.95,1.8,1.43.87.48,1.9.84,2.91,1.15,1.01.31,1.99.56,2.49.56.5,0,.53-.24,1.06,0,.53.24,1.55.98,2.57,1.73,1.01.75,2.01,1.53,2.62,1.81.61.28.84.08,1.5.34.66.26,1.74,1,2.15,1.57.41.57.14.98-.22,1.12-.37.15-.83.03-.88.42-.05.38.31,1.27.37,1.82.06.56-.19.79-.23,1.14-.04.34.14.8.57,1.15s1.11.59,1.48.32c.36-.27.4-1.06.28-1.77-.13-.71-.42-1.34.08-1.24.5.1,1.8.95,2.24,1.38.44.44.01.47-.08.81s.16,1,.19,1.8c.03.8-.14,1.74.21,2.63.36.88,1.25,1.7,2.01,2.65.76.95,1.38,2.03,1.91,2.65.53.62.96.78,1.51,1.28s1.22,1.35,2,2.06c.78.71,1.68,1.29,2.64,2.14.96.86,1.98,2,2.82,3.23.84,1.23,1.5,2.54,1.72,3.31.23.77.03.99.05,1.55.03.56.29,1.45.12,1.82-.17.37-.76.21-1.46-.2-.69-.41-1.49-1.08-2.29-1.52-.8-.44-1.61-.64-2.21-1.05-.6-.4-1-1.01-1.32-1.8-.32-.8-.57-1.79-.84-2.77-.27-.98-.55-1.94-1.24-2.7-.69-.76-1.77-1.32-2.66-1.25-.89.08-1.58.79-2.08.7-.5-.08-.81-.97-1.45-1.86-.64-.89-1.6-1.8-2.57-2.69-.97-.89-1.97-1.76-2.83-2.35-.87-.59-1.6-.89-2.48-1.56-.88-.67-1.89-1.72-3.02-2.22-1.13-.49-2.38-.43-3.29-.62-.91-.19-1.48-.63-1.23-.76.26-.13,1.35.04,2.08-.03.73-.07,1.11-.38,1.06-.9-.05-.53-.53-1.28-1.33-2.03-.79-.75-1.9-1.49-2.59-2.1-.69-.6-.95-1.06-1.4-1.43s-1.06-.66-1.64-.73c-.58-.07-1.11.08-1.7.06-.59-.02-1.24-.21-1.61-.49-.37-.28-.45-.64-.79-.64-.34,0-.94.36-1.78.17-.84-.19-1.91-.94-2.63-1.25-.72-.31-1.08-.18-.62.27.47.45,1.76,1.22,2.39,1.79.63.57.6.93.25,1.25-.35.32-1.02.58-2.21.56-1.18-.02-2.88-.31-3.58-.18-.7.13-.4.68.08.92.47.24,1.11.17,2.05.32s2.18.51,3.14.69c.96.18,1.65.17,2.1-.05.45-.22.66-.63,1.21-.71s1.43.18,2.47.34c1.04.15,2.24.19,3.25.53,1.01.33,1.84.95,1.62,1.6s-1.5,1.34-1.74,1.87c-.25.54.54.92,1.06,1.42.52.49.77,1.09.17,1.49-.6.39-2.05.57-3.68.2s-3.44-1.29-5.35-1.93c-1.91-.64-3.91-.99-5.62-1.32-1.71-.33-3.12-.64-4.16-1-1.03-.35-1.69-.75-2.28-.96-.59-.2-1.12-.21-1.65-.39-.54-.18-1.08-.53-1.31-.91-.23-.38-.14-.8-.43-1.46-.3-.66-.98-1.57-1.5-2.34-.52-.77-.89-1.4-1-1.89-.11-.5.02-.86.47-1,.45-.15,1.2-.08,1.9.28.69.36,1.33,1,1.9,1.01.57.01,1.09-.6,1.22-1.09s-.14-.84-.48-.89c-.33-.05-.73.21-1.1.15-.37-.07-.7-.46-1.02-.55s-.61.11-1.4.16c-.79.05-2.08-.07-2.84.16-.75.23-.96.8-1.3.93-.34.14-.8-.16-.87-.52s.25-.8.13-.97c-.11-.17-.66-.06-1.61.03-.95.09-2.31.16-2.92.1-.61-.06-.46-.24-.98-.34-.51-.1-1.69-.11-2.36-.23-.68-.12-.85-.34-1.07-.21-.22.13-.49.61-.9.77-.41.16-.98,0-1.75-.35-.77-.34-1.76-.87-2.32-1.05-.57-.18-.71-.02-.57.47.15.49.6,1.29.51,2.04-.08.75-.69,1.43-1.22,1.73-.53.3-.98.21-1.16-.07s-.07-.76-.12-1.39c-.04-.63-.23-1.42-.45-1.91-.22-.49-.47-.67-.35-1.1.12-.42.6-1.09.7-1.43s-.16-.39-.56-.15c-.4.24-.94.75-.94,1.6,0,.85.53,2.03.24,2.82-.29.79-1.4,1.2-2.15,1.33-.75.13-1.13-.01-1.13.23,0,.24.36.87.07,1.33-.29.46-1.24.76-1.64,1.12-.4.36-.26.78-.51,1.28-.25.5-.89,1.06-1.44,1.41s-1.02.47-1.43.72c-.41.25-.77.64-.89,1.01-.12.36,0,.71-.52,1.08-.51.37-1.65.78-2.62.91-.97.13-1.78,0-2.15-.41-.36-.4-.28-1.06-.64-1.31-.36-.25-1.17-.1-1.61.12-.44.22-.52.51-.88.75-.36.25-1,.45-1.57.77-.57.31-1.08.73-1.16,1.01-.09.28.25.42,0,.73-.24.31-1.05.8-1.7.96-.65.16-1.13,0-1.79.04-.65.03-1.48.26-1.68.49s.22.47.06,1.1c-.16.62-.89,1.63-.92,2.21-.03.58.63.73.59,1.42s-.79,1.91-1.58,2.8c-.79.89-1.62,1.46-2.07,2.2-.45.75-.52,1.67-.94,2.37-.42.7-1.19,1.17-1.49,1.96-.29.79-.11,1.91-.23,2.69-.12.78-.54,1.24-.36,1.4.18.16.96.03,1.37.69.41.66.45,2.1.41,2.99-.04.89-.17,1.23-.23,1.4s-.06.17-.31.89c-.24.72-.73,2.16-.87,3.13-.14.97.07,1.46.06,2.03,0,.57-.22,1.21-.6,1.4-.38.19-.93-.07-1.55-.13-.62-.06-1.31.08-1.52-.23-.21-.31.06-1.08.16-1.87s.02-1.61-.24-1.9-.71-.06-.94.06-.23.12-.42-.08c-.19-.19-.58-.58-1.09-.36-.51.23-1.15,1.07-2.01,1.07s-1.94-.83-3.02-1.41c-1.07-.58-2.14-.89-2.54-1.3-.4-.4-.12-.9-.23-1.36-.11-.46-.6-.9-.85-1.45-.26-.55-.29-1.22-.71-1.58-.43-.36-1.25-.43-1.81-.25-.56.18-.85.59-1.66.94s-2.15.62-2.94.57c-.79-.05-1.05-.43-1.92-.81-.87-.38-2.37-.77-2.61-1.25-.24-.48.76-1.06,1.78-1.63,1.02-.57,2.06-1.12,3.15-1.41,1.09-.29,2.24-.31,2.86-.15.62.16.71.52,1.53,1.06.82.54,2.38,1.27,3.53,1.59,1.14.32,1.87.24,1.71-.12-.17-.36-1.23-.98-1.45-1.49-.22-.5.4-.88.64-1.34.24-.45.09-.99-.38-1.43-.46-.45-1.25-.81-1.8-.85-.55-.04-.88.24-1.06-.06-.18-.3-.23-1.16-.08-1.63.15-.46.5-.53.87-1.61.37-1.08.76-3.19.4-5.01-.37-1.82-1.49-3.36-2.46-3.72-.97-.36-1.8.45-2.22,1.06s-.44,1.04-.78,1.48c-.33.44-.98.9-1.76,1.13-.78.23-1.7.24-2.6.26-.9.02-1.78.06-2.79-.45-1.01-.51-2.14-1.58-2.48-2.51-.34-.93.1-1.71.28-2.4.18-.69.09-1.27.02-1.84-.07-.56-.12-1.11-.82-.92-.7.19-2.06,1.12-2.95,1.63-.88.51-1.29.6-1.26.27s.49-1.1,1.24-1.72c.75-.62,1.78-1.1,2.53-1.58.76-.48,1.24-.96,1.81-1.35.57-.39,1.22-.67,1.83-1.24.61-.57,1.18-1.43,1.68-1.84s.93-.38,1.28-.62c.35-.24.62-.76.9-1.26s.57-.99-.1-.65-2.28,1.5-3.02,1.88c-.74.37-.61-.04-.95.05-.35.08-1.17.67-1.99,1.27-.81.6-1.62,1.21-2.26,1.68s-1.13.77-1.38.84-.25-.1-.23-.24c.02-.14.07-.25.1-.3q.03-.05.67-.63c.65-.57,1.94-1.72,3.26-2.83,1.32-1.11,2.67-2.19,4.05-3.23s2.78-2.05,4.21-3.02c1.43-.97,2.89-1.9,4.37-2.79,1.48-.89,2.98-1.75,4.51-2.56,1.52-.81,3.07-1.59,4.63-2.32,1.56-.73,3.15-1.42,4.75-2.07,1.6-.65,3.22-1.26,4.85-1.82,1.63-.56,3.28-1.09,4.94-1.57,1.66-.48,3.33-.91,5.02-1.31,1.68-.39,3.38-.74,5.08-1.04,1.7-.3,3.41-.56,5.12-.77,1.71-.21,3.43-.38,5.16-.5,1.72-.12,3.45-.2,5.18-.23,1.73-.03,3.46-.02,5.18.04,1.73.06,3.45.16,5.17.31,1.72.15,3.44.34,5.15.58,1.71.24,3.42.52,5.11.85,1.7.33,3.38.7,5.06,1.11,1.68.42,3.34.87,5,1.38,1.65.5,3.29,1.05,4.92,1.64,1.62.59,3.23,1.22,4.82,1.89,1.59.67,3.16,1.39,4.72,2.14,1.55.75,3.09,1.55,4.6,2.39,1.51.84,3,1.71,4.47,2.62,1.47.91,2.91,1.86,4.33,2.85,1.42.99,2.81,2.01,4.17,3.08,1.36,1.06,2.7,2.16,4,3.29,1.31,1.13,2.58,2.3,3.83,3.5,1.24,1.2,2.46,2.43,3.64,3.69,1.18,1.26,2.33,2.55,3.44,3.88,1.11,1.32,2.19,2.67,3.23,4.05s2.05,2.78,3.02,4.21c.97,1.43,1.9,2.89,2.79,4.37.89,1.48,1.75,2.98,2.56,4.51.81,1.52,1.59,3.07,2.32,4.63.73,1.56,1.42,3.15,2.07,4.75s1.26,3.22,1.82,4.85c.56,1.63,1.09,3.28,1.57,4.94.48,1.66.91,3.33,1.26,4.75.34,1.42.59,2.58.74,3.39.15.81.21,1.26.15,1.43m-90.54-7.45c-.31-.23-.08-.69.35-.69s1.06.48.94.7c-.12.23-.98.22-1.29-.02m-37.07-19.46c-.15-.04-.09-.29.09-.38.18-.09.47-.01.44.11s-.38.3-.53.27m85.82,126.74c.52-.4,1.19-.93,1.83-1.51.64-.58,1.25-1.2,1.69-1.75.44-.55.7-1.05.32-1.08s-1.42.38-2.48.76c-1.06.38-2.16.71-3.03.68-.87-.03-1.5-.43-2.18-.89-.68-.47-1.41-1-2.14-1.43s-1.49-.75-1.43-1.42c.05-.67.91-1.68,1.04-2.11s-.46-.28-.53-.8c-.07-.52.38-1.7.96-2.73.59-1.03,1.31-1.91,2.02-2.81.71-.9,1.41-1.81,1.63-2.74.22-.93-.03-1.88-.6-2.6-.57-.71-1.46-1.19-2.1-1.05-.63.15-1.01.91-1.95,1.5-.94.58-2.45.98-3.97,1.09-1.52.11-3.05-.07-3.81-.37-.76-.29-.76-.69-1.31-1.09-.55-.4-1.65-.79-3.16-.92s-3.43.02-5.35-.18c-1.93-.19-3.86-.72-5.32-.76-1.46-.04-2.44.42-3.89.5-1.45.08-3.35-.2-5.28-.53-1.92-.32-3.85-.69-5.44-1.32-1.59-.64-2.83-1.54-3.55-2.56-.72-1.01-.92-2.13-1.88-3.57-.97-1.44-2.71-3.21-4.33-4.74-1.62-1.53-3.1-2.84-4.06-4.07-.96-1.24-1.39-2.41-1.99-3.19-.61-.78-1.39-1.15-1.78-.91-.39.24-.38,1.11.38,2.47.75,1.37,2.25,3.24,3.56,5,1.32,1.76,2.46,3.42,2.31,3.9-.15.48-1.61-.22-2.36-.88-.75-.67-.8-1.31-1.37-1.94-.57-.63-1.67-1.26-2.12-1.93-.46-.67-.27-1.39-.51-2.03-.24-.64-.9-1.2-1.6-2.44-.7-1.24-1.46-3.15-2.52-4.58-1.07-1.42-2.45-2.36-3.74-4.17-1.29-1.82-2.48-4.52-3.07-6.95-.59-2.43-.58-4.6-.31-6.42.27-1.82.79-3.3,1.08-4.87.28-1.57.33-3.22.67-4.16.35-.94,1-1.17.63-1.98-.37-.81-1.75-2.19-2.66-4.13-.91-1.94-1.33-4.43-1.77-6.76-.43-2.33-.87-4.49-1.43-5.73-.56-1.24-1.24-1.56-1.85-2.26-.61-.7-1.15-1.77-1.86-2.68-.71-.91-1.6-1.66-2.28-2.47-.68-.81-1.15-1.68-1.63-1.95-.48-.28-.96.04-1.74.11-.79.07-1.88-.1-2.13-.53-.25-.43.33-1.12.12-1.36-.22-.23-1.23-.01-1.75.27-.51.29-.52.63-1.58.99-1.06.36-3.17.72-5.15.53-1.98-.2-3.83-.96-4.05-1.18s1.19.11,2.47.21c1.28.1,2.44-.03,3.33-.34.89-.3,1.52-.78,1.54-1.09.02-.31-.56-.46-1.03-1.28-.47-.82-.81-2.3-.82-3.59-.01-1.3.32-2.41.94-3.15.63-.74,1.56-1.1,2.44-1.09.89.01,1.73.4,2.36.38s1.04-.44.86-.92c-.18-.48-.94-1.02-1.27-1.78s-.22-1.74.27-2.11,1.36-.13,1.89.29c.53.42.72,1.03.98.68.26-.35.59-1.64,1.46-2.49.87-.85,2.29-1.24,3.53-1.33,1.25-.09,2.33.13,3.01.63.68.5.97,1.29,1.57,2.19.6.9,1.51,1.91,2.09,2.43.59.53.85.57,1.43,1.19.58.63,1.48,1.84,2.86,2.29,1.38.45,3.25.14,4.34.31,1.08.17,1.37.82,1.84,1.11.47.29,1.11.2,2.27.67,1.16.47,2.83,1.49,3.69,2.2.87.71.93,1.11,1.74,1,.81-.11,2.38-.74,3.37-.85.99-.11,1.41.3,2.26.5.85.19,2.13.17,2.73-.02.6-.18.5-.52.88-.68.38-.15,1.23-.12,1.62-.39.4-.27.34-.84.03-1.35-.31-.51-.89-.98-1.18-1.72-.29-.75-.31-1.79-.07-2.19.24-.4.74-.18,1.36.36.62.54,1.36,1.4,1.72,1.82q.37.43.52.45c.15.03.45.08.99.59.54.51,1.32,1.48,1.59,1.2.28-.28.06-1.81.41-2.55.36-.74,1.3-.68,2.02-.13.72.55,1.23,1.6,1.1,2.45-.13.85-.89,1.5-1.25,2.35-.36.86-.33,1.92-.54,2.75-.21.83-.67,1.42-1.2,2.73-.53,1.3-1.13,3.32-1.37,4.89-.23,1.57-.1,2.69.19,3.24.29.56.73.55,1.21.99.48.44.99,1.31,1.75,1.68.76.36,1.76.22,3,.36,1.24.14,2.72.57,3.88.66,1.16.09,2-.15,2.88.46.88.61,1.79,2.09,2.59,2.97.8.88,1.47,1.17,1.85.86.38-.31.47-1.21.08-2.12-.39-.91-1.25-1.84-1.46-3.01-.21-1.18.23-2.6-.1-3.77-.33-1.16-1.44-2.06-1.98-2.85-.54-.79-.53-1.48-.94-2.41-.41-.92-1.26-2.09-1.23-2.96.03-.87.94-1.46,1.86-1.6s1.86.16,2.53.2c.67.04,1.08-.18,1.66.18.58.37,1.33,1.32,2.01,1.84.68.52,1.29.61,1.56-.1.27-.7.19-2.19,1.08-2.47.89-.28,2.75.65,3.76,1.3,1,.64,1.14,1,1.99,1.09.85.09,2.4-.09,3.81.16,1.41.25,2.67.92,3.15,2.18.48,1.26.2,3.1-.75,4.72-.94,1.62-2.55,3.03-3.54,5.04-.99,2.01-1.37,4.63-1.23,4.91.14.28.82-1.79,1.87-2.37,1.06-.58,2.5.32,3.89.28,1.39-.04,2.74-1.03,3-.29.26.74-.57,3.2-1.4,4.32-.83,1.12-1.66.9-2.41,1.41-.75.51-1.43,1.76-1.48,2.87-.06,1.11.51,2.07.34,2.98-.16.91-1.05,1.75-1.65,3.3-.6,1.54-.93,3.79-.86,5.5.07,1.72.53,2.91.35,4.22-.18,1.31-1.01,2.75-1.8,4.54-.79,1.79-1.55,3.93-1.35,5.8s1.35,3.46,1.78,4.77c.43,1.31.13,2.35-.88,1.96s-2.75-2.2-4.25-2.99c-1.5-.79-2.77-.56-4.14-.14-1.36.42-2.82,1.02-3.45,1.56-.63.54-.44,1.03-.89,1.29-.45.26-1.55.31-2.83.56-1.28.25-2.73.72-4.04,1.62-1.32.9-2.49,2.24-3.08,4.15-.59,1.91-.59,4.39.01,6.39.6,1.99,1.8,3.5,2.81,4.33,1.01.83,1.82.97,3.14.54,1.32-.43,3.16-1.44,4.15-2.38.99-.94,1.13-1.81,1.98-2.63.86-.82,2.43-1.59,3.07-.73.64.86.34,3.36.06,4.8-.28,1.44-.54,1.82.49,1.61,1.03-.21,3.36-1.01,4.85-1.35,1.49-.34,2.16-.23,2.42.66.26.89.12,2.55.72,3.63s1.93,1.6,3.04,1.49c1.11-.12,2-.87,3.12-1.39,1.13-.52,2.5-.81,3.45-1.52.95-.71,1.49-1.84,2.54-3.27,1.05-1.44,2.62-3.19,3.54-3.82.92-.63,1.18-.15,1.84-.37.66-.23,1.72-1.16,2.43-1.56.71-.4,1.06-.26,1.89-.71.82-.45,2.12-1.5,3.37-2.56,1.26-1.07,2.48-2.15,3.03-2.46.55-.31.41.16,1.02.18.61.02,1.96-.41,3.04-.62,1.08-.21,1.88-.19,2.64-.54.77-.35,1.5-1.06,2.22-1.78.71-.72,1.41-1.45,2.02-1.91.61-.47,1.14-.67,1.64-.51.5.16.97.68,1.15,1.22.18.54.05,1.09.24,1.03.19-.06.69-.74,1.28-1.44.59-.71,1.27-1.44,1.91-2.2.64-.75,1.25-1.52,1.92-2.58.66-1.06,1.38-2.41,1.96-3.38.58-.98,1.01-1.59,1.37-2.24.36-.65.65-1.34.68-1.16.03.18-.2,1.23-.63,2.67-.43,1.44-1.05,3.25-1.37,4.16q-.31.91-.64,1.71c-.33.8-.99,2.4-1.68,3.98-.7,1.58-1.44,3.14-2.22,4.68-.78,1.54-1.6,3.06-2.46,4.56-.86,1.5-1.76,2.97-2.7,4.43-.94,1.45-1.91,2.88-2.92,4.28s-2.06,2.77-3.14,4.12c-1.08,1.35-2.2,2.66-3.36,3.95-1.15,1.29-2.34,2.54-3.56,3.77-1.22,1.22-2.47,2.42-3.75,3.58-1.28,1.16-2.59,2.29-3.93,3.37-1.34,1.09-2.7,2.14-4.09,3.16-1.39,1.02-2.81,2-3.32,2.36-.52.36-.14.11.38-.29m-56.17-112.02c.35.05.55-.23.81,0,.26.22.57.93.7.9.13-.04.07-.83.3-1.12.23-.29.75-.09,1.13.47.38.56.63,1.47,1.12,2.16.49.69,1.22,1.15,1.49,1.75.27.6.08,1.34-.39,1.62-.47.28-1.22.1-2.36.2s-2.66.46-3.8.22c-1.14-.24-1.88-1.1-1.77-1.61.12-.51,1.09-.66,1.06-.83-.03-.17-1.08-.34-1.41-.62-.33-.28.06-.67-.04-.97s-.68-.5-.78-.9c-.11-.4.25-.99.76-1.37s1.15-.55,1.73-.45c.58.11,1.09.49,1.45.55m15.59-3.9c-.38-.02-.78-.45-.61-.65s.92-.17,1.13.05c.2.22-.14.62-.52.61m-1.92.14c.58.09,1.26.82,1.72.91.46.09.71-.46,1.85-.62,1.14-.16,3.18.07,4.58.38,1.4.31,2.15.7,2.47,1.11s.21.82,1.03,1c.83.18,2.6.11,3.68.63,1.08.51,1.47,1.6,1.17,2.03-.3.43-1.28.2-1.78.33-.49.13-.49.63,0,.99.49.35,1.45.56,2.27,1.02.82.46,1.5,1.18,1.29,1.57-.21.39-1.3.45-1.28.7.02.26,1.16.71,1.39,1.05.23.34-.45.56-1.71.56-1.27,0-3.13-.21-4.33-.11s-1.76.51-2.21.45c-.45-.06-.79-.58-.59-1.09.2-.51.94-1.02,1.14-1.78.2-.76-.13-1.79-.48-2.45-.35-.66-.72-.96-1.34-1.14-.62-.17-1.49-.22-2.28-.46-.8-.24-1.52-.68-2.02-.7-.5-.02-.79.38-1.67.66-.88.28-2.34.44-3.38.08-1.04-.36-1.65-1.24-1.94-2.06-.29-.82-.26-1.58-.06-1.92.2-.33.56-.23.98-.46.42-.22.91-.77,1.49-.67m-7.01,1.72c.38.29.67.91.73,1.6.06.69-.1,1.44-.61,1.53s-1.35-.48-1.6-.84c-.25-.36.08-.51.2-.89s.03-1,.22-1.32c.19-.32.67-.36,1.05-.06m-32.63-29.96c.21-.09.35.22.21.46-.14.24-.55.41-.62.26s.21-.63.41-.71m34.38,31.71c-.24,0-.47-.44-.54-1.01-.07-.57,0-1.25.36-1.6.36-.35,1.01-.36,1.22-.02.21.34-.03,1.02-.28,1.59-.25.57-.52,1.04-.76,1.05m-14.96,2.09c-.45-.22-.83-.85-.72-1.61.11-.76.69-1.66.95-2.28.26-.63.19-.98.72-1.04.53-.06,1.64.18,2.34.51.7.33.98.74.78,1.18-.2.43-.89.89-1.39,1.4-.5.52-.83,1.1-1.26,1.48s-.96.57-1.42.35m-18.1-30.55c.18-.26.72-.63.81-.56.09.07-.26.58-.53.77s-.46.05-.28-.21m31.55,24.19c-.14-.15.04-.59.27-.65.23-.06.5.25.41.46-.09.22-.55.35-.68.19m-30.9-26.24c-.11-.38.03-1.02.49-1.37.46-.34,1.23-.39,1.55-.2.33.19.21.63-.07,1.03-.27.4-.7.78-1.1.9-.4.13-.77,0-.88-.37m29.64,26.08c-.08.47-.49.5-.86.18-.37-.31-.71-.97-.63-1.43.08-.47.58-.74.96-.43.37.31.61,1.21.53,1.68m-3.39-.53c.15.32.13.84-.33,1.27-.46.43-1.35.75-1.76.72-.41-.04-.33-.44-.72-.69-.39-.25-1.26-.34-1.49-.71-.23-.37.17-1.01.8-1.05.63-.04,1.49.53,1.98.62.49.09.6-.31.82-.45.22-.14.55-.03.7.29m7.4-43.92c.48.24.73.56.52,1.06-.22.5-.91,1.17-1.51,1.7-.6.53-1.11.93-1.82,1.27-.71.35-1.61.64-2.55.89-.93.24-1.9.43-2.38.39-.48-.04-.47-.31.03-.59.49-.28,1.47-.58,2.24-.86s1.32-.56,1.96-.99c.64-.43,1.38-1,1.66-1.6.28-.6.12-1.22.39-1.45s.97-.07,1.45.18m-1.75,41.73c.48.29,1.02.79,1.79.82.78.03,1.79-.42,2.49-.49.7-.07,1.08.23,1.2.57.12.33-.04.69-.54,1.05-.5.36-1.36.72-2.14.87-.78.15-1.48.1-2.05-.28s-1.01-1.11-1.47-1.53c-.46-.43-.94-.56-1.05-.75-.11-.19.15-.43.5-.52.35-.09.78-.02,1.27.27m-9.92.45c-.3.39-.84.78-1.31.92-.47.14-.86.04-.74-.34s.75-1.04,1.25-1.38.87-.37,1.02-.19c.15.19.09.59-.22.99m18.31-30.2c.08.19-.13.51-.31.47s-.33-.41-.23-.57c.1-.16.46-.1.53.09m-13.14,27.61c-.34-.22-.67-.7-.51-.72.17-.02.84.43,1.01.67s-.17.27-.5.05m-12.77-30.24c.32.05.52.58.29.79-.22.21-.87.1-.97-.16-.1-.26.35-.68.67-.62m24.64,4.04c.23-.16.58-.07,1.22-.14.64-.07,1.56-.29,1.74.03.18.33-.37,1.2-.82,1.74-.45.54-.79.73-1.23.64-.45-.09-1-.46-1.24-.73s-.16-.43-.07-.71c.09-.28.19-.68.41-.83m-1.75-.32c.36.05.76.43.87.8.12.36-.05.71-.37.76-.33.05-.81-.2-1.09-.43-.28-.23-.34-.44-.21-.68.13-.24.44-.51.8-.46m-6.27-2.66c.18.06.1.28-.11.33-.22.05-.57-.06-.53-.18.04-.11.47-.22.65-.16m-15.08-.82c.39-.04.99.03,1.49.2s.89.44.99.82c.1.38-.1.86-.57.92s-1.22-.31-1.71-.65-.72-.66-.75-.89c-.03-.23.15-.37.54-.4m16.14,27.73c.04.37-.06,1-.33,1.36-.27.36-.7.45-1.02.24-.32-.21-.52-.73-.85-1.15-.33-.42-.8-.73-1.02-1.18s-.19-1.01-.08-1.33c.11-.32.3-.39.68-.26s.96.48,1.36.8.62.62.82.82c.2.21.39.32.43.69m1.49-7.46c.32,0,.64.11.99.9.36.79.76,2.25.79,3.23.04.98-.29,1.47-.26,1.86.03.39.42.67.69,1.49s.42,2.19-.1,3.01c-.51.82-1.68,1.1-2.37.73-.69-.37-.9-1.38-.97-2.17-.07-.79,0-1.37-.51-2.19-.51-.82-1.61-1.87-2.02-2.65-.41-.78-.13-1.28.13-1.49.26-.21.5-.11.63-.31.13-.19.16-.67.47-1.08.32-.41.93-.76,1.39-1s.79-.35,1.11-.35m3.56-6.65c.35-.08.56.06.67.42.1.36.09.96.24,1.05s.47-.32.81-.56c.34-.24.71-.3.68-.61-.03-.31-.47-.85-.53-1.25-.06-.4.26-.64.77-.55.51.09,1.21.53,1.96.86.74.34,1.53.58,2.42.69.89.11,1.88.1,2.48.28s.8.55,1.05.66c.25.11.55-.06,1.2-.09.65-.04,1.66.06,2.61.52.96.47,1.87,1.31,2.86,1.67s2.08.23,2.66.32.67.39.44.63c-.23.24-.78.41-.74.65.04.24.68.55,1.05.4s.49-.78.94-.52c.45.26,1.25,1.42,1.66,2.38.42.96.45,1.72.79,2.48.33.76.96,1.51,1.39,2.56.43,1.05.66,2.39,1.2,3.48.54,1.09,1.38,1.93,1.91,2.63s.75,1.27,1.43,2.03c.68.76,1.82,1.7,1.92,2.56.1.85-.85,1.62-2.16,1.82-1.31.2-2.98-.16-4.76-.81-1.77-.65-3.64-1.58-4.78-2.51-1.14-.93-1.54-1.86-1.98-2.57-.45-.71-.93-1.21-1.17-1.17-.24.04-.22.63-.6.71-.39.08-1.18-.36-1.36-.72-.18-.37.24-.67-.03-.73-.26-.06-1.22.12-1.84-.02-.63-.14-.93-.61-1.91-1.17-.98-.56-2.65-1.22-3.73-1.54-1.08-.32-1.57-.3-2.17,0s-1.28.91-1.95,1.11c-.66.2-1.3,0-1.47-.34-.16-.34.15-.81.06-.96-.09-.15-.59.03-1.08.01-.49-.02-.96-.24-1.06-.76-.1-.53.17-1.37.08-1.86-.09-.5-.54-.65-.82-1.11-.28-.46-.38-1.23-.53-1.69-.16-.46-.37-.6-.43-.88-.06-.28.04-.7.25-.98.21-.27.55-.4.63-.62.09-.22-.07-.52.16-.74.23-.22.83-.36.85-.48.02-.12-.56-.23-.95-.45s-.6-.53-.73-.95c-.13-.41-.17-.92-.11-1.37s.23-.85.56-1.19c.33-.35.81-.64,1.16-.72"/>
  <circle class="cls-1" cx="69.86" cy="66.68" r="5"/>
  <g>
    <path class="cls-4" d="m73.38,84.04h.43c.4,0,.69-.12.86-.38l2.62-3.81c.14-.21.31-.35.49-.42s.41-.11.68-.11h2.35l-3.46,4.71c-.12.17-.25.31-.38.42-.13.11-.27.21-.41.28.2.08.39.18.56.31.17.13.32.31.46.52l3.52,5.41h-2.42c-.16,0-.29-.01-.4-.03-.11-.02-.2-.05-.28-.1s-.15-.09-.21-.16c-.06-.06-.11-.13-.17-.21l-2.64-4.06c-.1-.15-.22-.25-.36-.32-.15-.06-.34-.09-.6-.09h-.66v4.96h-2.7v-11.66h2.7v4.72Z"/>
    <path class="cls-4" d="m85.79,82.55c.63,0,1.2.1,1.72.3.52.2.96.48,1.33.85.37.37.66.81.86,1.34.21.53.31,1.12.31,1.77s-.1,1.26-.31,1.79c-.21.53-.49.98-.86,1.35-.37.37-.82.66-1.33.86-.52.2-1.09.3-1.72.3s-1.21-.1-1.73-.3c-.52-.2-.97-.49-1.34-.86s-.67-.82-.87-1.35c-.21-.53-.31-1.13-.31-1.79s.1-1.25.31-1.77c.21-.53.5-.97.87-1.34.38-.37.82-.65,1.34-.85.52-.2,1.1-.3,1.73-.3Zm0,6.71c.57,0,.99-.2,1.26-.6.27-.4.4-1.01.4-1.84s-.13-1.43-.4-1.83c-.27-.4-.69-.6-1.26-.6s-1.02.2-1.29.6c-.27.4-.41,1.01-.41,1.83s.14,1.43.41,1.84c.27.4.7.6,1.29.6Z"/>
    <path class="cls-4" d="m94.66,91.11c-.39,0-.74-.06-1.04-.17-.3-.11-.55-.28-.76-.49-.21-.21-.36-.46-.47-.76-.11-.3-.16-.63-.16-1v-4.29h-.7c-.13,0-.24-.04-.33-.12s-.14-.2-.14-.36v-.97l1.32-.26.49-2.02c.06-.26.25-.38.54-.38h1.3v2.42h2.02v1.7h-2.02v4.12c0,.19.05.35.14.48.09.12.23.19.4.19.09,0,.17,0,.23-.03.06-.02.11-.04.16-.06.04-.02.09-.04.13-.06.04-.02.09-.03.14-.03.08,0,.13.02.18.05.05.03.09.09.14.16l.75,1.18c-.32.24-.68.42-1.08.54-.4.12-.81.18-1.24.18Z"/>
    <path class="cls-4" d="m105.01,83.67c0,.17-.03.33-.1.49-.06.15-.14.29-.22.4l-3.46,4.58h3.7v1.84h-6.56v-1.01c0-.1.03-.23.08-.38.06-.15.13-.3.24-.44l3.5-4.63h-3.59v-1.84h6.42v.99Z"/>
    <path class="cls-4" d="m110.42,82.55c.55,0,1.05.08,1.51.26s.85.42,1.18.74.58.72.77,1.2c.18.47.28,1.01.28,1.6,0,.19,0,.34-.02.46-.02.12-.04.21-.09.28-.04.07-.1.12-.17.14-.07.03-.16.04-.28.04h-4.78c.08.69.29,1.2.63,1.51.34.31.78.47,1.32.47.29,0,.54-.03.74-.1s.39-.15.56-.23c.16-.09.31-.16.45-.23.14-.07.28-.1.43-.1.2,0,.35.07.45.22l.72.89c-.26.29-.53.53-.83.72s-.6.33-.91.43c-.31.1-.62.18-.94.22-.31.04-.61.06-.89.06-.58,0-1.13-.09-1.64-.28-.51-.19-.96-.47-1.34-.84-.38-.37-.68-.84-.9-1.39-.22-.55-.33-1.2-.33-1.94,0-.55.09-1.08.28-1.58.19-.5.46-.93.82-1.3.35-.37.78-.67,1.29-.89.5-.22,1.07-.33,1.71-.33Zm.05,1.71c-.47,0-.85.13-1.11.4-.27.27-.44.66-.53,1.16h3.1c0-.2-.03-.39-.08-.58-.05-.19-.13-.35-.25-.5-.12-.15-.27-.27-.45-.36-.19-.09-.41-.14-.68-.14Z"/>
    <path class="cls-4" d="m116.13,90.98v-11.98h2.48v4.56c.31-.3.66-.55,1.05-.73s.85-.28,1.38-.28c.43,0,.83.09,1.2.28.37.19.69.46.95.82.27.36.48.8.63,1.32.15.52.23,1.12.23,1.78,0,.62-.09,1.2-.26,1.73-.17.53-.42.99-.73,1.38-.31.39-.69.69-1.12.91-.43.22-.92.33-1.44.33-.25,0-.46-.02-.66-.07-.19-.05-.37-.12-.54-.2-.16-.09-.31-.19-.45-.32-.14-.12-.27-.26-.4-.4l-.09.42c-.04.17-.11.29-.2.35s-.23.1-.39.1h-1.65Zm4.05-6.56c-.18,0-.34.02-.49.05-.15.03-.28.08-.41.15-.13.06-.24.15-.35.24-.11.1-.21.21-.32.34v3.52c.19.21.39.35.61.44.22.08.45.12.69.12s.44-.05.63-.14.36-.24.5-.44c.14-.2.25-.46.33-.78.08-.32.12-.71.12-1.17s-.03-.81-.1-1.1c-.06-.3-.15-.54-.27-.72-.11-.18-.25-.32-.41-.4s-.34-.12-.54-.12Z"/>
    <path class="cls-4" d="m128.37,82.68v5.26c0,.41.09.73.28.95.19.22.46.34.82.34.27,0,.53-.06.76-.17.24-.11.47-.27.69-.47v-5.91h2.48v8.3h-1.54c-.31,0-.51-.14-.61-.42l-.15-.48c-.16.15-.33.29-.5.42-.17.13-.35.23-.55.32-.2.09-.4.16-.63.21-.22.05-.47.08-.74.08-.45,0-.85-.08-1.2-.24s-.64-.38-.88-.66-.42-.62-.54-1c-.12-.38-.18-.81-.18-1.26v-5.26h2.48Z"/>
    <path class="cls-4" d="m139.44,82.55c.55,0,1.05.08,1.51.26s.85.42,1.18.74.58.72.77,1.2c.18.47.28,1.01.28,1.6,0,.19,0,.34-.02.46-.02.12-.04.21-.09.28-.04.07-.1.12-.17.14-.07.03-.16.04-.28.04h-4.78c.08.69.29,1.2.63,1.51.34.31.78.47,1.32.47.29,0,.54-.03.74-.1s.39-.15.56-.23c.16-.09.31-.16.45-.23.14-.07.28-.1.43-.1.2,0,.35.07.45.22l.72.89c-.26.29-.53.53-.83.72s-.6.33-.91.43c-.31.1-.62.18-.94.22-.31.04-.61.06-.89.06-.58,0-1.13-.09-1.64-.28-.51-.19-.96-.47-1.34-.84-.38-.37-.68-.84-.9-1.39-.22-.55-.33-1.2-.33-1.94,0-.55.09-1.08.28-1.58.19-.5.46-.93.82-1.3.35-.37.78-.67,1.29-.89.5-.22,1.07-.33,1.71-.33Zm.05,1.71c-.47,0-.85.13-1.11.4-.27.27-.44.66-.53,1.16h3.1c0-.2-.03-.39-.08-.58-.05-.19-.13-.35-.25-.5-.12-.15-.27-.27-.45-.36-.19-.09-.41-.14-.68-.14Z"/>
  </g>
</svg>