<?xml version="1.0" encoding="UTF-8"?>
<svg id="greenland" xmlns="http://www.w3.org/2000/svg" viewBox="0 0 200 200">
  <defs>
    <style>
      .cls-1 {
        fill: #f38c15;
      }

      .cls-2 {
        fill: #333;
      }

      .cls-3 {
        stroke: #f38c15;
        stroke-width: 1.5px;
      }

      .cls-3, .cls-4 {
        fill: #666;
      }

      .cls-3, .cls-4, .cls-5 {
        stroke-miterlimit: 3.65;
      }

      .cls-4 {
        stroke: #333;
      }

      .cls-5 {
        fill: none;
        stroke: #666;
        stroke-width: .46px;
      }
    </style>
  </defs>
  <path class="cls-2" d="m94.8,198.86c-1.73-.09-3.45-.23-5.17-.41-1.72-.18-3.43-.41-5.14-.68-1.71-.27-3.41-.59-5.1-.94-1.69-.36-3.37-.76-5.04-1.21-1.67-.45-3.33-.94-4.97-1.47-1.64-.53-3.27-1.11-4.89-1.73s-3.21-1.28-4.79-1.98c-1.58-.7-3.14-1.45-4.68-2.23-1.54-.78-3.06-1.61-4.55-2.47-1.5-.86-2.97-1.77-4.42-2.71-1.45-.94-2.87-1.92-4.27-2.94-1.4-1.02-2.77-2.07-4.11-3.15s-2.66-2.21-3.94-3.37c-1.28-1.16-2.54-2.35-3.76-3.57s-2.41-2.48-3.57-3.76c-1.16-1.28-2.28-2.6-3.37-3.94s-2.14-2.71-3.15-4.11c-1.02-1.4-1.99-2.82-2.94-4.27s-1.84-2.92-2.71-4.42c-.86-1.5-1.69-3.01-2.47-4.55-.78-1.54-1.53-3.1-2.23-4.68-.7-1.58-1.36-3.17-1.98-4.79s-1.2-3.24-1.73-4.89c-.53-1.64-1.02-3.3-1.47-4.97-.45-1.67-.85-3.35-1.21-5.04-.36-1.69-.67-3.39-.94-5.1-.27-1.71-.5-3.42-.68-5.14-.18-1.72-.32-3.44-.41-5.17-.09-1.73-.14-3.45-.14-5.18s.05-3.46.14-5.18.23-3.45.41-5.17c.18-1.72.41-3.43.68-5.14.27-1.71.59-3.41.94-5.1.36-1.69.76-3.37,1.21-5.04.45-1.67.94-3.33,1.47-4.97.53-1.64,1.11-3.27,1.73-4.89.62-1.61,1.28-3.21,1.98-4.79s1.45-3.14,2.23-4.68,1.61-3.06,2.47-4.55c.86-1.5,1.77-2.97,2.71-4.42.94-1.45,1.92-2.87,2.94-4.27,1.02-1.4,2.07-2.77,3.15-4.11s2.21-2.66,3.37-3.94,2.35-2.54,3.57-3.76c1.22-1.22,2.48-2.41,3.76-3.57,1.28-1.16,2.6-2.28,3.94-3.37s2.71-2.14,4.11-3.15c1.4-1.02,2.82-1.99,4.27-2.94s2.92-1.84,4.42-2.71c1.5-.86,3.01-1.69,4.55-2.47,1.54-.78,3.1-1.53,4.68-2.23,1.58-.7,3.17-1.36,4.79-1.98,1.61-.62,3.24-1.2,4.89-1.73,1.64-.53,3.3-1.02,4.97-1.47,1.67-.45,3.35-.85,5.04-1.21,1.69-.36,3.39-.67,5.1-.94,1.71-.27,3.42-.5,5.14-.68s3.44-.32,5.17-.41,3.45-.14,5.18-.14,3.46.05,5.18.14,3.45.23,5.17.41c1.72.18,3.43.41,5.14.68,1.71.27,3.41.59,5.1.94,1.69.36,3.37.76,5.04,1.21,1.67.45,3.33.94,4.97,1.47,1.64.53,3.27,1.11,4.89,1.73s3.21,1.28,4.79,1.98c1.58.7,3.14,1.45,4.68,2.23,1.54.78,3.06,1.61,4.55,2.47,1.5.86,2.97,1.77,4.42,2.71,1.45.94,2.87,1.92,4.27,2.94,1.4,1.02,2.77,2.07,4.11,3.15s2.66,2.21,3.94,3.37c1.28,1.16,2.54,2.35,3.76,3.57,1.22,1.22,2.41,2.48,3.57,3.76,1.16,1.28,2.28,2.6,3.37,3.94,1.09,1.34,2.14,2.71,3.15,4.11,1.02,1.4,1.99,2.82,2.94,4.27s1.84,2.92,2.71,4.42c.86,1.5,1.69,3.01,2.47,4.55.78,1.54,1.53,3.1,2.23,4.68.7,1.58,1.36,3.17,1.98,4.79s1.2,3.24,1.73,4.89c.53,1.64,1.02,3.3,1.47,4.97.45,1.67.85,3.35,1.21,5.04.36,1.69.67,3.39.94,5.1.27,1.71.5,3.42.68,5.14.18,1.72.32,3.44.41,5.17.09,1.73.14,3.45.14,5.18s-.05,3.46-.14,5.18c-.09,1.73-.23,3.45-.41,5.17-.18,1.72-.41,3.43-.68,5.14-.27,1.71-.59,3.41-.94,5.1-.36,1.69-.76,3.37-1.21,5.04-.45,1.67-.94,3.33-1.47,4.97-.53,1.64-1.11,3.27-1.73,4.89s-1.28,3.21-1.98,4.79c-.7,1.58-1.45,3.14-2.23,4.68-.78,1.54-1.61,3.06-2.47,4.55-.86,1.5-1.77,2.97-2.71,4.42-.94,1.45-1.92,2.87-2.94,4.27-1.02,1.4-2.07,2.77-3.15,4.11s-2.21,2.66-3.37,3.94c-1.16,1.28-2.35,2.54-3.57,3.76s-2.48,2.41-3.76,3.57c-1.28,1.16-2.6,2.28-3.94,3.37s-2.71,2.14-4.11,3.15c-1.4,1.02-2.82,1.99-4.27,2.94-1.45.94-2.92,1.84-4.42,2.71-1.5.86-3.01,1.69-4.55,2.47-1.54.78-3.1,1.53-4.68,2.23-1.58.7-3.17,1.36-4.79,1.98s-3.24,1.2-4.89,1.73c-1.64.53-3.3,1.02-4.97,1.47-1.67.45-3.35.85-5.04,1.21-1.69.36-3.39.67-5.1.94s-3.42.5-5.14.68c-1.72.18-3.44.32-5.17.41-1.73.09-3.45.14-4.32.16s-.86.02-1.73,0-2.59-.07-4.32-.16"/>
  <path class="cls-5" d="m42.75,19.29c.33-.19.68-.36,1.04-.52.36-.15.73-.29,1.11-.41.38-.12.78-.22,1.19-.31.41-.08.83-.15,1.26-.2.43-.05.87-.08,1.32-.09.45-.01.92,0,1.39.01.47.02.96.06,1.72.18.76.11,1.79.3,2.87.56,1.07.26,2.18.59,3.33.99,1.15.4,2.33.87,3.55,1.41,1.22.54,2.47,1.14,3.75,1.82,1.28.67,2.59,1.41,3.93,2.22,1.34.81,2.7,1.68,4.09,2.61,1.39.93,2.8,1.93,4.23,2.99,1.43,1.06,2.88,2.17,4.35,3.35,1.47,1.17,2.95,2.41,4.44,3.69,1.49,1.29,3,2.63,4.51,4.02,1.51,1.39,3.04,2.83,4.56,4.32M27.79,167.62c-.34-.45-.66-.92-.96-1.41-.3-.49-.57-1.01-.81-1.54-.25-.54-.47-1.09-.67-1.67-.2-.58-.37-1.18-.52-1.79-.15-.62-.27-1.26-.37-1.91s-.17-1.33-.22-2.03c-.05-.7-.07-1.41-.07-2.18,0-.77.03-1.61.09-2.46s.15-1.73.27-2.62c.12-.89.27-1.81.46-2.74.18-.93.39-1.89.64-2.86.24-.97.51-1.96.82-2.96.3-1,.63-2.03.99-3.06.36-1.04.75-2.09,1.17-3.16.42-1.07.86-2.15,1.34-3.24s.98-2.2,1.51-3.32c.53-1.12,1.09-2.25,1.67-3.39.58-1.14,1.2-2.29,1.83-3.45.64-1.16,1.3-2.33,1.99-3.5.69-1.17,1.4-2.36,2.14-3.54.74-1.19,1.5-2.38,2.29-3.58.79-1.2,1.6-2.4,2.43-3.61.83-1.21,1.69-2.41,3.04-4.23s3.19-4.24,5.1-6.66c1.92-2.42,3.91-4.83,5.97-7.23,2.06-2.4,4.19-4.78,6.38-7.13,2.19-2.35,4.43-4.67,6.72-6.96,2.29-2.28,4.63-4.53,7-6.72,2.37-2.19,4.78-4.34,7.21-6.42s4.89-4.1,7.35-6.05m66.87,122.8c.39-.4.76-.83,1.1-1.3.34-.47.65-.97.94-1.51.28-.54.54-1.11.77-1.71.23-.6.43-1.24.6-1.91.17-.67.32-1.37.43-2.11.11-.74.2-1.5.26-2.3.06-.8.09-1.63.09-2.46,0-.83-.02-1.67-.08-2.53-.05-.86-.13-1.75-.23-2.66-.1-.91-.23-1.85-.38-2.81-.15-.96-.33-1.94-.53-2.94-.2-1-.43-2.03-.68-3.08-.25-1.05-.53-2.11-.83-3.2-.3-1.09-.63-2.19-.98-3.32-.35-1.12-.73-2.27-1.36-4.03-.63-1.76-1.52-4.15-2.5-6.58-.98-2.44-2.05-4.93-3.21-7.47-1.16-2.54-2.4-5.12-3.72-7.73-1.32-2.61-2.72-5.26-4.19-7.92-1.47-2.66-3.01-5.34-4.62-8.03-1.61-2.69-3.28-5.38-5.01-8.06-1.73-2.68-3.52-5.36-5.35-8.02-1.83-2.66-3.72-5.29-5.64-7.89-1.92-2.6-3.88-5.17-5.87-7.7-1.99-2.52-4.01-5-6.05-7.42-2.04-2.42-4.1-4.78-6.17-7.08m63.82-27.11c-.37-.31-.75-.61-1.15-.88-.4-.28-.82-.54-1.25-.78-.43-.24-.88-.47-1.35-.68s-.95-.4-1.45-.57-1.01-.33-1.54-.47-1.07-.26-1.63-.36c-.56-.1-1.13-.19-1.72-.26-.59-.07-1.19-.12-1.81-.15-.62-.03-1.25-.05-1.89-.04s-1.3.02-1.97.06c-.67.04-1.35.1-2.42.23-1.06.14-2.5.36-3.99.65-1.49.29-3.02.65-4.6,1.08s-3.19.93-4.85,1.5c-1.65.57-3.35,1.2-5.07,1.9-1.72.7-3.48,1.47-5.26,2.3-1.78.83-3.59,1.73-5.42,2.68s-3.68,1.97-5.55,3.05c-1.87,1.08-3.76,2.21-5.65,3.4-1.9,1.19-3.81,2.43-5.72,3.73M1.08,103.75c.06,1.25.16,2.49.28,3.73.13,1.24.28,2.48.47,3.72.19,1.24.41,2.47.66,3.7s.53,2.45.84,3.67c.31,1.22.65,2.43,1.03,3.63.37,1.2.78,2.4,1.21,3.59.43,1.19.9,2.37,1.39,3.54.49,1.17,1.01,2.33,1.57,3.49s1.13,2.29,1.74,3.42c.61,1.13,1.25,2.25,1.91,3.35.66,1.11,1.36,2.2,2.08,3.28s1.47,2.15,2.24,3.2c.77,1.05,1.57,2.09,2.4,3.11.83,1.02,1.68,2.03,2.55,3.02.88.99,1.78,1.96,2.7,2.92.93.96,1.88,1.89,2.85,2.81.97.92,1.97,1.82,2.99,2.7s2.06,1.74,3.12,2.59c1.06.84,2.14,1.66,3.25,2.47,1.1.8,2.23,1.58,3.37,2.34s2.3,1.5,3.48,2.21c1.18.72,2.38,1.41,3.59,2.08,1.21.67,2.45,1.32,3.69,1.94,1.25.62,2.51,1.22,3.79,1.8,1.28.58,2.57,1.13,3.87,1.65,1.3.53,2.62,1.03,3.95,1.51,1.33.48,2.67.93,4.03,1.36,1.35.43,2.72.83,4.09,1.2,1.37.37,2.76.72,4.15,1.05,1.39.32,2.79.62,4.2.89,1.41.27,2.82.51,4.24.73,1.42.22,2.84.41,4.27.57,1.43.16,2.86.3,4.29.41,1.43.11,2.87.19,4.31.24,1.44.05,2.88.08,4.32.08s2.88-.03,4.32-.08c1.44-.05,2.88-.14,4.31-.24,1.43-.11,2.87-.24,4.29-.41,1.43-.16,2.85-.35,4.27-.57,1.42-.22,2.83-.46,4.24-.73,1.41-.27,2.8-.57,4.2-.89,1.39-.32,2.77-.67,4.15-1.05,1.37-.37,2.74-.78,4.09-1.2,1.35-.43,2.7-.88,4.03-1.36,1.33-.48,2.65-.98,3.95-1.51,1.3-.53,2.6-1.08,3.87-1.65,1.28-.58,2.54-1.18,3.79-1.8,1.25-.62,2.48-1.27,3.69-1.94,1.21-.67,2.41-1.36,3.59-2.08,1.18-.72,2.34-1.45,3.48-2.21,1.14-.76,2.27-1.54,3.37-2.34,1.1-.8,2.19-1.62,3.25-2.47,1.06-.84,2.1-1.7,3.12-2.59,1.02-.88,2.01-1.78,2.99-2.7.97-.92,1.92-1.86,2.85-2.81.93-.96,1.83-1.93,2.7-2.92.88-.99,1.73-2,2.55-3.02.83-1.02,1.63-2.06,2.4-3.11.77-1.05,1.52-2.12,2.24-3.2s1.41-2.17,2.08-3.28c.66-1.11,1.3-2.22,1.91-3.35.61-1.13,1.19-2.27,1.74-3.42s1.07-2.31,1.57-3.49.96-2.35,1.39-3.54c.43-1.19.84-2.39,1.21-3.59.37-1.2.71-2.42,1.03-3.63.31-1.22.59-2.44.84-3.67.25-1.23.47-2.46.66-3.7.19-1.24.34-2.48.47-3.72.13-1.24.22-2.49.28-3.73.06-1.25.09-2.49.11-3.12M29.77,30.26c.31-.27.63-.53.97-.78.34-.25.68-.48,1.04-.7.36-.22.73-.43,1.32-.7.59-.27,1.41-.62,2.27-.91s1.77-.53,2.71-.71c.95-.19,1.94-.32,2.98-.4s2.11-.11,3.23-.09c1.12.02,2.27.1,3.46.22,1.19.13,2.42.31,3.68.54,1.26.23,2.56.51,3.89.85,1.33.33,2.69.72,4.08,1.15,1.39.43,2.81.92,4.25,1.45,1.44.53,2.91,1.12,4.4,1.75,1.49.63,3,1.31,4.54,2.04,1.53.73,3.09,1.5,4.65,2.32,1.57.82,3.15,1.68,4.75,2.59m-63.51,5.01c.31-.39.64-.77.98-1.14.34-.37.7-.73,1.08-1.07.37-.35.77-.68,1.17-1,.41-.32.83-.63,1.27-.93.44-.3.89-.58,1.36-.86.47-.27.95-.53,1.45-.78.5-.25,1.01-.48,1.54-.71.53-.22,1.07-.43,1.63-.63.56-.2,1.13-.38,2.03-.62.9-.24,2.13-.53,3.41-.77,1.28-.24,2.62-.43,4-.56,1.38-.13,2.82-.21,4.3-.24,1.48-.03,3.01,0,4.58.07s3.18.21,4.83.39c1.65.18,3.34.42,5.07.71,1.72.29,3.48.63,5.27,1.02,1.79.39,3.61.83,5.46,1.33,1.85.49,3.72,1.04,5.61,1.63,1.89.59,3.81,1.23,5.74,1.92M9.45,60.06c.27-.52.56-1.03.87-1.53.31-.5.64-.99.99-1.47.35-.48.73-.95,1.12-1.41.39-.46.81-.91,1.24-1.34s.89-.86,1.36-1.28c.47-.42.97-.82,1.48-1.21.51-.39,1.05-.78,1.6-1.15s1.13-.73,1.72-1.08,1.2-.68,1.83-1.01c.63-.32,1.28-.63,1.94-.93.66-.3,1.35-.59,2.05-.86.7-.27,1.42-.54,2.15-.78.73-.25,1.49-.49,2.66-.8,1.18-.32,2.78-.71,4.44-1.05s3.39-.63,5.16-.87c1.78-.24,3.62-.42,5.5-.55,1.89-.13,3.82-.21,5.81-.23,1.98-.02,4.01.01,6.08.1s4.18.23,6.32.42,4.32.44,6.53.74,4.44.65,6.69,1.06M3.4,78.49c.17-.58.35-1.16.57-1.74.21-.58.45-1.16.71-1.74.26-.58.55-1.15.86-1.71.31-.56.64-1.12.99-1.67.35-.55.73-1.09,1.13-1.63.4-.54.82-1.06,1.26-1.58.44-.52.91-1.03,1.4-1.54.49-.5,1-1,1.53-1.49.53-.49,1.08-.97,1.66-1.44.57-.47,1.17-.93,1.78-1.39.61-.45,1.25-.9,1.9-1.33.66-.43,1.33-.86,2.03-1.28.69-.42,1.41-.82,2.14-1.22.73-.4,1.49-.78,2.26-1.16s1.56-.74,2.8-1.26c1.24-.52,2.92-1.18,4.68-1.81,1.75-.62,3.57-1.2,5.46-1.73,1.88-.53,3.83-1.02,5.83-1.46s4.06-.83,6.16-1.17c2.11-.34,4.26-.64,6.46-.88,2.2-.25,4.44-.44,6.72-.59,2.28-.15,4.6-.24,6.95-.29s4.73-.04,7.13.01M1.08,97.85c.06-.72.16-1.44.28-2.16.13-.72.28-1.43.47-2.15.19-.71.41-1.43.64-2.09s.47-1.28.74-1.9c.27-.62.56-1.23.87-1.84.31-.61.65-1.22,1.01-1.82s.74-1.2,1.15-1.8c.41-.6.83-1.19,1.28-1.78s.92-1.17,1.42-1.75c.49-.58,1.01-1.15,1.55-1.72s1.1-1.13,1.68-1.69c.58-.56,1.18-1.11,1.81-1.66.62-.55,1.27-1.09,1.93-1.62s1.35-1.06,2.06-1.59c.71-.52,1.43-1.04,2.58-1.79,1.15-.75,2.71-1.74,4.35-2.69,1.64-.96,3.35-1.88,5.13-2.77,1.78-.89,3.63-1.75,5.54-2.57,1.91-.82,3.89-1.6,5.92-2.35s4.12-1.45,6.26-2.12,4.33-1.29,6.56-1.87c2.23-.58,4.51-1.12,6.83-1.61s4.67-.94,7.05-1.35c2.38-.4,4.8-.76,7.24-1.08M2.69,118.11c-.07-.55-.13-1.11-.16-1.67-.03-.56-.05-1.12-.05-1.69,0-.57.03-1.14.07-1.71s.1-1.15.18-1.72c.08-.58.18-1.16.3-1.74.12-.58.25-1.16.41-1.75s.33-1.17.54-1.79c.21-.62.45-1.28.71-1.93.26-.66.55-1.31.86-1.97.31-.66.64-1.32.99-1.97.35-.66.73-1.32,1.13-1.97s.82-1.31,1.26-1.97c.44-.66.91-1.31,1.4-1.97.49-.65,1-1.31,1.53-1.96.53-.65,1.08-1.3,1.66-1.95.57-.65,1.17-1.29,1.78-1.93.61-.64,1.25-1.28,2.26-2.23,1.01-.95,2.4-2.2,3.87-3.44,1.47-1.24,3.01-2.46,4.62-3.66s3.3-2.38,5.05-3.54,3.57-2.29,5.46-3.4c1.88-1.11,3.83-2.19,5.83-3.24s4.06-2.07,6.16-3.06c2.11-.99,4.26-1.94,6.46-2.86,2.2-.92,4.44-1.8,6.72-2.64s4.6-1.65,6.95-2.41c2.35-.76,4.73-1.49,7.13-2.17M7.99,136.34c-.21-.69-.39-1.39-.54-2.1-.15-.71-.26-1.44-.34-2.17-.08-.74-.13-1.48-.14-2.24s0-1.53.06-2.3c.05-.78.14-1.57.25-2.36.12-.8.27-1.6.45-2.42s.4-1.64.62-2.39c.22-.76.45-1.45.7-2.14s.52-1.39.82-2.1c.29-.7.61-1.41.95-2.12s.7-1.42,1.08-2.14c.38-.72.78-1.44,1.21-2.16.42-.72.87-1.45,1.6-2.54.73-1.09,1.74-2.55,2.83-4.01s2.27-2.93,3.51-4.39c1.25-1.46,2.58-2.92,3.98-4.38s2.87-2.91,4.41-4.35,3.15-2.87,4.82-4.29c1.67-1.42,3.41-2.82,5.21-4.21,1.8-1.39,3.65-2.75,5.56-4.1,1.91-1.35,3.87-2.67,5.88-3.97,2.01-1.3,4.07-2.57,6.17-3.81,2.1-1.24,4.24-2.46,6.42-3.64,2.18-1.18,4.39-2.33,6.63-3.44,2.24-1.11,4.51-2.19,6.8-3.22m-60.49,93.43c-.36-.74-.68-1.5-.95-2.29-.27-.79-.5-1.61-.67-2.45-.18-.84-.31-1.71-.4-2.61-.09-.89-.13-1.81-.12-2.76,0-.94.06-1.91.16-2.89.1-.99.24-2,.43-3.02.19-1.03.43-2.08.65-2.96.22-.89.43-1.61.66-2.34.23-.73.48-1.47.92-2.6s1.06-2.65,1.76-4.19,1.48-3.11,2.34-4.7,1.79-3.19,2.8-4.81c1.01-1.62,2.09-3.26,3.24-4.9,1.15-1.65,2.37-3.3,3.66-4.96,1.29-1.66,2.65-3.33,4.07-4.99s2.9-3.33,4.45-4.99,3.14-3.32,4.8-4.97c1.66-1.65,3.36-3.29,5.12-4.91s3.57-3.23,5.42-4.82c1.85-1.59,3.75-3.16,5.68-4.71,1.93-1.55,3.91-3.07,5.91-4.57,2.01-1.5,4.04-2.97,6.11-4.4,2.07-1.44,4.16-2.84,6.27-4.21m-37.84,116.63c-.29-.27-.57-.55-.83-.85s-.51-.62-.75-.96c-.24-.34-.46-.69-.67-1.07s-.4-.76-.58-1.17c-.18-.41-.35-.83-.5-1.27-.15-.44-.29-.9-.41-1.37-.12-.47-.23-.97-.35-1.75-.12-.79-.25-1.86-.33-3-.07-1.14-.09-2.34-.05-3.6.04-1.26.14-2.58.3-3.95.16-1.37.37-2.8.65-4.31.28-1.51.62-3.09,1.02-4.73.4-1.63.86-3.32,1.38-5.05.52-1.73,1.1-3.5,1.73-5.32.64-1.81,1.33-3.67,2.08-5.56.75-1.89,1.55-3.81,2.4-5.76.85-1.95,1.76-3.93,2.72-5.93s1.96-4.03,3.02-6.07c1.05-2.04,2.15-4.1,3.3-6.18,1.14-2.07,2.33-4.15,3.56-6.24s2.5-4.18,3.8-6.27c1.31-2.09,2.65-4.18,4.02-6.27,1.37-2.08,2.78-4.16,4.22-6.22,1.44-2.06,2.9-4.11,4.39-6.14,1.49-2.03,3-4.04,4.53-6.03,1.53-1.99,3.09-3.95,4.65-5.88m-29.34,119.66c-.27-.19-.53-.41-.78-.65s-.48-.5-.7-.79c-.22-.29-.43-.6-.63-.93s-.38-.69-.55-1.06c-.17-.38-.33-.78-.48-1.2-.15-.42-.28-.87-.4-1.33s-.23-.95-.35-1.75c-.12-.8-.26-1.9-.35-3.08-.09-1.18-.12-2.45-.1-3.8.02-1.34.09-2.77.22-4.26.12-1.5.3-3.07.52-4.67.22-1.6.49-3.23.8-4.92.31-1.69.67-3.43,1.08-5.23.4-1.8.85-3.65,1.35-5.55s1.03-3.85,1.61-5.84,1.21-4.02,1.87-6.09c.66-2.07,1.37-4.17,2.12-6.3s1.53-4.29,2.35-6.48,1.68-4.39,2.57-6.62c.89-2.23,1.81-4.47,2.77-6.72s1.94-4.52,2.96-6.78c1.02-2.27,2.06-4.54,3.13-6.81s2.16-4.53,3.28-6.79,2.26-4.5,3.41-6.74c1.16-2.23,2.33-4.45,3.53-6.64,1.19-2.19,2.4-4.36,3.62-6.51m-18.13,123.62c-.21-.13-.41-.28-.6-.46s-.37-.39-.54-.63c-.17-.24-.33-.5-.49-.79-.15-.29-.3-.61-.43-.95-.13-.34-.26-.72-.42-1.35-.16-.64-.35-1.54-.5-2.54-.15-1-.26-2.11-.34-3.32s-.11-2.51-.1-3.91c0-1.4.05-2.89.14-4.47.09-1.58.21-3.25.36-4.92.15-1.67.34-3.33.55-5.06.21-1.73.46-3.52.74-5.37.28-1.85.58-3.76.92-5.72.34-1.96.71-3.98,1.1-6.04s.82-4.17,1.28-6.32c.45-2.15.94-4.34,1.45-6.57.51-2.23,1.05-4.49,1.61-6.78.56-2.29,1.15-4.61,1.76-6.95.61-2.34,1.24-4.7,1.89-7.08.65-2.38,1.33-4.76,2.4-8.36,1.07-3.6,2.53-8.41,3.65-12.01s1.9-5.99,2.69-8.37c.79-2.38,1.6-4.74,2.41-7.09.82-2.35,1.64-4.67,2.48-6.97m-6.9,125.65c-.11-.08-.22-.19-.32-.33s-.2-.31-.3-.51c-.09-.2-.18-.43-.3-.87s-.26-1.08-.39-1.84c-.13-.76-.23-1.63-.32-2.62-.08-.99-.15-2.09-.19-3.31-.04-1.21-.06-2.54-.06-3.97,0-1.43.02-2.96.07-4.6.04-1.63.11-3.37.25-5.98.14-2.62.36-6.12.64-9.88.28-3.75.62-7.76,1.03-11.96.4-4.2.86-8.61,1.38-13.17.52-4.56,1.09-9.27,1.7-14.07.62-4.8,1.28-9.7,1.98-14.64.7-4.94,1.45-9.92,2.22-14.87s1.58-9.9,2.4-14.76m5.51,110.85v-95.44m15.3,101.97c.11-.08.22-.19.32-.33s.2-.31.3-.51c.09-.2.18-.43.3-.87s.26-1.08.39-1.84c.13-.76.23-1.63.32-2.62.08-.99.15-2.09.19-3.31.04-1.21.06-2.54.06-3.97,0-1.43-.02-2.96-.07-4.6-.04-1.63-.11-3.37-.25-5.98-.14-2.62-.36-6.12-.64-9.88-.28-3.75-.62-7.76-1.03-11.96-.4-4.2-.86-8.61-1.38-13.17-.52-4.56-1.09-9.27-1.7-14.07-.62-4.8-1.28-9.7-1.98-14.64-.7-4.94-1.45-9.92-2.22-14.87s-1.58-9.9-2.4-14.76m24.91,113.79c.21-.13.41-.28.6-.46s.37-.39.54-.63c.17-.24.33-.5.49-.79.15-.29.3-.61.43-.95.13-.34.26-.72.42-1.35.16-.64.35-1.54.5-2.54.15-1,.26-2.11.34-3.32s.11-2.51.1-3.91c0-1.4-.05-2.89-.14-4.47-.09-1.58-.21-3.25-.36-4.92-.15-1.67-.34-3.33-.55-5.06-.21-1.73-.46-3.52-.74-5.37-.28-1.85-.58-3.76-.92-5.72-.34-1.96-.71-3.98-1.1-6.04s-.82-4.17-1.28-6.32c-.45-2.15-.94-4.34-1.45-6.57-.51-2.23-1.05-4.49-1.61-6.78-.56-2.29-1.15-4.61-1.76-6.95-.61-2.34-1.24-4.7-1.89-7.08-.65-2.38-1.33-4.76-2.4-8.36-1.07-3.6-2.53-8.41-3.65-12.01s-1.9-5.99-2.69-8.37c-.79-2.38-1.6-4.74-2.41-7.09-.82-2.35-1.64-4.67-2.48-6.97m36.72,115.97c.27-.19.53-.41.78-.65s.48-.5.7-.79c.22-.29.43-.6.63-.93s.38-.69.55-1.06c.17-.38.33-.78.48-1.2.15-.42.28-.87.4-1.33s.23-.95.35-1.75c.12-.8.26-1.9.35-3.08.09-1.18.12-2.45.1-3.8-.02-1.34-.09-2.77-.22-4.26-.12-1.5-.3-3.07-.52-4.67-.22-1.6-.49-3.23-.8-4.92-.31-1.69-.67-3.43-1.08-5.23-.4-1.8-.85-3.65-1.35-5.55s-1.03-3.85-1.61-5.84-1.21-4.02-1.87-6.09c-.66-2.07-1.37-4.17-2.12-6.3s-1.53-4.29-2.35-6.48-1.68-4.39-2.57-6.62c-.89-2.23-1.81-4.47-2.77-6.72s-1.94-4.52-2.96-6.78c-1.02-2.27-2.06-4.54-3.13-6.81s-2.16-4.53-3.28-6.79c-1.12-2.26-2.26-4.5-3.41-6.74-1.16-2.23-2.33-4.45-3.53-6.64-1.19-2.19-2.4-4.36-3.62-6.51m59.66,97.46c.27-.33.52-.66.76-1.01.24-.35.46-.71.68-1.09.21-.37.41-.76.6-1.16s.36-.81.51-1.23c.16-.42.3-.86.48-1.54.18-.68.38-1.62.53-2.6.15-.98.25-2,.29-3.06.04-1.06.03-2.17-.04-3.31-.07-1.14-.2-2.32-.38-3.54s-.42-2.47-.74-3.86c-.32-1.39-.73-2.92-1.21-4.49-.48-1.57-1.03-3.18-1.65-4.82-.62-1.64-1.31-3.32-2.07-5.03-.76-1.71-1.58-3.45-2.47-5.21-.89-1.76-1.85-3.55-2.87-5.36-1.02-1.81-2.1-3.64-3.24-5.48-1.14-1.84-2.34-3.7-3.6-5.57-1.26-1.87-2.57-3.75-3.93-5.63-1.36-1.88-2.78-3.77-4.24-5.65-1.46-1.88-2.98-3.77-4.53-5.64-1.56-1.87-3.15-3.74-4.79-5.6-1.64-1.86-3.32-3.7-5.03-5.52-1.71-1.82-3.46-3.63-5.23-5.42s-3.58-3.54-5.4-5.28c-1.83-1.73-3.68-3.44-5.55-5.11m64.76,87.03c.36-.74.68-1.5.95-2.29.27-.79.5-1.61.67-2.45.18-.84.31-1.71.4-2.61.09-.89.13-1.81.12-2.76s-.06-1.91-.16-2.89c-.1-.99-.24-2-.43-3.02-.19-1.03-.43-2.08-.65-2.96-.22-.89-.43-1.61-.66-2.34-.23-.73-.48-1.47-.92-2.6-.44-1.13-1.06-2.65-1.76-4.19s-1.48-3.11-2.34-4.7-1.79-3.19-2.8-4.81c-1.01-1.62-2.09-3.26-3.24-4.9-1.15-1.65-2.37-3.3-3.66-4.96-1.29-1.66-2.65-3.33-4.07-4.99s-2.9-3.33-4.45-4.99-3.14-3.32-4.8-4.97c-1.66-1.65-3.36-3.29-5.12-4.91s-3.57-3.23-5.42-4.82c-1.85-1.59-3.75-3.16-5.68-4.71-1.93-1.55-3.91-3.07-5.91-4.57-2.01-1.5-4.04-2.97-6.11-4.4-2.07-1.44-4.16-2.84-6.27-4.21m70.73,73.62c.21-.69.39-1.39.54-2.1.15-.71.26-1.44.34-2.17.08-.74.13-1.48.14-2.24s0-1.53-.06-2.3c-.05-.78-.14-1.57-.25-2.36-.12-.8-.27-1.6-.45-2.42-.18-.81-.4-1.64-.62-2.39-.22-.76-.45-1.45-.7-2.14s-.52-1.39-.82-2.1c-.29-.7-.61-1.41-.95-2.12-.34-.71-.7-1.42-1.08-2.14-.38-.72-.78-1.44-1.21-2.16-.42-.72-.87-1.45-1.6-2.54-.73-1.09-1.74-2.55-2.83-4.01-1.09-1.46-2.27-2.93-3.51-4.39-1.25-1.46-2.58-2.92-3.98-4.38s-2.87-2.91-4.41-4.35-3.15-2.87-4.82-4.29c-1.67-1.42-3.41-2.82-5.21-4.21-1.8-1.39-3.65-2.75-5.56-4.1-1.91-1.35-3.87-2.67-5.88-3.97-2.01-1.3-4.07-2.57-6.17-3.81-2.1-1.24-4.24-2.46-6.42-3.64-2.18-1.18-4.39-2.33-6.63-3.44-2.24-1.11-4.51-2.19-6.8-3.22m74.22,58.75c.07-.55.13-1.11.16-1.67.03-.56.05-1.12.05-1.69,0-.57-.03-1.14-.07-1.71s-.1-1.15-.18-1.72-.18-1.16-.3-1.74c-.12-.58-.25-1.16-.41-1.75s-.33-1.17-.54-1.79c-.21-.62-.45-1.28-.71-1.93s-.55-1.31-.86-1.97c-.31-.66-.64-1.32-.99-1.97s-.73-1.32-1.13-1.97c-.4-.66-.82-1.31-1.26-1.97-.44-.66-.91-1.31-1.4-1.97-.49-.65-1-1.31-1.53-1.96-.53-.65-1.08-1.3-1.66-1.95-.57-.65-1.17-1.29-1.78-1.93-.61-.64-1.25-1.28-2.26-2.23-1.01-.95-2.4-2.2-3.87-3.44-1.47-1.24-3.01-2.46-4.62-3.66-1.61-1.2-3.3-2.38-5.05-3.54s-3.57-2.29-5.46-3.4-3.83-2.19-5.83-3.24c-2-1.05-4.06-2.07-6.16-3.06-2.11-.99-4.26-1.94-6.46-2.86-2.2-.92-4.44-1.8-6.72-2.64s-4.6-1.65-6.95-2.41c-2.35-.76-4.73-1.49-7.13-2.17m74.72,42.07c-.06-.72-.16-1.44-.28-2.16-.13-.72-.28-1.43-.47-2.15-.19-.71-.41-1.43-.64-2.09-.23-.67-.47-1.28-.74-1.9-.27-.62-.56-1.23-.87-1.84-.31-.61-.65-1.22-1.01-1.82-.36-.6-.74-1.2-1.15-1.8s-.83-1.19-1.28-1.78c-.45-.59-.92-1.17-1.42-1.75-.49-.58-1.01-1.15-1.55-1.72-.54-.57-1.1-1.13-1.68-1.69-.58-.56-1.18-1.11-1.81-1.66-.62-.55-1.27-1.09-1.93-1.62s-1.35-1.06-2.06-1.59c-.71-.52-1.43-1.04-2.58-1.79-1.15-.75-2.71-1.74-4.35-2.69s-3.35-1.88-5.13-2.77-3.63-1.75-5.54-2.57c-1.91-.82-3.89-1.6-5.92-2.35-2.03-.74-4.12-1.45-6.26-2.12s-4.33-1.29-6.56-1.87c-2.23-.58-4.51-1.12-6.83-1.61s-4.67-.94-7.05-1.35c-2.38-.4-4.8-.76-7.24-1.08m72.02,26.4c-.17-.58-.35-1.16-.57-1.74-.21-.58-.45-1.16-.71-1.74-.26-.58-.55-1.15-.86-1.71-.31-.56-.64-1.12-.99-1.67-.35-.55-.73-1.09-1.13-1.63-.4-.54-.82-1.06-1.26-1.58-.44-.52-.91-1.03-1.4-1.54s-1-1-1.53-1.49c-.53-.49-1.08-.97-1.66-1.44-.57-.47-1.17-.93-1.78-1.39-.61-.45-1.25-.9-1.9-1.33-.66-.43-1.33-.86-2.03-1.28-.7-.42-1.41-.82-2.14-1.22-.73-.4-1.49-.78-2.26-1.16-.77-.38-1.56-.74-2.8-1.26-1.24-.52-2.92-1.18-4.68-1.81-1.75-.62-3.57-1.2-5.46-1.73-1.88-.53-3.83-1.02-5.83-1.46-2-.44-4.06-.83-6.16-1.17-2.11-.34-4.26-.64-6.46-.88-2.2-.25-4.44-.44-6.72-.59-2.28-.15-4.6-.24-6.95-.29s-4.73-.04-7.13.01m66.34,11.67c-.27-.52-.56-1.03-.87-1.53-.31-.5-.64-.99-.99-1.47s-.73-.95-1.12-1.41c-.39-.46-.81-.91-1.24-1.34s-.89-.86-1.36-1.28c-.47-.42-.97-.82-1.48-1.21s-1.05-.78-1.6-1.15-1.13-.73-1.72-1.08-1.2-.68-1.83-1.01c-.63-.32-1.28-.63-1.94-.93s-1.35-.59-2.05-.86c-.7-.27-1.42-.54-2.15-.78-.73-.25-1.49-.49-2.66-.8-1.18-.32-2.78-.71-4.44-1.05s-3.39-.63-5.16-.87c-1.78-.24-3.62-.42-5.5-.55-1.89-.13-3.82-.21-5.81-.23-1.98-.02-4.01.01-6.08.1s-4.18.23-6.32.42-4.32.44-6.53.74-4.44.65-6.69,1.06m58.54-.96c-.31-.39-.64-.77-.98-1.14-.34-.37-.7-.73-1.08-1.07-.37-.35-.77-.68-1.17-1-.41-.32-.83-.63-1.27-.93-.44-.3-.89-.58-1.36-.86-.47-.27-.95-.53-1.45-.78-.5-.25-1.01-.48-1.54-.71-.53-.22-1.07-.43-1.63-.63s-1.13-.38-2.03-.62-2.13-.53-3.41-.77c-1.28-.24-2.62-.43-4-.56-1.38-.13-2.82-.21-4.3-.24-1.48-.03-3.01,0-4.58.07s-3.18.21-4.83.39c-1.65.18-3.34.42-5.07.71-1.72.29-3.48.63-5.27,1.02-1.79.39-3.61.83-5.46,1.33-1.85.49-3.72,1.04-5.61,1.63-1.89.59-3.81,1.23-5.74,1.92m35.77-22.69c-.6-.28-1.23-.51-1.9-.69-.67-.18-1.37-.31-2.1-.38s-1.5-.1-2.3-.08c-.8.03-1.63.1-2.49.23-.86.13-1.75.31-2.66.54-.92.23-1.86.51-2.83.84s-1.97.71-2.99,1.15c-1.02.43-2.07.91-3.14,1.44-1.07.53-2.16,1.11-3.27,1.74s-2.25,1.3-3.4,2.02c-1.15.72-2.32,1.49-3.51,2.3-1.19.81-2.39,1.67-3.6,2.57s-2.45,1.85-3.69,2.83c-1.24.99-2.5,2.01-3.76,3.08m28.04-25.57c-.48-.11-.98-.18-1.51-.19s-1.08.02-1.65.11-1.17.23-1.79.41c-.62.19-1.26.43-1.91.71-.66.29-1.34.63-2.04,1.01-.7.39-1.42.82-2.15,1.31-.74.49-1.49,1.02-2.26,1.6s-1.56,1.21-2.36,1.89c-.8.68-1.62,1.4-2.45,2.16-.83.77-1.68,1.58-2.54,2.44-.86.86-1.73,1.76-2.61,2.7-.88.94-1.78,1.93-2.68,2.95-.9,1.03-1.82,2.09-2.74,3.2-.92,1.11-1.85,2.25-2.79,3.43m17.38-29.26c-.33,0-.68.06-1.04.16-.36.1-.74.26-1.13.46-.39.2-.8.45-1.22.76-.42.3-.85.65-1.3,1.05-.45.4-.9.85-1.37,1.34-.47.5-.95,1.04-1.44,1.63s-1,1.23-1.51,1.91-1.04,1.41-1.57,2.18c-.53.77-1.08,1.59-1.92,2.95s-1.98,3.25-3.15,5.31c-1.17,2.06-2.36,4.27-3.58,6.64m4.89-27.62c-.17.07-.35.2-.53.37s-.38.39-.57.67c-.2.27-.4.59-.73,1.21-.33.62-.77,1.55-1.25,2.66-.47,1.11-.96,2.42-1.48,3.9-.51,1.48-1.05,3.14-1.6,4.97s-1.12,3.83-1.7,5.98c-.58,2.16-1.17,4.47-1.78,6.92M85.53,2.24c.17.07.35.2.53.37s.38.39.57.67c.2.27.4.59.73,1.21.33.62.77,1.55,1.25,2.66.47,1.11.96,2.42,1.48,3.9.51,1.48,1.05,3.14,1.6,4.97s1.12,3.83,1.7,5.98c.58,2.16,1.17,4.47,1.78,6.92m-23.99-23.45c.33,0,.68.06,1.04.16.36.1.74.26,1.13.46.39.2.8.45,1.22.76.42.3.85.65,1.3,1.05.45.4.9.85,1.37,1.34.47.5.95,1.04,1.44,1.63s1,1.23,1.51,1.91,1.04,1.41,1.57,2.18c.53.77,1.08,1.59,1.92,2.95s1.98,3.25,3.15,5.31c1.17,2.06,2.36,4.27,3.58,6.64M57.09,10.99c.48-.11.98-.18,1.51-.19s1.08.02,1.65.11,1.17.23,1.79.41c.62.19,1.26.43,1.91.71.66.29,1.34.63,2.04,1.01.7.39,1.42.82,2.15,1.31.74.49,1.49,1.02,2.26,1.6s1.56,1.21,2.36,1.89c.8.68,1.62,1.4,2.45,2.16.83.77,1.68,1.58,2.54,2.44.86.86,1.73,1.76,2.61,2.7.88.94,1.78,1.93,2.68,2.95.9,1.03,1.82,2.09,2.74,3.2.92,1.11,1.85,2.25,2.79,3.43M28.99,169.02c.6.6,1.49,1.49,2.41,2.35.91.86,1.85,1.71,2.81,2.54.96.83,1.93,1.64,2.93,2.43,1,.79,2.02,1.56,3.05,2.32,1.04.75,2.09,1.49,3.17,2.2,1.07.71,2.16,1.41,3.27,2.08s2.23,1.32,3.37,1.95c1.14.63,2.3,1.24,3.47,1.82,1.17.59,2.36,1.15,3.56,1.69,1.2.54,2.41,1.06,3.64,1.55s2.47.97,3.72,1.42c1.25.45,2.51.87,3.78,1.27,1.27.4,2.55.78,3.84,1.13,1.29.35,2.59.68,3.9.98,1.31.3,2.62.58,3.94.84,1.32.25,2.65.48,3.98.69,1.33.2,2.67.38,4.01.53,1.34.15,2.69.28,4.03.38,1.35.1,2.7.18,4.05.23,1.35.05,2.7.08,4.06.08s2.71-.03,4.06-.08c1.35-.05,2.7-.13,4.05-.23,1.35-.1,2.69-.23,4.03-.38,1.34-.15,2.68-.33,4.01-.53,1.33-.2,2.66-.43,3.98-.69,1.32-.25,2.64-.53,3.94-.84,1.31-.3,2.61-.63,3.9-.98,1.29-.35,2.57-.73,3.84-1.13,1.27-.4,2.53-.83,3.78-1.27,1.25-.45,2.49-.92,3.72-1.42s2.44-1.01,3.64-1.55c1.2-.54,2.39-1.1,3.56-1.69,1.17-.59,2.33-1.19,3.47-1.82,1.14-.63,2.27-1.28,3.37-1.95s2.2-1.37,3.27-2.08c1.07-.71,2.13-1.45,3.17-2.2s2.05-1.53,3.05-2.32c1-.79,1.98-1.6,2.93-2.43.96-.83,1.89-1.68,2.81-2.54.91-.86,1.81-1.75,2.41-2.35M8.39,137.55c.46,1.09.97,2.23,1.52,3.37.54,1.13,1.11,2.26,1.71,3.37s1.23,2.21,1.88,3.3c.65,1.09,1.34,2.17,2.05,3.23.71,1.06,1.44,2.11,2.21,3.15s1.55,2.06,2.36,3.06,1.65,2,2.52,2.97,1.75,1.93,2.66,2.87,1.85,1.86,2.8,2.77c.96.91,1.94,1.79,2.94,2.66,1,.87,2.03,1.72,3.07,2.55,1.05.83,2.11,1.64,3.2,2.43,1.09.79,2.19,1.56,3.32,2.31,1.12.75,2.27,1.47,3.43,2.18,1.16.7,2.34,1.39,3.54,2.05,1.2.66,2.41,1.3,3.64,1.91s2.47,1.2,3.73,1.77c1.26.57,2.53,1.11,3.82,1.63s2.58,1.01,3.89,1.48,2.63.92,3.96,1.34c1.33.42,2.68.81,4.03,1.18,1.35.37,2.71.71,4.08,1.03,1.37.32,2.75.61,4.13.88,1.38.27,2.78.51,4.17.72s2.8.4,4.2.56c1.41.16,2.82.29,4.23.4s2.83.19,4.24.24,2.83.08,4.25.08,2.84-.03,4.25-.08,2.83-.13,4.24-.24,2.82-.24,4.23-.4c1.41-.16,2.81-.35,4.2-.56s2.79-.45,4.17-.72c1.38-.27,2.76-.56,4.13-.88,1.37-.32,2.73-.66,4.08-1.03,1.35-.37,2.7-.76,4.03-1.18,1.33-.42,2.65-.87,3.96-1.34s2.61-.96,3.89-1.48,2.56-1.06,3.82-1.63c1.26-.57,2.5-1.16,3.73-1.77s2.44-1.25,3.64-1.91c1.2-.66,2.38-1.34,3.54-2.05,1.16-.7,2.31-1.43,3.43-2.18s2.23-1.52,3.32-2.31c1.09-.79,2.15-1.6,3.2-2.43s2.07-1.68,3.07-2.55c1-.87,1.98-1.76,2.94-2.66.96-.91,1.89-1.83,2.8-2.77s1.8-1.9,2.66-2.87c.86-.97,1.7-1.96,2.52-2.97.81-1.01,1.6-2.03,2.36-3.06s1.5-2.09,2.21-3.15c.71-1.06,1.39-2.14,2.05-3.23.65-1.09,1.28-2.19,1.88-3.3.6-1.11,1.17-2.24,1.71-3.37s1.06-2.28,1.52-3.37M6.8,66.53c-.22.66-.62,1.84-.99,3.02-.37,1.19-.7,2.38-1.01,3.58-.31,1.2-.58,2.4-.83,3.61-.25,1.21-.46,2.42-.65,3.64-.19,1.22-.34,2.44-.46,3.66-.12,1.22-.22,2.45-.28,3.68-.06,1.23-.09,2.45-.09,3.68s.03,2.46.09,3.68c.06,1.23.15,2.45.28,3.68.12,1.22.28,2.44.46,3.66.19,1.22.4,2.43.65,3.64.25,1.21.52,2.41.83,3.61.31,1.2.64,2.39,1.01,3.58.37,1.19.76,2.37,1.19,3.54.43,1.17.88,2.33,1.37,3.49s1,2.3,1.54,3.43c.54,1.13,1.11,2.26,1.71,3.37.6,1.11,1.23,2.21,1.88,3.3.65,1.09,1.34,2.17,2.05,3.23.71,1.06,1.44,2.11,2.21,3.15.76,1.04,1.55,2.06,2.36,3.06s1.65,2,2.52,2.97c.86.97,1.75,1.93,2.66,2.87s1.85,1.86,2.8,2.77c.96.91,1.94,1.79,2.94,2.66,1,.87,2.03,1.72,3.07,2.55,1.05.83,2.11,1.64,3.2,2.43s2.19,1.56,3.32,2.31c1.12.75,2.27,1.47,3.43,2.18,1.16.7,2.34,1.39,3.54,2.05,1.2.66,2.41,1.3,3.64,1.91s2.47,1.2,3.73,1.77c1.26.57,2.53,1.11,3.82,1.63,1.29.52,2.58,1.01,3.89,1.48s2.63.92,3.96,1.34,2.68.81,4.03,1.18c1.35.37,2.71.71,4.08,1.03,1.37.32,2.75.61,4.13.88,1.38.27,2.78.51,4.17.72s2.8.4,4.2.56c1.41.16,2.82.29,4.23.4s2.83.19,4.24.24c1.42.05,2.83.08,4.25.08s2.84-.03,4.25-.08c1.42-.05,2.83-.13,4.24-.24s2.82-.24,4.23-.4c1.41-.16,2.81-.35,4.2-.56s2.79-.45,4.17-.72c1.38-.27,2.76-.56,4.13-.88,1.37-.32,2.73-.66,4.08-1.03,1.35-.37,2.7-.76,4.03-1.18s2.65-.87,3.96-1.34,2.61-.96,3.89-1.48c1.29-.52,2.56-1.06,3.82-1.63,1.26-.57,2.5-1.16,3.73-1.77s2.44-1.25,3.64-1.91c1.2-.66,2.38-1.34,3.54-2.05,1.16-.7,2.31-1.43,3.43-2.18s2.23-1.52,3.32-2.31,2.15-1.6,3.2-2.43,2.07-1.68,3.07-2.55c1-.87,1.98-1.76,2.94-2.66.96-.91,1.89-1.83,2.8-2.77s1.8-1.9,2.66-2.87c.86-.97,1.7-1.96,2.52-2.97.81-1.01,1.6-2.03,2.36-3.06.76-1.04,1.5-2.09,2.21-3.15.71-1.06,1.39-2.14,2.05-3.23.65-1.09,1.28-2.19,1.88-3.3.6-1.11,1.17-2.24,1.71-3.37s1.06-2.28,1.54-3.43.94-2.32,1.37-3.49c.43-1.17.82-2.35,1.19-3.54s.7-2.38,1.01-3.58c.31-1.2.58-2.4.83-3.61.25-1.21.46-2.42.65-3.64.19-1.22.34-2.44.46-3.66.12-1.22.22-2.45.28-3.68.06-1.23.09-2.45.09-3.68s-.03-2.46-.09-3.68c-.06-1.23-.15-2.45-.28-3.68-.12-1.22-.28-2.44-.46-3.66-.19-1.22-.4-2.43-.65-3.64-.25-1.21-.52-2.41-.83-3.61-.31-1.2-.64-2.39-1.01-3.58s-.76-2.37-.99-3.02M26.02,34.19c-.67.77-1.47,1.71-2.24,2.67-.78.96-1.53,1.93-2.25,2.92s-1.43,1.99-2.11,3.01c-.68,1.01-1.33,2.04-1.95,3.08-.62,1.04-1.22,2.09-1.8,3.15-.57,1.06-1.12,2.13-1.63,3.22-.52,1.08-1.01,2.17-1.47,3.28s-.9,2.21-1.3,3.33-.79,2.24-1.14,3.37-.67,2.27-.96,3.41c-.29,1.14-.56,2.29-.79,3.45s-.44,2.31-.62,3.47c-.18,1.16-.32,2.33-.44,3.49-.12,1.17-.21,2.34-.27,3.51-.06,1.17-.09,2.34-.09,3.51s.03,2.34.09,3.51c.06,1.17.15,2.34.27,3.51.12,1.17.27,2.33.44,3.49.18,1.16.38,2.32.62,3.47s.5,2.3.79,3.45c.29,1.14.61,2.28.96,3.41s.73,2.26,1.14,3.37.84,2.23,1.3,3.33c.46,1.1.95,2.19,1.47,3.28.52,1.08,1.06,2.16,1.63,3.22s1.17,2.11,1.8,3.15,1.28,2.07,1.95,3.08c.68,1.01,1.38,2.02,2.11,3.01s1.48,1.96,2.25,2.92c.78.96,1.58,1.91,2.4,2.83.82.93,1.67,1.84,2.54,2.74s1.76,1.78,2.68,2.64c.91.86,1.85,1.71,2.81,2.54.96.83,1.93,1.64,2.93,2.43,1,.79,2.02,1.56,3.05,2.32,1.04.75,2.09,1.49,3.17,2.2,1.07.71,2.16,1.41,3.27,2.08s2.23,1.32,3.37,1.95c1.14.63,2.3,1.24,3.47,1.82,1.17.59,2.36,1.15,3.56,1.69,1.2.54,2.41,1.06,3.64,1.55s2.47.97,3.72,1.42c1.25.45,2.51.87,3.78,1.27,1.27.4,2.55.78,3.84,1.13,1.29.35,2.59.68,3.9.98,1.31.3,2.62.58,3.94.84s2.65.48,3.98.69c1.33.2,2.67.38,4.01.53,1.34.15,2.69.28,4.03.38,1.35.1,2.7.18,4.05.23,1.35.05,2.7.08,4.06.08s2.71-.03,4.06-.08c1.35-.05,2.7-.13,4.05-.23,1.35-.1,2.69-.23,4.03-.38,1.34-.15,2.68-.33,4.01-.53,1.33-.2,2.66-.43,3.98-.69s2.64-.53,3.94-.84c1.31-.3,2.61-.63,3.9-.98,1.29-.35,2.57-.73,3.84-1.13,1.27-.4,2.53-.83,3.78-1.27,1.25-.45,2.49-.92,3.72-1.42s2.44-1.01,3.64-1.55c1.2-.54,2.39-1.1,3.56-1.69,1.17-.59,2.33-1.19,3.47-1.82,1.14-.63,2.27-1.28,3.37-1.95s2.2-1.37,3.27-2.08c1.07-.71,2.13-1.45,3.17-2.2,1.04-.75,2.05-1.53,3.05-2.32,1-.79,1.98-1.6,2.93-2.43.96-.83,1.89-1.68,2.81-2.54.91-.86,1.81-1.75,2.68-2.64s1.72-1.81,2.54-2.74c.82-.93,1.62-1.87,2.4-2.83.78-.96,1.53-1.93,2.25-2.92s1.43-1.99,2.11-3.01c.68-1.01,1.33-2.04,1.95-3.08s1.22-2.09,1.8-3.15,1.12-2.13,1.63-3.22c.52-1.08,1.01-2.17,1.47-3.28.46-1.1.9-2.21,1.3-3.33s.79-2.24,1.14-3.37c.35-1.13.67-2.27.96-3.41s.56-2.29.79-3.45.44-2.31.62-3.47c.18-1.16.32-2.33.44-3.49s.21-2.34.27-3.51.09-2.34.09-3.51-.03-2.34-.09-3.51c-.06-1.17-.15-2.34-.27-3.51-.12-1.17-.27-2.33-.44-3.49-.18-1.16-.38-2.32-.62-3.47s-.5-2.3-.79-3.45c-.29-1.14-.61-2.28-.96-3.41-.35-1.13-.73-2.26-1.14-3.37s-.84-2.23-1.3-3.33c-.46-1.1-.95-2.19-1.47-3.28-.52-1.08-1.06-2.16-1.63-3.22-.57-1.06-1.17-2.11-1.8-3.15-.62-1.04-1.28-2.07-1.95-3.08-.68-1.01-1.38-2.02-2.11-3.01s-1.48-1.96-2.25-2.92c-.78-.96-1.58-1.91-2.24-2.67M42.06,20.51c-.92.73-1.82,1.48-2.7,2.24s-1.74,1.54-2.59,2.34c-.84.8-1.66,1.61-2.47,2.44-.8.83-1.58,1.67-2.34,2.53-.76.86-1.5,1.73-2.21,2.61-.72.88-1.41,1.78-2.08,2.69-.67.91-1.32,1.83-1.94,2.77-.62.94-1.22,1.88-1.8,2.84-.58.96-1.13,1.93-1.65,2.91-.53.98-1.03,1.97-1.51,2.97-.48,1-.93,2-1.36,3.02s-.83,2.04-1.2,3.07c-.37,1.03-.72,2.07-1.05,3.11-.32,1.04-.62,2.09-.89,3.15s-.51,2.11-.73,3.18c-.22,1.06-.41,2.13-.57,3.2-.16,1.07-.3,2.14-.41,3.22-.11,1.08-.19,2.15-.24,3.23-.05,1.08-.08,2.16-.08,3.24s.03,2.16.08,3.24c.05,1.08.14,2.16.24,3.23.11,1.08.24,2.15.41,3.22.16,1.07.35,2.14.57,3.2.22,1.06.46,2.12.73,3.18.27,1.05.57,2.1.89,3.15.32,1.04.67,2.08,1.05,3.11.37,1.03.78,2.05,1.2,3.07s.88,2.02,1.36,3.02c.48,1,.98,1.99,1.51,2.97.53.98,1.08,1.95,1.65,2.91.58.96,1.18,1.9,1.8,2.84.62.94,1.27,1.86,1.94,2.77s1.36,1.81,2.08,2.69c.72.88,1.45,1.76,2.21,2.61s1.54,1.7,2.34,2.53,1.62,1.64,2.47,2.44c.84.8,1.7,1.58,2.59,2.34.88.76,1.78,1.51,2.7,2.24.92.73,1.86,1.44,2.81,2.14.96.69,1.93,1.37,2.92,2.03.99.66,2,1.3,3.02,1.92,1.02.62,2.06,1.22,3.11,1.8,1.05.58,2.12,1.14,3.2,1.68s2.17,1.06,3.28,1.56c1.11.5,2.22.98,3.35,1.43,1.13.46,2.27.89,3.42,1.3s2.31.8,3.49,1.17,2.35.72,3.54,1.04c1.19.32,2.39.63,3.59.91,1.2.28,2.42.54,3.63.77,1.22.23,2.44.44,3.67.63s2.46.35,3.7.49c1.24.14,2.48.26,3.72.35,1.24.09,2.49.16,3.73.21s2.49.07,3.74.07,2.49-.02,3.74-.07,2.49-.12,3.73-.21c1.24-.09,2.48-.21,3.72-.35,1.24-.14,2.47-.31,3.7-.49s2.45-.4,3.67-.63c1.22-.23,2.43-.49,3.63-.77,1.2-.28,2.4-.58,3.59-.91,1.19-.32,2.37-.67,3.54-1.04s2.33-.76,3.49-1.17,2.29-.85,3.42-1.3c1.13-.46,2.25-.93,3.35-1.43,1.11-.5,2.2-1.02,3.28-1.56s2.15-1.1,3.2-1.68c1.05-.58,2.09-1.18,3.11-1.8,1.02-.62,2.03-1.26,3.02-1.92.99-.66,1.96-1.33,2.92-2.03.96-.69,1.89-1.41,2.81-2.14.92-.73,1.82-1.48,2.7-2.24.88-.76,1.74-1.54,2.59-2.34.84-.8,1.66-1.61,2.47-2.44s1.58-1.67,2.34-2.53c.76-.86,1.5-1.73,2.21-2.61.72-.88,1.41-1.78,2.08-2.69.67-.91,1.32-1.83,1.94-2.77.62-.94,1.22-1.88,1.8-2.84s1.13-1.93,1.65-2.91,1.03-1.97,1.51-2.97.93-2,1.36-3.02.83-2.04,1.2-3.07c.37-1.03.72-2.07,1.05-3.11s.62-2.09.89-3.15c.27-1.05.51-2.11.73-3.18.22-1.06.41-2.13.57-3.2.16-1.07.3-2.14.41-3.22.11-1.08.19-2.15.24-3.23.05-1.08.08-2.16.08-3.24s-.03-2.16-.08-3.24c-.05-1.08-.14-2.16-.24-3.23-.11-1.08-.24-2.15-.41-3.22-.16-1.07-.35-2.14-.57-3.2-.22-1.06-.46-2.12-.73-3.18-.27-1.05-.57-2.1-.89-3.15-.32-1.04-.67-2.08-1.05-3.11-.37-1.03-.78-2.05-1.2-3.07s-.88-2.02-1.36-3.02-.98-1.99-1.51-2.97c-.53-.98-1.08-1.95-1.65-2.91-.58-.96-1.18-1.9-1.8-2.84-.62-.94-1.27-1.86-1.94-2.77-.67-.91-1.36-1.81-2.08-2.69-.72-.88-1.45-1.76-2.21-2.61-.76-.86-1.54-1.7-2.34-2.53-.8-.83-1.62-1.64-2.47-2.44-.84-.8-1.7-1.58-2.59-2.34-.88-.76-1.78-1.51-2.7-2.24-.92-.73-1.86-1.44-2.81-2.14s-1.93-1.37-2.92-2.03c-.99-.66-2-1.3-3.02-1.92-1.02-.62-2.06-1.22-3.11-1.8-1.05-.58-2.12-1.14-3.2-1.68s-2.17-1.06-3.28-1.56c-1.11-.5-2.22-.98-3.35-1.43-1.13-.46-2.27-.89-3.42-1.3s-2.31-.8-3.49-1.17c-1.17-.37-2.35-.72-3.54-1.04-1.19-.32-2.39-.63-3.59-.91-1.2-.28-2.42-.54-3.63-.77-1.22-.23-2.44-.44-3.67-.63-1.23-.19-2.46-.35-3.7-.49-1.24-.14-2.48-.26-3.72-.35s-2.49-.16-3.73-.21c-1.25-.05-2.49-.07-3.74-.07s-2.49.02-3.74.07c-1.25.05-2.49.12-3.73.21s-2.48.21-3.72.35c-1.24.14-2.47.31-3.7.49-1.23.19-2.45.4-3.67.63-1.22.23-2.43.49-3.63.77-1.2.28-2.4.58-3.59.91-1.19.32-2.37.67-3.54,1.04-1.17.37-2.33.76-3.49,1.17s-2.29.85-3.42,1.3c-1.13.46-2.25.93-3.35,1.43-1.11.5-2.2,1.02-3.28,1.56s-2.15,1.1-3.2,1.68c-1.05.58-2.09,1.18-3.11,1.8-1.02.62-2.03,1.26-3.02,1.92m.96,3.41c-.81.65-1.61,1.31-2.39,1.98-.78.68-1.54,1.37-2.29,2.07-.75.7-1.47,1.42-2.18,2.15-.71.73-1.4,1.48-2.07,2.23-.67.76-1.32,1.53-1.96,2.31s-1.25,1.58-1.84,2.38-1.17,1.62-1.72,2.45c-.55.83-1.08,1.66-1.59,2.51-.51.85-1,1.7-1.46,2.57s-.91,1.74-1.33,2.62c-.42.88-.82,1.77-1.2,2.67s-.73,1.8-1.06,2.71c-.33.91-.64,1.83-.93,2.75-.29.92-.55,1.85-.79,2.78s-.45,1.87-.65,2.81-.36,1.89-.5,2.83c-.14.95-.26,1.9-.36,2.85-.1.95-.17,1.91-.22,2.86-.05.95-.07,1.91-.07,2.86s.02,1.91.07,2.86c.05.95.12,1.91.22,2.86.1.95.22,1.9.36,2.85.14.95.31,1.89.5,2.83s.41,1.88.65,2.81.5,1.86.79,2.78.59,1.84.93,2.75c.33.91.69,1.82,1.06,2.71s.78,1.79,1.2,2.67c.42.88.87,1.76,1.33,2.62s.95,1.72,1.46,2.57,1.04,1.68,1.59,2.51c.55.83,1.12,1.64,1.72,2.45.59.81,1.21,1.6,1.84,2.38s1.29,1.55,1.96,2.31c.67.76,1.36,1.5,2.07,2.23.71.73,1.44,1.45,2.18,2.15.75.7,1.51,1.39,2.29,2.07.78.68,1.58,1.34,2.39,1.98.81.65,1.64,1.28,2.49,1.89.84.61,1.71,1.21,2.58,1.79s1.76,1.15,2.67,1.69,1.82,1.08,2.75,1.59c.93.51,1.87,1.01,2.83,1.49.96.48,1.92.94,2.9,1.38.98.44,1.97.86,2.97,1.27s2.01.79,3.03,1.15c1.02.37,2.05.71,3.08,1.04,1.04.33,2.08.63,3.13.92,1.05.29,2.11.55,3.18.8,1.07.25,2.14.47,3.21.68,1.08.21,2.16.39,3.25.56,1.09.17,2.18.31,3.27.44s2.19.23,3.29.31c1.1.08,2.2.15,3.3.19s2.2.06,3.31.06,2.21-.02,3.31-.06,2.2-.1,3.3-.19c1.1-.08,2.2-.19,3.29-.31s2.18-.27,3.27-.44c1.09-.17,2.17-.35,3.25-.56,1.08-.21,2.15-.43,3.21-.68,1.07-.25,2.12-.51,3.18-.8,1.05-.29,2.1-.59,3.13-.92,1.04-.33,2.06-.67,3.08-1.04,1.02-.37,2.03-.75,3.03-1.15s1.99-.83,2.97-1.27c.98-.44,1.95-.9,2.9-1.38.96-.48,1.9-.97,2.83-1.49.93-.51,1.85-1.04,2.75-1.59s1.79-1.11,2.67-1.69,1.74-1.18,2.58-1.79c.84-.61,1.67-1.24,2.49-1.89.81-.65,1.61-1.31,2.39-1.98.78-.68,1.54-1.37,2.29-2.07.75-.7,1.47-1.42,2.18-2.15.71-.73,1.4-1.48,2.07-2.23.67-.76,1.32-1.53,1.96-2.31s1.25-1.58,1.84-2.38c.59-.81,1.16-1.62,1.72-2.45s1.08-1.66,1.59-2.51c.51-.85,1-1.7,1.46-2.57.47-.87.91-1.74,1.33-2.62.42-.88.82-1.77,1.2-2.67s.73-1.8,1.06-2.71c.33-.91.64-1.83.93-2.75s.55-1.85.79-2.78c.24-.93.45-1.87.65-2.81s.36-1.89.5-2.83c.14-.95.26-1.9.36-2.85.1-.95.17-1.91.22-2.86.05-.95.07-1.91.07-2.86s-.02-1.91-.07-2.86c-.05-.95-.12-1.91-.22-2.86s-.22-1.9-.36-2.85-.31-1.89-.5-2.83-.41-1.88-.65-2.81c-.24-.93-.5-1.86-.79-2.78-.29-.92-.59-1.84-.93-2.75-.33-.91-.69-1.82-1.06-2.71s-.78-1.79-1.2-2.67c-.42-.88-.87-1.76-1.33-2.62-.47-.87-.95-1.72-1.46-2.57-.51-.85-1.04-1.68-1.59-2.51s-1.12-1.64-1.72-2.45-1.21-1.6-1.84-2.38-1.29-1.55-1.96-2.31c-.67-.76-1.36-1.5-2.07-2.23-.71-.73-1.44-1.45-2.18-2.15-.75-.7-1.51-1.39-2.29-2.07-.78-.68-1.58-1.34-2.39-1.98-.81-.65-1.64-1.28-2.49-1.89-.84-.61-1.71-1.21-2.58-1.79-.88-.58-1.76-1.15-2.67-1.69s-1.82-1.08-2.75-1.59c-.93-.51-1.87-1.01-2.83-1.49s-1.92-.94-2.9-1.38c-.98-.44-1.97-.86-2.97-1.27s-2.01-.79-3.03-1.15c-1.02-.37-2.05-.71-3.08-1.04-1.04-.33-2.08-.63-3.13-.92s-2.11-.55-3.18-.8c-1.07-.25-2.14-.47-3.21-.68-1.08-.21-2.16-.39-3.25-.56s-2.18-.31-3.27-.44-2.19-.23-3.29-.31-2.2-.15-3.3-.19c-1.1-.04-2.2-.06-3.31-.06s-2.21.02-3.31.06c-1.1.04-2.2.1-3.3.19s-2.2.19-3.29.31-2.18.27-3.27.44-2.17.35-3.25.56c-1.08.21-2.15.43-3.21.68-1.07.25-2.12.51-3.18.8s-2.1.59-3.13.92c-1.04.33-2.06.67-3.08,1.04-1.02.37-2.03.75-3.03,1.15s-1.99.83-2.97,1.27c-.98.44-1.95.9-2.9,1.38s-1.9.97-2.83,1.49c-.93.51-1.85,1.04-2.75,1.59s-1.79,1.11-2.67,1.69m3.18,5.37c-.68.54-1.35,1.1-2.01,1.66s-1.29,1.15-1.92,1.74c-.63.59-1.24,1.19-1.83,1.81-.59.61-1.17,1.24-1.74,1.88-.56.64-1.11,1.28-1.64,1.94-.53.66-1.05,1.32-1.54,2-.5.68-.98,1.36-1.44,2.06-.46.69-.91,1.4-1.34,2.11s-.84,1.43-1.23,2.16c-.39.73-.76,1.46-1.12,2.2-.35.74-.69,1.49-1.01,2.24-.32.75-.61,1.51-.89,2.28-.28.76-.54,1.53-.78,2.31-.24.77-.46,1.55-.66,2.34-.2.78-.38,1.57-.54,2.36-.16.79-.3,1.58-.42,2.38-.12.79-.22,1.59-.3,2.39-.08.8-.14,1.6-.18,2.4-.04.8-.06,1.6-.06,2.4s.02,1.6.06,2.4c.04.8.1,1.6.18,2.4.08.8.18,1.6.3,2.39.12.79.26,1.59.42,2.38s.34,1.58.54,2.36.42,1.56.66,2.34.5,1.54.78,2.31c.28.76.58,1.52.89,2.28.32.75.65,1.5,1.01,2.24.35.74.73,1.47,1.12,2.2.39.73.8,1.45,1.23,2.16.43.71.87,1.41,1.34,2.11.46.69.94,1.38,1.44,2.06.5.68,1.01,1.34,1.54,2,.53.66,1.08,1.3,1.64,1.94.56.64,1.14,1.26,1.74,1.88.59.61,1.21,1.22,1.83,1.81.63.59,1.27,1.17,1.92,1.74.65.57,1.32,1.12,2.01,1.66s1.38,1.07,2.09,1.59c.71.52,1.43,1.02,2.17,1.5s1.48.96,2.24,1.42,1.53.91,2.31,1.34c.78.43,1.57.85,2.37,1.25s1.61.79,2.43,1.16c.82.37,1.65.72,2.49,1.06.84.34,1.69.66,2.54.97.86.31,1.72.6,2.59.87s1.75.53,2.63.77c.88.24,1.77.47,2.67.67.89.21,1.79.4,2.7.57s1.81.33,2.72.47c.91.14,1.83.26,2.74.37.92.1,1.84.19,2.76.26.92.07,1.85.12,2.77.16.92.03,1.85.05,2.78.05s1.85-.02,2.78-.05c.92-.03,1.85-.09,2.77-.16.92-.07,1.84-.16,2.76-.26.92-.1,1.83-.23,2.74-.37.91-.14,1.82-.3,2.72-.47s1.8-.36,2.7-.57c.89-.21,1.78-.43,2.67-.67.88-.24,1.76-.5,2.63-.77s1.73-.56,2.59-.87c.86-.31,1.7-.63,2.54-.97.84-.34,1.67-.69,2.49-1.06.82-.37,1.63-.76,2.43-1.16s1.59-.82,2.37-1.25c.78-.43,1.55-.88,2.31-1.34s1.5-.93,2.24-1.42,1.46-.99,2.17-1.5c.71-.52,1.41-1.04,2.09-1.59s1.35-1.1,2.01-1.66c.65-.57,1.29-1.15,1.92-1.74.63-.59,1.24-1.19,1.83-1.81.59-.61,1.17-1.24,1.74-1.88.56-.64,1.11-1.28,1.64-1.94.53-.66,1.05-1.32,1.54-2,.5-.68.98-1.36,1.44-2.06.46-.69.91-1.4,1.34-2.11.43-.71.84-1.43,1.23-2.16.39-.73.76-1.46,1.12-2.2.35-.74.69-1.49,1.01-2.24s.61-1.51.89-2.28.54-1.53.78-2.31.46-1.55.66-2.34c.2-.78.38-1.57.54-2.36s.3-1.58.42-2.38c.12-.79.22-1.59.3-2.39.08-.8.14-1.6.18-2.4s.06-1.6.06-2.4-.02-1.6-.06-2.4-.1-1.6-.18-2.4c-.08-.8-.18-1.6-.3-2.39-.12-.79-.26-1.59-.42-2.38-.16-.79-.34-1.58-.54-2.36-.2-.78-.42-1.56-.66-2.34-.24-.77-.5-1.54-.78-2.31s-.58-1.52-.89-2.28c-.32-.75-.65-1.5-1.01-2.24-.35-.74-.73-1.47-1.12-2.2-.39-.73-.8-1.45-1.23-2.16s-.87-1.41-1.34-2.11c-.46-.69-.94-1.38-1.44-2.06-.5-.68-1.01-1.34-1.54-2-.53-.66-1.08-1.3-1.64-1.94-.56-.64-1.14-1.26-1.74-1.88-.59-.61-1.21-1.22-1.83-1.81-.63-.59-1.27-1.17-1.92-1.74s-1.32-1.12-2.01-1.66-1.38-1.07-2.09-1.59c-.71-.52-1.43-1.02-2.17-1.5s-1.48-.96-2.24-1.42c-.76-.46-1.53-.91-2.31-1.34-.78-.43-1.57-.85-2.37-1.25s-1.61-.79-2.43-1.16c-.82-.37-1.65-.72-2.49-1.06-.84-.34-1.69-.66-2.54-.97-.86-.31-1.72-.6-2.59-.87-.87-.27-1.75-.53-2.63-.77-.88-.24-1.77-.47-2.67-.67-.89-.21-1.79-.4-2.7-.57s-1.81-.33-2.72-.47c-.91-.14-1.83-.26-2.74-.37-.92-.1-1.84-.19-2.76-.26-.92-.07-1.85-.12-2.77-.16-.92-.03-1.85-.05-2.78-.05s-1.85.02-2.78.05c-.92.03-1.85.09-2.77.16-.92.07-1.84.16-2.76.26-.92.1-1.83.23-2.74.37-.91.14-1.82.3-2.72.47s-1.8.36-2.7.57c-.89.21-1.78.43-2.67.67-.88.24-1.76.5-2.63.77-.87.27-1.73.56-2.59.87-.86.31-1.7.63-2.54.97-.84.34-1.67.69-2.49,1.06-.82.37-1.63.76-2.43,1.16s-1.59.82-2.37,1.25c-.78.43-1.55.88-2.31,1.34-.76.46-1.5.93-2.24,1.42m5.3,7.17c-.53.42-1.05.85-1.56,1.29-.51.44-1.01.89-1.49,1.35-.49.46-.96.93-1.42,1.41-.46.48-.91.96-1.35,1.46-.44.49-.86,1-1.28,1.51-.41.51-.81,1.03-1.2,1.56s-.76,1.06-1.12,1.6-.71,1.09-1.04,1.64c-.33.55-.65,1.11-.96,1.68-.3.57-.59,1.14-.87,1.71s-.54,1.16-.78,1.74-.48,1.18-.69,1.77c-.22.59-.42,1.19-.6,1.8-.19.6-.36,1.21-.51,1.82-.16.61-.3,1.22-.42,1.83-.13.61-.23,1.23-.33,1.85-.09.62-.17,1.24-.24,1.86-.06.62-.11,1.24-.14,1.87-.03.62-.05,1.25-.05,1.87s.02,1.25.05,1.87c.03.62.08,1.25.14,1.87.06.62.14,1.24.24,1.86s.2,1.23.33,1.85c.13.61.27,1.23.42,1.83.16.61.33,1.21.51,1.82.19.6.39,1.2.6,1.8.22.59.45,1.19.69,1.77s.51,1.17.78,1.74.57,1.15.87,1.71c.3.57.62,1.12.96,1.68.33.55.68,1.1,1.04,1.64s.73,1.07,1.12,1.6.79,1.04,1.2,1.56c.41.51.84,1.01,1.28,1.51.44.49.89.98,1.35,1.46s.94.95,1.42,1.41.98.91,1.49,1.35c.51.44,1.03.87,1.56,1.29.53.42,1.07.83,1.62,1.23.55.4,1.11.79,1.68,1.17.57.38,1.15.75,1.74,1.11.59.36,1.19.7,1.8,1.04.61.34,1.22.66,1.85.97.62.31,1.25.61,1.89.9.64.29,1.28.56,1.94.83s1.31.51,1.98.75c.67.24,1.34.46,2.01.68s1.36.41,2.05.6c.69.19,1.38.36,2.07.52.7.16,1.39.31,2.1.44.7.13,1.41.26,2.12.36s1.42.2,2.13.28c.71.08,1.43.15,2.15.2.72.05,1.44.1,2.16.12.72.03,1.44.04,2.16.04s1.44-.01,2.16-.04c.72-.03,1.44-.07,2.16-.12.72-.05,1.43-.12,2.15-.2.71-.08,1.43-.18,2.13-.28s1.42-.23,2.12-.36c.7-.13,1.4-.28,2.1-.44.7-.16,1.39-.34,2.07-.52.69-.19,1.37-.39,2.05-.6s1.35-.44,2.01-.68c.67-.24,1.32-.49,1.98-.75s1.3-.54,1.94-.83c.64-.29,1.27-.59,1.89-.9.62-.31,1.24-.64,1.85-.97.61-.33,1.21-.68,1.8-1.04.59-.36,1.17-.73,1.74-1.11.57-.38,1.13-.77,1.68-1.17.55-.4,1.09-.81,1.62-1.23.53-.42,1.05-.85,1.56-1.29.51-.44,1.01-.89,1.49-1.35s.96-.93,1.42-1.41.91-.96,1.35-1.46c.44-.49.86-1,1.28-1.51.41-.51.81-1.03,1.2-1.56s.76-1.06,1.12-1.6.71-1.09,1.04-1.64c.33-.55.65-1.11.96-1.68.3-.57.59-1.14.87-1.71s.54-1.16.78-1.74.48-1.18.69-1.77c.22-.59.42-1.19.6-1.8.19-.6.36-1.21.51-1.82.16-.61.3-1.22.42-1.83.13-.61.23-1.23.33-1.85s.17-1.24.24-1.86c.06-.62.11-1.24.14-1.87.03-.62.05-1.25.05-1.87s-.02-1.25-.05-1.87c-.03-.62-.08-1.25-.14-1.87-.06-.62-.14-1.24-.24-1.86-.09-.62-.2-1.23-.33-1.85-.13-.61-.27-1.23-.42-1.83-.16-.61-.33-1.21-.51-1.82-.19-.6-.39-1.2-.6-1.8-.22-.59-.45-1.19-.69-1.77s-.51-1.17-.78-1.74-.57-1.15-.87-1.71c-.3-.57-.62-1.12-.96-1.68-.33-.55-.68-1.1-1.04-1.64s-.73-1.07-1.12-1.6-.79-1.04-1.2-1.56c-.41-.51-.84-1.01-1.28-1.51-.44-.49-.89-.98-1.35-1.46-.46-.48-.94-.95-1.42-1.41-.49-.46-.98-.91-1.49-1.35-.51-.44-1.03-.87-1.56-1.29-.53-.42-1.07-.83-1.62-1.23-.55-.4-1.11-.79-1.68-1.17-.57-.38-1.15-.75-1.74-1.11-.59-.36-1.19-.7-1.8-1.04-.61-.33-1.22-.66-1.85-.97s-1.25-.61-1.89-.9c-.64-.29-1.28-.56-1.94-.83s-1.31-.51-1.98-.75c-.67-.24-1.34-.46-2.01-.68-.68-.21-1.36-.41-2.05-.6-.69-.19-1.38-.36-2.07-.52-.7-.16-1.39-.31-2.1-.44-.7-.13-1.41-.26-2.12-.36s-1.42-.2-2.13-.28c-.71-.08-1.43-.15-2.15-.2-.72-.05-1.44-.1-2.16-.12-.72-.03-1.44-.04-2.16-.04s-1.44.01-2.16.04c-.72.03-1.44.07-2.16.12-.72.05-1.43.12-2.15.2-.71.08-1.43.18-2.13.28s-1.42.23-2.12.36c-.7.13-1.4.28-2.1.44-.7.16-1.39.34-2.07.52-.69.19-1.37.39-2.05.6-.68.21-1.35.44-2.01.68-.67.24-1.32.49-1.98.75s-1.3.54-1.94.83c-.64.29-1.27.59-1.89.9s-1.24.64-1.85.97c-.61.34-1.21.68-1.8,1.04-.59.36-1.17.73-1.74,1.11m7.26,8.74c-.36.29-.72.58-1.07.88s-.69.61-1.02.92c-.33.31-.66.64-.97.96-.32.33-.62.66-.92,1-.3.34-.59.68-.87,1.03s-.56.7-.82,1.06-.52.72-.77,1.09c-.25.37-.48.74-.71,1.12-.23.38-.45.76-.65,1.15-.21.39-.41.78-.59,1.17-.19.39-.37.79-.54,1.19-.17.4-.33.8-.47,1.21-.15.41-.29.82-.41,1.23s-.24.83-.35,1.24c-.11.42-.2.83-.29,1.25s-.16.84-.22,1.26c-.06.42-.12.85-.16,1.27-.04.42-.08.85-.1,1.28-.02.43-.03.85-.03,1.28s.01.85.03,1.28c.02.43.05.85.1,1.28.04.42.1.85.16,1.27.06.42.14.84.22,1.26.09.42.18.84.29,1.25.11.42.22.83.35,1.24s.27.82.41,1.23c.15.41.31.81.47,1.21.17.4.35.8.54,1.19.19.39.39.78.59,1.17.21.39.43.77.65,1.15.23.38.46.75.71,1.12.25.37.5.73.77,1.09s.54.71.82,1.06.57.69.87,1.03c.3.34.61.67.92,1,.32.33.64.65.97.96.33.31.67.62,1.02.92s.7.6,1.07.88.73.57,1.11.84c.38.27.76.54,1.15.8.39.26.79.51,1.19.76.4.24.81.48,1.23.71.42.23.84.45,1.26.66s.86.42,1.3.62c.44.2.88.39,1.32.57s.9.35,1.35.52c.45.16.91.32,1.38.46s.93.28,1.4.41.94.25,1.42.36.95.21,1.43.3c.48.09.96.18,1.45.25.48.07.97.14,1.46.19.49.06.98.1,1.47.14.49.04.98.07,1.47.08.49.02.98.03,1.48.03s.98,0,1.48-.03c.49-.02.98-.05,1.47-.08.49-.04.98-.08,1.47-.14.49-.06.98-.12,1.46-.19.48-.07.97-.16,1.45-.25.48-.09.96-.19,1.43-.3s.95-.23,1.42-.36.94-.27,1.4-.41.92-.3,1.38-.46c.45-.16.91-.34,1.35-.52s.89-.37,1.32-.57c.44-.2.87-.4,1.3-.62s.85-.43,1.26-.66c.42-.23.82-.47,1.23-.71.4-.24.8-.5,1.19-.76.39-.26.77-.53,1.15-.8.38-.27.75-.56,1.11-.84s.72-.58,1.07-.88.69-.61,1.02-.92c.33-.31.66-.64.97-.96.32-.33.62-.66.92-1,.3-.34.59-.68.87-1.03s.56-.7.82-1.06.52-.72.77-1.09c.25-.37.48-.74.71-1.12.23-.38.45-.76.65-1.15.21-.39.41-.78.59-1.17.19-.39.37-.79.54-1.19.17-.4.33-.8.47-1.21.15-.41.29-.82.41-1.23s.24-.83.35-1.24c.11-.42.2-.83.29-1.25.09-.42.16-.84.22-1.26.06-.42.12-.85.16-1.27.04-.42.08-.85.1-1.28.02-.43.03-.85.03-1.28s-.01-.85-.03-1.28c-.02-.43-.05-.85-.1-1.28-.04-.42-.1-.85-.16-1.27-.06-.42-.14-.84-.22-1.26s-.18-.84-.29-1.25c-.11-.42-.22-.83-.35-1.24s-.27-.82-.41-1.23c-.15-.41-.31-.81-.47-1.21-.17-.4-.35-.8-.54-1.19-.19-.39-.39-.78-.59-1.17-.21-.39-.43-.77-.65-1.15-.23-.38-.46-.75-.71-1.12-.25-.37-.5-.73-.77-1.09s-.54-.71-.82-1.06-.57-.69-.87-1.03c-.3-.34-.61-.67-.92-1-.32-.33-.64-.65-.97-.96-.33-.31-.67-.62-1.02-.92s-.7-.6-1.07-.88-.73-.57-1.11-.84c-.38-.27-.76-.54-1.15-.8-.39-.26-.79-.51-1.19-.76-.4-.24-.81-.48-1.23-.71-.42-.23-.84-.45-1.26-.66s-.86-.42-1.3-.62-.88-.39-1.32-.57c-.45-.18-.9-.35-1.35-.52-.45-.16-.91-.32-1.38-.46-.46-.15-.93-.28-1.4-.41s-.94-.25-1.42-.36-.95-.21-1.43-.3c-.48-.09-.96-.18-1.45-.25-.48-.07-.97-.14-1.46-.19-.49-.06-.98-.1-1.47-.14-.49-.04-.98-.07-1.47-.08-.49-.02-.98-.03-1.48-.03s-.98,0-1.48.03c-.49.02-.98.05-1.47.08-.49.04-.98.08-1.47.14-.49.06-.98.12-1.46.19-.48.07-.97.16-1.45.25-.48.09-.96.19-1.43.3s-.95.23-1.42.36-.94.27-1.4.41c-.46.15-.92.3-1.38.46-.45.16-.91.34-1.35.52-.45.18-.89.37-1.32.57s-.87.4-1.3.62-.85.43-1.26.66c-.42.23-.82.47-1.23.71-.4.24-.8.5-1.19.76m9,10.05c-.18.15-.37.3-.54.45s-.35.31-.52.47c-.17.16-.33.32-.49.49s-.32.33-.47.51-.3.35-.44.52c-.14.18-.28.36-.42.54-.13.18-.26.37-.39.56s-.25.38-.36.57c-.12.19-.23.39-.33.58-.11.2-.21.39-.3.59-.1.2-.19.4-.27.61-.09.2-.17.41-.24.62-.08.21-.15.41-.21.62-.06.21-.12.42-.18.63-.05.21-.1.42-.15.64s-.08.43-.11.64-.06.43-.08.65c-.02.22-.04.43-.05.65-.01.22-.02.43-.02.65s0,.43.02.65.03.43.05.65c.02.22.05.43.08.65.03.21.07.43.11.64s.09.43.15.64c.05.21.11.42.18.63.06.21.13.42.21.62.08.21.16.41.24.62.09.2.18.41.27.61.1.2.2.4.3.59.11.2.22.39.33.58.12.19.24.38.36.57s.25.37.39.56c.13.18.27.36.42.54.14.18.29.35.44.52s.31.34.47.51c.16.17.33.33.49.49.17.16.34.32.52.47.18.15.36.3.54.45.18.15.37.29.56.43.19.14.39.27.58.41.2.13.4.26.6.38.2.12.41.24.62.36.21.12.42.23.64.34.22.11.44.21.66.31.22.1.45.2.67.29.23.09.46.18.69.26.23.08.46.16.7.24.23.07.47.14.71.21s.48.13.72.18c.24.06.48.11.73.15.24.05.49.09.74.13.25.04.49.07.74.1.25.03.5.05.75.07.25.02.5.03.75.04s.5.01.75.01.5,0,.75-.01.5-.02.75-.04c.25-.02.5-.04.75-.07.25-.03.5-.06.74-.1.25-.04.49-.08.74-.13.24-.05.49-.1.73-.15.24-.06.48-.12.72-.18s.48-.13.71-.21c.23-.07.47-.15.7-.24.23-.08.46-.17.69-.26.23-.09.45-.19.67-.29.22-.1.44-.2.66-.31.22-.11.43-.22.64-.34.21-.12.42-.24.62-.36.2-.12.41-.25.6-.38.2-.13.39-.27.58-.41.19-.14.38-.28.56-.43.18-.15.37-.3.54-.45.18-.15.35-.31.52-.47.17-.16.33-.32.49-.49.16-.17.32-.33.47-.51s.3-.35.44-.52c.14-.18.28-.36.42-.54.13-.18.26-.37.39-.56s.25-.38.36-.57c.12-.19.23-.39.33-.58.11-.2.21-.39.3-.59.1-.2.19-.4.27-.61.09-.2.17-.41.24-.62.08-.21.15-.41.21-.62.06-.21.12-.42.18-.63.05-.21.1-.42.15-.64s.08-.43.11-.64c.03-.21.06-.43.08-.65.02-.22.04-.43.05-.65s.02-.43.02-.65,0-.43-.02-.65c-.01-.22-.03-.43-.05-.65-.02-.22-.05-.43-.08-.65s-.07-.43-.11-.64-.09-.43-.15-.64c-.05-.21-.11-.42-.18-.63-.06-.21-.13-.42-.21-.62-.08-.21-.16-.41-.24-.62-.09-.2-.18-.41-.27-.61-.1-.2-.2-.4-.3-.59-.11-.2-.22-.39-.33-.58-.12-.19-.24-.38-.36-.57s-.25-.37-.39-.56c-.13-.18-.27-.36-.42-.54-.14-.18-.29-.35-.44-.52s-.31-.34-.47-.51-.33-.33-.49-.49c-.17-.16-.34-.32-.52-.47s-.36-.3-.54-.45c-.18-.15-.37-.29-.56-.43-.19-.14-.39-.27-.58-.41-.2-.13-.4-.26-.6-.38-.2-.12-.41-.24-.62-.36-.21-.12-.42-.23-.64-.34-.22-.11-.44-.21-.66-.31-.22-.1-.45-.2-.67-.29-.23-.09-.46-.18-.69-.26-.23-.08-.46-.16-.7-.24-.23-.07-.47-.14-.71-.21s-.48-.13-.72-.18c-.24-.06-.48-.11-.73-.15-.24-.05-.49-.09-.74-.13-.25-.04-.49-.07-.74-.1-.25-.03-.5-.05-.75-.07-.25-.02-.5-.03-.75-.04s-.5-.01-.75-.01-.5,0-.75.01-.5.02-.75.04c-.25.02-.5.04-.75.07-.25.03-.5.06-.74.1-.25.04-.49.08-.74.13-.24.05-.49.1-.73.15-.24.06-.48.12-.72.18s-.48.13-.71.21c-.23.07-.47.15-.7.24-.23.08-.46.17-.69.26-.23.09-.45.19-.67.29-.22.1-.44.2-.66.31-.22.11-.43.22-.64.34-.21.12-.42.24-.62.36-.2.12-.41.25-.6.38"/>
  <g>
    <path class="cls-4" d="m52.41,152.78c.94.77,2,1.87,1.7,2.14-.3.27-1.95-.3-2.89-1.07-.94-.77-1.16-1.74-.86-2,.3-.27,1.12.17,2.05.93"/>
    <path class="cls-4" d="m44.7,145.59c1.02,1.28,2.06,2.54,1.78,2.77-.29.23-1.9-.58-2.81-1.48-.9-.9-1.09-1.89-1.93-3.22-.84-1.33-2.32-3-2.44-3.38s1.13.53,2.26,1.63c1.12,1.1,2.12,2.4,3.14,3.68"/>
    <path class="cls-4" d="m109.7,1.63c.41.04.4.08-.01.07-.41-.01-1.23-.09-1.22-.11,0-.02.83,0,1.24.04"/>
    <path class="cls-4" d="m164.49,109.69c-.32.62-1.33,1.07-1.5.68-.18-.39.47-1.63.97-1.85.5-.23.85.56.53,1.17"/>
    <path class="cls-4" d="m157.97,111.57c.17.55-.19.92-.54.55-.35-.37-.7-1.47-.52-1.66.18-.18.89.56,1.06,1.11"/>
    <path class="cls-4" d="m100.18,1.44c.88-.06,2.32-.06,3.39-.07s1.77-.01,2.28.02c.51.03.82.1,1.95.22s3.1.3,3.86.34.31-.04.29-.08c-.02-.04.37-.03.99.06s1.44.26,1.05.29c-.39.03-2.01-.09-3.53-.22-1.52-.12-2.95-.24-4.11-.28-1.16-.04-2.04,0-2.92.06-.88.06-1.77.14-2.4.32-.64.18-1.03.47-1.45.63-.43.16-.88.18-1.24.09s-.6-.32-.53-.51c.07-.2.46-.37.83-.52.36-.15.69-.28,1.57-.34"/>
    <path class="cls-4" d="m93.85,3.84c.13-.15,1.09-.37,1.91-.46.82-.08,1.5-.02,1.78.21.28.23.17.64-.29.76-.47.12-1.29-.05-2.05-.17-.76-.12-1.47-.2-1.35-.35"/>
    <path class="cls-4" d="m35.35,66.77c.43-1.02,1.23-2.29,1.55-2.47.32-.17.16.75-.27,1.77-.43,1.02-1.13,2.15-1.45,2.32-.32.17-.26-.6.17-1.62"/>
    <path class="cls-4" d="m82.9,115.67c.39.51,1.21.89,1.69,1.58.48.7.62,1.71-.54,1.89-1.16.18-3.62-.47-4.16-1.67-.53-1.21.86-2.97,1.63-3.66.77-.69.9-.3.96.21.06.51.03,1.15.43,1.65"/>
    <path class="cls-4" d="m95.21,6.72c.07-.15.63-.12,1.02-.24.38-.12.59-.4.49-.61-.1-.22-.5-.37-.43-.54.08-.16.63-.33.93.04.3.37.35,1.28.48,1.99s.34,1.21.29,1.52-.36.43-.73.16-.82-.9-1.25-1.38c-.44-.48-.87-.8-.8-.95"/>
    <path class="cls-4" d="m130.85,106.06c-.62-.19-1.01-1.3-1.06-2.33-.04-1.04.25-2,.74-2.48.49-.49,1.17-.5,1.64.17s.74,2.01.45,3.05c-.29,1.04-1.15,1.78-1.78,1.59"/>
    <path class="cls-4" d="m131.38,94.93c.27.15.75-.26,1.24-.02.49.24.98,1.13,2,2.05,1.02.93,2.57,1.89,3.53,2.3s1.34.26,1.67.77c.33.51.61,1.67-.09,3.01-.7,1.34-2.38,2.86-3.13,3.22-.75.36-.58-.43-.84-1.37-.26-.94-.94-2.03-1.3-2.93-.36-.9-.41-1.62-.79-1.99-.38-.37-1.1-.39-1.73-.73-.63-.34-1.18-.99-1.56-1.87-.38-.88-.6-1.97-.47-2.68.13-.7.62-1.01.89-.81s.32.9.59,1.05"/>
    <path class="cls-4" d="m71.41,83.54c-.1.5-.54-.11-1.17-.37-.63-.26-1.45-.16-1.75-.4-.3-.23-.09-.8.43-1.34s1.32-1.07,1.84-.53.76,2.15.66,2.65"/>
    <path class="cls-4" d="m117.85,87.75c-.16.97-.97,2.28-1.91,2.96-.94.68-2.01.72-2.46.59-.45-.13-.29-.44-.59-.85-.31-.41-1.08-.92-1.29-1.47-.2-.54.17-1.11.58-1.26.41-.15.87.12,1.68-.17.81-.29,1.97-1.15,2.8-1.27.83-.12,1.33.5,1.17,1.47"/>
    <path class="cls-4" d="m177.9,70.11c.8.16,1.05-.33,1.13-1.18.08-.85,0-2.06-.4-2.88s-1.1-1.25-1.79-1.48c-.69-.23-1.38-.25-1.76-.61-.38-.36-.46-1.06-.89-1-.42.06-1.19.89-1.86,1.34s-1.26.52-1.7.02c-.44-.51-.74-1.6-1.22-2.29-.48-.69-1.14-.98-1.5-.83s-.41.75-.16,1.79c.26,1.04.83,2.54,1.32,3.57s.89,1.61,1.76,1.83c.87.22,2.21.08,3.56.41,1.35.33,2.7,1.14,3.5,1.3"/>
    <path class="cls-4" d="m168.69,28.73c.33.33.88.86,1.74,1.75.86.89,2.01,2.14,3.06,3.29s1.98,2.21,2.84,3.23c.85,1.01,1.62,1.97,2.37,2.95s1.48,1.97,1.84,2.47q.36.5.84,1.22c.48.72,1.44,2.16,2.36,3.62s1.8,2.95,2.43,4.02c.62,1.08.99,1.75,1.13,2.04s.06.21-.15-.02c-.2-.23-.53-.62-.89-.99s-.75-.72-.69-.38c.06.34.58,1.37.76,1.91.18.53.01.57-.09.79-.1.22-.15.62-.21,1.03-.06.41-.15.83,0,1.59.14.76.51,1.85.86,2.95.35,1.1.67,2.22.93,3.61.26,1.39.45,3.07.39,3.94-.06.87-.36.95-.38,1.46-.02.51.24,1.45.23,2.46,0,1.01-.28,2.09-.73,2.65s-1.08.61-1.38,1.12-.27,1.47.07,2.07c.34.6.99.83,1.77.74.78-.08,1.69-.48,2.11-1.19.42-.71.33-1.75-.04-3.07-.38-1.32-1.04-2.92-1.2-3.56-.15-.64.21-.31.56-.6.35-.3.7-1.22,1.08-1.26.38-.04.81.82,1.22,1.67.41.86.8,1.72,1.24,2.98.44,1.26.92,2.92,1.29,4.54s.61,3.23.8,4.19c.19.96.32,1.28.45,1.96.14.69.28,1.75.4,2.81s.23,2.13.3,3.39c.07,1.26.09,2.71.08,4.17,0,1.45-.05,2.91-.23,3.43-.17.52-.48.11-.81-.3s-.68-.82-1.42-.88c-.74-.06-1.88.23-2.59.2-.71-.03-.99-.39-2.02-.55s-2.8-.12-3.94.3c-1.14.42-1.64,1.23-.82,1.8.83.57,2.98.89,4.43,1.43,1.45.54,2.18,1.31,2.87,1.68.69.38,1.34.36,1.89.14s1-.67,1.42-1.11.8-.88,1.13-1.01c.33-.13.6.05.76-.83.16-.88.22-2.82.21-4.75s-.07-3.87.04-4.26.39.75.64,1.9c.25,1.15.46,2.3.61,3.52.15,1.22.25,2.5.32,3.79.07,1.29.1,2.57.1,3.83,0,1.25-.05,2.48-.12,3.7-.07,1.22-.16,2.44-.26,3.61-.1,1.17-.22,2.29-.35,3.41s-.29,2.24-.44,3.24-.29,1.89-.44,2.77c-.16.88-.34,1.76-.43,2.2q-.09.44-.3,1.28c-.21.84-.64,2.51-1.11,4.17-.47,1.66-.99,3.31-1.54,4.95s-1.16,3.26-1.8,4.86c-.64,1.6-1.33,3.19-2.05,4.76-.73,1.57-1.49,3.12-2.3,4.64-.81,1.53-1.65,3.03-2.54,4.52s-1.81,2.94-2.77,4.38c-.96,1.44-1.96,2.84-2.87,4.08-.91,1.23-1.74,2.29-2.58,3.32-.85,1.04-1.71,2.06-2.18,2.6-.47.54-.54.6-.5.53.03-.07.17-.27.55-.78.38-.52,1.01-1.35,1.61-2.21.6-.86,1.18-1.73,1.54-2.49s.52-1.4.46-1.9c-.06-.5-.33-.86-.71-1-.38-.14-.89-.05-1.41.01s-1.07.11-1.25-.26c-.18-.37,0-1.16.18-1.96.17-.8.33-1.62.13-2.05-.19-.43-.73-.47-1.5.07-.77.54-1.77,1.64-2.62,2.16-.86.51-1.57.42-2.6.98s-2.4,1.77-3.73,3.05-2.62,2.63-3.75,3.53c-1.12.91-2.07,1.37-3.37,2.22-1.3.86-2.94,2.11-4.13,2.85s-1.93.97-2.81,1.09c-.88.11-1.9.11-2.93.09s-2.08-.06-3.15-.43c-1.07-.37-2.16-1.05-3.2-1.46s-2.01-.53-2.82-1c-.81-.46-1.47-1.26-1.54-2.05-.07-.79.44-1.57.59-2.8.16-1.23-.03-2.91-.36-3.87-.33-.96-.79-1.21-.82-2.03s.36-2.22.75-3.63c.38-1.42.75-2.86,1.37-4.24.62-1.39,1.5-2.72,2.36-4.07.86-1.35,1.7-2.72,2.06-4.28.36-1.56.23-3.31.44-4.59.21-1.27.77-2.07,1.09-2.97.32-.9.41-1.9,1.22-2.72.82-.81,2.36-1.43,3.63-2.54s2.27-2.7,3.38-4.15c1.12-1.45,2.35-2.74,3.55-4.05,1.2-1.31,2.38-2.62,3.25-3.25.87-.63,1.44-.56,1.93-.02.49.54.89,1.55,1.36,2.12.47.57,1.02.69,2.02.27,1-.42,2.46-1.4,3.36-1.79.9-.39,1.26-.21,2.02-.51.76-.3,1.94-1.09,2.42-2.27s.29-2.75.75-4.14,1.61-2.61,2.69-3.83c1.09-1.22,2.13-2.44,2.67-3.39.54-.95.57-1.62.94-2.77.37-1.14,1.07-2.75,1.13-4.1.07-1.35-.5-2.45-1.09-3.54-.59-1.09-1.21-2.18-1.76-2.6s-1.04-.15-1.32.51c-.28.66-.34,1.73-.84,3.09s-1.45,3.01-2.51,3.62c-1.06.61-2.24.16-2.88-.9-.64-1.06-.73-2.74-.61-3.9s.44-1.78.68-2.97c.24-1.18.39-2.91.83-4.2s1.16-2.13,1.53-3.22.39-2.44.19-3.24-.63-1.05-1.55-.69c-.91.36-2.31,1.33-3.31,1.13-1.01-.2-1.62-1.58-1.95-1.64s-.35,1.21-.09,1.89c.26.68.8.78,1.15,1.44s.51,1.9.28,2.34c-.23.44-.85.09-1.47.27s-1.26.88-1.39,1.82.25,2.1.79,3.27c.53,1.17,1.22,2.34,1.92,2.99.7.65,1.43.77,1.35,1.97-.07,1.2-.95,3.46-.89,4.8s1.03,1.74,1.49,2.61c.46.87.4,2.2-.42,2.61-.81.41-2.38-.11-3.39-.67-1.01-.56-1.46-1.17-2.37-1.28-.92-.11-2.3.29-3.39.33s-1.86-.26-2.57-.3c-.71-.04-1.35.19-1.47.72-.12.53.28,1.38,1.29,1.83s2.64.52,3.93.39c1.29-.13,2.26-.45,2.83.23.57.68.74,2.35.44,2.88-.31.53-1.1-.07-2-.23-.9-.16-1.92.12-3.43.17-1.51.05-3.52-.14-4.67.35s-1.45,1.67-2.1,2.71c-.65,1.04-1.66,1.94-2.02,2.67s-.06,1.29-.16,2.05-.59,1.72-.68,2.82c-.09,1.1.22,2.33.2,3.7-.02,1.38-.36,2.9-1.06,4.21-.7,1.31-1.76,2.42-2.61,2.87-.85.45-1.48.23-2.25.39-.77.16-1.68.7-2.43.58-.75-.12-1.33-.91-1.67-1.88s-.43-2.12-.82-3.2c-.39-1.08-1.06-2.1-1.22-2.92-.16-.82.2-1.45,1.45-2.32s3.4-1.97,4.26-3.22.44-2.65-.65-3.65-2.82-1.61-3.23-2.2.5-1.16,1.29-2.72c.78-1.56,1.43-4.11,1.64-5.82.2-1.71-.05-2.57.15-3.65.2-1.08.85-2.38.59-3.67-.26-1.29-1.41-2.58-1.9-3.57-.49-.98-.31-1.67.1-1.43s1.06,1.4,1.78,2.14c.72.75,1.53,1.09,2.3.94.78-.15,1.53-.79,2.02-1.75.49-.96.73-2.23,1.11-3.04.38-.81.9-1.15,1.14-1.66.24-.51.19-1.19-.19-1.8s-1.07-1.14-1.52-1.75c-.45-.61-.65-1.29-.48-1.7s.71-.54.45-.88c-.26-.34-1.31-.89-1.62-1.75s.12-2.03.1-2.78-.48-1.09-.88-.56-.71,1.91-1.17,2.62-1.05.75-1.78.46c-.73-.28-1.61-.89-2.37-2.02-.77-1.14-1.43-2.81-2.07-3.45-.64-.64-1.27-.23-1.33.26-.06.5.45,1.09.85,2.01.4.93.68,2.19,1.07,3.16.39.97.89,1.63,1.53,2.03.64.4,1.43.52,1.95,1.05.53.53.79,1.46,1.37,2.54s1.47,2.31,1.79,3.4c.31,1.1.05,2.07-1.12,1.97-1.16-.1-3.23-1.26-4.23-1.4-1.01-.14-.95.74-1.26,1.38-.3.64-.96,1.04-1.96.54-1-.5-2.34-1.89-3-3.59-.66-1.7-.66-3.7-1.05-5.69-.39-1.99-1.19-3.98-1.78-5.66-.6-1.69-1-3.07-1.11-4.11-.11-1.04.07-1.74.03-2.33-.05-.59-.32-1.07-.36-1.59-.04-.53.15-1.11.56-1.41.41-.3,1.05-.32,1.84-.74s1.75-1.24,2.6-1.87c.85-.64,1.61-1.09,2.3-1.29s1.32-.15,1.78.23c.46.37.76,1.07.59,1.76-.17.7-.8,1.39-.5,1.92.31.53,1.56.89,2.39.92.83.03,1.24-.28,1.12-.59-.12-.31-.76-.64-.87-.99-.1-.35.33-.72.3-1.02-.03-.3-.52-.53-1.02-1.24-.5-.71-1-1.88-1.75-2.51s-1.73-.71-2.11-.99c-.38-.27-.16-.74.38-.87s1.37.07,1.58-.06c.2-.13-.23-.59-.81-1.41-.58-.81-1.32-1.98-1.51-2.52-.19-.54.17-.45.1-.9-.06-.45-.55-1.46-.65-2.05-.1-.59.18-.78-.11-.94-.29-.16-1.14-.3-1.55-.62-.41-.32-.37-.82-.12-1.52.25-.7.71-1.6.79-2.1.08-.5-.23-.59-.93-.38-.7.21-1.79.73-2.95.81s-2.38-.27-3.01-.64-.65-.75-.3-.96,1.1-.22,2.04-.38,2.09-.46,2.77-.73c.68-.27.89-.5,1.61-.47.72.03,1.95.32,2.55.35.6.03.57-.19.06-.48s-1.53-.64-2.86-.5c-1.33.14-2.99.79-4.29.71-1.3-.08-2.25-.89-2.68-1.45-.42-.57-.32-.9-.67-.85-.35.05-1.16.48-1.91.35-.75-.12-1.45-.8-2.07-1.03s-1.18-.02-1.94-.09-1.71-.42-2.34-.76c-.62-.34-.91-.67-1.36-.92s-1.06-.42-1.58-.41c-.52,0-.95.19-1.56-.1-.61-.29-1.42-1.05-1.81-1.75-.4-.71-.39-1.36.07-1.75.46-.39,1.36-.51,1.63-.85.27-.34-.09-.9-.47-1.17-.38-.27-.78-.25-1.17-.44s-.78-.61-1.3-.95c-.51-.33-1.15-.59-1.54-.57-.38.02-.51.3-.96.22-.44-.08-1.2-.53-1.51-.96-.31-.42-.17-.82-.3-1.28s-.53-.99-.86-1.06c-.33-.08-.59.3-1.4.37s-2.17-.14-2.91.02c-.73.16-.84.68-1.68.88-.84.2-2.43.06-3.61-.2-1.18-.27-1.94-.67-2.87-.72-.93-.06-2.02.22-2.88.17-.86-.05-1.48-.43-2.41-.34-.93.08-2.16.63-3.05.84s-1.43.09-1.59.28c-.16.19.07.69-.6,1.24s-2.21,1.15-3.17,1.47-1.33.37-1.52.39-.19.02-.96.15c-.77.12-2.32.37-3.34.67-1.01.3-1.49.66-2.06.9-.57.24-1.24.36-1.48.17s-.04-.69-.04-1.16c0-.46-.22-.89.08-1.17s1.09-.42,1.91-.68,1.65-.66,1.92-.96c.28-.31,0-.53-.15-.64-.14-.11-.14-.11.05-.33.19-.21.56-.64.29-.9-.27-.26-1.18-.36-1.23-.94-.05-.59.77-1.67,1.35-2.62s.9-1.79,1.33-2.22c.43-.42.95-.44,1.46-.69s.98-.74,1.59-1.12,1.35-.65,1.77-1.06c.42-.41.53-.96.36-1.25-.17-.29-.62-.32-.94-.7-.32-.38-.51-1.11-.38-1.62.13-.51.59-.8,1.17-1.46.58-.65,1.28-1.67,2.13-1.77s1.86.71,2.32,1.46c.46.75.37,1.45.11,1.89-.26.44-.68.62-1.33,1.34-.66.72-1.55,1.99-1.95,2.85-.4.86-.31,1.31.1,1.07.41-.24,1.13-1.17,1.7-1.5.57-.33.99-.06,1.52-.07.52,0,1.14-.29,1.68-.75.54-.46,1-1.09,1.07-1.46s-.24-.48.13-.7c.37-.22,1.42-.53,1.97-.59.55-.06.6.14,1.28.13s2-.24,3.32-.44c1.32-.2,2.64-.38,3.87-.75,1.23-.38,2.37-.95,3.5-1.49s2.27-1.04,2.34-1.43c.07-.39-.92-.67-1.72-.77-.79-.09-1.39,0-1.93-.08-.55-.08-1.04-.33-1.07-.93-.03-.6.41-1.55,1.18-2.23.76-.68,1.85-1.08,2.93-1.44s2.17-.67,3.25-.78c1.08-.11,2.17-.02,3.27,0s2.24-.06,3.36-.1c1.12-.04,2.25-.05,2.48-.24.24-.19-.4-.57-.59-.79-.18-.22.09-.29.86-.22.76.07,2.02.26,2.58.47.56.2.43.41.67.6s.85.36,1.17.54c.31.18.33.37,1.08.61.75.24,2.22.53,2.72.72.49.19,0,.29.26.42s1.25.3,2.25.49,1.98.39,1.84.19c-.14-.21-1.4-.82-1.5-1.03-.1-.21.95-.01,1.26-.03.3-.02-.15-.26-.6-.48s-.92-.42-1.11-.53c-.19-.11-.11-.12.17-.07.28.06.76.19,1,.25q.24.07,1.06.33c.82.26,2.47.79,4.1,1.37,1.63.57,3.25,1.19,4.84,1.84,1.6.66,3.18,1.35,4.74,2.09s3.1,1.52,4.62,2.34c1.52.82,3.02,1.68,4.5,2.58,1.48.9,2.93,1.84,4.35,2.81,1.43.97,2.83,1.99,4.2,3.03,1.37,1.05,2.72,2.13,4.07,3.28,1.35,1.15,2.7,2.36,3.43,3.03.73.67.84.79,1.17,1.12"/>
    <path class="cls-4" d="m70.29,69.19c.09-.37.6-.39.76-.03.16.36-.03,1.1-.28,1.11-.25,0-.57-.71-.48-1.08"/>
    <path class="cls-4" d="m79.34,31.73c.02-.12.3-.18.42-.09.12.09.08.34-.06.37-.14.03-.38-.15-.36-.28"/>
    <path class="cls-4" d="m54.17,187.66c-.15-.15-.28-.32-.57-.64-.28-.31-.71-.76-1.68-1.47-.96-.71-2.46-1.7-3.93-2.73s-2.91-2.1-3.92-2.95c-1.01-.85-1.59-1.47-2.16-2.1s-1.12-1.29-1.67-1.96c-.54-.67-1.07-1.36-1.59-2.06-.52-.7-1.02-1.42-1.68-2.35-.66-.93-1.47-2.07-1.55-2.65-.07-.58.59-.59.66-.85s-.46-.75-.54-1.29c-.08-.53.29-1.1,1.16-1.4.87-.29,2.25-.31,2.9-.82.65-.52.59-1.54.24-2.7-.35-1.15-.97-2.44-1.51-2.97s-1.01-.32-1.86-.81c-.85-.49-2.08-1.69-3.21-3.1-1.13-1.41-2.16-3.04-2.62-4-.46-.96-.35-1.26-.6-2.08s-.84-2.16-1.74-3.66-2.09-3.18-2.92-4.55c-.83-1.37-1.29-2.43-1.73-3.5s-.87-2.15-1.41-2.96-1.2-1.36-1.93-2.57c-.74-1.21-1.55-3.09-2.31-4.98-.76-1.89-1.47-3.8-1.9-5.6-.43-1.8-.58-3.48-.46-4.79s.51-2.23.73-3.35c.22-1.12.28-2.42.36-3.73.08-1.31.19-2.62.31-4.31s.26-3.74.57-5.32c.31-1.58.78-2.67,1-3.65.22-.98.18-1.85-.07-2-.25-.15-.7.4-1.06,1.29-.36.88-.61,2.09-.84,3.29s-.45,2.41-.74,4.03c-.29,1.62-.67,3.65-.94,3.85-.27.19-.45-1.45-.4-2.51.05-1.06.33-1.52.45-2.4.12-.88.08-2.17.27-2.97.19-.81.6-1.13.85-1.73.25-.6.34-1.49.79-2.83.45-1.34,1.26-3.15,1.74-4.89.48-1.73.64-3.4,1.03-4.87.39-1.47,1.03-2.76,1.69-4.04.66-1.28,1.35-2.55,2.39-3.81s2.44-2.53,3.7-3.38c1.26-.85,2.39-1.29,3.54-1.96,1.15-.67,2.32-1.56,3.07-1.82s1.09.12,1.58-.6,1.16-2.55,1.94-3.88c.78-1.33,1.66-2.17,2.56-2.99.9-.83,1.82-1.64,3.09-2.78s2.91-2.58,3.79-3.64.99-1.74,1.44-2.55,1.24-1.75,1.86-2.74c.63-.99,1.1-2.02,1.67-2.92.57-.9,1.24-1.67,1.39-2.16.16-.49-.2-.69-.39-1.23-.19-.54-.2-1.42.14-1.81.34-.39,1.04-.3,1.21-.57.18-.27-.17-.9-.49-1.14-.33-.24-.63-.08-1.06-.66-.43-.58-.99-1.91-.99-3.39,0-1.48.55-3.13.72-3.39.17-.26-.03.87-.03,1.81,0,.94.23,1.69.59,2.17.36.48.85.7,1.13.57s.35-.62,1.04-1.33c.69-.71,2-1.65,3.2-2.25,1.19-.61,2.27-.89,3.02-.78.76.11,1.2.6,1.3,1.24.09.64-.17,1.42-.07,1.86.1.44.56.55.99.21.43-.34.84-1.14,1.53-1.71.69-.57,1.66-.92,2.08-.73.43.19.31.92-.03,1.49-.34.57-.89.98-.52,1.01.38.04,1.69-.29,2.66-.02s1.6,1.14,1.92,2.03c.31.89.31,1.78-.05,2.52s-1.07,1.29-1.81,2.14-1.51,1.99-1.88,2.67-.35.9-.8,1.63c-.45.73-1.36,1.97-1.42,3.25-.06,1.28.72,2.6.86,3.52s-.38,1.45-.51,1.96c-.13.5.14.98.07,2.12-.07,1.14-.47,2.96-.84,3.99-.37,1.03-.71,1.27-.33,1.88.38.61,1.48,1.59,1.92,2.35.44.76.22,1.29.36,2.09s.64,1.84,1.03,2.25c.39.41.66.17.94.41s.59.96.99,1.17c.4.21.89-.1,1.24-.61.35-.5.54-1.2,1.12-1.79.58-.59,1.54-1.08,2.01-1.06.47.02.45.53.19,1.3s-.75,1.78-1,2.28q-.25.51-.21.64c.04.14.11.41-.13,1.11s-.8,1.81-.42,1.91c.38.11,1.68-.79,2.51-.83.83-.04,1.19.79.99,1.66-.19.87-.94,1.79-1.77,2.08s-1.75-.06-2.68.03c-.93.09-1.86.63-2.68.85-.82.22-1.54.11-2.88.3-1.34.19-3.31.67-4.73,1.25-1.42.58-2.28,1.26-2.62,1.79-.34.53-.15.9-.3,1.53-.15.63-.64,1.52-.6,2.35.04.84.6,1.62,1.05,2.76.45,1.15.79,2.65,1.26,3.71.47,1.06,1.07,1.67,1.02,2.76-.05,1.09-.75,2.67-1.04,3.83-.29,1.16-.17,1.92.27,2.09.44.18,1.19-.22,1.71-1.04s.81-2.07,1.65-2.86c.84-.79,2.23-1.12,3.02-2.01.79-.88.98-2.31,1.37-3.19.39-.88.98-1.2,1.58-2.02.59-.82,1.18-2.13,1.96-2.52.78-.4,1.74.12,2.32.87.58.75.79,1.72,1.1,2.34.31.62.72.87.7,1.57-.02.69-.46,1.83-.55,2.69s.17,1.46.93,1.36c.77-.1,2.04-.88,2.79-.2.75.68.98,2.83.98,4.05s-.23,1.53.21,2.36c.44.83,1.54,2.2,2.2,3.64.66,1.44.88,2.96.11,4.03s-2.53,1.71-4.48,1.62-4.11-.87-6.33-.76c-2.22.11-4.5,1.13-4.63,1.41s1.88-.19,2.99.5,1.3,2.51,2.24,3.81c.94,1.3,2.62,2.08,2.22,2.72s-2.87,1.14-4.29.93c-1.42-.21-1.79-1.11-2.65-1.55-.86-.43-2.22-.4-3.07.15-.85.55-1.2,1.61-1.95,1.96-.75.35-1.91-.01-3.35.3-1.44.31-3.16,1.28-4.26,2.33-1.1,1.05-1.59,2.18-2.53,2.78-.94.61-2.34.69-3.9,1.03s-3.27.95-4.2,2.29c-.93,1.34-1.08,3.43-1.51,4.66s-1.15,1.62-1.54,1.13-.47-1.87-.52-3.25c-.05-1.39-.08-2.78-.52-3.99-.44-1.21-1.29-2.23-2.28-3.2s-2.1-1.91-2.74-2.13c-.64-.23-.79.26-1.17.02s-.97-1.19-1.75-2.16c-.78-.97-1.75-1.95-2.85-2.53-1.1-.57-2.34-.74-3.53,0-1.19.74-2.35,2.4-2.94,4.27-.59,1.87-.63,3.97-.47,5.42.16,1.46.52,2.28,1.39,3.16.87.89,2.25,1.84,3.15,2.07.91.24,1.34-.23,2.17-.01.83.22,2.06,1.14,2.09,2.33.03,1.19-1.15,2.65-1.88,3.39-.73.74-1.02.77-.74,1.2.28.42,1.13,1.24,1.99,2.04.86.81,1.75,1.6,2.39,2.36.64.76,1.04,1.48.93,2.37-.11.9-.72,1.98-.61,3.37s.94,3.09,1.78,4.1,1.7,1.32,2.71,2.06c1.01.74,2.18,1.91,3.13,2.35.95.43,1.69.13,2.99.15,1.3.02,3.17.37,4.14.85.97.49,1.05,1.12,1.72,1.66.67.54,1.93.98,2.7,1.45s1.07.95,2.02,1.52c.95.57,2.55,1.23,4.17,1.86,1.62.63,3.27,1.22,3.94,1.61.67.39.38.58,1.07,1.31s2.38,2,3.73,3.13c1.35,1.13,2.37,2.13,3.46,2.82,1.09.69,2.26,1.08,3.44,1.45,1.18.37,2.36.72,3.38,1.17,1.02.45,1.89,1.01,2.7,1.85.81.83,1.57,1.94,1.82,2.63.25.7,0,.99.38,1.23s1.38.43,2.63.76c1.25.33,2.73.8,4.22,1.23,1.49.43,2.99.83,4.72,1.12,1.74.29,3.71.47,5.49.79s3.36.78,4.72,1.06c1.36.28,2.49.37,3.08.8.59.44.63,1.22.1,1.88-.52.66-1.61,1.19-2.71,1.68-1.09.49-2.19.93-2.85,1.37-.66.44-.89.87-1.12,1.25-.23.39-.46.73-.87.98-.41.25-1,.41-1.6.55-.59.14-1.18.26-2.07.31-.88.05-2.05.04-3.23,0s-2.34-.1-3.42-.14c-1.08-.04-2.07-.07-2.61-.05-.54.02-.63.07-.86.08-.24,0-.62-.05-.81-.07q-.19-.02-1.04-.17c-.85-.15-2.55-.45-4.25-.79-1.69-.34-3.38-.73-5.05-1.16-1.67-.43-3.33-.91-4.98-1.43-1.65-.52-3.28-1.08-4.9-1.68s-3.22-1.25-4.81-1.94c-1.58-.69-3.15-1.42-4.14-1.88s-1.39-.67-1.67-.83c-.28-.16-.45-.28-.6-.43"/>
    <path class="cls-4" d="m72,60.91c.07.31.4.35.28.65-.12.31-.68.89-.6.98.08.09.8-.32,1.15-.26.35.06.34.57-.05,1.14-.39.57-1.15,1.19-1.61,1.91s-.62,1.54-1.07,2.04-1.2.69-1.62.43-.54-.96-1.02-1.84-1.34-1.95-1.5-2.99c-.16-1.04.37-2.04.87-2.18.5-.14.96.57,1.1.47s-.04-1.03.11-1.42.64-.27.88-.48c.24-.21.25-.77.59-1.04s1.01-.25,1.53-.01c.52.23.89.68.98,1.19.09.52-.1,1.11-.04,1.42"/>
    <path class="cls-4" d="m81.7,72.15c-.15-.33.1-.86.37-.81.27.06.56.71.44.98-.12.27-.67.15-.81-.18"/>
    <path class="cls-4" d="m80.76,70.58c.15.53-.26,1.43-.16,1.87.11.43.74.4,1.41,1.31.67.91,1.37,2.77,1.71,4.12.34,1.35.32,2.18.09,2.64-.24.46-.69.55-.44,1.36.25.81,1.19,2.35,1.25,3.54.06,1.19-.77,2.02-1.33,1.95-.56-.07-.85-1.05-1.22-1.43s-.84-.14-.92.45c-.08.59.23,1.55.23,2.49,0,.95-.3,1.89-.77,1.88-.46,0-1.09-.95-1.31-.81s-.04,1.37-.23,1.73c-.19.36-.74-.14-1.39-1.26-.65-1.12-1.39-2.87-2.08-3.89-.69-1.02-1.32-1.31-1.48-1.73-.16-.42.15-.96.71-1.03.56-.07,1.37.34,2.16.16.8-.18,1.58-.94,2.02-1.56s.55-1.07.42-1.69c-.13-.62-.49-1.39-.62-2.19-.14-.8-.05-1.62-.25-2.06s-.71-.51-1.34-1.13c-.64-.62-1.4-1.79-1.5-2.84-.1-1.04.48-1.96,1.13-2.57s1.4-.93,1.8-.91c.4.02.45.37.84.62.39.26,1.11.43,1.27.97"/>
    <path class="cls-4" d="m76.32,65.46c-.14.45-.61.96-1.24,1.32-.62.36-1.39.57-1.67.19-.27-.38-.05-1.33.19-1.71.24-.38.51-.17.92-.24s.96-.42,1.34-.41c.38.01.59.4.45.84"/>
    <path class="cls-4" d="m99.57,28.09c.13.12-.22.32-.53.3-.31-.02-.58-.27-.4-.37.18-.1.8-.05.93.07"/>
    <path class="cls-4" d="m75.32,67.71c-.1-.2.24-.59.75-.91.51-.32,1.2-.56,1.67-.42.47.15.74.69.5,1.01s-.99.43-1.63.48c-.64.05-1.19.04-1.29-.16"/>
    <path class="cls-4" d="m68.23,56.47c.07-.46.54-1.04,1.29-1.3.75-.26,1.77-.2,2.44-.27.67-.07,1-.29,1.21.11s.34,1.4.24,2.1c-.09.71-.4,1.12-.88,1.15-.48.03-1.13-.32-1.77-.49-.65-.17-1.29-.17-1.78-.33-.49-.17-.83-.51-.76-.97"/>
    <path class="cls-4" d="m95.84,30.14c.33.04.87.31.8.4s-.73,0-1-.13c-.27-.13-.14-.32.2-.28"/>
    <path class="cls-4" d="m78.83,64.54c.1-.18.59-.22.74-.06s-.05.53-.29.55c-.25.02-.54-.3-.45-.49"/>
    <path class="cls-4" d="m98.4,29.93c.44-.21,1.25-.31,1.75-.09.5.22.69.78.5,1.08-.18.3-.73.36-1.27.29-.54-.07-1.06-.26-1.29-.51-.22-.25-.14-.56.3-.77"/>
    <path class="cls-4" d="m78.52,63.43c-.49.14-.66-.18-.49-.63.17-.44.68-1.01,1.17-1.15.49-.14.94.16.77.6s-.96,1.04-1.45,1.17"/>
    <path class="cls-4" d="m77.81,60.41c-.26.26-.77.47-1.34.29s-1.19-.77-1.3-1.12c-.1-.35.31-.46.42-.89.11-.43-.09-1.17.19-1.51s1.04-.3,1.29.19c.25.5-.02,1.44.06,1.88.08.43.5.35.72.47.21.12.22.43-.03.7"/>
    <path class="cls-4" d="m132.34,51.27c-.16.46-.53.74-1.35.67s-2.08-.51-3.1-.89c-1.01-.38-1.78-.72-2.54-1.23-.76-.51-1.52-1.18-2.21-1.89s-1.29-1.45-1.41-1.86c-.12-.4.26-.46.83-.13s1.33,1.07,2.02,1.63,1.29.95,2.15,1.39c.86.44,1.98.92,2.97,1.03.99.11,1.84-.16,2.29.02.45.18.5.81.34,1.27"/>
    <path class="cls-4" d="m82.04,64.12c-.1.53-.39,1.19-.11,1.85.28.66,1.13,1.33,1.48,1.88.35.56.21,1.01-.07,1.25-.28.24-.7.27-1.26,0-.56-.27-1.26-.84-1.72-1.42-.46-.59-.69-1.19-.54-1.84.15-.64.69-1.33.93-1.9s.2-1.03.35-1.2c.15-.17.49-.06.7.19.22.25.31.64.22,1.17"/>
    <path class="cls-4" d="m78.07,56.19c-.49-.07-1.04-.34-1.32-.66-.29-.31-.31-.67.1-.74s1.26.16,1.76.41.65.54.51.74-.56.33-1.05.25"/>
    <path class="cls-4" d="m118.79,60.08c-.21.12-.7.04-.75-.12s.37-.41.62-.37c.25.04.33.37.13.49"/>
    <path class="cls-4" d="m82.42,59.28c.11-.37.47-.85.55-.72.08.13-.14.87-.32,1.11s-.33-.02-.23-.39"/>
    <path class="cls-4" d="m112.81,37.99c.01.27-.62.57-.95.46-.33-.11-.36-.65-.04-.8.32-.15.98.08.99.34"/>
    <path class="cls-4" d="m116.42,59.42c.3.14.35.48.73,1.01s1.1,1.26.77,1.52c-.32.26-1.68.05-2.56-.17s-1.27-.45-1.37-.86c-.09-.41.12-1.01.34-1.3.22-.29.46-.28.85-.29.39-.01.93-.05,1.23.09"/>
    <path class="cls-4" d="m116.04,57.82c.09.32-.21.78-.62,1s-.91.19-1.12-.08c-.21-.26-.11-.76.06-1.07.16-.31.4-.43.75-.4.36.03.83.22.92.54"/>
    <path class="cls-4" d="m116.84,51.71c0,.17-.32.17-.47,0-.15-.16-.14-.5.02-.5.16,0,.46.33.45.49"/>
    <path class="cls-4" d="m112.89,39.26c.15.3.24.79.16,1.23-.08.44-.32.84-.78,1.03-.46.19-1.13.18-1.34-.17-.21-.36.05-1.06.35-1.55s.65-.76.94-.85c.29-.09.52.01.67.31"/>
    <path class="cls-4" d="m86.53,62.39c-.36.19-1.04.37-1.51.3-.47-.07-.73-.4-.63-.75.1-.35.55-.74.85-1.19s.45-.97.83-1.33c.37-.36.97-.57,1.34-.61.37-.04.51.08.52.46,0,.37-.13.99-.31,1.46-.18.46-.4.77-.53,1.02-.13.25-.18.46-.54.65"/>
    <path class="cls-4" d="m94.94,60.62c.13.27.13.58-.56,1.19s-2.08,1.53-3.1,1.96c-1.02.42-1.66.35-2.05.54-.39.19-.52.63-1.25,1.2-.73.57-2.05,1.27-3.09,1.19-1.03-.08-1.78-.95-1.68-1.68.09-.73,1.02-1.34,1.8-1.73.77-.39,1.39-.58,2.04-1.34.65-.76,1.32-2.11,1.98-2.77.66-.66,1.29-.63,1.6-.5.31.13.31.37.56.4s.77-.14,1.34-.04c.56.1,1.17.47,1.61.77.43.3.68.53.81.8"/>
    <path class="cls-3" d="m103.8,61.11c.24.27.18.5-.19.72-.37.22-1.05.43-1.09.59-.04.16.56.28.98.49.42.21.66.5.99.36.34-.14.77-.71,1.2-.91.43-.19.85,0,.97.47.12.47-.07,1.23-.12,2-.05.76.04,1.53.33,2.35.29.82.79,1.68.87,2.27.08.59-.25.9-.24,1.16,0,.26.34.47.71,1.03.37.57.79,1.49.76,2.52s-.5,2.15-.36,3.19c.14,1.03.88,1.97,1.11,2.53.23.56-.07.76-.47.63-.4-.12-.9-.56-1.15-.43-.25.13-.24.83.15,1.11s1.16.15,1.13.67c-.03.52-.86,1.68-1.68,2.42-.82.75-1.63,1.07-2.26,1.68-.63.6-1.06,1.48-1.92,2.29-.86.82-2.13,1.57-2.95,2.52-.81.94-1.16,2.08-1.56,2.87-.4.79-.83,1.24-1.17,2.2-.33.96-.56,2.44-1.34,2.9-.78.46-2.12-.1-3.12-1.23-.99-1.13-1.64-2.84-2.03-4.75-.39-1.91-.52-4.02-.23-5.45.29-1.43.99-2.19,1.47-2.9.48-.7.72-1.35.56-1.55-.17-.19-.75.07-1.02-.24s-.25-1.2.03-1.52.8-.07.72-.33-.74-1.03-.91-1.64c-.17-.62.15-1.08.26-2.18.1-1.1-.02-2.83-.2-3.9-.18-1.07-.43-1.49-1.01-1.88s-1.5-.73-2-1.21c-.5-.49-.57-1.12-.29-1.4.27-.28.89-.21,1-.35.11-.14-.28-.49-.47-.91s-.16-.91.34-1.22,1.49-.41,1.97-.69c.48-.28.45-.73.83-1.15.38-.42,1.15-.81,1.57-1.13.42-.31.49-.55.77-.71.28-.16.77-.24,1.16-.17.38.07.66.31.93.3.27,0,.54-.26.88-.15.34.11.74.57.89.54.14-.03.02-.56.09-.97.07-.41.34-.71.75-.97.41-.26.95-.49,1.48-.61s1.05-.12,1.58.03,1.07.45,1.31.72"/>
  </g>
  <g>
    <path class="cls-1" d="m70.88,114.35c.37,0,.7-.03.99-.1s.56-.15.82-.26v-1.77h-1.15c-.17,0-.3-.05-.4-.14-.1-.09-.14-.21-.14-.34v-1.49h4.14v4.92c-.3.22-.61.41-.93.56-.32.16-.67.29-1.03.39-.37.1-.75.18-1.17.22-.41.05-.86.07-1.33.07-.85,0-1.64-.15-2.37-.45-.73-.3-1.35-.72-1.88-1.25-.53-.53-.95-1.16-1.25-1.89-.3-.73-.45-1.52-.45-2.37s.14-1.67.43-2.4.7-1.36,1.24-1.88c.54-.53,1.18-.94,1.94-1.23.76-.29,1.61-.44,2.55-.44.48,0,.94.04,1.37.12s.82.19,1.18.33c.36.14.69.3.99.5.3.19.57.4.8.62l-.78,1.19c-.08.11-.16.2-.27.26-.1.06-.22.1-.34.1-.16,0-.33-.05-.5-.16-.21-.13-.41-.24-.6-.33s-.38-.17-.58-.23-.41-.1-.62-.13c-.22-.03-.46-.04-.74-.04-.51,0-.96.09-1.37.27-.41.18-.75.43-1.04.76-.29.33-.51.72-.66,1.17-.16.46-.23.96-.23,1.52,0,.62.08,1.17.26,1.65s.41.89.71,1.22c.3.33.66.58,1.07.76s.87.26,1.36.26Z"/>
    <path class="cls-1" d="m77.4,116.31v-8.3h1.47c.12,0,.22.01.31.03.08.02.15.05.21.1s.1.11.13.18.05.17.08.27l.14.78c.3-.47.65-.84,1.02-1.11.38-.27.79-.41,1.24-.41.38,0,.68.09.91.27l-.32,1.82c-.02.11-.06.19-.13.24-.06.05-.15.07-.26.07-.09,0-.2-.01-.32-.04-.12-.02-.28-.04-.46-.04-.65,0-1.16.35-1.54,1.04v5.09h-2.48Z"/>
    <path class="cls-1" d="m87.98,107.88c.55,0,1.05.08,1.51.26s.85.42,1.18.74.58.72.77,1.2c.18.47.28,1.01.28,1.6,0,.19,0,.34-.02.46-.02.12-.04.21-.09.28-.04.07-.1.12-.17.14-.07.03-.16.04-.28.04h-4.78c.08.69.29,1.2.63,1.51.34.31.78.47,1.32.47.29,0,.54-.03.74-.1s.39-.15.56-.23c.16-.09.31-.16.45-.23.14-.07.28-.1.43-.1.2,0,.35.07.45.22l.72.89c-.26.29-.53.53-.83.72s-.6.33-.91.43c-.31.1-.62.18-.94.22-.31.04-.61.06-.89.06-.58,0-1.13-.09-1.64-.28-.51-.19-.96-.47-1.34-.84-.38-.37-.68-.84-.9-1.39-.22-.55-.33-1.2-.33-1.94,0-.55.09-1.08.28-1.58.19-.5.46-.93.82-1.3.35-.37.78-.67,1.29-.89.5-.22,1.07-.33,1.71-.33Zm.05,1.71c-.47,0-.85.13-1.11.4-.27.27-.44.66-.53,1.16h3.1c0-.2-.03-.39-.08-.58-.05-.19-.13-.35-.25-.5-.12-.15-.27-.27-.45-.36-.19-.09-.41-.14-.68-.14Z"/>
    <path class="cls-1" d="m97.27,107.88c.55,0,1.05.08,1.51.26s.85.42,1.18.74c.33.33.58.72.77,1.2.18.47.28,1.01.28,1.6,0,.19,0,.34-.02.46s-.05.21-.09.28c-.04.07-.1.12-.17.14-.07.03-.16.04-.28.04h-4.78c.08.69.29,1.2.63,1.51.34.31.78.47,1.32.47.29,0,.54-.03.74-.1s.39-.15.56-.23c.16-.09.31-.16.45-.23s.28-.1.43-.1c.2,0,.35.07.45.22l.72.89c-.26.29-.53.53-.83.72-.3.18-.6.33-.91.43-.31.1-.62.18-.94.22-.31.04-.61.06-.89.06-.58,0-1.13-.09-1.64-.28-.51-.19-.95-.47-1.34-.84-.38-.37-.68-.84-.9-1.39-.22-.55-.33-1.2-.33-1.94,0-.55.09-1.08.28-1.58.19-.5.46-.93.82-1.3.35-.37.78-.67,1.29-.89.5-.22,1.07-.33,1.71-.33Zm.05,1.71c-.47,0-.84.13-1.11.4-.27.27-.44.66-.53,1.16h3.1c0-.2-.03-.39-.08-.58-.05-.19-.13-.35-.25-.5-.11-.15-.26-.27-.45-.36-.19-.09-.41-.14-.68-.14Z"/>
    <path class="cls-1" d="m102.98,116.31v-8.3h1.54c.15,0,.28.03.39.1.1.07.18.17.22.31l.14.48c.16-.15.33-.29.5-.42s.35-.24.55-.32c.2-.09.41-.16.63-.21.23-.05.47-.08.74-.08.45,0,.85.08,1.2.24s.64.38.88.66c.24.28.42.61.54,1,.12.39.18.81.18,1.26v5.27h-2.48v-5.27c0-.41-.09-.72-.28-.95-.19-.23-.46-.34-.82-.34-.27,0-.53.06-.77.18-.24.12-.47.27-.69.47v5.91h-2.48Z"/>
    <path class="cls-1" d="m115.34,104.33v11.98h-2.48v-11.98h2.48Z"/>
    <path class="cls-1" d="m123.48,116.31c-.24,0-.41-.03-.53-.1s-.22-.2-.3-.4l-.18-.46c-.21.18-.41.33-.6.46-.19.13-.39.25-.6.34s-.42.16-.66.21c-.23.05-.49.07-.77.07-.38,0-.72-.05-1.03-.15-.31-.1-.57-.24-.79-.44-.22-.19-.38-.43-.5-.72s-.18-.62-.18-.99c0-.29.07-.6.22-.91.15-.31.41-.59.78-.85.37-.25.86-.47,1.49-.64s1.41-.26,2.36-.26v-.36c0-.49-.1-.84-.3-1.06-.2-.22-.48-.33-.85-.33-.29,0-.53.03-.72.1s-.35.14-.5.22-.29.15-.43.22c-.14.06-.3.1-.5.1-.17,0-.32-.04-.44-.12-.12-.08-.21-.19-.28-.31l-.45-.78c.5-.44,1.06-.77,1.67-.99.61-.22,1.27-.32,1.96-.32.5,0,.95.08,1.36.24.4.16.74.39,1.02.68.28.29.5.64.64,1.04.15.4.22.84.22,1.31v5.18h-1.14Zm-2.85-1.51c.32,0,.6-.06.84-.17.24-.11.48-.29.73-.54v-1.14c-.5,0-.9.03-1.22.1-.32.06-.57.15-.76.24-.19.1-.32.21-.39.33-.07.12-.11.26-.11.4,0,.29.08.49.23.6s.38.17.68.17Z"/>
    <path class="cls-1" d="m126.93,116.31v-8.3h1.54c.15,0,.28.03.39.1.1.07.18.17.22.31l.14.48c.16-.15.33-.29.5-.42s.35-.24.55-.32c.2-.09.41-.16.63-.21.23-.05.47-.08.74-.08.45,0,.85.08,1.2.24s.64.38.88.66c.24.28.42.61.54,1,.12.39.18.81.18,1.26v5.27h-2.48v-5.27c0-.41-.09-.72-.28-.95-.19-.23-.46-.34-.82-.34-.27,0-.53.06-.77.18-.24.12-.47.27-.69.47v5.91h-2.48Z"/>
    <path class="cls-1" d="m142.68,116.31c-.16,0-.28-.03-.39-.1-.1-.07-.18-.17-.22-.31l-.19-.63c-.17.18-.34.34-.52.48-.18.14-.38.27-.59.37-.21.1-.44.18-.68.24-.24.06-.5.08-.79.08-.43,0-.83-.1-1.2-.29-.37-.19-.69-.47-.95-.83-.27-.36-.48-.81-.63-1.33-.15-.52-.23-1.12-.23-1.8,0-.62.09-1.19.26-1.72.17-.53.41-.99.72-1.38.31-.39.69-.69,1.12-.91s.92-.33,1.45-.33c.43,0,.79.06,1.08.19.3.13.56.29.8.49v-4.2h2.48v11.98h-1.54Zm-2.51-1.78c.18,0,.35-.02.49-.05s.28-.08.4-.15c.12-.06.24-.14.35-.24.11-.1.22-.21.32-.34v-3.52c-.19-.21-.4-.35-.61-.44-.22-.08-.44-.12-.68-.12s-.44.05-.63.14c-.19.09-.36.24-.5.44-.14.2-.25.46-.33.78-.08.32-.12.71-.12,1.16s.03.81.1,1.1c.06.3.15.54.27.72.11.18.25.32.41.4.16.08.34.12.54.12Z"/>
  </g>
</svg>